<svg width="287" height="471" viewBox="0 0 287 471" fill="none" xmlns="http://www.w3.org/2000/svg">
<g opacity="0.3">
<line y1="-0.5" x2="30.9614" y2="-0.5" transform="matrix(0.707107 0.707107 0.707107 -0.707107 187.221 322.627)" stroke="#3DAFE9"/>
<path d="M35.2303 141.638C36.2717 142.68 36.2717 144.368 35.2303 145.41C34.1889 146.451 32.5005 146.451 31.4591 145.41C30.4177 144.368 30.4177 142.68 31.4591 141.638C32.5005 140.597 34.1889 140.597 35.2303 141.638ZM-28.6453 205.514C-27.6039 206.555 -27.6039 208.244 -28.6453 209.285C-29.6866 210.327 -31.3751 210.327 -32.4165 209.285C-33.4579 208.244 -33.4579 206.555 -32.4165 205.514C-31.3751 204.473 -29.6866 204.473 -28.6453 205.514ZM33.6983 143.877L-30.1773 207.753L-30.8844 207.046L32.9912 143.17L33.6983 143.877Z" fill="#3DAFE9"/>
<path d="M48.4084 69.2184C49.1448 67.943 50.7757 67.506 52.0511 68.2424C53.3266 68.9787 53.7636 70.6096 53.0272 71.8851C52.2908 73.1605 50.6599 73.5975 49.3844 72.8612C48.109 72.1248 47.672 70.4939 48.4084 69.2184ZM126.64 114.385C127.376 113.11 129.007 112.673 130.282 113.409C131.558 114.146 131.995 115.777 131.258 117.052C130.522 118.327 128.891 118.764 127.616 118.028C126.34 117.292 125.903 115.661 126.64 114.385ZM50.9678 70.1187L129.199 115.286L128.699 116.152L50.4678 70.9848L50.9678 70.1187Z" fill="#0080FF"/>
<path d="M122.062 65.4872C122.83 66.7433 122.435 68.3849 121.179 69.1538C119.923 69.9227 118.282 69.5277 117.513 68.2716C116.744 67.0155 117.139 65.3739 118.395 64.605C119.651 63.8361 121.293 64.2311 122.062 65.4872ZM73.0136 95.51C73.7825 96.7662 73.3875 98.4077 72.1314 99.1766C70.8752 99.9455 69.2336 99.5505 68.4648 98.2944C67.6959 97.0383 68.0909 95.3967 69.347 94.6278C70.6031 93.8589 72.2447 94.2539 73.0136 95.51ZM120.048 67.3058L71.0002 97.3287L70.4781 96.4758L119.526 66.4529L120.048 67.3058Z" fill="#0080FF"/>
<path d="M123.933 101.841C122.955 102.942 121.27 103.043 120.168 102.065C119.067 101.088 118.966 99.4023 119.944 98.3008C120.922 97.1992 122.607 97.0987 123.709 98.0763C124.81 99.0539 124.911 100.739 123.933 101.841ZM101.034 81.5187C100.056 82.6203 98.3708 82.7208 97.2692 81.7432C96.1677 80.7656 96.0672 79.0802 97.0448 77.9786C98.0223 76.8771 99.7078 76.7766 100.809 77.7542C101.911 78.7317 102.011 80.4172 101.034 81.5187ZM121.607 100.445L98.7074 80.1226L99.3712 79.3747L122.27 99.6968L121.607 100.445Z" fill="#0080FF"/>
<path d="M247.853 282.522C248.894 283.563 248.894 285.251 247.853 286.293C246.812 287.334 245.123 287.334 244.082 286.293C243.04 285.251 243.04 283.563 244.082 282.522C245.123 281.48 246.812 281.48 247.853 282.522ZM115.8 348.375C116.841 349.416 116.841 351.105 115.8 352.146C114.758 353.187 113.07 353.187 112.028 352.146C110.987 351.105 110.987 349.416 112.028 348.375C113.07 347.333 114.758 347.333 115.8 348.375ZM239.8 372.643L240.298 372.677L240.277 372.987L239.99 373.105L239.8 372.643ZM183.423 395.876L183.614 396.339L183.37 396.439L183.149 396.294L183.423 395.876ZM246.466 284.442L240.298 372.677L239.301 372.608L245.469 284.372L246.466 284.442ZM239.99 373.105L183.614 396.339L183.233 395.414L239.609 372.18L239.99 373.105ZM183.149 396.294L113.64 350.678L114.188 349.842L183.698 395.458L183.149 396.294Z" fill="#C78FF7" fill-opacity="0.95"/>
<circle cx="2.97221" cy="2.97221" r="2.97221" transform="matrix(-1 0 0 1 242.862 369.215)" fill="#C78FF7" fill-opacity="0.95"/>
<path d="M225.517 276.177C226.344 277.396 226.027 279.054 224.808 279.881C223.59 280.708 221.931 280.391 221.104 279.172C220.277 277.954 220.594 276.296 221.813 275.468C223.031 274.641 224.69 274.959 225.517 276.177ZM167.367 315.648C168.195 316.867 167.877 318.525 166.659 319.352C165.44 320.179 163.782 319.862 162.955 318.644C162.128 317.425 162.445 315.767 163.663 314.939C164.882 314.112 166.54 314.43 167.367 315.648ZM223.591 278.089L165.442 317.56L164.88 316.732L223.03 277.261L223.591 278.089Z" fill="#3DAFE9"/>
<circle cx="2.97221" cy="2.97221" r="2.97221" transform="matrix(-1 0 0 1 208.587 286.562)" fill="#3DAFE9"/>
<circle cx="3.43756" cy="3.43756" r="3.43756" transform="matrix(-1 0 0 1 190.171 319.189)" fill="#3DAFE9"/>
<circle cx="3.43756" cy="3.43756" r="3.43756" transform="matrix(-1 0 0 1 212.025 341.083)" fill="#3DAFE9"/>
<circle cx="5.94441" cy="5.94441" r="5.94441" transform="matrix(0.0948538 0.995491 0.995491 -0.0948538 147.517 390.365)" fill="#5C49EA"/>
<circle cx="5.94441" cy="5.94441" r="5.94441" transform="matrix(0.0948538 0.995491 0.995491 -0.0948538 181.612 349.085)" fill="#5C49EA"/>
<line y1="-0.5" x2="53.54" y2="-0.5" transform="matrix(0.636847 -0.77099 -0.77099 -0.636847 153.997 395.718)" stroke="#5C49EA"/>
<path d="M163.168 204.733C164.641 204.733 165.835 205.927 165.835 207.399C165.835 208.872 164.641 210.066 163.168 210.066C161.695 210.066 160.501 208.872 160.501 207.399C160.501 205.927 161.695 204.733 163.168 204.733ZM163.168 253.841C164.641 253.841 165.835 255.035 165.835 256.508C165.835 257.981 164.641 259.175 163.168 259.175C161.695 259.175 160.501 257.981 160.501 256.508C160.501 255.035 161.695 253.841 163.168 253.841ZM187.218 228.289L187.546 227.911L187.92 228.236L187.599 228.613L187.218 228.289ZM163.496 207.022L187.546 227.911L186.891 228.666L162.84 207.777L163.496 207.022ZM187.599 228.613L163.549 256.832L162.787 256.184L186.838 227.965L187.599 228.613Z" fill="#3DAFE9"/>
<path d="M-50.3182 160.139C-51.3596 161.18 -51.3596 162.869 -50.3182 163.91C-49.2768 164.951 -47.5884 164.951 -46.547 163.91C-45.5056 162.869 -45.5056 161.18 -46.547 160.139C-47.5884 159.097 -49.2768 159.097 -50.3182 160.139ZM81.0328 291.49C79.9914 292.531 79.9914 294.22 81.0328 295.261C82.0742 296.302 83.7626 296.302 84.804 295.261C85.8454 294.22 85.8454 292.531 84.804 291.49C83.7626 290.448 82.0742 290.448 81.0328 291.49ZM-48.7862 162.378L82.5649 293.729L83.272 293.022L-48.0791 161.671L-48.7862 162.378Z" fill="#3DAFE9"/>
<path d="M33.8 281.788C34.6383 280.577 34.3362 278.916 33.1252 278.078C31.9143 277.24 30.2531 277.542 29.4149 278.753C28.5766 279.964 28.8787 281.625 30.0896 282.463C31.3005 283.301 32.9617 282.999 33.8 281.788ZM-118.933 176.058C-118.094 174.847 -118.396 173.186 -119.607 172.347C-120.818 171.509 -122.479 171.811 -123.318 173.022C-124.156 174.233 -123.854 175.894 -122.643 176.732C-121.432 177.571 -119.771 177.269 -118.933 176.058ZM31.892 279.859L-120.84 174.129L-121.41 174.951L31.3228 280.682L31.892 279.859Z" fill="#5C49EA"/>
<path d="M-77.1528 328.867C-78.1942 329.908 -78.1942 331.597 -77.1528 332.638C-76.1114 333.68 -74.4229 333.68 -73.3815 332.638C-72.3401 331.597 -72.3401 329.908 -73.3815 328.867C-74.4229 327.825 -76.1114 327.825 -77.1528 328.867ZM54.9006 394.72C53.8592 395.761 53.8592 397.45 54.9006 398.491C55.942 399.533 57.6305 399.533 58.6719 398.491C59.7133 397.45 59.7133 395.761 58.6719 394.72C57.6305 393.679 55.942 393.679 54.9006 394.72ZM-69.0993 418.988L-69.5981 419.023L-69.5765 419.332L-69.2898 419.45L-69.0993 418.988ZM-12.7232 442.222L-12.9137 442.684L-12.6696 442.784L-12.4489 442.64L-12.7232 442.222ZM-75.7659 330.787L-69.5981 419.023L-68.6005 418.953L-74.7684 330.718L-75.7659 330.787ZM-69.2898 419.45L-12.9137 442.684L-12.5327 441.759L-68.9088 418.525L-69.2898 419.45ZM-12.4489 442.64L57.0606 397.024L56.5119 396.188L-12.9975 441.804L-12.4489 442.64Z" fill="#3DAFE9"/>
<circle cx="7.60032" cy="7.60032" r="7.60032" transform="matrix(-1 0 0 1 9.00879 124.919)" fill="#3DAFE9"/>
<path d="M-47.2793 84.3975L21.0353 72.9073L1.1253 132.802" stroke="#3DAFE9" stroke-width="2"/>
<circle cx="8.99783" cy="8.99783" r="8.49783" transform="matrix(-1 0 0 1 59.7148 61.5537)" stroke="#0080FF"/>
</g>
</svg>
