<svg width="501" height="567" viewBox="0 0 501 567" fill="none" xmlns="http://www.w3.org/2000/svg">
<g opacity="0.68" filter="url(#filter0_f_2058_204)">
<g clip-path="url(#clip0_2058_204)">
<path d="M163.615 492.226C164.634 491.637 165.251 490.296 165.251 490.296L249.962 441.377C249.962 441.377 249.346 442.717 248.327 443.307L163.615 492.226Z" fill="#42294D"/>
<path d="M214.281 527.341C217.23 525.653 217.23 521.873 217.23 521.873L301.942 472.954C301.942 472.954 301.942 476.706 298.993 478.422L214.281 527.341Z" fill="#42294D"/>
<path d="M280.63 547.258L281.729 540.932L366.441 492.039L365.342 498.338L280.63 547.258Z" fill="#42294D"/>
<path d="M281.729 540.931L210.583 512.732L295.294 463.84L366.441 492.039L281.729 540.931Z" fill="#603060"/>
<path d="M210.582 512.733C210.582 512.733 197.688 512.733 184.391 499.839C171.095 486.946 167.342 474.053 167.342 474.053L252.053 425.133C252.053 425.133 255.806 438.027 269.103 450.92C282.399 463.813 295.294 463.813 295.294 463.813L210.582 512.733Z" fill="#603060"/>
<path d="M167.342 474.079L121.179 402.992L205.891 354.073L252.053 425.16L167.342 474.079Z" fill="#603060"/>
<path d="M280.63 547.258L217.231 521.9C217.231 521.9 217.231 525.653 214.282 527.368C213.129 528.038 211.547 528.36 209.322 528.038C201.414 526.886 201.414 521.069 201.414 521.069C201.414 521.069 176.885 506.085 171.068 498.204L165.251 490.323C164.929 491.02 162.785 494.907 159.836 490.323C156.673 485.364 159.407 474.937 159.407 474.937L118.284 408.675L121.206 402.992L167.342 474.079C167.342 474.079 171.095 486.973 184.391 499.866C197.688 512.759 210.582 512.759 210.582 512.759L281.729 540.958L280.63 547.258Z" fill="#4C2B53"/>
<path d="M303.095 540.932C302.666 542.513 287.305 551.6 281.729 552.029C276.18 552.431 256.53 542.888 255.083 540.932C253.635 538.975 253.233 532.676 253.608 529.781C253.662 529.352 253.957 528.896 254.413 528.387C257.04 525.438 265.27 521.471 265.27 521.471L276.073 515.44C303.631 528.762 302.103 527.047 303.551 528.494C307.089 531.979 303.443 539.511 303.095 540.932Z" fill="#E07743"/>
<path d="M303.524 528.494C303.31 529.111 303.149 529.566 303.068 529.834C302.639 531.443 287.279 540.53 281.703 540.932C276.154 541.361 256.504 531.764 255.029 529.834C254.761 529.486 254.52 528.977 254.359 528.387C256.986 525.438 265.216 521.471 265.216 521.471L276.02 515.44C303.578 528.762 302.05 527.047 303.497 528.494H303.524Z" fill="#F69E44"/>
<path d="M339.258 494.183C339.258 494.183 350.276 499.437 350.678 500.161C351.08 500.885 351.616 506.246 350.678 506.809C349.74 507.345 347.622 508.578 347.622 508.578C347.622 508.578 349.016 510.642 354.002 508.578C358.988 506.514 367.111 501.742 368.88 498.419C370.65 495.095 367.835 489.224 367.835 489.224C367.835 489.224 349.257 477.269 345.906 479.923C342.555 482.577 339.258 494.21 339.258 494.21V494.183Z" fill="#E07743"/>
<path d="M337.274 485.445C337.274 485.445 348.292 490.699 348.694 491.423C349.096 492.146 349.633 497.507 348.694 498.07C347.756 498.633 345.638 499.839 345.638 499.839C345.638 499.839 347.032 501.903 352.018 499.839C357.005 497.775 365.127 493.004 366.897 489.68C368.666 486.356 365.851 480.486 365.851 480.486C365.851 480.486 347.273 468.531 343.923 471.185C340.572 473.838 337.274 485.472 337.274 485.472V485.445Z" fill="#F69E44"/>
<path d="M119.651 398.409C119.651 398.409 113.968 406.316 115.63 409.077C117.292 411.838 128.927 428.618 128.927 428.618C128.927 428.618 134.503 423.525 134.717 423.873C134.932 424.222 151.231 415.993 151.231 415.993C151.231 415.993 138.202 393.396 136.406 392.163C134.61 390.903 119.625 397.283 119.625 398.409H119.651Z" fill="#E07743"/>
<path d="M133.109 392.779C133.109 392.779 118.687 396.398 120.349 399.186C122.011 401.947 138.363 425.937 138.363 425.937C138.363 425.937 143.939 420.844 144.154 421.193C144.368 421.541 160.667 413.312 160.667 413.312C160.667 413.312 147.639 390.715 145.843 389.482C144.046 388.222 133.082 391.68 133.082 392.779H133.109Z" fill="#F69E44"/>
<path d="M181.47 483.22C181.47 483.22 182.086 467.834 175.867 453.279C169.621 438.723 133.458 401.947 133.458 401.947L218.169 353.054C218.169 353.054 254.332 389.858 260.579 404.386C266.825 418.914 266.181 434.327 266.181 434.327L181.47 483.247V483.22Z" fill="#F0D2A5"/>
<path d="M133.458 401.947H125.549L210.261 353.054H218.169L133.458 401.947Z" fill="#F3DBB6"/>
<path d="M197.018 470.192L177.127 483.22C177.127 483.22 184.821 487.241 190.959 494.183C197.098 501.099 203.184 507.934 203.184 507.934L284.169 459.122L263.554 438.509L197.018 470.219V470.192Z" fill="#E8C085"/>
<path d="M181.47 483.22H177.1L125.549 401.947H133.458C133.458 401.947 169.621 438.75 175.867 453.279C182.113 467.834 181.47 483.22 181.47 483.22Z" fill="#ECC995"/>
<path d="M183.346 486.008C183.346 486.008 185.625 463.304 179.379 445.184C173.133 427.037 125.549 391.359 125.549 391.359L210.261 342.439C210.261 342.439 257.844 378.144 264.09 396.264C270.336 414.411 268.058 437.088 268.058 437.088L183.346 486.008Z" fill="#F7E3C6"/>
<path d="M186.241 486.008C186.241 486.008 187.287 459.739 182.086 443.522C176.886 427.305 144.449 383.022 144.449 383.022L229.187 334.13C229.187 334.13 261.624 378.412 266.825 394.629C272.025 410.846 270.98 437.115 270.98 437.115L186.268 486.035L186.241 486.008Z" fill="#FBECD6"/>
<path d="M169.004 386.775C169.004 386.775 185.839 415.242 189.163 444.969C190.504 457.031 189.163 490.243 189.163 490.243L273.875 441.323C273.875 441.323 275.215 408.112 273.875 396.049C270.551 366.323 253.716 337.855 253.716 337.855L169.004 386.775Z" fill="#FFF5E6"/>
<g clip-path="url(#clip1_2058_204)">
<path d="M224.357 402.513C232.111 393.346 240.328 402.913 242.235 392.689C244.141 382.464 246.794 377.752 240.715 377.752C234.635 377.752 234.249 384.492 230.823 377.752C227.396 371.012 225.104 365.871 232.729 366.3C240.328 366.7 247.954 373.468 251.38 367.728C254.806 361.987 254.42 358.503 248.727 359.96C243.008 361.388 239.556 362.587 240.148 358.703C240.741 354.819 240.741 350.135 240.741 350.135C240.741 350.135 238.448 357.703 242.261 358.132C246.073 358.56 253.389 354.248 255.991 358.532C258.619 362.844 257.563 372.669 255.991 373.068C254.42 373.468 243.162 371.212 239.659 371.212C236.155 371.212 235.408 372.84 235.769 374.068C236.129 375.296 256.171 373.24 257.563 376.924C258.979 380.608 257.073 391.061 247.181 398.629C237.289 406.197 232.394 404.798 236.439 406.997C240.483 409.196 242.982 413.566 252.127 411.938C261.246 410.31 270.005 403.541 276.857 411.938C283.71 420.334 264.338 451.635 259.237 453.977C230.848 467.029 198.828 432.786 224.357 402.513Z" fill="#2DA6DA"/>
<path d="M224.434 410.139C224.641 409.91 224.847 409.682 225.027 409.482C225.207 413.566 228.453 415.336 229.715 415.993C232.343 417.421 236.156 421.934 244.219 421.934C248.675 421.934 252.668 420.649 256.79 419.306C259.65 418.364 262.355 417.45 264.441 417.45C265.806 417.45 267.017 417.793 268.357 419.449C270.134 424.475 257.383 447.666 252.591 451.293C229.896 461.488 203.362 435.042 224.409 410.11L224.434 410.139ZM245.12 390.833C245.636 388.548 246.074 386.406 246.125 384.407C246.743 384.435 247.31 384.492 247.851 384.578C247.542 386.12 246.769 388.376 245.12 390.861V390.833Z" fill="white" fill-opacity="0.53"/>
</g>
<path d="M219.053 466.092C202.942 475.393 191.469 494.184 191.469 494.184L276.18 445.264C276.18 445.264 287.654 426.501 303.765 417.199L219.053 466.119V466.092Z" fill="#F0D2A5"/>
<path d="M283.123 538.09L284.168 530.209L368.88 481.29L367.835 489.198L283.123 538.09Z" fill="#E8C085"/>
<path d="M284.169 530.21C284.169 530.21 226.801 491.128 216.614 490.297C212.7 489.975 208.92 491.369 205.757 493.192L290.468 444.272C293.658 442.45 297.438 441.056 301.325 441.377C311.512 442.208 368.88 481.29 368.88 481.29L284.169 530.21Z" fill="#F0D2A5"/>
<path d="M283.123 538.09L202.674 507.747C202.674 507.747 199.886 501.903 197.071 500.268C197.071 500.268 200.637 496.14 205.757 493.192C208.947 491.369 212.727 489.975 216.614 490.297C226.801 491.128 284.169 530.21 284.169 530.21L283.123 538.117V538.09Z" fill="#ECC995"/>
<path d="M207.553 482.04C198.278 487.402 194.364 495.068 194.364 495.068L279.075 446.148C279.075 446.148 282.989 438.482 292.265 433.121L207.553 482.04Z" fill="#ECC995"/>
<path d="M210.234 483.864C202.326 488.421 196.026 497.561 196.026 497.561L280.738 448.642C280.738 448.642 287.064 439.501 294.946 434.944L210.234 483.864Z" fill="#E8C085"/>
<path d="M285.617 523.75C285.617 523.75 230.527 481.96 219.107 481.344C216.105 481.183 213.076 482.228 210.261 483.864L294.973 434.944C297.787 433.309 300.817 432.264 303.819 432.424C315.239 433.041 370.328 474.83 370.328 474.83L285.617 523.75Z" fill="#F7E3C6"/>
<path d="M277.306 495.068C277.306 495.068 248.193 476.143 225.675 476.974C218.169 477.242 212.19 479.36 207.553 482.04L292.264 433.121C296.902 430.441 302.88 428.35 310.386 428.055C332.904 427.224 362.017 446.148 362.017 446.148L277.306 495.068Z" fill="#FBECD6"/>
<path d="M252.563 458.854C252.563 458.854 241.545 458.586 228.651 462.017C225.3 462.902 222.083 464.323 219.027 466.092L303.738 417.172C306.794 415.403 310.011 413.983 313.362 413.098C326.257 409.667 337.274 409.935 337.274 409.935L252.563 458.854Z" fill="#FFF5E6"/>
</g>
<g opacity="0.6">
<g clip-path="url(#clip2_2058_204)">
<path d="M135.421 256.359C136.807 256.368 137.6 256.388 138.849 256.526C140.737 256.216 143.449 255.86 145.813 255.558C148.228 255.334 150.365 255.291 151.252 255.608C151.246 255.787 150.051 256.448 148.831 257.045C148.22 257.349 147.56 257.613 147.035 257.857C146.51 258.102 146.076 258.265 145.848 258.279C144.739 258.49 143.684 258.66 142.674 258.795C141.683 258.977 140.734 259.134 139.789 259.27C138.861 259.416 137.88 259.494 136.997 259.653C136.077 259.804 135.168 259.948 134.259 260.092C130.537 260.681 126.635 261.567 121.836 263.675C121.383 263.839 120.778 264.451 120.079 265.215C119.743 265.605 119.336 266.015 119.006 266.469C118.684 266.928 118.352 267.393 118.004 267.838C118.004 267.838 118.841 267.481 119.769 267.043C119.276 267.659 118.611 268.297 117.812 268.943C117.395 269.262 117.018 269.616 116.631 269.976C116.235 270.332 115.818 270.699 115.401 271.067C114.495 271.785 113.826 272.591 113.072 273.348C112.291 274.101 111.809 274.906 111.349 275.65C112.259 275.105 112.259 275.105 112.925 274.808C111.97 275.291 110.961 275.961 110.108 276.795C109.7 277.216 109.304 277.669 108.915 278.138C108.515 278.612 108.13 279.108 107.863 279.623C107.253 280.658 106.654 281.735 106.318 282.807C106.132 283.344 105.901 283.867 105.756 284.38C105.63 284.891 105.496 285.398 105.369 285.871C105.127 286.255 104.876 286.585 104.641 286.887C104.432 287.192 104.22 287.471 104.016 287.755C103.998 288.633 103.804 289.506 103.816 290.377C103.79 291.25 103.649 292.141 103.752 293.028C103.817 293.917 103.829 294.837 104.135 295.743C104.254 296.201 104.408 296.668 104.574 297.128C104.748 297.593 105.036 298.052 105.313 298.516C105.518 298.914 105.69 299.342 105.849 299.786C106.057 300.223 106.26 300.681 106.459 301.161C106.79 302.13 107.286 303.122 107.763 304.164C107.962 304.692 108.317 305.189 108.603 305.707C108.918 306.218 109.192 306.753 109.577 307.242C110.365 308.221 111.104 309.219 112.173 310.104C115.143 313.364 118.595 316.804 123.206 319.624C127.77 322.441 133.348 324.664 139.582 325.562C140.093 325.638 140.677 325.769 141.3 325.946C141.935 326.106 142.607 326.323 143.282 326.567C144.608 327.089 146.014 327.73 147.17 328.507C151.729 328.45 157.009 329.333 162.633 330.329C168.217 331.339 174.213 332.501 179.482 333.292C181.44 333.547 182.945 333.966 184.094 334.434C185.274 334.884 186.098 335.384 186.704 335.795C197.962 335.968 210.122 335.883 221.934 336.291C237.066 336.705 252.631 336.811 269.347 338.456C271.653 338.656 276.334 338.597 278.845 338.416C279.771 338.671 280.698 338.926 281.616 339.176C291.558 339.757 301.363 339.676 309.541 341.246C312.334 341.8 314.358 342.397 315.813 343.03C317.28 343.646 318.172 344.282 318.707 344.919C319.77 346.178 319.405 347.403 319.142 348.54C312.74 348.178 305.95 348.577 298.714 348.706C291.462 348.826 283.748 348.704 274.946 347.309C270.168 346.399 261.941 346.808 255.22 346.845C249.423 347.1 243.881 345.774 238.351 346.985C232.139 345.09 215.739 343.36 203.185 343.399C202.275 343.154 203.494 343.055 201.846 342.748C183.854 343.322 164.951 340.998 146.761 337.298C142.105 336.435 137.366 335.122 132.633 333.534C127.892 331.94 123.108 330.127 118.107 328.274C117.011 328.019 113.994 325.644 111.65 324.413C110.664 324.075 109.657 323.749 108.684 323.394C105.99 321.535 103.06 319.539 100.837 317.428C99.6535 316.404 98.7654 315.308 97.9153 314.306C97.1981 313.247 96.6013 312.246 96.2893 311.324C94.4605 307.093 92.4218 303.422 92.3425 299.507C92.2989 296.587 91.9857 292.817 92.7652 289.021C93.5321 285.243 95.2906 281.477 98.0244 279.089C98.5801 278.485 99.7513 276.473 100.675 275.169C101.446 274.617 102.217 274.064 103.007 273.511C103.998 272.246 103.61 271.182 104.827 269.914C109.051 265.905 115.121 261.708 121.523 258.822C122.281 258.433 123.101 258.116 123.894 257.795C124.695 257.479 125.475 257.175 126.245 256.877C127.739 256.268 129.321 255.842 130.737 255.444C133.559 254.615 136.144 254.283 138.037 254.244C137.029 254.757 133.117 256.392 135.366 256.4L135.421 256.359Z" fill="#2DA6DA"/>
<path d="M184.804 255.367C184.119 255.616 185.484 256.027 186.442 256.167C185.988 255.649 185.896 255.146 184.399 254.44L187.038 255.16C189.281 254.703 184.525 254.318 186.485 254.367C187.95 254.799 189 255.198 187.859 255.427C187.814 255.17 187.038 255.16 186.21 254.877C185.561 255.378 186.79 255.917 187.228 256.425C185.85 256.128 184.539 255.773 183.15 255.482C183.738 255.396 184.243 255.408 184.804 255.367Z" fill="#2DA6DA"/>
<path d="M175.097 253.206C175.437 253.244 175.781 253.26 176.106 253.326C176.427 253.17 176.371 253.016 176.128 252.864C175.875 252.718 175.409 252.607 174.944 252.484C175.491 252.569 175.9 252.635 176.185 252.714C176.457 252.811 176.62 252.892 176.709 252.968C176.886 253.119 176.758 253.252 176.583 253.382C176.216 253.633 175.664 253.873 176.758 254.286C176.878 254.148 176.335 253.944 175.812 253.739C175.296 253.539 174.781 253.388 175.106 253.21L175.097 253.206Z" fill="#2DA6DA"/>
<path d="M181.889 252.114C183.226 253.117 185.628 252.764 185.322 253.683C183.958 253.163 182.527 252.653 181.039 252.146C181.336 252.111 181.606 252.121 181.88 252.109L181.889 252.114Z" fill="#2DA6DA"/>
<path d="M145.305 255.52C143.812 256.215 144.573 255.864 141.878 256.522L145.695 255.49L145.303 255.531L145.305 255.52Z" fill="#2DA6DA"/>
<path d="M102.531 294.513C102.901 293.802 103.286 293.16 103.61 292.447C103.944 291.727 104.322 290.924 104.47 289.902C104.453 290.926 103.881 291.959 103.515 292.794C103.112 293.631 102.651 294.278 102.531 294.513Z" fill="#2DA6DA"/>
<path d="M108.391 314.842C107.914 314.981 108.424 315.604 107.34 314.893C107.186 314.426 108.757 314.494 106.863 313.51C107.318 313.979 107.886 314.393 108.391 314.842Z" fill="#2DA6DA"/>
<path d="M107.824 317.228L108.026 318.33C108.157 318.284 108.15 317.83 107.824 317.228Z" fill="#2DA6DA"/>
<path d="M128.48 263.995L128.153 263.988C128.052 264.076 127.956 264.19 127.863 264.283C128.057 264.2 128.251 264.117 128.489 263.999L128.48 263.995Z" fill="#2DA6DA"/>
<path d="M124.085 265.897C124.631 265.69 125.152 265.467 125.704 265.275L127.422 264.722C127.568 264.55 127.723 264.421 127.873 264.276C126.87 264.719 126.391 264.771 125.91 264.883C125.674 264.941 125.436 265.01 125.136 265.154C124.862 265.312 124.529 265.534 124.096 265.891L124.085 265.897Z" fill="#2DA6DA"/>
<path d="M127.566 263.966L128.153 263.988C129.073 263.145 130.21 262.84 131.424 262.47C132.031 262.286 132.677 262.099 133.374 261.832C134.081 261.571 134.93 261.295 135.83 260.854C135.018 261.03 134.221 261.226 133.428 261.45C132.686 261.703 131.951 261.971 131.251 262.249C130.551 262.526 129.87 262.802 129.236 263.08C128.626 263.374 128.089 263.684 127.564 263.977L127.566 263.966Z" fill="#2DA6DA"/>
<path d="M129.945 262.066L130.716 261.319C131.755 260.934 131.905 261.179 131.984 261.309C132.584 260.962 133.261 260.659 133.938 260.357C134.167 259.99 132.541 260.353 130.81 261.069C129.929 261.412 128.974 261.798 128.139 262.143C127.322 262.498 126.672 262.853 126.261 263.042L128.068 262.516C128.699 262.357 129.325 262.219 129.954 262.071L129.945 262.066Z" fill="#2DA6DA"/>
<path d="M149.446 250.623C149.446 250.623 149.376 250.644 149.336 250.657C149.376 250.644 149.414 250.641 149.454 250.628L149.446 250.623Z" fill="#2DA6DA"/>
<path d="M141.141 251.291L141.246 252.265C142.95 251.74 144.017 251.553 145.147 251.427C146.286 251.306 147.446 251.172 149.346 250.651C149.386 250.638 149.416 250.631 149.456 250.617C147.805 250.029 144.233 251.155 141.151 251.285L141.141 251.291Z" fill="#2DA6DA"/>
<path d="M119.824 267.294C120.311 266.906 120.85 266.585 121.35 266.277C121.83 265.971 122.26 265.683 122.631 265.411C123.36 264.883 123.762 264.397 123.879 264.027C123.055 264.415 122.351 264.86 121.578 265.277C120.83 265.709 120.02 266.118 119.289 266.56C121.421 265.758 119.657 266.845 119.816 267.289L119.824 267.294Z" fill="#2DA6DA"/>
<path d="M114.176 268.839C114.689 268.308 115.385 267.858 115.975 267.371L114.712 267.846C114.828 267.974 114.613 268.264 114.176 268.839Z" fill="#2DA6DA"/>
<path d="M114.711 267.846C114.604 267.723 114.093 267.842 113.369 268.397C113.782 268.198 114.256 268.022 114.711 267.846Z" fill="#2DA6DA"/>
<path d="M117.745 264.573C115.528 265.082 116.662 265.481 114.22 267.027C114.598 267.258 115.154 266.849 115.78 266.273C116.079 265.983 116.413 265.654 116.736 265.341C117.075 265.038 117.445 264.765 117.764 264.572L117.745 264.573Z" fill="#2DA6DA"/>
<path d="M108.567 271.55L107.237 271.986L108.151 272.356L108.567 271.55Z" fill="#2DA6DA"/>
<path d="M104.964 285.735C104.458 284.007 103.533 286.794 102.875 286.999C103.558 286.566 104.277 286.141 104.964 285.735Z" fill="#2DA6DA"/>
<path d="M104.268 273.143C104.764 273.004 105.251 272.859 105.755 272.724L105.524 272.311C106 271.832 106.633 271.066 107.464 270.743C107.096 270.409 106.576 270.777 105.98 271.346C105.42 271.923 104.716 272.66 104.26 273.139L104.268 273.143Z" fill="#2DA6DA"/>
<path d="M101.794 281.01C101.19 281.622 100.731 282.257 100.19 282.882L101.794 281.01Z" fill="#2DA6DA"/>
<path d="M105.3 267.827C104.99 267.635 100.45 270.197 104.539 266.998C103.772 267.626 102.841 268.378 102.275 268.842C101.7 269.3 101.356 269.431 101.536 268.732C99.4116 270.875 102.404 269.147 101.534 270.664C102.042 269.376 103.939 268.72 105.29 267.833L105.3 267.827Z" fill="#2DA6DA"/>
<path d="M99.4092 272.71C98.3183 273.711 96.8482 274.979 96.936 275.65C97.3126 275.101 97.9108 274.619 98.4584 274.157C98.9976 273.689 99.4039 273.23 99.4092 272.71Z" fill="#2DA6DA"/>
<path d="M96.0746 273.279L98.2238 271.892L96.3455 272.645L96.0746 273.279Z" fill="#2DA6DA"/>
<path d="M91.7201 279.841L92.7541 277.81C93.1642 277.135 93.6017 276.463 94.0308 275.786L92.49 277.573C92.0186 278.176 91.5851 278.778 91.1412 279.385C90.6139 281.66 91.6181 280.573 92.8662 279.043C92.4683 279.458 92.0786 279.78 91.7306 279.835L91.7201 279.841Z" fill="#2DA6DA"/>
<path d="M96.2377 275.77C96.3719 275.361 96.4787 274.948 96.6319 274.538C96.3659 274.458 95.1837 276.232 93.9188 277.753C94.8704 276.745 95.78 275.859 96.2461 275.775L96.2377 275.77Z" fill="#2DA6DA"/>
<path d="M93.9189 277.753C93.5633 278.192 93.2076 278.632 92.8666 279.043C93.2182 278.674 93.5634 278.241 93.9189 277.753Z" fill="#2DA6DA"/>
<path d="M98.678 302.629C98.2984 301.619 98.1423 300.568 97.9272 299.531C97.8431 300.76 98.0412 301.738 98.678 302.629Z" fill="#2DA6DA"/>
<path d="M88.9454 282.789L88.6934 283.374L89.8118 283.557C90.0943 282.37 89.1733 282.824 88.9454 282.789Z" fill="#2DA6DA"/>
<path d="M84.9865 287.815C84.0519 288.93 84.3325 291.1 84.4396 291.964C84.9109 291.263 85.247 290.533 85.5134 289.774C85.7904 289.009 85.9429 288.209 86.3231 287.346C85.6366 289.079 85.4634 287.872 84.978 287.81L84.9865 287.815Z" fill="#2DA6DA"/>
<path d="M82.6384 293.053L82.8185 291.272L83.1905 289.467C82.4402 289.861 82.302 290.39 82.3349 291.005C82.3572 291.626 82.6686 292.304 82.6384 293.053Z" fill="#2DA6DA"/>
<path d="M83.217 298.63C83.3779 298.918 83.7149 298.626 84.0388 299.19C84.2534 298.9 84.2694 298.472 84.2158 298.015C84.1917 297.551 84.176 297.043 84.23 296.612C83.8874 297.278 83.4752 297.964 83.217 298.63Z" fill="#2DA6DA"/>
<path d="M106.402 270.263C105.583 271.165 104.812 271.961 104.183 272.754C104.829 272.166 105.575 271.599 106.247 271.025C106.946 270.456 107.582 269.874 108.368 269.342C108.023 269.484 107.677 269.625 107.331 269.766C107.011 269.921 106.699 270.082 106.402 270.263Z" fill="#2DA6DA"/>
<path d="M400.962 408.075L402.166 407.018C400.459 408.794 398.19 410.465 395.974 412.154C393.532 413.749 391.111 415.381 388.359 416.784C394.758 414.007 401.297 410.154 405.573 405.92C409.867 401.695 411.759 397.276 410.641 394.04C412.121 393.751 414.267 391.547 415.387 389.359C415.688 388.814 415.969 388.271 416.207 387.764C416.387 387.26 416.532 386.796 416.637 386.394C416.846 385.59 416.883 385.052 416.71 385.025C416.624 384.197 416.392 383.394 416.228 382.582C416.026 381.772 415.949 380.948 415.696 380.158C415.983 381.26 416.066 382.402 416.294 383.519C416.057 382.398 415.964 381.261 415.696 380.158C413.133 370.04 408.333 359.994 399.222 350.817C398.634 350.162 397.717 349.462 396.762 348.619C396.278 348.205 395.763 347.762 395.222 347.303C394.63 346.865 394.013 346.411 393.382 345.937C392.739 345.469 392.072 344.986 391.398 344.488C390.703 344.001 389.919 343.537 389.159 343.049C388.388 342.567 387.611 342.07 386.823 341.579C385.974 341.113 385.125 340.647 384.286 340.175C383.427 339.716 382.601 339.227 381.71 338.785C380.808 338.35 379.915 337.919 379.028 337.505C377.301 336.629 375.443 335.897 373.741 335.182C372.062 334.444 370.367 333.843 368.86 333.289C367.363 332.729 366.033 332.229 364.865 331.859C363.523 331.425 362.189 330.995 360.827 330.562C362.285 331.079 363.743 331.596 365.201 332.114C363.627 331.813 362.097 331.526 360.584 331.249C359.071 330.971 357.532 330.776 356.057 330.545C353.13 330.06 350.144 329.784 347.317 329.417C348.083 329.823 348.073 330.073 350.045 330.797L347.422 330.146C345.907 330.221 343.649 330.11 341.417 329.916C339.208 329.699 336.929 329.551 335.419 329.555C336.262 329.263 334.069 328.959 332.109 328.715L332.753 329.026C325.34 328.214 316.351 328.195 309.572 328.041C308.629 328.019 307.971 327.882 307.582 327.755C305.357 327.821 303.148 327.896 300.935 327.994C301.62 327.501 295.679 327.575 298.898 327.268C293.789 327.846 288.979 327.551 284.13 328.195C267.536 328.469 250.118 329.131 233.55 328.727L233.848 328.936C228.044 328.833 222.403 329.3 216.044 327.977C214.757 327.939 213.346 327.866 211.928 327.778C210.525 327.661 209.103 327.546 207.763 327.441C205.121 327.182 202.728 327.041 201.375 327.257C196.111 326.043 193.615 325.855 188.675 324.317C188.973 324.769 187.684 324.451 186.536 324.177C185.36 323.9 184.494 323.668 185.297 324.277C187.554 326.115 188.382 325.706 190.518 327.145L190.617 326.971C196.624 329.551 203.524 331.478 210.809 332.911C218.09 334.365 225.784 335.278 233.623 335.874C244.372 336.106 255.813 336.543 266.808 336.322C278.677 336.044 291.34 335.484 301.272 335.134C303.647 335.021 305.171 335.439 307.022 335.717C315.983 335.635 327.035 336.297 336.149 337.288C335.976 337.261 335.822 337.233 335.722 337.212C336.932 337.363 338.052 337.535 339.105 337.718C340.156 337.911 341.11 338.17 342.079 338.4C343.037 338.637 344.006 338.868 345.004 339.092C345.977 339.349 346.98 339.599 348.09 339.827C348.191 339.69 348.885 339.836 349.288 339.837C349.308 339.933 349.749 340.079 350.492 340.264C351.212 340.473 352.242 340.727 353.483 341.005C354.724 341.284 356.184 341.592 357.653 342.002C359.133 342.406 360.821 342.748 362.339 343.247C363.88 343.723 365.495 344.157 366.92 344.651C368.343 345.156 369.677 345.634 370.844 346.053C373.08 346.966 374.611 347.692 374.812 347.918C375.213 348.076 375.642 348.238 376.015 348.442C377.608 349.532 379.273 350.59 380.577 351.817C381.251 352.413 381.915 353.015 382.589 353.611C383.183 354.234 383.777 354.857 384.362 355.475C385.597 356.674 386.494 357.97 387.587 359.124C388.587 360.322 389.5 361.482 390.559 362.519C391.818 363.295 393.122 364.23 394.353 364.855C394.469 365.822 395.441 365.69 395.985 366.722C395.85 367.532 395.912 368.189 395.959 368.727C396.007 369.265 396.145 369.673 396.312 369.928C396.646 370.437 397.1 370.371 397.136 369.589C397.489 370.097 397.832 370.611 398.126 371.134C398.362 371.671 398.597 372.208 398.826 372.73C399.319 373.781 399.547 374.849 399.895 375.829C400.395 376.701 400.681 377.609 401.061 378.521C401.41 379.295 401.145 379.799 400.619 380.298C400.857 381.311 400.814 381.687 400.719 382.083C400.636 382.473 400.442 382.897 400.251 384.002C399.817 384.311 400.165 385.632 400.242 387.002C400.289 387.686 400.468 388.373 400.416 388.94C400.394 389.499 400.348 389.935 400.243 390.093L400.236 389.736C400.01 390.384 399.72 390.971 399.387 391.533C398.981 392.09 398.552 392.62 398.135 393.134C397.7 393.649 397.348 394.164 396.873 394.692C396.416 395.219 395.993 395.766 395.644 396.367C393.374 399.667 390.469 403.003 386.802 406.056L385.414 407.189L384.725 407.752L383.948 408.289C382.905 408.989 381.923 409.711 380.865 410.39C379.748 411.035 378.651 411.679 377.574 412.31C376.488 412.937 375.371 413.484 374.239 414.011C374.419 414.199 374.889 413.948 375.389 413.689C375.88 413.425 376.409 413.158 376.795 413.345C371.532 416.012 365.26 417.78 359.145 419.36C357.983 419.553 356.536 419.666 355.987 419.641C353.979 419.942 354.902 420.122 353.444 420.388L353.129 420.023C351.099 420.786 349.978 420.175 348.038 420.661C347.956 420.844 347.235 420.988 346.524 421.076C346.468 420.63 344.36 421.408 344.452 420.975L344.435 421.014C344.005 421.057 343.701 421.125 343.18 421.104C342.763 421.228 340.597 421.815 338.322 422.339C336.063 422.872 333.763 423.332 333.311 423.436L332.929 423.374C331.735 423.439 331.147 423.769 331.797 423.852L330.363 423.851L330.538 423.818C330.059 423.822 329.591 423.819 329.124 423.805C328.88 423.761 328.677 423.547 329.147 423.344C328.301 423.5 327.364 423.592 326.666 423.469C328.622 423.832 331.296 424.219 333.668 424.567C332.597 424.776 330.862 424.577 329.772 424.641C329.178 424.505 328.292 424.334 327.294 424.208C326.361 424.035 325.279 423.909 324.47 423.722C324.078 423.714 323.454 424.23 322.736 423.913C322.569 423.512 321.77 423.817 321.291 423.48C322.229 423.377 322.867 423.575 323.734 423.649C323.803 423.239 321.94 423.173 321.473 422.965C321.296 423.008 320.908 422.93 320.443 422.857C319.971 422.779 319.614 422.633 319.186 422.617C319.542 422.47 319.466 422.378 319.286 422.286C319.185 422.179 318.997 422.083 318.975 421.949C318.663 421.817 318.467 421.862 318.322 422.033C318.174 422.119 318.102 422.199 318.113 422.29C318.172 422.373 318.297 422.457 318.422 422.541C318.641 422.717 318.834 422.889 318.334 423.002C318.458 422.745 317.544 422.57 317.356 422.425C317.029 422.614 317.308 422.677 316.815 422.757C316.477 422.562 315.949 422.525 316.155 422.279C316.307 422.27 316.337 422.36 316.392 422.416C316.329 422.355 316.556 422.34 316.858 422.332C317.189 422.316 317.689 422.301 318.181 422.281C318.79 422.231 319.235 422.208 319.63 422.156C320.024 422.104 320.201 422.06 319.95 422.049C319.925 422.181 318.689 422.27 317.771 422.263C317.556 422.261 317.265 422.263 317.079 422.253C316.923 422.236 316.757 422.225 316.598 422.219C316.44 422.212 316.301 422.205 316.216 422.205C316.115 422.195 316.064 422.166 316.117 422.233C316.126 422.335 315.921 422.375 315.717 422.415C315.504 422.451 315.32 422.478 315.373 422.594C315.607 422.596 315.833 422.592 316.05 422.584C316.074 422.658 316.059 422.735 316.024 422.824C315.998 422.906 315.984 422.983 315.933 423.051C315.83 423.199 315.638 423.319 315.438 423.337C315.058 423.118 316.241 423.107 317.18 423.053C317.705 423.004 318.239 422.959 318.553 422.934C318.899 422.89 319.055 422.858 318.756 422.856L319.009 423.051C318.866 423.065 318.697 423.065 318.492 423.057C318.317 423.041 318.165 423.002 318.013 422.962C317.711 422.873 317.395 422.764 317.504 422.583C317.213 422.78 316.802 422.677 316.42 422.614L316.426 422.533C316.12 422.466 315.892 422.236 315.538 422.519C316.121 422.953 315.115 423.309 313.909 423.488C312.698 423.69 311.243 423.701 312.196 424.653C312.161 424.097 312.454 424.084 312.824 424.261C312.993 424.359 313.261 424.477 313.565 424.604C313.88 424.725 314.116 424.91 314.492 425.005C314.454 425.105 314.499 425.265 314.676 425.464C314.854 425.664 315.133 425.923 315.678 426.115C316.724 426.33 316.452 426.088 316.758 426.009C317.157 426.276 318.29 426.529 317.894 426.787C318.993 426.63 319.137 427.2 320.315 427.223C321.363 427.183 320.352 427.074 321.118 426.993C321.846 427.061 322.711 427.147 323.549 427.229C324.401 427.283 325.216 427.339 325.815 427.393C326.168 427.658 327.458 428.123 326.218 428.526C323.853 428.438 327.388 427.9 324.898 427.923C325.68 428.544 322.656 428.027 321.984 428.405C322.613 428.744 324.246 428.787 325.621 428.754L325.383 428.677C325.999 428.643 326.916 428.601 327.826 428.603C328.737 428.594 329.651 428.622 330.26 428.768C329.892 428.981 330.417 429.126 329.504 429.195C330.057 429.197 330.618 429.205 331.183 429.191C331.413 429.117 331.653 429.036 331.189 429.012C332.033 428.817 332.799 428.883 333.381 428.975C333.447 429.074 335.752 428.738 337.96 428.322C340.176 427.911 342.291 427.441 342.154 427.52C343.361 427.389 343.646 427.663 344.829 427.312C344.894 427.216 342.005 427.762 339.27 428.19C336.532 428.629 333.944 428.972 334.767 428.887C335.263 428.991 338.781 428.492 342.189 427.88C345.62 427.294 348.931 426.505 349.334 426.652C350.226 426.498 351.297 426.241 351.048 426.072C352.571 425.905 350.665 426.557 351.779 426.567C351.796 426.528 351.665 426.477 352.021 426.427C352.391 426.458 352.745 426.468 353.116 426.488C355.391 425.721 358.981 425.336 361.203 424.258C360.611 424.658 359.989 425.261 358.463 425.84L358.142 425.801C357.94 425.927 356.641 426.296 356.745 426.49C358.323 426.282 359.638 425.922 361.135 425.302C361.449 425.277 361.823 425.237 362.086 425.231C362.063 425.205 362.027 425.197 362.025 425.159C362.609 425.143 362.565 425.179 362.409 425.308C362.386 425.331 362.363 425.354 362.321 425.378C362.937 425.539 364.404 425.024 366.019 424.375C367.642 423.73 369.396 422.942 370.83 422.602C371.536 422.243 370.834 422.483 371.709 422.026C374.545 421.218 376.55 420.636 379.334 419.507C379.937 418.905 379.882 418.801 378.604 419.06C379.303 418.783 379.961 418.482 380.636 418.19C380.101 418.879 381.191 418.571 382.248 418.244C383.295 417.913 384.345 417.57 383.75 418.333C384.115 418.239 384.621 418.045 385.139 417.785C385.63 417.521 386.153 417.19 386.603 416.842C386.506 416.664 386.345 416.376 387.633 415.623C389.692 414.707 389.224 414.948 390.879 414.139C391.495 414.057 391.109 414.455 391.386 414.53C393.163 412.879 393.928 413.54 395.921 412.087C397.006 411.119 399.264 409.26 398.725 409.034C400.229 407.786 400.596 407.876 400.974 408.155L400.962 408.075Z" fill="#2DA6DA"/>
<path d="M268.507 373.324L268.497 373.476L268.635 373.981C269.612 374.363 269.891 375.558 270.297 377.118C270.533 377.06 270.729 376.869 271.057 377.363C271.642 379.854 271.599 378.552 272.866 380.122C272.618 379.602 272.254 378.954 272.361 378.639C272.965 379.705 273.519 380.779 274.192 381.825C274.404 381.253 274.724 380.757 275.372 381.192C276.12 380.614 277.769 381.359 278.947 381.479C278.77 380.879 278.647 380.394 278.666 380.149C279.094 380.117 279.555 380.602 279.976 381.246C280.242 381.668 280.505 382.16 280.719 382.612C280.708 382.326 280.688 382.035 280.927 382.111L279.927 380.221C279.991 380.135 280.086 380.178 280.219 380.267L279.737 379.843L279.7 380.284C279.59 380.464 279.333 380.242 279.083 380.025C278.753 379.543 278.873 379.356 278.87 379.075L277.966 378.164C277.064 377.972 278.838 380.966 277.386 379.483L277.315 378.919C276.778 378.196 276.289 377.171 275.566 376.778C276.064 375.789 273.978 374.73 275.06 374.32C274.378 371.202 272.084 367.445 272.477 364.107C271.543 363.738 270 364.064 268.69 362.918C268.746 362.622 268.762 362.193 268.977 362.293L268.315 361.437C268.456 361.98 268.687 362.637 268.445 362.971C267.702 361.557 267.953 363.782 267.493 363.736L266.542 361.787L266.433 362.065C267.079 365.759 267.445 369.547 268.401 373.238L268.48 373.32L268.507 373.324Z" fill="#2DA6DA"/>
<path d="M272.534 308.397L271.625 308.59C269.928 300.859 268.169 292.422 265.075 283.762C261.997 275.112 257.556 266.186 250.379 257.882C243.247 249.592 233.401 241.864 220.222 236.08C213.661 233.205 206.292 230.788 198.187 229.126C190.123 227.451 181.438 226.525 172.522 226.317C173.407 225.66 174.298 225.019 175.204 224.398C165.173 224.581 154.241 225.605 143.726 227.588C138.462 228.54 133.315 229.863 128.469 231.275C126.064 232.039 123.721 232.816 121.476 233.625C120.38 234.062 119.294 234.494 118.219 234.92C117.161 235.355 116.101 235.752 115.127 236.237C116.24 235.857 117.4 235.578 118.538 235.262L121.967 234.346C120.589 235.083 118.607 235.934 116.354 236.933C114.16 238.014 111.559 239.067 109.093 240.393C107.845 241.035 106.547 241.648 105.289 242.297C104.098 242.984 102.882 243.657 101.698 244.311C101.101 244.636 100.515 244.955 99.94 245.267C99.3985 245.599 98.8654 245.936 98.3449 246.256C97.304 246.896 96.2883 247.502 95.321 248.051L95.4525 247.312C100.381 244.038 100.341 244.197 99.0906 244.607C97.9544 245.058 95.8338 245.95 97.1996 244.196C97.6966 243.753 98.333 243.366 98.8912 242.947L97.4428 243.412C96.8656 243.833 96.3664 244.287 95.8356 244.711C95.7253 244.404 95.1154 244.258 96.8262 243.105C95.9263 243.595 95.0876 244.108 94.2131 244.613C92.4527 245.239 91.0169 245.688 89.8551 245.978C88.7186 246.283 87.8708 246.451 87.1641 246.468C85.7676 246.514 85.0599 246.044 84.4363 245.38C83.8425 245.938 84.3998 246.162 84.2807 246.738C84.2264 247.023 83.9951 247.401 83.3738 247.954C83.0684 248.228 82.6598 248.552 82.1289 248.927C81.6338 249.31 81.0398 249.77 80.294 250.288L80.2987 249.476C78.7875 251.256 77.1494 252.962 76.001 254.756L72.7687 256.759C71.5488 258.683 71.1652 259.957 69.2616 261.778L70.4868 262.583C67.0096 266.707 64.7933 271.595 63.6234 276.407C62.3648 281.24 62.5533 285.959 62.8336 290.196C63.9215 290.934 64.0343 292.508 64.7699 294.356C64.9248 294.822 65.0945 295.309 65.2706 295.813C65.3639 296.061 65.4551 296.321 65.5759 296.573C65.7261 296.818 65.8954 297.061 66.0541 297.311C66.7184 298.303 67.5326 299.296 68.5765 300.215C68.767 299.412 68.9827 298.625 69.2069 297.842C69.1509 297.201 68.987 296.486 68.7303 295.717C68.5811 294.926 68.398 294.066 68.1388 293.162C67.9987 292.716 67.8628 292.248 67.7184 291.776C67.5931 291.302 67.5499 290.79 67.4497 290.282C67.3064 289.263 66.9795 288.222 66.9162 287.127C66.3677 282.772 67.2421 277.839 69.1732 273.856L70.0514 274.168C69.8273 275 69.9383 275.697 69.9461 276.443C69.9349 277.191 69.8309 277.983 69.3161 279.012C69.8522 279.151 70.4368 279.282 71.0214 279.412C72.72 278.471 73.7977 277.195 74.335 275.753C74.5572 275.03 74.9101 274.261 75.0816 273.459C75.2994 272.66 75.3822 271.832 75.5219 271.001C75.7271 270.17 75.8943 269.342 76.0593 268.525C76.2054 267.709 76.3453 266.926 76.6413 266.209C77.1681 264.773 77.6615 263.562 78.3944 262.914C81.5958 260.188 81.617 261.308 81.1998 262.66C80.9395 263.337 80.7174 264.109 80.619 264.527C80.5101 264.951 80.5398 265.041 80.9394 264.371C79.9097 267.56 81.8778 266.336 84.4179 264.226C85.7682 263.193 87.4135 261.941 88.9154 260.801C90.5378 259.718 92.0465 258.788 93.0414 258.341C93.3364 258.17 93.6504 257.999 93.9475 257.818C94.2805 257.645 94.6156 257.461 94.9591 257.282C95.6398 256.909 96.3247 256.514 97.0138 256.096C97.7197 255.689 98.3454 255.211 99.1209 254.782C99.8795 254.344 100.659 253.894 101.426 253.412C104.465 251.493 108.043 249.544 111.765 247.629C112.208 247.374 112.707 247.163 113.209 246.942L114.676 246.28C115.669 245.844 116.604 245.362 117.631 244.945C119.733 244.151 121.742 243.255 123.894 242.588C124.955 242.239 125.975 241.854 127.021 241.534C128.073 241.229 129.115 240.93 130.127 240.638C130.633 240.492 131.139 240.346 131.626 240.202C132.136 240.083 132.627 239.965 133.119 239.847C134.099 239.622 135.052 239.394 135.965 239.179C141.96 237.299 149.031 236.016 156.293 235.501C163.558 234.974 170.98 235.196 177.862 236.042C184.764 236.876 191.119 238.318 196.609 240.065C202.136 241.82 206.975 243.883 211.184 245.814C215.029 247.779 221.073 249.82 225.943 252.364C230.808 254.881 234.382 257.832 233.634 260.575C236.681 264.074 239.259 267.764 241.372 271.587L240.242 271.665C241.975 274.381 243.723 277.166 245.304 280.086C246.936 282.987 248.478 285.969 249.832 289.002C252.62 295.039 254.765 301.253 256.126 307.1C257.174 312.231 259.978 313.411 257.41 316.26C256.766 326.971 261.485 338.965 263.463 349.256C264.372 349.063 265.556 350.33 265.759 348.33C263.795 343.231 265.47 336.753 267.944 336.173L267.916 338.189L269.569 334.338L268.542 332.2C269.102 331.525 269.55 331.188 269.945 331.087C270.439 327.066 272.339 323.345 273.415 319.076C272.439 316.323 271.948 313.095 272.542 308.402L272.534 308.397Z" fill="#2DA6DA"/>
<path d="M231.878 300.645L231.842 300.49L231.512 300.008C230.326 299.737 229.752 298.566 228.65 297.115C228.437 297.199 228.313 297.407 227.759 296.966C226.999 295.785 226.712 295.522 226.393 295.374C226.083 295.231 225.752 295.198 224.733 294.538C225.226 295.004 225.887 295.569 225.911 295.887C224.804 294.955 223.787 293.991 222.598 293.098C222.649 293.663 222.562 294.172 221.684 293.86C221.187 294.498 219.117 294.044 217.857 294.108C218.329 294.636 218.669 295.063 218.775 295.295C218.345 295.387 217.64 295.004 216.915 294.476C216.881 294.554 216.846 294.643 216.869 294.766C216.854 294.648 216.89 294.559 216.915 294.476C216.437 294.128 215.943 293.721 215.51 293.337C215.666 293.598 215.804 293.86 215.538 293.828L217.45 295.406C217.434 295.494 217.307 295.469 217.132 295.405L217.831 295.723L217.665 295.311C217.69 295.131 218.062 295.297 218.415 295.464C218.966 295.867 218.901 296.061 219.039 296.323L220.344 297.052C221.344 297.119 218.261 294.548 220.377 295.745L220.682 296.262C221.542 296.868 222.508 297.754 223.35 298.058C223.206 299.057 225.782 299.814 224.81 300.336C226.603 303.232 229.924 306.719 230.204 310.019C231.234 310.322 232.71 309.909 234.307 310.977C234.297 311.275 234.355 311.71 234.11 311.617L234.928 312.443C234.701 311.91 234.367 311.255 234.554 310.913C235.548 312.289 234.919 310.077 235.356 310.098C235.847 310.722 236.23 311.369 236.661 312.008L236.724 311.728C235.418 308.053 234.155 304.295 231.982 300.741L231.863 300.673L231.878 300.645Z" fill="#2DA6DA"/>
<path d="M228.353 365.994L229.272 365.844C229.722 373.817 230.051 382.571 232.261 391.547C233.427 396.053 235.263 400.544 237.803 404.93C240.402 409.301 243.849 413.505 247.983 417.498C264.636 433.401 294.57 445.11 330.222 446.592C329.31 447.245 328.416 447.849 327.481 448.477C337.459 448.373 348.384 447.636 359.023 445.737C369.655 443.882 379.893 440.888 387.977 437.294C386.834 437.632 385.698 437.985 384.559 438.301L381.069 439.145C382.488 438.444 384.524 437.648 386.762 436.581C387.901 436.07 389.109 435.538 390.373 435.003C391.585 434.401 392.846 433.791 394.135 433.173C394.785 432.866 395.434 432.56 396.083 432.253C396.726 431.931 397.326 431.584 397.961 431.257C399.213 430.593 400.452 429.946 401.678 429.316C402.838 428.647 403.975 427.99 405.069 427.368C406.154 426.741 407.255 426.184 408.199 425.61C408.151 425.862 408.119 426.124 408.044 426.372C402.831 429.519 403.031 429.452 404.222 429.008C405.384 428.571 407.58 427.723 406.088 429.452L404.411 430.723L405.815 430.244L407.494 428.963C407.594 429.276 408.176 429.417 406.432 430.551L409.121 429.087C410.93 428.501 412.378 428.084 413.525 427.773C414.679 427.478 415.594 427.349 416.293 427.326C417.706 427.291 418.382 427.778 418.966 428.456C419.597 427.896 419.05 427.666 419.208 427.087C419.291 426.795 419.55 426.421 420.155 425.858C420.778 425.293 421.8 424.557 423.35 423.506L423.289 424.322C425.003 422.562 426.461 420.764 427.793 418.99C428.868 418.321 429.989 417.654 431.032 416.955C432.313 415.005 432.753 413.727 434.581 411.862L433.375 411.056C435.094 408.971 436.533 406.687 437.659 404.321C438.775 401.96 439.555 399.49 440.058 397.141C441.073 392.41 441.439 387.78 441.241 383.31C440.155 382.513 439.968 380.885 438.941 378.795C438.407 377.757 437.652 376.603 436.297 375.493C434.951 374.388 432.903 373.327 430.138 372.777C431.152 373.557 431.953 374.372 432.383 375.216C433.725 376.539 434.942 378.226 435.711 380.143C436.5 382.058 436.928 384.191 437.057 386.418C437.314 390.873 436.421 395.71 434.591 399.703L433.692 399.403C433.942 397.746 433.427 396.61 434.343 394.559L432.658 394.147C429.206 396.022 428.81 399.285 428.24 402.618C428.007 404.284 427.667 405.973 427.258 407.428C426.803 408.881 426.208 410.082 425.492 410.74C423.953 412.126 423.146 412.524 422.772 412.417C422.426 412.315 422.515 411.697 422.693 411.009C423.087 409.631 423.782 407.952 422.945 409.294C423.503 407.694 423.192 407.21 422.541 407.381C421.86 407.56 420.781 408.397 419.446 409.451C416.844 411.587 412.928 414.472 410.854 415.318C408.346 416.62 405.581 418.333 402.439 420.156C401.666 420.622 400.848 421.075 400.026 421.549C399.205 422.024 398.245 422.48 397.365 422.969C396.465 423.459 395.565 423.949 394.644 424.452C393.666 424.909 392.705 425.376 391.733 425.849C389.853 426.856 387.705 427.648 385.703 428.56L384.935 428.896L384.139 429.19L382.555 429.772C381.499 430.148 380.479 430.581 379.42 430.919C375.174 432.287 371.012 433.461 367.305 434.168C361.289 436.011 354.176 437.221 346.873 437.603C339.574 438.013 332.118 437.674 325.144 436.775C318.13 435.888 311.686 434.419 305.689 432.77C304.214 432.344 302.81 431.886 301.389 431.468C300.68 431.253 299.979 431.043 299.287 430.838C298.628 430.603 297.959 430.375 297.309 430.146C295.987 429.699 294.702 429.261 293.443 428.827C292.229 428.357 291.049 427.907 289.873 427.484C289.335 427.258 288.756 427.046 288.14 426.836C287.555 426.608 286.943 426.376 286.301 426.151C285.028 425.696 283.61 425.267 282.166 424.822C279.428 423.838 276.299 422.932 273.706 421.776C270.955 420.711 268.696 419.431 266.984 418.175C265.345 416.888 264.494 415.496 264.635 414.167C261.146 410.875 258.128 407.418 255.779 403.75L256.916 403.64C255.952 402.353 255.141 400.997 254.164 399.679C253.347 398.307 252.522 396.93 251.698 395.542C251.336 394.835 250.985 394.121 250.625 393.402C250.254 392.689 249.854 391.984 249.601 391.242C249.039 389.762 248.313 388.357 247.863 386.783C245.777 380.652 244.626 374.245 244.219 368.208C244 362.911 241.445 361.557 244.395 358.772C245.515 353.287 245.318 347.382 244.501 341.533C243.705 335.672 242.236 329.897 241.059 324.656C240.148 324.86 238.92 323.579 238.787 325.607C240.94 330.792 238.869 337.43 236.361 337.941C236.417 337.256 236.481 336.575 236.507 335.897C235.923 337.19 235.255 338.483 234.635 339.767L235.462 341.972C234.856 342.644 234.382 342.966 233.989 343.056C233.111 347.123 230.794 350.822 229.152 355.106C229.727 357.944 229.723 361.262 228.405 366.013L228.353 365.994Z" fill="#2DA6DA"/>
</g>
</g>
<g opacity="0.2">
<line y1="-0.5" x2="29.2931" y2="-0.5" transform="matrix(-0.707107 -0.707107 -0.707107 0.707107 130.404 140.133)" stroke="#3DAFE9"/>
<path d="M274.104 311.47C273.063 310.429 273.063 308.74 274.104 307.699C275.146 306.657 276.834 306.657 277.875 307.699C278.917 308.74 278.917 310.429 277.875 311.47C276.834 312.511 275.146 312.511 274.104 311.47ZM334.538 251.036C333.497 249.995 333.497 248.306 334.538 247.265C335.579 246.224 337.268 246.224 338.309 247.265C339.351 248.306 339.351 249.995 338.309 251.036C337.268 252.078 335.579 252.078 334.538 251.036ZM275.636 309.231L336.07 248.797L336.777 249.504L276.343 309.938L275.636 309.231Z" fill="#3DAFE9"/>
<path d="M261.86 379.956C261.124 381.231 259.493 381.668 258.218 380.932C256.942 380.196 256.505 378.565 257.242 377.289C257.978 376.014 259.609 375.577 260.884 376.313C262.16 377.05 262.597 378.68 261.86 379.956ZM187.844 337.223C187.108 338.498 185.477 338.935 184.202 338.199C182.926 337.462 182.489 335.831 183.226 334.556C183.962 333.281 185.593 332.844 186.868 333.58C188.144 334.316 188.581 335.947 187.844 337.223ZM259.301 379.056L185.285 336.322L185.785 335.456L259.801 378.19L259.301 379.056Z" fill="#0080FF"/>
<path d="M191.93 383.491C191.161 382.235 191.556 380.594 192.812 379.825C194.068 379.056 195.71 379.451 196.479 380.707C197.248 381.963 196.853 383.605 195.596 384.374C194.34 385.142 192.699 384.747 191.93 383.491ZM238.335 355.086C237.566 353.83 237.961 352.188 239.217 351.42C240.473 350.651 242.115 351.046 242.884 352.302C243.653 353.558 243.258 355.2 242.002 355.968C240.745 356.737 239.104 356.342 238.335 355.086ZM193.943 381.673L240.348 353.268L240.87 354.12L194.465 382.526L193.943 381.673Z" fill="#0080FF"/>
<path d="M190.174 348.926C191.152 347.824 192.837 347.724 193.939 348.701C195.04 349.679 195.141 351.364 194.163 352.466C193.186 353.567 191.5 353.668 190.399 352.69C189.297 351.713 189.197 350.027 190.174 348.926ZM211.84 368.153C212.817 367.051 214.503 366.951 215.604 367.928C216.706 368.906 216.806 370.591 215.829 371.693C214.851 372.795 213.166 372.895 212.064 371.917C210.963 370.94 210.862 369.254 211.84 368.153ZM192.501 350.322L214.166 369.549L213.502 370.297L191.837 351.07L192.501 350.322Z" fill="#0080FF"/>
<path d="M72.9372 178.177C71.8958 177.136 71.8958 175.448 72.9372 174.406C73.9786 173.365 75.667 173.365 76.7084 174.406C77.7498 175.448 77.7498 177.136 76.7084 178.177C75.667 179.219 73.9786 179.219 72.9372 178.177ZM197.875 115.873C196.834 114.831 196.834 113.143 197.875 112.101C198.917 111.06 200.605 111.06 201.646 112.101C202.688 113.143 202.688 114.831 201.646 115.873C200.605 116.914 198.917 116.914 197.875 115.873ZM80.6583 92.8108L80.1595 92.776L80.1811 92.4667L80.4678 92.3486L80.6583 92.8108ZM133.997 70.8289L133.806 70.3666L134.05 70.266L134.271 70.4109L133.997 70.8289ZM74.324 176.257L80.1595 92.776L81.1571 92.8457L75.3216 176.327L74.324 176.257ZM80.4678 92.3486L133.806 70.3666L134.187 71.2912L80.8488 93.2731L80.4678 92.3486ZM134.271 70.4109L200.035 113.569L199.486 114.405L133.722 71.2469L134.271 70.4109Z" fill="#C78FF7" fill-opacity="0.95"/>
<circle cx="2.81206" cy="2.81206" r="2.81206" transform="matrix(1 1.74846e-07 1.74846e-07 -1 77.7607 96.0532)" fill="#C78FF7" fill-opacity="0.95"/>
<path d="M94.0534 184.159C93.2263 182.941 93.5436 181.282 94.7622 180.455C95.9807 179.628 97.6391 179.945 98.4662 181.164C99.2933 182.383 98.976 184.041 97.7575 184.868C96.5389 185.695 94.8806 185.378 94.0534 184.159ZM149.07 146.815C148.243 145.596 148.56 143.938 149.778 143.111C150.997 142.284 152.655 142.601 153.482 143.82C154.31 145.038 153.992 146.697 152.774 147.524C151.555 148.351 149.897 148.034 149.07 146.815ZM95.979 182.248L150.995 144.904L151.557 145.731L96.5406 183.075L95.979 182.248Z" fill="#3DAFE9"/>
<circle cx="2.81206" cy="2.81206" r="2.81206" transform="matrix(1 1.74846e-07 1.74846e-07 -1 110.189 174.253)" fill="#3DAFE9"/>
<circle cx="3.25234" cy="3.25234" r="3.25234" transform="matrix(1 1.74846e-07 1.74846e-07 -1 127.613 143.384)" fill="#3DAFE9"/>
<circle cx="3.25234" cy="3.25234" r="3.25234" transform="matrix(1 1.74846e-07 1.74846e-07 -1 106.936 122.669)" fill="#3DAFE9"/>
<circle cx="5.62411" cy="5.62411" r="5.62411" transform="matrix(-0.0948536 -0.995491 -0.995491 0.0948536 167.967 76.043)" fill="#5C49EA"/>
<circle cx="5.62411" cy="5.62411" r="5.62411" transform="matrix(-0.0948536 -0.995491 -0.995491 0.0948536 135.71 115.099)" fill="#5C49EA"/>
<line y1="-0.5" x2="50.6552" y2="-0.5" transform="matrix(-0.636847 0.77099 0.77099 0.636847 161.838 70.978)" stroke="#5C49EA"/>
<path d="M153.162 251.818C151.689 251.818 150.495 250.624 150.495 249.151C150.495 247.678 151.689 246.484 153.162 246.484C154.635 246.484 155.828 247.678 155.828 249.151C155.828 250.624 154.635 251.818 153.162 251.818ZM153.162 205.355C151.689 205.355 150.495 204.161 150.495 202.688C150.495 201.216 151.689 200.022 153.162 200.022C154.635 200.022 155.828 201.216 155.828 202.688C155.828 204.161 154.635 205.355 153.162 205.355ZM130.407 229.387L130.079 229.764L129.705 229.44L130.027 229.063L130.407 229.387ZM152.834 249.528L130.079 229.764L130.735 229.009L153.49 248.773L152.834 249.528ZM130.027 229.063L152.781 202.364L153.542 203.013L130.788 229.711L130.027 229.063Z" fill="#3DAFE9"/>
<path d="M355.245 293.966C356.286 292.925 356.286 291.236 355.245 290.195C354.203 289.154 352.515 289.154 351.473 290.195C350.432 291.236 350.432 292.925 351.473 293.966C352.515 295.008 354.203 295.008 355.245 293.966ZM230.971 169.693C232.013 168.651 232.013 166.963 230.971 165.921C229.93 164.88 228.241 164.88 227.2 165.921C226.158 166.963 226.158 168.651 227.2 169.693C228.241 170.734 229.93 170.734 230.971 169.693ZM353.713 291.727L229.439 167.453L228.732 168.161L353.005 292.434L353.713 291.727Z" fill="#3DAFE9"/>
<path d="M275.441 178.689C274.603 179.9 274.905 181.561 276.116 182.399C277.327 183.237 278.988 182.935 279.826 181.724C280.664 180.513 280.362 178.852 279.151 178.014C277.94 177.176 276.279 177.478 275.441 178.689ZM419.944 278.722C419.106 279.933 419.408 281.594 420.619 282.433C421.83 283.271 423.491 282.969 424.329 281.758C425.167 280.547 424.865 278.886 423.654 278.048C422.443 277.209 420.782 277.511 419.944 278.722ZM277.349 180.618L421.852 280.651L422.421 279.829L277.918 179.795L277.349 180.618Z" fill="#5C49EA"/>
<path d="M409.312 241.113C410.081 239.857 409.686 238.215 408.43 237.446C407.173 236.677 405.532 237.072 404.763 238.329C403.994 239.585 404.389 241.226 405.645 241.995C406.901 242.764 408.543 242.369 409.312 241.113ZM313.886 182.702C314.655 181.446 314.26 179.804 313.004 179.035C311.748 178.266 310.106 178.661 309.337 179.917C308.569 181.173 308.964 182.815 310.22 183.584C311.476 184.353 313.117 183.958 313.886 182.702ZM407.298 239.294L311.873 180.883L311.351 181.736L406.776 240.147L407.298 239.294Z" fill="#5C49EA"/>
<path d="M413.432 377.546C414.259 376.328 413.942 374.67 412.723 373.842C411.505 373.015 409.846 373.333 409.019 374.551C408.192 375.77 408.509 377.428 409.728 378.255C410.947 379.082 412.605 378.765 413.432 377.546ZM358.416 340.202C359.243 338.984 358.926 337.325 357.707 336.498C356.489 335.671 354.83 335.988 354.003 337.207C353.176 338.425 353.493 340.084 354.712 340.911C355.93 341.738 357.589 341.421 358.416 340.202ZM411.506 375.635L356.49 338.291L355.929 339.118L410.945 376.463L411.506 375.635Z" fill="#C883CC"/>
<path d="M413.219 173.375C412.242 172.273 410.556 172.173 409.455 173.151C408.353 174.128 408.253 175.814 409.23 176.915C410.208 178.017 411.893 178.117 412.995 177.14C414.096 176.162 414.197 174.477 413.219 173.375ZM368.667 212.913C367.69 211.811 366.004 211.711 364.903 212.688C363.801 213.666 363.701 215.351 364.678 216.453C365.656 217.554 367.341 217.655 368.443 216.677C369.545 215.7 369.645 214.014 368.667 212.913ZM410.893 174.771L366.341 214.309L367.005 215.057L411.557 175.519L410.893 174.771Z" fill="#5C49EA"/>
<circle cx="394.481" cy="364.828" r="2.81206" transform="rotate(-180 394.481 364.828)" fill="#C883CC"/>
<circle cx="376.618" cy="333.518" r="3.25234" transform="rotate(-180 376.618 333.518)" fill="#3DAFE9"/>
<circle cx="397.293" cy="312.804" r="3.25234" transform="rotate(-180 397.293 312.804)" fill="#3DAFE9"/>
<path d="M380.634 134.33C381.675 133.288 381.675 131.6 380.634 130.558C379.592 129.517 377.904 129.517 376.863 130.558C375.821 131.6 375.821 133.288 376.863 134.33C377.904 135.371 379.592 135.371 380.634 134.33ZM255.696 72.0249C256.737 70.9835 256.737 69.2951 255.696 68.2537C254.654 67.2123 252.966 67.2123 251.925 68.2537C250.883 69.2951 250.883 70.9835 251.925 72.0249C252.966 73.0663 254.654 73.0663 255.696 72.0249ZM372.913 48.9632L373.412 48.9283L373.39 48.619L373.103 48.5009L372.913 48.9632ZM319.574 26.9813L319.765 26.519L319.521 26.4184L319.3 26.5632L319.574 26.9813ZM379.247 132.409L373.412 48.9283L372.414 48.9981L378.249 132.479L379.247 132.409ZM373.103 48.5009L319.765 26.519L319.384 27.4435L372.722 49.4255L373.103 48.5009ZM319.3 26.5632L253.536 69.7213L254.085 70.5573L319.849 27.3993L319.3 26.5632Z" fill="#3DAFE9"/>
<circle cx="372.998" cy="49.3945" r="2.81206" transform="rotate(-180 372.998 49.3945)" fill="#3DAFE9"/>
<circle cx="404.227" cy="335.891" r="5.62411" transform="rotate(-180 404.227 335.891)" fill="#C883CC"/>
<circle cx="440.047" cy="300.073" r="5.62411" transform="rotate(-180 440.047 300.073)" fill="#C883CC"/>
<line x1="403.874" y1="335.538" x2="439.693" y2="299.719" stroke="#C883CC"/>
<line x1="376.723" y1="333.164" x2="397.436" y2="312.451" stroke="#3DAFE9"/>
<path d="M354.323 445.203C355.795 445.203 356.989 444.009 356.989 442.536C356.989 441.063 355.795 439.869 354.323 439.869C352.85 439.869 351.656 441.063 351.656 442.536C351.656 444.009 352.85 445.203 354.323 445.203ZM354.323 398.74C355.795 398.74 356.989 397.546 356.989 396.074C356.989 394.601 355.795 393.407 354.323 393.407C352.85 393.407 351.656 394.601 351.656 396.074C351.656 397.546 352.85 398.74 354.323 398.74ZM377.077 422.772L377.405 423.15L377.779 422.825L377.458 422.448L377.077 422.772ZM354.651 442.914L377.405 423.15L376.749 422.395L353.995 442.159L354.651 442.914ZM377.458 422.448L354.703 395.749L353.942 396.398L376.697 423.096L377.458 422.448Z" fill="#3DAFE9"/>
<circle cx="7.1908" cy="7.1908" r="7.1908" transform="matrix(1 1.74846e-07 1.74846e-07 -1 344.81 372.983)" fill="#3DAFE9"/>
<circle cx="7.1908" cy="7.1908" r="7.1908" transform="matrix(1 1.74846e-07 1.74846e-07 -1 299.015 327.186)" fill="#3DAFE9"/>
<path d="M352.27 365.525L287.636 376.396L306.473 319.728" stroke="#3DAFE9" stroke-width="2"/>
<circle cx="8.513" cy="8.513" r="8.013" transform="matrix(1 1.74846e-07 1.74846e-07 -1 251.04 387.138)" stroke="#0080FF"/>
<circle cx="8.513" cy="8.513" r="8.263" transform="matrix(1 1.74846e-07 1.74846e-07 -1 345.81 404.588)" stroke="#3DAFE9" stroke-width="0.5"/>
</g>
</g>
<defs>
<filter id="filter0_f_2058_204" x="0.800183" y="12.2185" width="500.18" height="554.037" filterUnits="userSpaceOnUse" color-interpolation-filters="sRGB">
<feFlood flood-opacity="0" result="BackgroundImageFix"/>
<feBlend mode="normal" in="SourceGraphic" in2="BackgroundImageFix" result="shape"/>
<feGaussianBlur stdDeviation="7.1" result="effect1_foregroundBlur_2058_204"/>
</filter>
<clipPath id="clip0_2058_204">
<rect width="254.992" height="217.926" fill="white" transform="translate(115.335 334.13)"/>
</clipPath>
<clipPath id="clip1_2058_204">
<rect width="63.2688" height="106.726" fill="white" transform="translate(215.031 350.107)"/>
</clipPath>
<clipPath id="clip2_2058_204">
<rect width="376.214" height="168.54" fill="white" transform="matrix(0.866044 0.499967 -0.866044 0.499967 160.963 201.202)"/>
</clipPath>
</defs>
</svg>
