<svg width="717" height="533" viewBox="0 0 717 533" fill="none" xmlns="http://www.w3.org/2000/svg">
<g clip-path="url(#clip0_64_4714)">
<path d="M225.616 441.992C227.163 441.097 228.099 439.062 228.099 439.062L356.701 364.796C356.701 364.796 355.765 366.831 354.219 367.726L225.616 441.992Z" fill="#42294D"/>
<path d="M302.533 495.3C307.01 492.737 307.01 486.999 307.01 486.999L435.612 412.733C435.612 412.733 435.612 418.43 431.136 421.035L302.533 495.3Z" fill="#42294D"/>
<path d="M403.259 525.536L404.927 515.932L533.53 441.707L531.861 451.27L403.259 525.536Z" fill="#42294D"/>
<path d="M404.928 515.932L296.918 473.122L425.52 398.897L533.53 441.707L404.928 515.932Z" fill="#603060"/>
<path d="M296.918 473.122C296.918 473.122 277.342 473.122 257.157 453.549C236.971 433.975 231.273 414.402 231.273 414.402L359.876 340.136C359.876 340.136 365.573 359.71 385.759 379.283C405.945 398.857 425.52 398.857 425.52 398.857L296.918 473.122Z" fill="#603060"/>
<path d="M231.273 414.442L161.193 306.523L289.796 232.258L359.876 340.177L231.273 414.442Z" fill="#603060"/>
<path d="M403.258 525.536L307.01 487.04C307.01 487.04 307.01 492.737 302.534 495.341C300.784 496.358 298.383 496.847 295.005 496.358C282.999 494.609 282.999 485.778 282.999 485.778C282.999 485.778 245.761 463.03 236.93 451.067L228.099 439.103C227.611 440.161 224.355 446.061 219.878 439.103C215.076 431.574 219.227 415.745 219.227 415.745L156.798 315.15L161.234 306.523L231.273 414.442C231.273 414.442 236.971 434.016 257.156 453.59C277.342 473.163 296.917 473.163 296.917 473.163L404.927 515.973L403.258 525.536Z" fill="#4C2B53"/>
<path d="M437.363 515.932C436.711 518.333 413.392 532.128 404.927 532.779C396.503 533.389 366.672 518.903 364.474 515.932C362.277 512.961 361.666 503.398 362.236 499.003C362.317 498.352 362.765 497.661 363.457 496.887C367.445 492.411 379.939 486.388 379.939 486.388L396.34 477.232C438.177 497.457 435.857 494.853 438.054 497.05C443.426 502.34 437.892 513.775 437.363 515.932Z" fill="#E07743"/>
<path d="M438.014 497.05C437.689 497.986 437.444 498.678 437.322 499.085C436.671 501.526 413.352 515.321 404.887 515.932C396.463 516.583 366.632 502.015 364.393 499.085C363.986 498.556 363.62 497.783 363.376 496.887C367.364 492.411 379.858 486.388 379.858 486.388L396.259 477.232C438.096 497.457 435.776 494.853 437.973 497.05H438.014Z" fill="#F69E44"/>
<path d="M492.263 444.962C492.263 444.962 508.989 452.938 509.6 454.037C510.21 455.136 511.024 463.275 509.6 464.129C508.175 464.943 504.96 466.815 504.96 466.815C504.96 466.815 507.076 469.948 514.646 466.815C522.216 463.681 534.547 456.438 537.233 451.392C539.919 446.346 535.646 437.434 535.646 437.434C535.646 437.434 507.443 419.285 502.356 423.314C497.268 427.342 492.263 445.003 492.263 445.003V444.962Z" fill="#E07743"/>
<path d="M489.251 431.696C489.251 431.696 505.977 439.672 506.588 440.771C507.198 441.87 508.012 450.008 506.588 450.863C505.163 451.718 501.948 453.549 501.948 453.549C501.948 453.549 504.065 456.682 511.634 453.549C519.204 450.415 531.535 443.172 534.221 438.126C536.907 433.08 532.634 424.168 532.634 424.168C532.634 424.168 504.431 406.019 499.344 410.047C494.257 414.076 489.251 431.737 489.251 431.737V431.696Z" fill="#F69E44"/>
<path d="M158.873 299.565C158.873 299.565 150.246 311.569 152.769 315.761C155.292 319.952 172.955 345.426 172.955 345.426C172.955 345.426 181.42 337.695 181.745 338.224C182.071 338.753 206.814 326.26 206.814 326.26C206.814 326.26 187.036 291.955 184.309 290.083C181.582 288.171 158.833 297.856 158.833 299.565H158.873Z" fill="#E07743"/>
<path d="M179.304 291.019C179.304 291.019 157.409 296.513 159.932 300.745C162.455 304.937 187.28 341.357 187.28 341.357C187.28 341.357 195.745 333.625 196.071 334.154C196.396 334.683 221.14 322.191 221.14 322.191C221.14 322.191 201.361 287.886 198.635 286.014C195.908 284.101 179.263 289.351 179.263 291.019H179.304Z" fill="#F69E44"/>
<path d="M252.721 428.319C252.721 428.319 253.657 404.961 244.216 382.864C234.733 360.768 179.833 304.936 179.833 304.936L308.435 230.711C308.435 230.711 363.335 286.584 372.818 308.639C382.3 330.695 381.324 354.094 381.324 354.094L252.721 428.359V428.319Z" fill="#F0D2A5"/>
<path d="M179.833 304.936H167.827L296.429 230.711H308.435L179.833 304.936Z" fill="#F3DBB6"/>
<path d="M276.325 408.542L246.128 428.319C246.128 428.319 257.808 434.423 267.128 444.962C276.447 455.461 285.685 465.838 285.685 465.838L408.631 391.735L377.335 360.442L276.325 408.582V408.542Z" fill="#E8C085"/>
<path d="M252.721 428.319H246.087L167.827 304.936H179.833C179.833 304.936 234.733 360.808 244.215 382.864C253.698 404.961 252.721 428.319 252.721 428.319Z" fill="#ECC995"/>
<path d="M255.57 432.551C255.57 432.551 259.029 398.083 249.547 370.575C240.064 343.025 167.827 288.862 167.827 288.862L296.429 214.597C296.429 214.597 368.667 268.8 378.149 296.309C387.631 323.859 384.172 358.285 384.172 358.285L255.57 432.551Z" fill="#F7E3C6"/>
<path d="M259.965 432.551C259.965 432.551 261.552 392.671 253.657 368.052C245.762 343.432 196.519 276.207 196.519 276.207L325.162 201.982C325.162 201.982 374.405 269.207 382.3 293.827C390.195 318.447 388.608 358.326 388.608 358.326L260.006 432.592L259.965 432.551Z" fill="#FBECD6"/>
<path d="M233.797 281.904C233.797 281.904 259.355 325.12 264.401 370.249C266.436 388.561 264.401 438.98 264.401 438.98L393.003 364.715C393.003 364.715 395.038 314.296 393.003 295.984C387.957 250.855 362.399 207.638 362.399 207.638L233.797 281.904Z" fill="#FFF5E6"/>
<g clip-path="url(#clip1_64_4714)">
<path d="M317.829 305.796C329.6 291.878 342.076 306.403 344.97 290.881C347.864 275.359 351.892 268.206 342.662 268.206C333.433 268.206 332.846 278.438 327.645 268.206C322.443 257.973 318.963 250.169 330.539 250.82C342.076 251.427 353.652 261.702 358.853 252.987C364.054 244.273 363.468 238.983 354.825 241.194C346.143 243.362 340.902 245.183 341.802 239.287C342.701 233.39 342.701 226.28 342.701 226.28C342.701 226.28 339.221 237.769 345.009 238.42C350.797 239.07 361.904 232.523 365.853 239.027C369.842 245.573 368.239 260.488 365.853 261.095C363.468 261.702 346.378 258.277 341.059 258.277C335.74 258.277 334.606 260.748 335.154 262.613C335.701 264.477 366.127 261.355 368.239 266.948C370.39 272.541 367.496 288.41 352.478 299.899C337.461 311.389 330.03 309.264 336.17 312.603C342.31 315.941 346.104 322.575 359.987 320.103C373.832 317.632 387.128 307.356 397.531 320.103C407.934 332.85 378.525 380.369 370.781 383.924C327.684 403.738 279.072 351.753 317.829 305.796Z" fill="#2DA6DA"/>
<path d="M317.947 317.372C318.26 317.025 318.572 316.679 318.846 316.375C319.12 322.575 324.048 325.263 325.964 326.26C329.953 328.428 335.741 335.279 347.982 335.279C354.747 335.279 360.809 333.327 367.067 331.29C371.408 329.859 375.514 328.472 378.682 328.472C380.754 328.472 382.592 328.992 384.626 331.507C387.325 339.137 367.966 374.343 360.692 379.849C326.238 395.327 285.956 355.179 317.908 317.329L317.947 317.372ZM349.351 288.063C350.133 284.595 350.798 281.343 350.876 278.308C351.814 278.351 352.675 278.438 353.496 278.568C353.027 280.909 351.853 284.335 349.351 288.107V288.063Z" fill="white" fill-opacity="0.53"/>
</g>
<path d="M309.778 402.316C285.319 416.436 267.9 444.962 267.9 444.962L396.503 370.697C396.503 370.697 413.921 342.211 438.38 328.091L309.778 402.356V402.316Z" fill="#F0D2A5"/>
<path d="M407.043 511.619L408.63 499.655L537.232 425.389L535.645 437.394L407.043 511.619Z" fill="#E8C085"/>
<path d="M408.63 499.655C408.63 499.655 321.539 440.323 306.074 439.062C300.132 438.574 294.394 440.69 289.592 443.457L418.194 369.191C423.037 366.424 428.775 364.308 434.676 364.796C450.141 366.058 537.233 425.389 537.233 425.389L408.63 499.655Z" fill="#F0D2A5"/>
<path d="M407.043 511.618L284.912 465.553C284.912 465.553 280.679 456.682 276.406 454.2C276.406 454.2 281.819 447.933 289.592 443.457C294.435 440.69 300.173 438.574 306.074 439.062C321.539 440.324 408.631 499.655 408.631 499.655L407.043 511.659V511.618Z" fill="#ECC995"/>
<path d="M292.319 426.528C278.238 434.667 272.296 446.305 272.296 446.305L400.898 372.04C400.898 372.04 406.84 360.401 420.921 352.263L292.319 426.528Z" fill="#ECC995"/>
<path d="M296.389 429.296C284.383 436.214 274.819 450.09 274.819 450.09L403.422 375.825C403.422 375.825 413.026 361.948 424.991 355.03L296.389 429.296Z" fill="#E8C085"/>
<path d="M410.829 489.847C410.829 489.847 327.197 426.406 309.86 425.47C305.302 425.226 300.703 426.813 296.43 429.296L425.032 355.03C429.305 352.548 433.904 350.961 438.462 351.205C455.799 352.141 539.431 415.582 539.431 415.582L410.829 489.847Z" fill="#F7E3C6"/>
<path d="M398.212 446.305C398.212 446.305 354.015 417.576 319.829 418.837C308.434 419.244 299.359 422.459 292.318 426.528L420.921 352.263C427.961 348.193 437.037 345.019 448.432 344.572C482.617 343.31 526.814 372.04 526.814 372.04L398.212 446.305Z" fill="#FBECD6"/>
<path d="M360.649 391.329C360.649 391.329 343.923 390.922 324.348 396.13C319.26 397.473 314.377 399.63 309.737 402.316L438.34 328.05C442.979 325.365 447.863 323.208 452.95 321.865C472.525 316.656 489.251 317.063 489.251 317.063L360.649 391.329Z" fill="#FFF5E6"/>
</g>
<g opacity="0.6">
<g clip-path="url(#clip2_64_4714)">
<path d="M182.812 83.9159C184.916 83.9302 186.121 83.9605 188.017 84.1688C190.883 83.6992 195 83.1583 198.59 82.7002C202.256 82.3605 205.5 82.2942 206.846 82.7758C206.837 83.0476 205.023 84.0504 203.171 84.957C202.243 85.4186 201.241 85.8192 200.444 86.1903C199.648 86.5615 198.988 86.8088 198.642 86.8308C196.958 87.1514 195.358 87.4092 193.824 87.6134C192.319 87.8898 190.878 88.1292 189.444 88.3354C188.035 88.5564 186.546 88.6756 185.205 88.9169C183.809 89.1453 182.429 89.3644 181.049 89.5836C175.398 90.4766 169.475 91.8225 162.189 95.022C161.501 95.2712 160.583 96.2006 159.522 97.3611C159.011 97.9524 158.394 98.5751 157.893 99.2644C157.404 99.9611 156.899 100.667 156.372 101.342C156.372 101.342 157.643 100.801 159.051 100.136C158.303 101.071 157.293 102.039 156.081 103.02C155.448 103.504 154.875 104.042 154.287 104.589C153.686 105.128 153.053 105.686 152.42 106.244C151.045 107.334 150.029 108.558 148.884 109.707C147.698 110.851 146.967 112.072 146.268 113.202C147.65 112.374 147.65 112.374 148.661 111.924C147.212 112.657 145.68 113.675 144.385 114.94C143.765 115.58 143.164 116.267 142.573 116.978C141.966 117.699 141.381 118.451 140.976 119.233C140.05 120.804 139.141 122.44 138.631 124.067C138.348 124.882 137.997 125.677 137.778 126.455C137.587 127.231 137.384 128 137.19 128.719C136.822 129.302 136.442 129.802 136.084 130.261C135.768 130.725 135.446 131.148 135.136 131.578C135.11 132.911 134.814 134.237 134.833 135.559C134.794 136.885 134.579 138.238 134.735 139.584C134.834 140.934 134.852 142.33 135.316 143.706C135.497 144.401 135.732 145.109 135.983 145.808C136.247 146.515 136.684 147.21 137.105 147.915C137.417 148.52 137.678 149.169 137.919 149.844C138.234 150.506 138.543 151.201 138.846 151.93C139.348 153.402 140.1 154.908 140.824 156.489C141.127 157.292 141.666 158.046 142.1 158.832C142.579 159.607 142.993 160.419 143.578 161.163C144.775 162.648 145.896 164.163 147.519 165.507C152.029 170.456 157.269 175.679 164.269 179.96C171.198 184.237 179.666 187.611 189.13 188.974C189.905 189.09 190.792 189.288 191.738 189.557C192.702 189.8 193.721 190.129 194.747 190.5C196.76 191.292 198.895 192.266 200.649 193.445C207.57 193.359 215.586 194.699 224.124 196.212C232.601 197.744 241.703 199.508 249.703 200.71C252.676 201.096 254.961 201.732 256.704 202.443C258.496 203.127 259.746 203.885 260.667 204.509C277.757 204.772 296.217 204.643 314.151 205.263C337.122 205.891 360.752 206.051 386.129 208.549C389.63 208.852 396.736 208.763 400.547 208.488C401.954 208.875 403.361 209.262 404.755 209.642C419.847 210.525 434.733 210.401 447.149 212.785C451.387 213.625 454.461 214.531 456.669 215.492C458.897 216.428 460.25 217.394 461.062 218.361C462.677 220.272 462.123 222.132 461.723 223.858C452.005 223.309 441.697 223.914 430.712 224.11C419.701 224.292 407.992 224.107 394.629 221.988C387.375 220.608 374.886 221.229 364.682 221.285C355.882 221.671 347.468 219.658 339.074 221.498C329.642 218.62 304.746 215.994 285.686 216.053C284.305 215.681 286.156 215.53 283.654 215.065C256.34 215.936 227.643 212.409 200.028 206.79C192.96 205.48 185.766 203.488 178.581 201.076C171.383 198.657 164.12 195.905 156.527 193.091C154.864 192.704 150.284 189.099 146.725 187.229C145.229 186.716 143.7 186.222 142.222 185.683C138.134 182.86 133.686 179.831 130.31 176.626C128.514 175.072 127.165 173.407 125.875 171.886C124.786 170.279 123.88 168.759 123.406 167.359C120.63 160.936 117.535 155.363 117.414 149.42C117.348 144.986 116.873 139.264 118.056 133.501C119.22 127.765 121.89 122.048 126.04 118.423C126.884 117.506 128.662 114.451 130.064 112.472C131.235 111.633 132.405 110.795 133.605 109.954C135.109 108.034 134.52 106.419 136.368 104.494C142.781 98.4079 151.995 92.0368 161.713 87.6556C162.865 87.0647 164.11 86.5829 165.313 86.0956C166.53 85.6156 167.714 85.1541 168.882 84.7019C171.151 83.7771 173.552 83.1315 175.703 82.5264C179.985 81.2682 183.911 80.7641 186.784 80.705C185.254 81.4842 179.315 83.9654 182.729 83.9787L182.812 83.9159Z" fill="#2DA6DA"/>
<path d="M257.782 82.4094C256.742 82.7877 258.815 83.4122 260.27 83.6239C259.58 82.8376 259.441 82.0739 257.168 81.0019L261.173 82.0954C264.58 81.4024 257.36 80.8172 260.335 80.8912C262.559 81.5472 264.152 82.1528 262.42 82.5011C262.352 82.111 261.173 82.0954 259.917 81.6656C258.932 82.4268 260.798 83.2452 261.462 84.0166C259.37 83.566 257.38 83.0267 255.272 82.5853C256.165 82.4546 256.93 82.4717 257.782 82.4094Z" fill="#2DA6DA"/>
<path d="M243.047 79.1291C243.562 79.1867 244.085 79.2111 244.578 79.3113C245.064 79.0749 244.981 78.8419 244.612 78.6105C244.227 78.3884 243.519 78.2197 242.814 78.0344C243.644 78.1625 244.265 78.2627 244.698 78.3832C245.111 78.5295 245.358 78.6536 245.493 78.7683C245.762 78.9977 245.567 79.1991 245.302 79.3968C244.745 79.7773 243.907 80.1429 245.567 80.7689C245.749 80.5601 244.926 80.2508 244.131 79.9396C243.349 79.6359 242.567 79.4061 243.059 79.1365L243.047 79.1291Z" fill="#2DA6DA"/>
<path d="M253.356 77.4717C255.387 78.9947 259.033 78.459 258.569 79.8528C256.498 79.0638 254.325 78.2896 252.066 77.5208C252.517 77.4675 252.927 77.4825 253.344 77.4643L253.356 77.4717Z" fill="#2DA6DA"/>
<path d="M197.818 82.6423C195.552 83.6985 196.707 83.1649 192.616 84.1643L198.41 82.5965L197.815 82.659L197.818 82.6423Z" fill="#2DA6DA"/>
<path d="M132.883 141.838C133.444 140.759 134.028 139.785 134.52 138.702C135.027 137.609 135.601 136.389 135.825 134.838C135.799 136.393 134.931 137.961 134.376 139.229C133.764 140.5 133.065 141.482 132.883 141.838Z" fill="#2DA6DA"/>
<path d="M141.778 172.701C141.055 172.911 141.829 173.857 140.184 172.778C139.948 172.07 142.335 172.173 139.459 170.679C140.149 171.391 141.012 172.018 141.778 172.701Z" fill="#2DA6DA"/>
<path d="M140.917 176.323L141.224 177.996C141.423 177.926 141.412 177.236 140.917 176.323Z" fill="#2DA6DA"/>
<path d="M172.276 95.5075L171.78 95.4979C171.626 95.6309 171.479 95.8046 171.338 95.945C171.633 95.8195 171.927 95.694 172.289 95.5149L172.276 95.5075Z" fill="#2DA6DA"/>
<path d="M165.604 98.3968C166.432 98.0812 167.223 97.7434 168.061 97.4518L170.67 96.6122C170.89 96.3516 171.127 96.1558 171.354 95.9359C169.831 96.6079 169.104 96.687 168.374 96.8566C168.016 96.9451 167.654 97.0503 167.2 97.2682C166.784 97.5083 166.278 97.8444 165.62 98.3876L165.604 98.3968Z" fill="#2DA6DA"/>
<path d="M170.889 95.4643L171.779 95.4982C173.176 94.2178 174.902 93.7548 176.745 93.1939C177.667 92.9135 178.647 92.6294 179.706 92.2251C180.778 91.8283 182.068 91.4094 183.434 90.7391C182.202 91.0064 180.992 91.3052 179.788 91.6446C178.661 92.0285 177.544 92.4364 176.482 92.8572C175.419 93.2781 174.386 93.6971 173.423 94.1199C172.498 94.5649 171.682 95.0359 170.885 95.481L170.889 95.4643Z" fill="#2DA6DA"/>
<path d="M174.499 92.5804L175.669 91.4459C177.247 90.8608 177.475 91.2326 177.594 91.4305C178.506 90.9041 179.533 90.4444 180.56 89.9847C180.908 89.4284 178.44 89.9796 175.813 91.0669C174.475 91.5875 173.025 92.1726 171.758 92.6969C170.517 93.236 169.531 93.7753 168.907 94.0614L171.65 93.2626C172.608 93.021 173.558 92.8127 174.512 92.5878L174.499 92.5804Z" fill="#2DA6DA"/>
<path d="M204.104 75.2082C204.104 75.2082 203.999 75.2394 203.938 75.2596C203.999 75.2394 204.056 75.2357 204.117 75.2155L204.104 75.2082Z" fill="#2DA6DA"/>
<path d="M191.496 76.2228L191.656 77.7002C194.242 76.9032 195.862 76.6195 197.579 76.4283C199.308 76.2445 201.069 76.0423 203.953 75.2509C204.014 75.2306 204.059 75.2196 204.119 75.1993C201.613 74.3065 196.191 76.0151 191.512 76.2136L191.496 76.2228Z" fill="#2DA6DA"/>
<path d="M159.135 100.517C159.874 99.9278 160.693 99.4402 161.451 98.9729C162.18 98.5075 162.833 98.0715 163.396 97.6577C164.502 96.856 165.113 96.1187 165.291 95.5567C164.04 96.1457 162.971 96.8217 161.797 97.4552C160.662 98.1108 159.433 98.7313 158.323 99.4017C161.558 98.1853 158.881 99.8347 159.123 100.51L159.135 100.517Z" fill="#2DA6DA"/>
<path d="M150.56 102.861C151.34 102.056 152.395 101.372 153.29 100.633L151.373 101.355C151.55 101.549 151.224 101.989 150.56 102.861Z" fill="#2DA6DA"/>
<path d="M151.373 101.355C151.209 101.168 150.434 101.349 149.334 102.191C149.961 101.889 150.681 101.621 151.373 101.355Z" fill="#2DA6DA"/>
<path d="M155.978 96.3863C152.614 97.1589 154.335 97.7646 150.627 100.112C151.201 100.462 152.046 99.8413 152.995 98.9674C153.449 98.5276 153.957 98.0269 154.446 97.552C154.961 97.092 155.524 96.6782 156.007 96.3845L155.978 96.3863Z" fill="#2DA6DA"/>
<path d="M142.045 106.977L140.026 107.64L141.414 108.201L142.045 106.977Z" fill="#2DA6DA"/>
<path d="M136.575 128.512C135.807 125.89 134.403 130.121 133.404 130.431C134.441 129.773 135.532 129.129 136.575 128.512Z" fill="#2DA6DA"/>
<path d="M135.519 109.397C136.271 109.185 137.011 108.965 137.776 108.76L137.425 108.133C138.148 107.405 139.11 106.243 140.37 105.752C139.812 105.245 139.022 105.805 138.117 106.668C137.267 107.544 136.2 108.663 135.506 109.389L135.519 109.397Z" fill="#2DA6DA"/>
<path d="M131.763 121.339C130.845 122.268 130.149 123.233 129.328 124.181L131.763 121.339Z" fill="#2DA6DA"/>
<path d="M137.086 101.325C136.615 101.035 129.724 104.924 135.931 100.067C134.767 101.021 133.353 102.162 132.493 102.866C131.62 103.563 131.099 103.76 131.372 102.699C128.147 105.953 132.689 103.331 131.368 105.633C132.139 103.678 135.02 102.681 137.07 101.335L137.086 101.325Z" fill="#2DA6DA"/>
<path d="M128.143 108.74C126.487 110.258 124.255 112.184 124.388 113.202C124.96 112.369 125.868 111.637 126.699 110.935C127.518 110.226 128.134 109.529 128.143 108.74Z" fill="#2DA6DA"/>
<path d="M123.081 109.604L126.343 107.498L123.492 108.64L123.081 109.604Z" fill="#2DA6DA"/>
<path d="M116.47 119.565L118.039 116.482C118.662 115.456 119.326 114.436 119.978 113.408L117.638 116.121C116.923 117.038 116.265 117.95 115.591 118.873C114.79 122.326 116.315 120.676 118.21 118.353C117.606 118.983 117.014 119.473 116.486 119.555L116.47 119.565Z" fill="#2DA6DA"/>
<path d="M123.328 113.385C123.531 112.764 123.694 112.137 123.926 111.514C123.522 111.392 121.728 114.086 119.807 116.395C121.252 114.865 122.633 113.519 123.34 113.392L123.328 113.385Z" fill="#2DA6DA"/>
<path d="M119.808 116.395C119.268 117.062 118.728 117.729 118.21 118.353C118.744 117.793 119.268 117.136 119.808 116.395Z" fill="#2DA6DA"/>
<path d="M127.032 154.16C126.456 152.626 126.219 151.031 125.893 149.457C125.765 151.323 126.066 152.807 127.032 154.16Z" fill="#2DA6DA"/>
<path d="M112.257 124.04L111.875 124.928L113.573 125.206C114.001 123.404 112.603 124.092 112.257 124.04Z" fill="#2DA6DA"/>
<path d="M106.247 131.67C104.829 133.363 105.255 136.656 105.417 137.969C106.133 136.905 106.643 135.796 107.048 134.644C107.468 133.483 107.699 132.269 108.277 130.958C107.234 133.588 106.971 131.756 106.235 131.663L106.247 131.67Z" fill="#2DA6DA"/>
<path d="M102.683 139.623L102.956 136.918L103.521 134.178C102.382 134.776 102.172 135.579 102.222 136.512C102.256 137.455 102.728 138.486 102.683 139.623Z" fill="#2DA6DA"/>
<path d="M103.561 148.089C103.805 148.526 104.317 148.083 104.808 148.939C105.134 148.499 105.159 147.848 105.077 147.155C105.041 146.45 105.017 145.679 105.099 145.025C104.579 146.036 103.953 147.078 103.561 148.089Z" fill="#2DA6DA"/>
<path d="M138.758 105.024C137.515 106.394 136.345 107.602 135.39 108.805C136.371 107.913 137.503 107.052 138.523 106.182C139.585 105.317 140.55 104.434 141.744 103.627C141.219 103.841 140.694 104.055 140.169 104.269C139.683 104.505 139.209 104.749 138.758 105.024Z" fill="#2DA6DA"/>
<path d="M585.936 314.239L587.765 312.635C585.173 315.331 581.728 317.867 578.364 320.431C574.657 322.853 570.982 325.33 566.803 327.461C576.519 323.244 586.445 317.395 592.937 310.967C599.455 304.553 602.328 297.846 600.631 292.932C602.878 292.493 606.135 289.147 607.836 285.825C608.292 284.999 608.72 284.175 609.08 283.404C609.354 282.639 609.574 281.935 609.733 281.325C610.051 280.104 610.107 279.287 609.844 279.246C609.714 277.989 609.362 276.77 609.113 275.537C608.806 274.307 608.689 273.057 608.305 271.857C608.741 273.531 608.866 275.265 609.212 276.961C608.853 275.258 608.712 273.533 608.305 271.857C604.413 256.497 597.126 241.246 583.295 227.315C582.403 226.32 581.011 225.258 579.561 223.977C578.826 223.35 578.044 222.676 577.222 221.981C576.324 221.314 575.388 220.626 574.429 219.906C573.454 219.196 572.44 218.463 571.417 217.706C570.362 216.967 569.173 216.262 568.018 215.522C566.848 214.791 565.668 214.036 564.472 213.29C563.183 212.583 561.894 211.876 560.621 211.159C559.316 210.461 558.062 209.719 556.71 209.049C555.341 208.388 553.985 207.734 552.638 207.105C550.016 205.776 547.195 204.664 544.612 203.579C542.064 202.459 539.49 201.546 537.202 200.705C534.929 199.855 532.91 199.096 531.138 198.534C529.1 197.875 527.074 197.222 525.007 196.565C527.221 197.35 529.434 198.136 531.648 198.921C529.258 198.465 526.935 198.029 524.638 197.607C522.341 197.186 520.005 196.891 517.766 196.54C513.322 195.803 508.79 195.384 504.497 194.826C505.661 195.443 505.645 195.822 508.639 196.922L504.656 195.934C502.357 196.047 498.929 195.879 495.54 195.584C492.186 195.255 488.727 195.031 486.434 195.037C487.714 194.594 484.386 194.131 481.41 193.761L482.387 194.234C471.134 193 457.487 192.971 447.196 192.737C445.764 192.705 444.765 192.497 444.175 192.304C440.796 192.404 437.443 192.518 434.084 192.666C435.123 191.918 426.105 192.03 430.991 191.564C423.236 192.443 415.933 191.994 408.572 192.971C383.38 193.388 356.937 194.393 331.785 193.779L332.237 194.096C323.426 193.941 314.863 194.649 305.21 192.64C303.256 192.583 301.113 192.473 298.96 192.338C296.83 192.161 294.671 191.986 292.637 191.828C288.627 191.433 284.994 191.22 282.939 191.548C274.948 189.705 271.158 189.419 263.659 187.085C264.112 187.771 262.155 187.287 260.412 186.872C258.627 186.451 257.313 186.099 258.532 187.024C261.958 189.815 263.215 189.192 266.457 191.378L266.607 191.114C275.727 195.03 286.202 197.956 297.262 200.13C308.316 202.338 319.996 203.725 331.895 204.629C348.214 204.982 365.584 205.646 382.276 205.309C400.293 204.888 419.518 204.037 434.595 203.507C438.201 203.335 440.515 203.969 443.324 204.39C456.929 204.266 473.707 205.272 487.542 206.776C487.28 206.735 487.046 206.693 486.895 206.661C488.731 206.89 490.432 207.152 492.031 207.428C493.626 207.721 495.075 208.114 496.545 208.465C498 208.824 499.471 209.175 500.986 209.514C502.463 209.905 503.986 210.285 505.671 210.63C505.824 210.423 506.878 210.644 507.49 210.646C507.519 210.792 508.189 211.013 509.317 211.294C510.41 211.611 511.973 211.997 513.857 212.42C515.741 212.842 517.958 213.31 520.189 213.932C522.435 214.546 524.998 215.065 527.302 215.823C529.642 216.545 532.093 217.203 534.256 217.954C536.417 218.72 538.442 219.447 540.214 220.082C543.609 221.469 545.933 222.571 546.238 222.913C546.847 223.154 547.498 223.4 548.065 223.709C550.483 225.364 553.01 226.97 554.99 228.833C556.013 229.738 557.02 230.652 558.044 231.557C558.946 232.502 559.847 233.448 560.736 234.386C562.61 236.206 563.972 238.174 565.631 239.926C567.15 241.745 568.537 243.506 570.144 245.08C572.055 246.257 574.034 247.677 575.903 248.627C576.079 250.095 577.555 249.894 578.381 251.461C578.175 252.69 578.27 253.687 578.342 254.504C578.414 255.321 578.624 255.941 578.877 256.327C579.385 257.101 580.073 256.999 580.129 255.812C580.665 256.584 581.185 257.364 581.632 258.158C581.989 258.973 582.346 259.789 582.694 260.581C583.443 262.177 583.789 263.798 584.317 265.285C585.075 266.61 585.51 267.987 586.086 269.373C586.617 270.547 586.215 271.312 585.416 272.07C585.778 273.608 585.711 274.18 585.568 274.78C585.441 275.372 585.148 276.015 584.857 277.694C584.198 278.163 584.727 280.168 584.843 282.248C584.916 283.287 585.187 284.33 585.108 285.19C585.075 286.038 585.005 286.7 584.846 286.94L584.835 286.399C584.491 287.382 584.051 288.273 583.546 289.127C582.93 289.971 582.278 290.777 581.646 291.557C580.984 292.339 580.451 293.12 579.728 293.922C579.035 294.722 578.393 295.552 577.863 296.465C574.417 301.475 570.007 306.539 564.44 311.174L562.333 312.894L561.287 313.749L560.107 314.564C558.524 315.626 557.033 316.723 555.428 317.754C553.732 318.733 552.065 319.71 550.431 320.669C548.783 321.62 547.087 322.451 545.369 323.25C545.642 323.537 546.355 323.155 547.113 322.761C547.859 322.361 548.662 321.956 549.249 322.239C541.259 326.289 531.736 328.973 522.453 331.371C520.689 331.663 518.492 331.836 517.659 331.798C514.611 332.255 516.011 332.528 513.799 332.931L513.321 332.378C510.239 333.535 508.536 332.608 505.591 333.345C505.467 333.625 504.372 333.842 503.293 333.976C503.208 333.3 500.008 334.481 500.148 333.823L500.122 333.882C499.469 333.948 499.008 334.051 498.217 334.019C497.583 334.207 494.296 335.098 490.841 335.893C487.413 336.703 483.92 337.401 483.235 337.56L482.655 337.465C480.842 337.564 479.95 338.064 480.937 338.19L478.759 338.189L479.024 338.139C478.297 338.144 477.586 338.14 476.879 338.119C476.507 338.053 476.199 337.727 476.912 337.419C475.629 337.656 474.207 337.796 473.146 337.609C476.116 338.16 480.175 338.748 483.776 339.276C482.15 339.593 479.517 339.291 477.861 339.388C476.961 339.183 475.615 338.923 474.1 338.731C472.684 338.468 471.04 338.276 469.813 337.993C469.217 337.981 468.271 338.765 467.181 338.283C466.927 337.675 465.714 338.138 464.986 337.625C466.411 337.469 467.379 337.769 468.695 337.883C468.8 337.26 465.971 337.16 465.263 336.844C464.994 336.91 464.405 336.791 463.7 336.68C462.982 336.561 462.44 336.341 461.79 336.316C462.331 336.093 462.215 335.952 461.943 335.813C461.789 335.651 461.504 335.504 461.471 335.301C460.997 335.101 460.699 335.169 460.479 335.43C460.255 335.559 460.146 335.681 460.162 335.82C460.252 335.945 460.441 336.073 460.631 336.201C460.964 336.467 461.256 336.728 460.497 336.9C460.686 336.51 459.298 336.244 459.013 336.024C458.517 336.31 458.94 336.407 458.191 336.528C457.678 336.232 456.877 336.176 457.19 335.803C457.421 335.788 457.466 335.925 457.549 336.01C457.453 335.918 457.799 335.896 458.257 335.883C458.76 335.859 459.519 335.836 460.265 335.805C461.19 335.73 461.866 335.695 462.465 335.616C463.063 335.537 463.332 335.47 462.951 335.453C462.913 335.653 461.037 335.789 459.643 335.779C459.317 335.775 458.875 335.778 458.593 335.763C458.356 335.737 458.103 335.72 457.863 335.711C457.622 335.702 457.411 335.69 457.283 335.69C457.129 335.675 457.052 335.631 457.132 335.733C457.145 335.888 456.835 335.949 456.524 336.01C456.201 336.063 455.922 336.105 456.003 336.281C456.358 336.283 456.701 336.278 457.031 336.265C457.066 336.378 457.044 336.494 456.99 336.629C456.952 336.755 456.93 336.871 456.853 336.975C456.696 337.199 456.405 337.381 456.101 337.409C455.524 337.076 457.321 337.06 458.746 336.978C459.543 336.903 460.353 336.835 460.83 336.796C461.355 336.73 461.592 336.682 461.138 336.678L461.522 336.974C461.305 336.996 461.049 336.996 460.738 336.983C460.472 336.959 460.241 336.899 460.011 336.84C459.552 336.705 459.072 336.538 459.238 336.265C458.796 336.564 458.171 336.406 457.591 336.312L457.601 336.188C457.136 336.086 456.79 335.738 456.252 336.167C457.138 336.825 455.611 337.366 453.78 337.639C451.942 337.944 449.732 337.961 451.179 339.406C451.126 338.563 451.571 338.543 452.132 338.812C452.389 338.96 452.796 339.139 453.258 339.332C453.735 339.515 454.094 339.796 454.665 339.941C454.607 340.093 454.675 340.335 454.945 340.638C455.214 340.942 455.638 341.334 456.465 341.627C458.054 341.953 457.64 341.585 458.104 341.465C458.71 341.87 460.431 342.254 459.83 342.646C461.498 342.408 461.717 343.274 463.504 343.308C465.096 343.248 463.562 343.083 464.724 342.959C465.829 343.062 467.143 343.192 468.414 343.317C469.708 343.399 470.945 343.485 471.854 343.567C472.39 343.968 474.348 344.674 472.466 345.287C468.876 345.153 474.242 344.336 470.463 344.37C471.65 345.314 467.059 344.529 466.038 345.103C466.993 345.618 469.472 345.682 471.561 345.632L471.198 345.515C472.134 345.464 473.527 345.4 474.907 345.403C476.291 345.389 477.677 345.432 478.603 345.653C478.044 345.976 478.841 346.197 477.455 346.301C478.294 346.306 479.146 346.317 480.004 346.296C480.353 346.183 480.718 346.061 480.013 346.024C481.294 345.729 482.457 345.827 483.341 345.969C483.44 346.118 486.94 345.609 490.292 344.976C493.657 344.352 496.868 343.638 496.66 343.758C498.491 343.56 498.925 343.976 500.72 343.443C500.819 343.297 496.433 344.126 492.281 344.776C488.125 345.443 484.196 345.964 485.445 345.835C486.198 345.993 491.538 345.234 496.712 344.306C501.921 343.416 506.947 342.218 507.559 342.442C508.914 342.208 510.54 341.817 510.162 341.561C512.473 341.308 509.58 342.297 511.271 342.313C511.297 342.254 511.098 342.176 511.639 342.1C512.2 342.147 512.738 342.162 513.301 342.192C516.755 341.028 522.205 340.443 525.577 338.807C524.679 339.415 523.735 340.33 521.418 341.208L520.931 341.149C520.624 341.341 518.653 341.902 518.81 342.196C521.205 341.879 523.203 341.333 525.475 340.392C525.952 340.353 526.519 340.292 526.919 340.283C526.884 340.245 526.829 340.232 526.826 340.174C527.713 340.151 527.646 340.204 527.409 340.4C527.374 340.435 527.339 340.471 527.275 340.507C528.21 340.752 530.438 339.97 532.889 338.984C535.354 338.006 538.016 336.809 540.193 336.293C541.265 335.748 540.199 336.112 541.527 335.419C545.832 334.192 548.876 333.309 553.104 331.594C554.018 330.681 553.934 330.522 551.994 330.916C553.057 330.495 554.055 330.038 555.079 329.595C554.267 330.64 555.922 330.174 557.526 329.677C559.117 329.174 560.711 328.653 559.807 329.812C560.36 329.67 561.128 329.375 561.916 328.98C562.661 328.579 563.454 328.076 564.139 327.548C563.991 327.278 563.747 326.842 565.701 325.698C568.828 324.308 568.117 324.674 570.629 323.446C571.564 323.321 570.979 323.925 571.399 324.038C574.097 321.532 575.258 322.535 578.284 320.33C579.931 318.861 583.358 316.038 582.541 315.695C584.824 313.8 585.382 313.937 585.956 314.361L585.936 314.239Z" fill="#2DA6DA"/>
<path d="M384.854 261.483L384.838 261.714L385.048 262.481C386.532 263.061 386.955 264.875 387.571 267.244C387.93 267.156 388.227 266.865 388.725 267.615C389.613 271.396 389.548 269.42 391.471 271.804C391.095 271.014 390.542 270.03 390.705 269.552C391.621 271.17 392.463 272.801 393.485 274.388C393.806 273.522 394.292 272.768 395.276 273.428C396.411 272.551 398.915 273.682 400.702 273.864C400.435 272.953 400.248 272.217 400.276 271.845C400.926 271.796 401.625 272.532 402.265 273.51C402.669 274.15 403.068 274.898 403.393 275.584C403.376 275.149 403.346 274.707 403.708 274.824L402.191 271.954C402.287 271.824 402.431 271.889 402.633 272.024L401.902 271.38L401.846 272.049C401.679 272.323 401.288 271.986 400.91 271.657C400.409 270.924 400.591 270.642 400.586 270.214L399.213 268.831C397.845 268.539 400.538 273.086 398.333 270.834L398.226 269.978C397.41 268.879 396.667 267.324 395.571 266.728C396.327 265.225 393.159 263.618 394.801 262.996C393.767 258.262 390.284 252.558 390.88 247.49C389.463 246.931 387.12 247.425 385.131 245.686C385.216 245.237 385.241 244.586 385.568 244.738L384.563 243.437C384.776 244.262 385.127 245.259 384.759 245.767C383.631 243.62 384.012 246.998 383.314 246.927L381.87 243.97L381.704 244.391C382.686 250 383.241 255.75 384.693 261.353L384.812 261.477L384.854 261.483Z" fill="#2DA6DA"/>
<path d="M390.966 162.917L389.586 163.21C387.011 151.473 384.341 138.665 379.643 125.518C374.97 112.386 368.228 98.8345 357.333 86.2288C346.506 73.6436 331.559 61.9117 311.55 53.1311C301.591 48.7668 290.403 45.0968 278.1 42.5743C265.857 40.0316 252.672 38.6253 239.137 38.3096C240.48 37.312 241.833 36.3385 243.208 35.3965C227.98 35.6732 211.383 37.2286 195.42 40.2394C187.429 41.6838 179.615 43.6923 172.259 45.836C168.607 46.9966 165.051 48.1758 161.643 49.4031C159.979 50.0677 158.331 50.723 156.699 51.369C155.092 52.0299 153.482 52.6335 152.004 53.3684C153.694 52.7926 155.455 52.3685 157.183 51.8889L162.388 50.4982C160.296 51.6173 157.288 52.9096 153.867 54.4253C150.536 56.0669 146.587 57.6655 142.844 59.6784C140.949 60.6535 138.978 61.5841 137.068 62.5683C135.261 63.6118 133.415 64.6331 131.617 65.6266C130.711 66.1197 129.822 66.6035 128.948 67.0782C128.126 67.5824 127.317 68.094 126.527 68.5798C124.947 69.5513 123.405 70.4711 121.936 71.304L122.136 70.1818C129.617 65.2112 129.557 65.4533 127.659 66.0752C125.934 66.76 122.715 68.1151 124.788 65.4521C125.543 64.7796 126.509 64.1922 127.356 63.5549L125.157 64.2616C124.281 64.9008 123.523 65.59 122.718 66.2329C122.55 65.7668 121.624 65.5462 124.221 63.7951C122.855 64.5393 121.582 65.3188 120.254 66.0852C117.582 67.0357 115.402 67.7165 113.638 68.1573C111.913 68.6203 110.626 68.8746 109.553 68.9016C107.433 68.9705 106.359 68.258 105.412 67.2497C104.51 68.0959 105.357 68.4367 105.176 69.3111C105.093 69.7437 104.742 70.3167 103.799 71.1573C103.335 71.573 102.715 72.0644 101.909 72.6334C101.158 73.2153 100.256 73.9136 99.1235 74.7005L99.1307 73.4673C96.8364 76.169 94.3497 78.7596 92.6063 81.4838L87.6992 84.5239C85.8473 87.4441 85.2649 89.3795 82.375 92.1437L84.2349 93.3652C78.9561 99.6259 75.5916 107.047 73.8155 114.351C71.9048 121.688 72.1909 128.853 72.6165 135.286C74.2681 136.406 74.4393 138.794 75.5561 141.6C75.7912 142.308 76.0489 143.048 76.3162 143.812C76.4578 144.189 76.5963 144.583 76.7796 144.966C77.0077 145.338 77.2646 145.708 77.5056 146.087C78.5142 147.592 79.7501 149.1 81.335 150.495C81.624 149.277 81.9516 148.081 82.292 146.892C82.2069 145.92 81.9582 144.834 81.5684 143.667C81.3418 142.465 81.0639 141.16 80.6705 139.788C80.4578 139.111 80.2515 138.401 80.0323 137.683C79.8419 136.964 79.7764 136.187 79.6243 135.416C79.4068 133.868 78.9105 132.289 78.8144 130.627C77.9817 124.015 79.3091 116.525 82.2407 110.479L83.574 110.954C83.2337 112.216 83.4023 113.274 83.4141 114.407C83.3971 115.543 83.2393 116.744 82.4577 118.306C83.2716 118.517 84.1591 118.716 85.0466 118.914C87.6253 117.485 89.2613 115.548 90.077 113.36C90.4143 112.262 90.9501 111.093 91.2104 109.877C91.5411 108.664 91.6668 107.407 91.8789 106.144C92.1904 104.884 92.4442 103.626 92.6948 102.386C92.9166 101.147 93.1289 99.9586 93.5783 98.8699C94.378 96.6905 95.1271 94.8513 96.2397 93.8684C101.1 89.7299 101.132 91.4291 100.499 93.4829C100.103 94.5106 99.7662 95.6826 99.6169 96.3167C99.4516 96.9601 99.4967 97.0969 100.103 96.0804C98.5401 100.922 101.528 99.0636 105.384 95.8601C107.434 94.2916 109.932 92.3907 112.212 90.6597C114.675 89.0158 116.965 87.6047 118.476 86.9252C118.923 86.6667 119.4 86.4063 119.851 86.1311C120.357 85.8688 120.865 85.59 121.387 85.3185C122.42 84.7516 123.46 84.1513 124.506 83.5178C125.578 82.8991 126.528 82.1731 127.705 81.5231C128.857 80.8582 130.04 80.1748 131.205 79.4434C135.817 76.5288 141.25 73.5703 146.9 70.6637C147.572 70.2759 148.331 69.9565 149.092 69.6205L151.319 68.6161C152.826 67.9533 154.247 67.2221 155.806 66.5889C158.996 65.3836 162.046 64.0229 165.314 63.0099C166.924 62.4803 168.473 61.8971 170.06 61.41C171.658 60.9469 173.239 60.4931 174.775 60.0503C175.544 59.829 176.312 59.6076 177.051 59.388C177.826 59.2074 178.572 59.0285 179.318 58.8496C180.806 58.5085 182.253 58.1619 183.64 57.8355C192.739 54.9811 203.474 53.0337 214.5 52.2513C225.528 51.4523 236.796 51.7887 247.243 53.073C257.721 54.3389 267.369 56.5287 275.704 59.1799C284.094 61.8441 291.441 64.9772 297.83 67.9082C303.668 70.8906 312.843 73.9898 320.236 77.8514C327.622 81.6724 333.047 86.1522 331.912 90.3171C336.537 95.6283 340.452 101.231 343.66 107.035L341.943 107.153C344.574 111.275 347.228 115.504 349.629 119.937C352.107 124.341 354.447 128.869 356.502 133.472C360.735 142.638 363.991 152.072 366.058 160.948C367.649 168.737 371.906 170.529 368.007 174.853C367.029 191.114 374.194 209.323 377.196 224.945C378.576 224.652 380.373 226.576 380.681 223.54C377.701 215.799 380.244 205.964 383.999 205.084L383.957 208.144L386.466 202.298L384.906 199.052C385.756 198.028 386.437 197.516 387.036 197.363C387.786 191.259 390.671 185.61 392.304 179.129C390.823 174.949 390.077 170.049 390.979 162.924L390.966 162.917Z" fill="#2DA6DA"/>
<path d="M329.246 151.147L329.191 150.913L328.69 150.18C326.89 149.768 326.018 147.991 324.345 145.788C324.022 145.915 323.834 146.231 322.993 145.561C321.84 143.769 321.404 143.369 320.92 143.145C320.449 142.929 319.946 142.879 318.4 141.875C319.148 142.584 320.152 143.441 320.188 143.923C318.507 142.51 316.964 141.046 315.158 139.69C315.236 140.548 315.103 141.32 313.77 140.846C313.016 141.815 309.873 141.127 307.961 141.223C308.677 142.024 309.194 142.674 309.354 143.025C308.701 143.165 307.631 142.584 306.53 141.783C306.479 141.901 306.425 142.036 306.461 142.223C306.438 142.043 306.492 141.908 306.53 141.783C305.806 141.253 305.055 140.635 304.397 140.053C304.635 140.448 304.844 140.846 304.44 140.798L307.343 143.194C307.318 143.327 307.126 143.29 306.86 143.192L307.921 143.675L307.67 143.05C307.708 142.776 308.272 143.028 308.807 143.282C309.644 143.894 309.546 144.188 309.755 144.586L311.736 145.693C313.254 145.794 308.574 141.891 311.787 143.709L312.249 144.493C313.555 145.413 315.021 146.758 316.3 147.219C316.082 148.737 319.991 149.886 318.516 150.678C321.237 155.075 326.279 160.368 326.705 165.379C328.269 165.838 330.51 165.211 332.934 166.832C332.919 167.285 333.007 167.946 332.635 167.805L333.877 169.057C333.533 168.249 333.025 167.254 333.309 166.735C334.818 168.825 333.864 165.467 334.527 165.499C335.271 166.446 335.853 167.428 336.508 168.397L336.603 167.972C334.62 162.394 332.703 156.689 329.404 151.294L329.224 151.19L329.246 151.147Z" fill="#2DA6DA"/>
<path d="M323.894 250.356L325.29 250.127C325.973 262.231 326.473 275.521 329.827 289.148C331.598 295.989 334.385 302.806 338.241 309.464C342.187 316.101 347.42 322.483 353.696 328.544C378.977 352.687 424.42 370.463 478.544 372.713C477.159 373.705 475.803 374.621 474.383 375.574C489.531 375.417 506.116 374.298 522.268 371.415C538.408 368.598 553.951 364.053 566.223 358.597C564.488 359.11 562.763 359.647 561.034 360.126L555.736 361.408C557.89 360.343 560.981 359.135 564.379 357.514C566.107 356.739 567.941 355.932 569.861 355.12C571.701 354.206 573.614 353.279 575.572 352.341C576.558 351.875 577.544 351.41 578.529 350.945C579.505 350.456 580.417 349.929 581.38 349.432C583.28 348.424 585.161 347.442 587.024 346.485C588.783 345.469 590.511 344.472 592.171 343.528C593.819 342.577 595.489 341.731 596.922 340.86C596.849 341.242 596.802 341.64 596.687 342.017C588.773 346.793 589.077 346.692 590.885 346.018C592.649 345.355 595.983 344.067 593.718 346.693L591.172 348.622L593.304 347.894L595.853 345.949C596.004 346.424 596.888 346.639 594.24 348.361L598.322 346.137C601.068 345.248 603.267 344.615 605.009 344.143C606.76 343.695 608.149 343.5 609.209 343.465C611.355 343.411 612.381 344.152 613.267 345.18C614.227 344.33 613.396 343.98 613.635 343.102C613.762 342.659 614.155 342.091 615.073 341.236C616.019 340.378 617.57 339.261 619.924 337.665L619.83 338.904C622.432 336.232 624.647 333.502 626.669 330.81C628.3 329.794 630.002 328.782 631.585 327.72C633.53 324.761 634.199 322.82 636.973 319.989L635.142 318.766C637.753 315.6 639.937 312.133 641.646 308.54C643.34 304.956 644.524 301.207 645.289 297.641C646.829 290.459 647.385 283.429 647.084 276.644C645.435 275.433 645.152 272.961 643.592 269.789C642.782 268.213 641.635 266.462 639.579 264.776C637.536 263.098 634.426 261.487 630.229 260.652C631.768 261.837 632.985 263.074 633.637 264.356C635.675 266.364 637.521 268.925 638.69 271.835C639.887 274.742 640.537 277.98 640.732 281.362C641.123 288.125 639.767 295.468 636.989 301.529L635.624 301.073C636.003 298.559 635.221 296.834 636.612 293.721L634.055 293.094C628.814 295.942 628.212 300.895 627.348 305.955C626.994 308.484 626.477 311.048 625.856 313.257C625.166 315.463 624.263 317.287 623.176 318.285C620.839 320.389 619.613 320.993 619.046 320.832C618.52 320.676 618.656 319.739 618.927 318.694C619.525 316.602 620.58 314.053 619.309 316.089C620.156 313.66 619.684 312.926 618.695 313.186C617.661 313.457 616.024 314.728 613.996 316.328C610.047 319.57 604.102 323.95 600.953 325.235C597.145 327.211 592.948 329.812 588.179 332.58C587.005 333.287 585.763 333.974 584.516 334.695C583.268 335.415 581.812 336.107 580.475 336.85C579.109 337.594 577.742 338.338 576.344 339.101C574.86 339.795 573.401 340.504 571.925 341.223C569.072 342.752 565.81 343.953 562.77 345.338L561.606 345.848L560.396 346.294L557.992 347.178C556.389 347.749 554.84 348.406 553.233 348.919C546.787 350.996 540.468 352.778 534.84 353.851C525.708 356.65 514.909 358.486 503.822 359.067C492.742 359.689 481.422 359.175 470.835 357.809C460.186 356.463 450.404 354.233 441.3 351.729C439.06 351.082 436.929 350.388 434.773 349.752C433.696 349.426 432.632 349.107 431.581 348.796C430.581 348.44 429.565 348.094 428.578 347.746C426.572 347.068 424.62 346.403 422.71 345.743C420.867 345.03 419.075 344.347 417.29 343.704C416.473 343.361 415.594 343.039 414.659 342.72C413.771 342.374 412.841 342.022 411.867 341.681C409.934 340.991 407.781 340.338 405.589 339.664C401.432 338.169 396.683 336.794 392.747 335.039C388.57 333.422 385.14 331.478 382.542 329.572C380.053 327.618 378.761 325.506 378.975 323.487C373.678 318.49 369.097 313.241 365.531 307.674L367.257 307.507C365.793 305.553 364.563 303.494 363.079 301.493C361.839 299.41 360.586 297.32 359.336 295.213C358.786 294.139 358.252 293.055 357.706 291.964C357.143 290.882 356.536 289.811 356.152 288.685C355.299 286.438 354.197 284.305 353.513 281.916C350.347 272.608 348.598 262.882 347.982 253.716C347.649 245.675 343.77 243.62 348.249 239.391C349.949 231.064 349.65 222.1 348.409 213.221C347.201 204.323 344.971 195.556 343.184 187.599C341.801 187.909 339.937 185.964 339.734 189.043C343.004 196.914 339.859 206.992 336.052 207.768C336.137 206.727 336.234 205.694 336.274 204.664C335.387 206.627 334.372 208.59 333.431 210.54L334.687 213.887C333.767 214.907 333.047 215.397 332.451 215.533C331.118 221.708 327.6 227.322 325.108 233.825C325.981 238.134 325.975 243.172 323.974 250.384L323.894 250.356Z" fill="#2DA6DA"/>
</g>
</g>
<path fill-rule="evenodd" clip-rule="evenodd" d="M373.301 98.51C369.382 98.51 366.182 95.3097 366.182 91.391C366.182 87.4723 369.382 84.272 373.301 84.272C377.219 84.272 380.42 87.4723 380.42 91.391C380.42 95.3097 377.219 98.51 373.301 98.51ZM415.818 111.38C415.818 116.67 420.128 120.981 425.418 120.981C430.709 120.981 435.019 116.67 435.019 111.38C435.019 106.09 430.709 101.779 425.418 101.779C420.128 101.779 415.818 106.09 415.818 111.38ZM449.912 139.335C443.707 139.335 438.613 134.306 438.613 128.036C438.613 121.766 443.642 116.737 449.912 116.737C456.182 116.737 461.211 121.766 461.211 128.036C461.211 129.931 460.751 131.713 459.937 133.276C461.629 132.47 463.522 132.019 465.521 132.019C472.699 132.019 478.518 137.838 478.518 145.016C478.518 152.194 472.699 158.013 465.521 158.013C458.343 158.013 452.524 152.194 452.524 145.016C452.524 142.626 453.169 140.387 454.294 138.463C452.949 139.025 451.468 139.335 449.912 139.335ZM327.517 94.1342C327.517 97.9223 330.586 100.992 334.374 100.992C338.163 100.992 341.232 97.9223 341.232 94.1342C341.232 90.346 338.163 87.2764 334.374 87.2764C330.586 87.2764 327.517 90.346 327.517 94.1342ZM296.887 136.262C292.903 136.262 289.637 132.996 289.637 129.012C289.637 125.028 292.903 121.762 296.887 121.762C300.871 121.762 304.137 125.028 304.137 129.012C304.137 132.996 300.871 136.262 296.887 136.262ZM265.731 173.102C265.731 177.478 269.323 181.07 273.699 181.07C278.075 181.07 281.667 177.478 281.667 173.102C281.667 168.726 278.075 165.134 273.699 165.134C269.323 165.134 265.731 168.726 265.731 173.102ZM260.44 214.902C255.607 214.902 251.754 210.984 251.754 206.216C251.754 201.448 255.672 197.529 260.44 197.529C265.208 197.529 269.127 201.448 269.127 206.216C269.127 210.984 265.208 214.902 260.44 214.902ZM307.27 222.603C303.482 222.603 300.412 219.533 300.412 215.745C300.412 211.958 303.482 208.888 307.27 208.888C311.057 208.888 314.128 211.958 314.128 215.745C314.128 219.533 311.057 222.603 307.27 222.603ZM352.988 157.101C349.396 157.101 346.522 154.228 346.522 150.635C346.522 147.043 349.396 144.169 352.988 144.169C356.58 144.169 359.454 147.043 359.454 150.635C359.454 154.228 356.58 157.101 352.988 157.101ZM360.759 143.58C360.759 147.433 363.894 150.568 367.748 150.568C371.601 150.568 374.736 147.433 374.736 143.58C374.736 139.726 371.601 136.591 367.748 136.591C363.894 136.591 360.759 139.726 360.759 143.58ZM363.505 178.975C359.847 178.975 356.843 175.97 356.843 172.313C356.843 168.655 359.847 165.651 363.505 165.651C367.162 165.651 370.167 168.655 370.167 172.313C370.167 175.97 367.162 178.975 363.505 178.975ZM402.364 281.515C397.639 281.515 393.808 277.685 393.808 272.959C393.808 268.234 397.639 264.403 402.364 264.403C407.089 264.403 410.92 268.234 410.92 272.959C410.92 277.685 407.089 281.515 402.364 281.515ZM427.378 295.689C422.023 295.689 417.712 291.379 417.712 286.023C417.712 280.668 422.023 276.357 427.378 276.357C432.734 276.357 437.045 280.668 437.045 286.023C437.045 291.379 432.734 295.689 427.378 295.689ZM483.874 269.045C476.768 269.045 471.008 263.284 471.008 256.178C471.008 249.072 476.768 243.312 483.874 243.312C490.98 243.312 496.741 249.072 496.741 256.178C496.741 263.284 490.98 269.045 483.874 269.045ZM468.003 224.762C468.003 232.554 474.319 238.87 482.11 238.87C489.901 238.87 496.218 232.554 496.218 224.762C496.218 216.971 489.901 210.655 482.11 210.655C474.319 210.655 468.003 216.971 468.003 224.762ZM438.092 218.948C438.092 225.74 443.578 231.226 450.37 231.226C457.163 231.226 462.649 225.74 462.649 218.948C462.649 212.155 457.163 206.669 450.37 206.669C443.578 206.669 438.092 212.155 438.092 218.948ZM461.278 255.98C454.485 255.98 448.999 250.494 448.999 243.702C448.999 236.909 454.485 231.423 461.278 231.423C468.07 231.423 473.556 236.909 473.556 243.702C473.556 250.494 468.07 255.98 461.278 255.98ZM468.917 311.559C468.917 317.176 473.424 321.682 479.04 321.682C484.657 321.682 489.164 317.176 489.164 311.559C489.164 305.942 484.657 301.436 479.04 301.436C473.424 301.436 468.917 305.942 468.917 311.559ZM451.48 382.817C445.928 382.817 441.356 378.31 441.356 372.693C441.356 367.076 445.863 362.57 451.48 362.57C457.097 362.57 461.603 367.076 461.603 372.693C461.603 378.31 457.097 382.817 451.48 382.817ZM405.238 387.849C405.238 394.511 410.658 399.932 417.32 399.932C423.982 399.932 429.403 394.511 429.403 387.849C429.403 381.187 423.982 375.766 417.32 375.766C410.658 375.766 405.238 381.187 405.238 387.849ZM351.944 406.725C343.454 406.725 336.596 399.867 336.596 391.377C336.596 382.886 343.454 376.028 351.944 376.028C360.435 376.028 367.293 382.886 367.293 391.377C367.293 399.867 360.435 406.725 351.944 406.725ZM300.607 375.503C292.744 375.503 286.369 369.128 286.369 361.264C286.369 353.401 292.744 347.026 300.607 347.026C308.471 347.026 314.845 353.401 314.845 361.264C314.845 369.128 308.471 375.503 300.607 375.503ZM266.646 336.183C260.115 336.183 254.824 330.892 254.824 324.361C254.824 317.83 260.115 312.54 266.646 312.54C273.177 312.54 278.468 317.83 278.468 324.361C278.468 330.892 273.177 336.183 266.646 336.183ZM234.579 304.835C234.579 310.844 239.477 315.743 245.486 315.743C251.495 315.743 256.393 310.844 256.393 304.835C256.393 298.827 251.495 293.928 245.486 293.928C239.477 293.928 234.579 298.827 234.579 304.835ZM227.849 276.295C222.102 276.295 217.465 271.658 217.465 265.911C217.465 260.163 222.102 255.526 227.849 255.526C232.412 255.526 236.274 258.447 237.673 262.527C237.613 262.074 237.582 261.612 237.582 261.143C237.582 255.461 242.153 250.889 247.836 250.889C253.518 250.889 258.09 255.461 258.09 261.143C258.09 266.825 253.518 271.397 247.836 271.397C243.331 271.397 239.525 268.524 238.14 264.502C238.202 264.963 238.234 265.433 238.234 265.911C238.234 271.658 233.597 276.295 227.849 276.295ZM328.692 298.629C328.692 304.04 333.078 308.426 338.489 308.426C343.9 308.426 348.286 304.04 348.286 298.629C348.286 293.219 343.9 288.833 338.489 288.833C333.078 288.833 328.692 293.219 328.692 298.629ZM358.147 305.092C358.147 310.579 362.588 315.02 368.074 315.02C373.561 315.02 378.002 310.579 378.002 305.092C378.002 299.606 373.561 295.165 368.074 295.165C362.588 295.165 358.147 299.606 358.147 305.092ZM356.385 336.835C356.385 343.616 361.882 349.114 368.663 349.114C369.278 349.114 369.881 349.069 370.471 348.981C364.753 350.609 360.565 355.871 360.565 362.112C360.565 369.651 366.677 375.762 374.216 375.762C381.755 375.762 387.866 369.651 387.866 362.112C387.866 354.573 381.755 348.461 374.216 348.461C373.501 348.461 372.799 348.516 372.113 348.622C377.215 347.132 380.942 342.419 380.942 336.835C380.942 330.054 375.445 324.556 368.663 324.556C361.882 324.556 356.385 330.054 356.385 336.835Z" fill="url(#paint0_radial_64_4714)" fill-opacity="0.3" style="mix-blend-mode:color-dodge"/>
<defs>
<radialGradient id="paint0_radial_64_4714" cx="0" cy="0" r="1" gradientUnits="userSpaceOnUse" gradientTransform="translate(357.298 232.173) rotate(90.0642) scale(174.552 151.179)">
<stop stop-color="white"/>
<stop offset="1" stop-color="#999999" stop-opacity="0"/>
</radialGradient>
<clipPath id="clip0_64_4714">
<rect width="387.109" height="330.838" fill="white" transform="translate(152.321 201.982)"/>
</clipPath>
<clipPath id="clip1_64_4714">
<rect width="96.0497" height="162.023" fill="white" transform="translate(303.672 226.237)"/>
</clipPath>
<clipPath id="clip2_64_4714">
<rect width="571.138" height="255.863" fill="white" transform="matrix(0.866044 0.499967 -0.866044 0.499967 221.589 0.180664)"/>
</clipPath>
</defs>
</svg>
