<svg width="380" height="471" viewBox="0 0 380 471" fill="none" xmlns="http://www.w3.org/2000/svg">
<g opacity="0.3">
<line x1="100.134" y1="322.981" x2="78.2408" y2="344.874" stroke="#3DAFE9"/>
<path d="M251.771 141.638C250.729 142.68 250.729 144.368 251.771 145.41C252.812 146.451 254.5 146.451 255.542 145.41C256.583 144.368 256.583 142.68 255.542 141.638C254.5 140.597 252.812 140.597 251.771 141.638ZM315.646 205.514C314.605 206.555 314.605 208.244 315.646 209.285C316.688 210.327 318.376 210.327 319.417 209.285C320.459 208.244 320.459 206.555 319.417 205.514C318.376 204.473 316.688 204.473 315.646 205.514ZM253.303 143.877L317.178 207.753L317.885 207.046L254.01 143.17L253.303 143.877Z" fill="#3DAFE9"/>
<path d="M238.593 69.2184C237.856 67.943 236.225 67.506 234.95 68.2424C233.674 68.9787 233.237 70.6096 233.974 71.8851C234.71 73.1605 236.341 73.5975 237.617 72.8612C238.892 72.1248 239.329 70.4939 238.593 69.2184ZM160.361 114.385C159.625 113.11 157.994 112.673 156.719 113.409C155.443 114.146 155.006 115.777 155.742 117.052C156.479 118.327 158.11 118.764 159.385 118.028C160.661 117.292 161.098 115.661 160.361 114.385ZM236.033 70.1187L157.802 115.286L158.302 116.152L236.533 70.9848L236.033 70.1187Z" fill="#0080FF"/>
<path d="M164.939 65.4872C164.171 66.7433 164.566 68.3849 165.822 69.1538C167.078 69.9227 168.719 69.5277 169.488 68.2716C170.257 67.0155 169.862 65.3739 168.606 64.605C167.35 63.8361 165.708 64.2311 164.939 65.4872ZM213.987 95.51C213.219 96.7662 213.614 98.4077 214.87 99.1766C216.126 99.9455 217.767 99.5505 218.536 98.2944C219.305 97.0383 218.91 95.3967 217.654 94.6278C216.398 93.8589 214.756 94.2539 213.987 95.51ZM166.953 67.3058L216.001 97.3287L216.523 96.4758L167.475 66.4529L166.953 67.3058Z" fill="#0080FF"/>
<path d="M163.068 101.841C164.046 102.942 165.731 103.043 166.833 102.065C167.934 101.088 168.035 99.4023 167.057 98.3008C166.079 97.1992 164.394 97.0987 163.292 98.0763C162.191 99.0539 162.09 100.739 163.068 101.841ZM185.967 81.5187C186.945 82.6203 188.63 82.7208 189.732 81.7432C190.833 80.7656 190.934 79.0802 189.956 77.9786C188.979 76.8771 187.293 76.7766 186.192 77.7542C185.09 78.7317 184.99 80.4172 185.967 81.5187ZM165.394 100.445L188.294 80.1226L187.63 79.3747L164.731 99.6968L165.394 100.445Z" fill="#0080FF"/>
<path d="M39.148 282.522C38.1066 283.563 38.1066 285.251 39.148 286.293C40.1894 287.334 41.8779 287.334 42.9193 286.293C43.9607 285.251 43.9607 283.563 42.9193 282.522C41.8779 281.48 40.1894 281.48 39.148 282.522ZM171.201 348.375C170.16 349.416 170.16 351.105 171.201 352.146C172.243 353.187 173.931 353.187 174.973 352.146C176.014 351.105 176.014 349.416 174.973 348.375C173.931 347.333 172.243 347.333 171.201 348.375ZM47.2015 372.643L46.7027 372.677L46.7243 372.987L47.011 373.105L47.2015 372.643ZM103.578 395.876L103.387 396.339L103.631 396.439L103.852 396.294L103.578 395.876ZM40.5349 284.442L46.7027 372.677L47.7003 372.608L41.5324 284.372L40.5349 284.442ZM47.011 373.105L103.387 396.339L103.768 395.414L47.392 372.18L47.011 373.105ZM103.852 396.294L173.361 350.678L172.813 349.842L103.303 395.458L103.852 396.294Z" fill="#C78FF7" fill-opacity="0.95"/>
<circle cx="47.1109" cy="372.187" r="2.97221" fill="#C78FF7" fill-opacity="0.95"/>
<path d="M61.484 276.177C60.6569 277.396 60.9742 279.054 62.1928 279.881C63.4113 280.708 65.0697 280.391 65.8968 279.172C66.7239 277.954 66.4066 276.296 65.1881 275.468C63.9695 274.641 62.3112 274.959 61.484 276.177ZM119.633 315.648C118.806 316.867 119.124 318.525 120.342 319.352C121.561 320.179 123.219 319.862 124.046 318.644C124.873 317.425 124.556 315.767 123.338 314.939C122.119 314.112 120.461 314.43 119.633 315.648ZM63.4096 278.089L121.559 317.56L122.121 316.732L63.9712 277.261L63.4096 278.089Z" fill="#3DAFE9"/>
<circle cx="81.3863" cy="289.535" r="2.97221" fill="#3DAFE9"/>
<circle cx="100.268" cy="322.627" r="3.43756" fill="#3DAFE9"/>
<circle cx="78.4131" cy="344.521" r="3.43756" fill="#3DAFE9"/>
<circle cx="133.003" cy="395.719" r="5.94441" transform="rotate(95.4429 133.003 395.719)" fill="#5C49EA"/>
<circle cx="98.9072" cy="354.439" r="5.94441" transform="rotate(95.4429 98.9072 354.439)" fill="#5C49EA"/>
<line x1="132.618" y1="396.036" x2="98.5216" y2="354.757" stroke="#5C49EA"/>
<path d="M123.833 204.733C122.36 204.733 121.166 205.927 121.166 207.399C121.166 208.872 122.36 210.066 123.833 210.066C125.306 210.066 126.5 208.872 126.5 207.399C126.5 205.927 125.306 204.733 123.833 204.733ZM123.833 253.841C122.36 253.841 121.166 255.035 121.166 256.508C121.166 257.981 122.36 259.175 123.833 259.175C125.306 259.175 126.5 257.981 126.5 256.508C126.5 255.035 125.306 253.841 123.833 253.841ZM99.7826 228.289L99.4547 227.911L99.0807 228.236L99.402 228.613L99.7826 228.289ZM123.505 207.022L99.4547 227.911L100.11 228.666L124.161 207.777L123.505 207.022ZM99.402 228.613L123.452 256.832L124.214 256.184L100.163 227.965L99.402 228.613Z" fill="#3DAFE9"/>
<path d="M337.319 160.139C338.361 161.18 338.361 162.869 337.319 163.91C336.278 164.951 334.589 164.951 333.548 163.91C332.507 162.869 332.507 161.18 333.548 160.139C334.589 159.097 336.278 159.097 337.319 160.139ZM205.968 291.49C207.01 292.531 207.01 294.22 205.968 295.261C204.927 296.302 203.238 296.302 202.197 295.261C201.156 294.22 201.156 292.531 202.197 291.49C203.238 290.448 204.927 290.448 205.968 291.49ZM335.787 162.378L204.436 293.729L203.729 293.022L335.08 161.671L335.787 162.378Z" fill="#3DAFE9"/>
<path d="M253.201 281.788C252.363 280.577 252.665 278.916 253.876 278.078C255.087 277.24 256.748 277.542 257.586 278.753C258.424 279.964 258.122 281.625 256.911 282.463C255.7 283.301 254.039 282.999 253.201 281.788ZM405.934 176.058C405.095 174.847 405.397 173.186 406.608 172.347C407.819 171.509 409.48 171.811 410.319 173.022C411.157 174.233 410.855 175.894 409.644 176.732C408.433 177.571 406.772 177.269 405.934 176.058ZM255.109 279.859L407.841 174.129L408.411 174.951L255.678 280.682L255.109 279.859Z" fill="#5C49EA"/>
<path d="M394.442 215.974C395.211 217.23 394.816 218.871 393.56 219.64C392.304 220.409 390.662 220.014 389.894 218.758C389.125 217.502 389.52 215.86 390.776 215.091C392.032 214.322 393.673 214.717 394.442 215.974ZM293.582 277.711C294.351 278.967 293.956 280.609 292.7 281.378C291.444 282.147 289.802 281.752 289.033 280.496C288.265 279.239 288.66 277.598 289.916 276.829C291.172 276.06 292.813 276.455 293.582 277.711ZM392.429 217.792L291.569 279.53L291.047 278.677L391.907 216.939L392.429 217.792Z" fill="#5C49EA"/>
<path d="M398.8 71.7772C399.627 72.9958 399.31 74.6541 398.091 75.4813C396.873 76.3084 395.215 75.9911 394.387 74.7726C393.56 73.554 393.878 71.8957 395.096 71.0685C396.315 70.2414 397.973 70.5587 398.8 71.7772ZM340.651 111.248C341.478 112.467 341.161 114.125 339.942 114.952C338.723 115.779 337.065 115.462 336.238 114.244C335.411 113.025 335.728 111.367 336.947 110.54C338.165 109.712 339.824 110.03 340.651 111.248ZM396.875 73.6886L338.725 113.16L338.164 112.332L396.313 72.8612L396.875 73.6886Z" fill="#C883CC"/>
<path d="M398.588 287.39C397.611 288.491 395.925 288.592 394.824 287.614C393.722 286.637 393.622 284.951 394.599 283.85C395.577 282.748 397.262 282.648 398.364 283.625C399.465 284.603 399.566 286.288 398.588 287.39ZM351.499 245.6C350.522 246.702 348.836 246.802 347.735 245.825C346.633 244.847 346.533 243.162 347.51 242.06C348.488 240.958 350.173 240.858 351.275 241.836C352.376 242.813 352.477 244.499 351.499 245.6ZM396.262 285.994L349.173 244.204L349.837 243.456L396.926 285.246L396.262 285.994Z" fill="#5C49EA"/>
<circle cx="2.97221" cy="2.97221" r="2.97221" transform="matrix(-1 0 0 1 381.868 82.1626)" fill="#C883CC"/>
<circle cx="3.43756" cy="3.43756" r="3.43756" transform="matrix(-1 0 0 1 363.453 114.79)" fill="#3DAFE9"/>
<circle cx="3.43756" cy="3.43756" r="3.43756" transform="matrix(-1 0 0 1 385.307 136.683)" fill="#3DAFE9"/>
<path d="M364.154 328.867C365.195 329.908 365.195 331.597 364.154 332.638C363.112 333.68 361.424 333.68 360.382 332.638C359.341 331.597 359.341 329.908 360.382 328.867C361.424 327.825 363.112 327.825 364.154 328.867ZM232.1 394.72C233.142 395.761 233.142 397.45 232.1 398.491C231.059 399.533 229.371 399.533 228.329 398.491C227.288 397.45 227.288 395.761 228.329 394.72C229.371 393.679 231.059 393.679 232.1 394.72ZM356.1 418.988L356.599 419.023L356.577 419.332L356.291 419.45L356.1 418.988ZM299.724 442.222L299.915 442.684L299.671 442.784L299.45 442.64L299.724 442.222ZM362.767 330.787L356.599 419.023L355.602 418.953L361.769 330.718L362.767 330.787ZM356.291 419.45L299.915 442.684L299.534 441.759L355.91 418.525L356.291 419.45ZM299.45 442.64L229.94 397.024L230.489 396.188L299.999 441.804L299.45 442.64Z" fill="#3DAFE9"/>
<circle cx="2.97221" cy="2.97221" r="2.97221" transform="matrix(-1 0 0 1 359.163 415.56)" fill="#3DAFE9"/>
<line y1="-0.5" x2="30.9614" y2="-0.5" transform="matrix(0.707107 0.707107 0.707107 -0.707107 360.502 118.228)" stroke="#3DAFE9"/>
<path d="M336.451 0.333333C337.924 0.333333 339.118 1.52724 339.118 3C339.118 4.47276 337.924 5.66667 336.451 5.66667C334.978 5.66667 333.785 4.47276 333.785 3C333.785 1.52724 334.978 0.333333 336.451 0.333333ZM336.451 49.442C337.924 49.442 339.118 50.6359 339.118 52.1087C339.118 53.5815 337.924 54.7754 336.451 54.7754C334.978 54.7754 333.785 53.5815 333.785 52.1087C333.785 50.6359 334.978 49.442 336.451 49.442ZM360.502 23.8896L360.829 23.5121L361.203 23.8369L360.882 24.2139L360.502 23.8896ZM336.779 2.62251L360.829 23.5121L360.174 24.267L336.123 3.37749L336.779 2.62251ZM360.882 24.2139L336.832 52.433L336.071 51.7844L360.121 23.5652L360.882 24.2139Z" fill="#3DAFE9"/>
<circle cx="333.996" cy="84.115" r="7.60032" fill="#3DAFE9"/>
<circle cx="285.592" cy="132.52" r="7.60032" fill="#3DAFE9"/>
<path d="M334.28 84.3975L265.966 72.9073L285.876 132.802" stroke="#3DAFE9" stroke-width="2"/>
<circle cx="236.284" cy="70.5515" r="8.49783" stroke="#0080FF"/>
<circle cx="336.451" cy="52.1087" r="8.74783" stroke="#3DAFE9" stroke-width="0.5"/>
</g>
</svg>
