<svg width="433" height="471" viewBox="0 0 433 471" fill="none" xmlns="http://www.w3.org/2000/svg">
<g opacity="0.3">
<line y1="-0.5" x2="30.9614" y2="-0.5" transform="matrix(-0.707107 -0.707107 -0.707107 0.707107 99.7803 148.113)" stroke="#3DAFE9"/>
<path d="M251.772 329.101C250.73 328.06 250.73 326.372 251.772 325.33C252.813 324.289 254.501 324.289 255.543 325.33C256.584 326.372 256.584 328.06 255.543 329.101C254.501 330.143 252.813 330.143 251.772 329.101ZM315.647 265.226C314.606 264.184 314.606 262.496 315.647 261.455C316.689 260.413 318.377 260.413 319.418 261.455C320.46 262.496 320.46 264.184 319.418 265.226C318.377 266.267 316.689 266.267 315.647 265.226ZM253.304 326.862L317.179 262.987L317.886 263.694L254.011 327.569L253.304 326.862Z" fill="#3DAFE9"/>
<path d="M238.592 401.519C237.855 402.794 236.224 403.231 234.949 402.495C233.673 401.759 233.236 400.128 233.973 398.852C234.709 397.577 236.34 397.14 237.616 397.876C238.891 398.613 239.328 400.243 238.592 401.519ZM160.36 356.352C159.624 357.627 157.993 358.064 156.718 357.328C155.442 356.592 155.005 354.961 155.742 353.685C156.478 352.41 158.109 351.973 159.384 352.709C160.66 353.446 161.097 355.077 160.36 356.352ZM236.032 400.619L157.801 355.452L158.301 354.586L236.532 399.753L236.032 400.619Z" fill="#0080FF"/>
<path d="M164.939 405.253C164.171 403.996 164.566 402.355 165.822 401.586C167.078 400.817 168.719 401.212 169.488 402.468C170.257 403.724 169.862 405.366 168.606 406.135C167.35 406.904 165.708 406.509 164.939 405.253ZM213.987 375.23C213.219 373.974 213.614 372.332 214.87 371.563C216.126 370.794 217.767 371.189 218.536 372.445C219.305 373.701 218.91 375.343 217.654 376.112C216.398 376.881 214.756 376.486 213.987 375.23ZM166.953 403.434L216.001 373.411L216.523 374.264L167.475 404.287L166.953 403.434Z" fill="#0080FF"/>
<path d="M163.068 368.898C164.046 367.797 165.731 367.696 166.833 368.674C167.934 369.652 168.035 371.337 167.057 372.439C166.079 373.54 164.394 373.641 163.292 372.663C162.191 371.685 162.09 370 163.068 368.898ZM185.967 389.221C186.945 388.119 188.63 388.019 189.732 388.996C190.833 389.974 190.934 391.659 189.956 392.761C188.979 393.862 187.293 393.963 186.192 392.985C185.09 392.008 184.99 390.322 185.967 389.221ZM165.394 370.294L188.294 390.617L187.63 391.365L164.731 371.042L165.394 370.294Z" fill="#0080FF"/>
<path d="M39.148 188.218C38.1066 187.176 38.1066 185.488 39.148 184.446C40.1894 183.405 41.8779 183.405 42.9193 184.446C43.9607 185.488 43.9607 187.176 42.9193 188.218C41.8779 189.259 40.1894 189.259 39.148 188.218ZM171.201 122.365C170.16 121.323 170.16 119.635 171.201 118.593C172.243 117.552 173.931 117.552 174.973 118.593C176.014 119.635 176.014 121.323 174.973 122.365C173.931 123.406 172.243 123.406 171.201 122.365ZM47.2015 98.0967L46.7027 98.0619L46.7243 97.7526L47.011 97.6345L47.2015 98.0967ZM103.578 74.8629L103.387 74.4007L103.631 74.3001L103.852 74.4449L103.578 74.8629ZM40.5349 186.297L46.7027 98.0619L47.7003 98.1316L41.5324 186.367L40.5349 186.297ZM47.011 97.6345L103.387 74.4007L103.768 75.3252L47.392 98.559L47.011 97.6345ZM103.852 74.4449L173.361 120.061L172.813 120.897L103.303 75.281L103.852 74.4449Z" fill="#C78FF7" fill-opacity="0.95"/>
<circle cx="2.97221" cy="2.97221" r="2.97221" transform="matrix(1 1.74846e-07 1.74846e-07 -1 44.1387 101.524)" fill="#C78FF7" fill-opacity="0.95"/>
<path d="M61.485 194.562C60.6579 193.344 60.9752 191.685 62.1937 190.858C63.4123 190.031 65.0707 190.348 65.8978 191.567C66.7249 192.785 66.4076 194.444 65.1891 195.271C63.9705 196.098 62.3122 195.781 61.485 194.562ZM119.634 155.091C118.807 153.873 119.125 152.214 120.343 151.387C121.562 150.56 123.22 150.877 124.047 152.096C124.874 153.314 124.557 154.973 123.339 155.8C122.12 156.627 120.462 156.31 119.634 155.091ZM63.4106 192.651L121.56 153.18L122.122 154.007L63.9722 193.478L63.4106 192.651Z" fill="#3DAFE9"/>
<circle cx="2.97221" cy="2.97221" r="2.97221" transform="matrix(1 1.74846e-07 1.74846e-07 -1 78.4141 184.177)" fill="#3DAFE9"/>
<circle cx="3.43756" cy="3.43756" r="3.43756" transform="matrix(1 1.74846e-07 1.74846e-07 -1 96.8301 151.55)" fill="#3DAFE9"/>
<circle cx="3.43756" cy="3.43756" r="3.43756" transform="matrix(1 1.74846e-07 1.74846e-07 -1 74.9756 129.656)" fill="#3DAFE9"/>
<circle cx="5.94441" cy="5.94441" r="5.94441" transform="matrix(-0.0948536 -0.995491 -0.995491 0.0948536 139.482 80.374)" fill="#5C49EA"/>
<circle cx="5.94441" cy="5.94441" r="5.94441" transform="matrix(-0.0948536 -0.995491 -0.995491 0.0948536 105.389 121.654)" fill="#5C49EA"/>
<line y1="-0.5" x2="53.54" y2="-0.5" transform="matrix(-0.636847 0.77099 0.77099 0.636847 133.004 75.0205)" stroke="#5C49EA"/>
<path d="M123.834 266.007C122.361 266.007 121.167 264.813 121.167 263.34C121.167 261.867 122.361 260.673 123.834 260.673C125.307 260.673 126.501 261.867 126.501 263.34C126.501 264.813 125.307 266.007 123.834 266.007ZM123.834 216.898C122.361 216.898 121.167 215.704 121.167 214.231C121.167 212.758 122.361 211.564 123.834 211.564C125.307 211.564 126.501 212.758 126.501 214.231C126.501 215.704 125.307 216.898 123.834 216.898ZM99.7835 242.45L99.4557 242.828L99.0817 242.503L99.403 242.126L99.7835 242.45ZM123.506 263.717L99.4557 242.828L100.111 242.073L124.162 262.962L123.506 263.717ZM99.403 242.126L123.453 213.907L124.215 214.555L100.164 242.775L99.403 242.126Z" fill="#3DAFE9"/>
<path d="M337.318 310.6C338.36 309.559 338.36 307.871 337.318 306.829C336.277 305.788 334.588 305.788 333.547 306.829C332.506 307.871 332.506 309.559 333.547 310.6C334.588 311.642 336.277 311.642 337.318 310.6ZM205.967 179.249C207.009 178.208 207.009 176.52 205.967 175.478C204.926 174.437 203.237 174.437 202.196 175.478C201.155 176.52 201.155 178.208 202.196 179.249C203.237 180.291 204.926 180.291 205.967 179.249ZM335.786 308.361L204.435 177.01L203.728 177.717L335.079 309.068L335.786 308.361Z" fill="#3DAFE9"/>
<path d="M253.202 188.952C252.364 190.163 252.666 191.824 253.877 192.662C255.088 193.501 256.749 193.198 257.587 191.988C258.425 190.777 258.123 189.115 256.912 188.277C255.701 187.439 254.04 187.741 253.202 188.952ZM405.934 294.683C405.096 295.893 405.398 297.555 406.609 298.393C407.82 299.231 409.481 298.929 410.32 297.718C411.158 296.507 410.856 294.846 409.645 294.008C408.434 293.17 406.773 293.472 405.934 294.683ZM255.11 190.881L407.842 296.611L408.412 295.789L255.679 190.059L255.11 190.881Z" fill="#5C49EA"/>
<path d="M394.442 254.765C395.211 253.509 394.816 251.868 393.56 251.099C392.304 250.33 390.662 250.725 389.894 251.981C389.125 253.237 389.52 254.879 390.776 255.647C392.032 256.416 393.673 256.021 394.442 254.765ZM293.582 193.028C294.351 191.771 293.956 190.13 292.7 189.361C291.444 188.592 289.802 188.987 289.033 190.243C288.265 191.499 288.66 193.141 289.916 193.91C291.172 194.679 292.813 194.284 293.582 193.028ZM392.429 252.947L291.569 191.209L291.047 192.062L391.907 253.799L392.429 252.947Z" fill="#5C49EA"/>
<path d="M398.801 398.963C399.628 397.744 399.311 396.086 398.092 395.258C396.874 394.431 395.215 394.749 394.388 395.967C393.561 397.186 393.879 398.844 395.097 399.671C396.316 400.498 397.974 400.181 398.801 398.963ZM340.652 359.491C341.479 358.273 341.162 356.615 339.943 355.787C338.724 354.96 337.066 355.278 336.239 356.496C335.412 357.715 335.729 359.373 336.948 360.2C338.166 361.027 339.825 360.71 340.652 359.491ZM396.876 397.051L338.726 357.58L338.164 358.407L396.314 397.879L396.876 397.051Z" fill="#C883CC"/>
<path d="M398.588 183.35C397.611 182.248 395.925 182.148 394.824 183.125C393.722 184.103 393.622 185.788 394.599 186.89C395.577 187.991 397.262 188.092 398.364 187.114C399.465 186.137 399.566 184.451 398.588 183.35ZM351.499 225.139C350.522 224.038 348.836 223.937 347.735 224.915C346.633 225.892 346.533 227.578 347.51 228.679C348.488 229.781 350.173 229.881 351.275 228.904C352.376 227.926 352.477 226.241 351.499 225.139ZM396.262 184.746L349.173 226.535L349.837 227.283L396.926 185.494L396.262 184.746Z" fill="#5C49EA"/>
<circle cx="378.897" cy="385.605" r="2.97221" transform="rotate(-180 378.897 385.605)" fill="#C883CC"/>
<circle cx="360.016" cy="352.512" r="3.43756" transform="rotate(-180 360.016 352.512)" fill="#3DAFE9"/>
<circle cx="381.869" cy="330.619" r="3.43756" transform="rotate(-180 381.869 330.619)" fill="#3DAFE9"/>
<path d="M364.154 141.872C365.195 140.831 365.195 139.143 364.154 138.101C363.112 137.06 361.424 137.06 360.383 138.101C359.341 139.143 359.341 140.831 360.383 141.872C361.424 142.914 363.112 142.914 364.154 141.872ZM232.1 76.0193C233.142 74.9779 233.142 73.2894 232.1 72.248C231.059 71.2066 229.371 71.2066 228.329 72.248C227.288 73.2894 227.288 74.9779 228.329 76.0193C229.371 77.0607 231.059 77.0607 232.1 76.0193ZM356.1 51.7515L356.599 51.7167L356.577 51.4074L356.291 51.2893L356.1 51.7515ZM299.724 28.5177L299.915 28.0554L299.671 27.9548L299.45 28.0997L299.724 28.5177ZM362.767 139.952L356.599 51.7167L355.602 51.7864L361.769 140.022L362.767 139.952ZM356.291 51.2893L299.915 28.0554L299.534 28.98L355.91 52.2138L356.291 51.2893ZM299.45 28.0997L229.94 73.7156L230.489 74.5517L299.999 28.9357L299.45 28.0997Z" fill="#3DAFE9"/>
<circle cx="356.191" cy="52.207" r="2.97221" transform="rotate(-180 356.191 52.207)" fill="#3DAFE9"/>
<circle cx="389.198" cy="355.02" r="5.94441" transform="rotate(-180 389.198 355.02)" fill="#C883CC"/>
<circle cx="427.058" cy="317.162" r="5.94441" transform="rotate(-180 427.058 317.162)" fill="#C883CC"/>
<line x1="388.845" y1="354.667" x2="426.703" y2="316.808" stroke="#C883CC"/>
<line x1="360.147" y1="352.158" x2="382.04" y2="330.265" stroke="#3DAFE9"/>
<path d="M336.451 470.406C337.924 470.406 339.118 469.212 339.118 467.739C339.118 466.266 337.924 465.073 336.451 465.073C334.978 465.073 333.785 466.266 333.785 467.739C333.785 469.212 334.978 470.406 336.451 470.406ZM336.451 421.297C337.924 421.297 339.118 420.103 339.118 418.631C339.118 417.158 337.924 415.964 336.451 415.964C334.978 415.964 333.785 417.158 333.785 418.631C333.785 420.103 334.978 421.297 336.451 421.297ZM360.502 446.85L360.83 447.227L361.203 446.902L360.882 446.525L360.502 446.85ZM336.779 468.117L360.83 447.227L360.174 446.472L336.123 467.362L336.779 468.117ZM360.882 446.525L336.832 418.306L336.071 418.955L360.121 447.174L360.882 446.525Z" fill="#3DAFE9"/>
<circle cx="7.60032" cy="7.60032" r="7.60032" transform="matrix(1 1.74846e-07 1.74846e-07 -1 326.396 394.225)" fill="#3DAFE9"/>
<circle cx="7.60032" cy="7.60032" r="7.60032" transform="matrix(1 1.74846e-07 1.74846e-07 -1 277.993 345.82)" fill="#3DAFE9"/>
<path d="M334.281 386.342L265.967 397.832L285.877 337.938" stroke="#3DAFE9" stroke-width="2"/>
<circle cx="8.99783" cy="8.99783" r="8.49783" transform="matrix(1 1.74846e-07 1.74846e-07 -1 227.286 409.186)" stroke="#0080FF"/>
<circle cx="8.99783" cy="8.99783" r="8.74783" transform="matrix(1 1.74846e-07 1.74846e-07 -1 327.454 427.63)" stroke="#3DAFE9" stroke-width="0.5"/>
</g>
</svg>
