<svg width="555" height="415" viewBox="0 0 555 415" fill="none" xmlns="http://www.w3.org/2000/svg">
<path d="M364.463 361.599C313.621 390.99 231.145 390.99 180.302 361.599C129.459 332.208 129.422 284.596 180.302 255.205C231.145 225.814 313.621 225.814 364.463 255.205C415.306 284.596 415.343 332.208 364.463 361.599Z" fill="#FFF6D3"/>
<path d="M176.297 258.768C176.297 290.2 220.427 315.694 274.867 315.694C329.307 315.694 373.438 290.2 373.438 258.768V275.69C373.438 307.122 329.307 332.616 274.867 332.616C220.427 332.616 176.297 307.122 176.297 275.69V258.768Z" fill="#102A4B"/>
<path d="M274.867 315.694C329.306 315.694 373.438 290.207 373.438 258.767C373.438 227.328 329.306 201.841 274.867 201.841C220.428 201.841 176.297 227.328 176.297 258.767C176.297 290.207 220.428 315.694 274.867 315.694Z" fill="#0E3D5B"/>
<path d="M264.187 308.235C154.418 304.635 93.7474 205.106 127.235 128.957C143.107 93.0345 189.388 56.4812 226.176 46.8698C198.659 62.2333 197.435 88.0989 224.767 104.464C251.838 120.644 296.34 121.09 324.153 105.466C363.944 83.1261 344.92 44.9401 293.558 36.8872C296.377 36.8872 302.236 37.9263 310.024 40.2271C347.85 51.4343 388.049 77.3741 413.304 113.074C462.997 183.397 411.561 313.059 264.15 308.235H264.187Z" fill="#190623"/>
<path d="M237.152 252.793C186.606 251.123 146.036 228.857 120.596 197.684C115.738 174.825 117.555 151 127.234 128.957C140.399 99.0462 174.702 68.6161 207.225 53.7722C238.265 66.7977 286.4 63.8661 310.023 40.2271C332.978 47.0182 372.881 64.9422 403.291 100.234C414.342 170.26 358.01 256.726 237.152 252.793Z" fill="#250D2D"/>
<path d="M157.792 67.5771C157.792 104.947 210.229 135.266 274.942 135.266C339.654 135.266 392.091 104.947 392.091 67.5771V87.6907C392.091 125.06 339.654 155.379 274.942 155.379C210.229 155.379 157.792 125.06 157.792 87.6907V67.5771Z" fill="#08637D"/>
<path d="M274.867 135.377C339.567 135.377 392.017 105.072 392.017 67.6885C392.017 30.3052 339.567 0 274.867 0C210.167 0 157.718 30.3052 157.718 67.6885C157.718 105.072 210.167 135.377 274.867 135.377Z" fill="#03899E"/>
<path d="M381.967 67.6884C381.967 70.6201 381.596 73.5146 380.929 76.335C373.66 106.431 328.936 129.551 274.867 129.551C220.798 129.551 176.074 106.394 168.806 76.335C168.101 73.5146 167.768 70.6201 167.768 67.6884C167.768 33.5102 215.718 5.78906 274.867 5.78906C334.017 5.78906 381.967 33.5102 381.967 67.6884Z" fill="#102A4B"/>
<path d="M380.928 76.3347C373.66 106.431 328.936 129.55 274.867 129.55C220.798 129.55 176.074 106.394 168.806 76.3347C176.074 46.2386 220.798 23.1191 274.867 23.1191C328.936 23.1191 373.66 46.2757 380.928 76.3347Z" fill="#43B3EF"/>
<path d="M168.806 76.3351C168.806 76.3351 164.207 59.9325 177.335 51.4344C190.463 42.9362 202.108 48.7625 202.108 48.7625C202.108 48.7625 191.576 48.28 192.021 45.7566C192.466 43.2331 189.647 34.3638 194.468 32.3599C199.326 30.3188 201.143 29.688 199.326 27.3129C197.472 24.9379 191.539 20.1136 190.5 20.7445C189.462 21.3754 186.421 23.1195 186.421 23.1195C186.421 23.1195 189.499 12.9143 200.29 10.8733C211.082 8.83221 210.711 13.2854 211.824 17.6644C212.936 22.0062 227.844 19.4828 230.106 22.0062C232.368 24.5297 233.704 25.2719 233.704 25.2719C233.704 25.2719 234.594 16.18 242.863 15.6604C251.096 15.1409 252.617 23.1195 252.617 23.1195C252.617 23.1195 255.435 11.8752 269.712 12.135C283.953 12.3948 285.993 23.1195 285.993 23.1195C285.993 23.1195 289.033 7.60759 303.163 10.3537C317.329 13.137 319.072 25.0121 319.072 25.0121C319.072 25.0121 331.087 22.6742 333.238 28.3149C335.389 33.9556 334.313 34.5494 334.313 34.5494C334.313 34.5494 340.321 25.5317 352.707 31.0982C365.094 36.6646 363.313 47.7976 363.313 47.7976C363.313 47.7976 364.945 44.7546 371.138 50.3211C377.331 55.8876 377.146 66.6123 377.146 66.6123C377.146 66.6123 378.296 67.2803 380.929 68.8018C383.562 70.3233 380.001 79.5637 380.001 79.5637L309.244 86.1321C158.422 76.5949 180.821 78.3391 168.806 76.3722V76.3351Z" fill="#43B3EF"/>
<path d="M180.525 292.203C180.525 292.203 160.648 301.815 157.273 318.663C153.898 335.51 149.856 339.555 151.191 341.596C152.526 343.637 153.231 344.305 155.753 344.305C158.274 344.305 159.609 342.116 159.609 342.116C159.609 342.116 170.735 324.6 173.59 321.372C176.446 318.18 199.698 314.469 201.886 310.09C204.074 305.711 180.488 292.203 180.488 292.203H180.525Z" fill="#13173A"/>
<path d="M274.867 415C274.867 415 269.601 415 268.934 409.211C268.192 402.642 271.122 381.341 267.599 369.206C264.076 357.071 260.479 331.465 260.479 331.465C260.479 331.465 259.477 325.12 265.077 322.002C269.49 319.553 274.904 319.182 274.904 319.182V414.963L274.867 415Z" fill="#102A4B"/>
<path d="M369.21 292.203C369.21 292.203 395.169 301.815 398.507 318.663C401.881 335.51 399.842 339.555 398.507 341.596C397.172 343.637 396.467 344.305 393.945 344.305C391.424 344.305 390.089 342.116 390.089 342.116C390.089 342.116 385.045 324.6 382.19 321.372C379.334 318.143 350 314.469 347.812 310.09C345.624 305.711 369.21 292.203 369.21 292.203Z" fill="#13173A"/>
<path d="M274.867 415C274.867 415 280.133 415 280.801 409.211C281.542 402.642 278.613 381.341 282.136 369.206C285.659 357.071 289.256 331.465 289.256 331.465C289.256 331.465 289.256 325.008 284.657 322.002C280.43 319.256 274.83 319.182 274.83 319.182V414.963L274.867 415Z" fill="#13173A"/>
<path d="M213.493 148.811C209.97 146.732 204.185 150.072 200.662 156.233C197.139 162.393 197.139 169.035 200.662 171.077L149.708 141.648C147.446 140.35 146.63 137.232 147.223 133.558C148.632 124.8 157.273 116.302 162.539 119.345L213.493 148.811Z" fill="#603060"/>
<path d="M213.493 148.811C217.053 150.852 217.053 157.494 213.493 163.655C209.933 169.815 204.185 173.118 200.662 171.077C197.139 169.036 197.102 162.393 200.662 156.233C204.222 150.073 209.97 146.77 213.493 148.811Z" fill="#48224C"/>
<path d="M209.933 154.971C211.528 155.899 211.528 158.867 209.933 161.613C208.339 164.36 205.78 165.844 204.185 164.916C202.591 163.988 202.591 161.02 204.185 158.274C205.78 155.527 208.339 154.043 209.933 154.934V154.971Z" fill="#3C1B41"/>
<path d="M211.861 188.667C200.587 205.403 186.607 211.6 148.706 189.965C114.552 170.446 115.182 151.297 124.342 136.267C132.983 122.166 144.701 122.5 151.376 124.207C149.3 126.916 147.705 130.256 147.186 133.558C143.366 133.187 137.544 134.635 131.981 143.838C119.669 164.137 145.74 177.348 164.875 188.036C186.718 200.208 199.141 191.079 203.999 183.768C213.493 169.481 204.185 164.953 204.185 164.953L209.933 154.971C209.933 154.971 228.215 164.397 211.861 188.704V188.667Z" fill="#3C1B41"/>
<path opacity="0.18" d="M247.425 94.9271C247.425 102.646 236.597 108.918 223.246 108.918C209.896 108.918 199.03 102.683 199.03 94.9271C199.03 81.5675 209.859 70.7314 223.246 70.7314C236.634 70.7314 247.425 81.5675 247.425 94.9271Z" fill="#03899E"/>
<path opacity="0.18" d="M360.606 86.8001C360.606 94.519 349.777 100.791 336.427 100.791C323.077 100.791 312.248 94.5561 312.248 86.8001C312.248 73.4406 323.077 62.6045 336.427 62.6045C349.777 62.6045 360.606 73.4406 360.606 86.8001Z" fill="#03899E"/>
<path opacity="0.18" d="M269.305 43.2332C269.305 48.9852 261.258 53.6239 251.356 53.6239C241.455 53.6239 233.407 48.9852 233.407 43.2332C233.407 33.3248 241.455 25.272 251.356 25.272C261.258 25.272 269.305 33.3248 269.305 43.2332Z" fill="#03899E"/>
<path opacity="0.18" d="M298.973 81.0851C298.973 85.0188 293.447 88.2102 286.624 88.2102C279.8 88.2102 274.274 85.0188 274.274 81.0851C274.274 74.2569 279.8 68.7275 286.624 68.7275C293.447 68.7275 298.973 74.2569 298.973 81.0851Z" fill="#03899E"/>
<path d="M242.864 92.7748C242.864 100.494 232.035 106.765 218.685 106.765C205.335 106.765 194.506 100.531 194.506 92.7748C194.506 79.4152 205.335 68.5791 218.685 68.5791C232.035 68.5791 242.864 79.4152 242.864 92.7748Z" fill="#5CC1FF"/>
<path d="M356.083 84.6478C356.083 92.3667 345.254 98.6382 331.904 98.6382C318.553 98.6382 307.725 92.4038 307.725 84.6478C307.725 71.2882 318.553 60.415 331.904 60.415C345.254 60.415 356.083 71.2511 356.083 84.6478Z" fill="#5CC1FF"/>
<path d="M264.781 41.0808C264.781 46.8329 256.733 51.4716 246.832 51.4716C236.93 51.4716 228.883 46.8329 228.883 41.0808C228.883 31.1725 236.93 23.1196 246.832 23.1196C256.733 23.1196 264.781 31.1725 264.781 41.0808Z" fill="#5CC1FF"/>
<path d="M294.411 78.9328C294.411 82.8664 288.886 86.0579 282.062 86.0579C275.238 86.0579 269.713 82.8664 269.713 78.9328C269.713 72.1046 275.238 66.5752 282.062 66.5752C288.886 66.5752 294.411 72.1046 294.411 78.9328Z" fill="#5CC1FF"/>
<path d="M200.402 357.108C178.485 374.513 148.447 316.25 181.155 296.434C184.678 294.318 180.636 296.211 186.903 315.063C195.247 340.149 207.93 351.134 200.402 357.108Z" fill="#FFAB48"/>
<path d="M222.579 329.981C222.579 331.057 222.764 354.919 222.319 358.036C220.947 367.351 213.493 364.493 213.011 365.013C214.642 363.083 212.269 365.903 212.974 365.05C198.437 361.265 185.16 321.483 213.641 290.533C223.506 279.808 221.318 276.431 222.616 330.018L222.579 329.981Z" fill="#FFCA80"/>
<path d="M249.946 370.06C260.515 393.476 211.304 381.156 226.435 345.827C235.076 325.639 259.885 337.477 271.418 298.438C273.272 292.129 287.513 329.128 262.703 348.944C250.577 358.63 242.678 354.028 249.909 370.06H249.946Z" fill="#FFAB48"/>
<path d="M308.28 352.247C303.534 348.759 301.754 349.798 306.167 349.798C306.426 349.798 295.931 353.435 291.704 350.614C287.402 347.757 290.702 338.108 294.374 333.915C298.342 327.309 309.912 324.563 310.135 324.489C312.508 323.561 312.026 322.485 314.066 325.12C324.375 338.442 313.213 355.884 308.28 352.247Z" fill="#FFAB48"/>
<path d="M335.908 362.193C319.035 374.921 296.005 373.437 296.117 358.778C296.191 348.796 308.874 355.179 334.239 332.022C351.854 315.954 347.553 314.321 351.706 313.245C350.816 316.51 364.982 340.261 335.908 362.155V362.193Z" fill="#FFCA80"/>
<path d="M370.73 350.206C361.793 350.243 362.535 341.337 367.17 333.729C371.212 327.124 369.247 334.88 377.183 310.201C385.935 283.037 400.843 268.082 402.363 263.22C403.179 260.623 402.141 258.619 402.252 258.656C402.141 258.767 404.18 258.841 406.183 261.996C413.414 273.351 404.255 350.02 370.767 350.206H370.73Z" fill="#FFAB48"/>
<path d="M169.919 282.295C254.879 349.093 111.808 312.169 135.43 251.086C137.693 245.26 137.025 245.519 139.398 250.529C146.889 266.338 144.479 262.33 169.919 282.295Z" fill="#FFCA80"/>
<path d="M260.998 291.573C261.851 316.733 218.166 335.214 236.671 298.104C237.079 297.102 236.04 296.211 235.447 296.582C212.492 283.668 212.826 266.857 225.286 255.465C247.945 234.72 255.25 261.254 273.904 240.398C275.535 261.105 255.028 263.814 247.314 265.967C246.535 266.189 243.717 269.381 243.161 270.123C240.305 274.094 257.438 274.316 260.998 291.498V291.573Z" fill="#FFCA80"/>
<path d="M331.347 266.783C331.31 267.265 331.236 267.34 331.681 267.34C330.716 270.197 331.236 267.785 331.31 267.265C329.085 266.597 325.043 261.736 324.264 259.546C320.407 249.007 356.787 238.616 326.229 245.779C305.388 250.046 312.879 273.054 321.89 280.699C318.812 283.074 316.291 286.117 314.881 289.605C301.902 324.043 349.704 333.469 361.163 299.44C369.692 274.168 336.613 261.513 331.347 266.746V266.783Z" fill="#FFCA80"/>
<path d="M437 234.275C437.111 250.826 423.835 261.884 416.529 260.103C405.849 257.506 414.341 236.093 410.225 223.513C405.701 211.749 397.468 213.605 403.884 210.562C420.979 202.509 436.889 219.394 437 234.238V234.275Z" fill="#FFCA80"/>
<path d="M316.105 114.373C316.105 114.373 316.958 123.725 320.852 123.613C324.746 123.502 329.493 121.609 332.497 123.613C335.501 125.617 331.607 156.53 331.866 165.956C332.126 175.382 330.717 178.016 330.123 181.802C328.751 190.448 335.946 198.946 349.407 191.524C362.869 184.102 356.713 170.669 350.334 168.999C343.919 167.329 343.919 159.907 343.919 148.44C343.919 136.973 349.37 121.498 345.81 114.039C342.25 106.617 316.105 114.373 316.105 114.373Z" fill="#43B3EF"/>
<path d="M209.97 84.796C211.69 84.796 213.085 83.4004 213.085 81.6788C213.085 79.9572 211.69 78.5615 209.97 78.5615C208.249 78.5615 206.854 79.9572 206.854 81.6788C206.854 83.4004 208.249 84.796 209.97 84.796Z" fill="white"/>
<path d="M279.911 73.8487C279.911 74.8877 279.095 75.7042 278.056 75.7042C277.018 75.7042 276.202 74.8877 276.202 73.8487C276.202 72.8096 277.018 71.9932 278.056 71.9932C279.095 71.9932 279.911 72.8096 279.911 73.8487Z" fill="white"/>
<path d="M331.866 76.335C331.866 78.0421 330.457 79.4522 328.751 79.4522C327.045 79.4522 325.636 78.0421 325.636 76.335C325.636 74.628 327.045 73.2178 328.751 73.2178C330.457 73.2178 331.866 74.628 331.866 76.335Z" fill="white"/>
<path d="M242.678 36.2935C242.678 37.5181 241.676 38.483 240.49 38.483C239.303 38.483 238.302 37.481 238.302 36.2935C238.302 35.106 239.303 34.104 240.49 34.104C241.676 34.104 242.678 35.106 242.678 36.2935Z" fill="white"/>
<path d="M203.443 38.0376C203.443 39.2623 202.442 40.2271 201.255 40.2271C200.069 40.2271 199.067 39.2251 199.067 38.0376C199.067 36.8501 200.069 35.8481 201.255 35.8481C202.442 35.8481 203.443 36.8501 203.443 38.0376Z" fill="white"/>
<path opacity="0.47" d="M292.742 39.9674C292.742 46.3874 285.028 49.5417 280.467 45.0885C285.102 47.0183 290.368 43.6041 290.368 38.4459C290.368 36.479 289.552 34.6607 288.255 33.3618C290.888 34.4009 292.742 36.9986 292.742 40.0045V39.9674Z" fill="#03899E"/>
<path opacity="0.47" d="M322.224 29.7623C322.224 36.1823 314.511 39.3367 309.949 34.8835C314.585 36.8132 319.851 33.3991 319.851 28.2408C319.851 26.274 319.035 24.4556 317.737 23.1567C320.37 24.1958 322.224 26.7935 322.224 29.7994V29.7623Z" fill="#03899E"/>
<path opacity="0.18" d="M214.753 42.9732C214.753 49.3932 207.04 52.5476 202.479 48.0944C207.114 50.0241 212.38 46.61 212.38 41.4517C212.38 39.4849 211.564 37.6665 210.266 36.3677C212.899 37.4068 214.753 40.0044 214.753 43.0103V42.9732Z" fill="#03899E"/>
<path opacity="0.47" d="M264.15 73.5518C264.15 79.9719 256.436 83.1262 251.875 78.673C256.511 80.6027 261.777 77.1886 261.777 72.0303C261.777 70.0635 260.961 68.2451 259.663 66.9463C262.296 67.9854 264.15 70.5831 264.15 73.589V73.5518Z" fill="#03899E"/>
<path opacity="0.47" d="M280.022 109.029C280.022 115.449 272.308 118.603 267.747 114.15C272.383 116.08 277.649 112.666 277.649 107.507C277.649 105.541 276.833 103.722 275.535 102.423C278.168 103.462 280.022 106.06 280.022 109.066V109.029Z" fill="#03899E"/>
<path style="mix-blend-mode:color-dodge" d="M275.035 375.091C339.572 369.952 389.081 330.474 385.617 286.916C382.154 243.358 327.028 212.214 262.491 217.353C197.954 222.492 148.445 261.97 151.909 305.528C155.373 349.086 210.498 380.23 275.035 375.091Z" fill="url(#paint0_radial_64_4649)"/>
<path d="M194.469 16.9223C194.469 16.9223 206.744 22.7486 205.705 15.4008C204.704 8.05308 195.618 11.9125 194.469 16.9223Z" fill="white"/>
<path opacity="0.51" d="M326.971 111.849C326.971 111.849 338.319 112.926 339.654 124.059C340.989 135.191 336.798 161.131 337.725 162.319C338.652 163.506 343.881 132.52 342.361 121.832C340.84 111.144 329.122 107.396 326.971 111.849Z" fill="white"/>
<path d="M347.664 183.323C347.664 186.106 345.402 188.37 342.621 188.37C339.839 188.37 337.577 186.106 337.577 183.323C337.577 180.54 339.839 178.276 342.621 178.276C345.402 178.276 347.664 180.54 347.664 183.323Z" fill="#5CC1FF"/>
<defs>
<radialGradient id="paint0_radial_64_4649" cx="0" cy="0" r="1" gradientUnits="userSpaceOnUse" gradientTransform="translate(256.939 232.513) rotate(85.4531) scale(79.2467 117.241)">
<stop stop-color="#CB3737"/>
<stop offset="1"/>
</radialGradient>
</defs>
</svg>
