<svg width="270" height="357" viewBox="0 0 270 357" fill="none" xmlns="http://www.w3.org/2000/svg">
<path fill-rule="evenodd" clip-rule="evenodd" d="M63.7392 339.527C81.8145 341.224 96.3223 345.435 107.738 351.783C135.149 356.749 173.38 358.32 204.596 355.869C214.287 352.977 235.93 341.161 245.206 331.608C252.222 284.406 258.108 245.375 270 199.304C265.719 141.669 252.638 91.7012 233.909 45.065C177.958 12.759 130.095 2.13697 95.9061 0C70.6363 9.74208 45.426 26.7121 24.021 48.2704C15.6969 67.6289 11.0591 88.6215 7.90784 110.305C11.8321 139.217 7.01596 171.901 -0.0595703 196.979C7.90784 224.571 12.0105 253.168 14.0915 282.269C24.1994 305.461 45.4855 329.345 63.6797 339.464L63.7392 339.527Z" fill="url(#paint0_radial_61_3412)"/>
<path fill-rule="evenodd" clip-rule="evenodd" d="M96.0846 6.47377C141.808 15.713 184.737 31.2375 225.941 50.6588C228.558 48.7732 231.174 46.8877 233.79 45.0021C177.959 12.759 130.095 2.13697 95.9062 0C95.9657 2.13697 96.0252 4.3368 96.0846 6.47377Z" fill="url(#paint1_radial_61_3412)"/>
<path fill-rule="evenodd" clip-rule="evenodd" d="M246.276 324.317C245.444 280.823 245.741 247.637 261.676 194.464C246.99 148.017 233.255 101.066 226.001 50.6587C184.737 31.2374 141.808 15.7129 96.1443 6.47363C81.3392 13.3245 60.945 25.9578 57.4964 30.7345C49.1723 42.2993 23.843 80.5763 13.6162 110.18C18.9675 137.835 23.843 178.311 15.8162 211.56C18.7296 232.993 19.1458 252.98 14.0919 282.332C24.1998 305.524 45.4858 314.638 63.6801 324.757C81.7554 326.454 98.8199 332.425 109.344 343.549C130.749 345.561 221.423 339.59 246.217 324.317H246.276Z" fill="url(#paint2_radial_61_3412)"/>
<path fill-rule="evenodd" clip-rule="evenodd" d="M0 196.978C7.96741 224.57 12.07 253.168 14.1511 282.269C19.205 252.917 18.7294 232.93 15.8754 211.497C12.5457 205.463 5.88637 198.864 0.0594583 196.916L0 196.978Z" fill="url(#paint3_radial_61_3412)"/>
<path fill-rule="evenodd" clip-rule="evenodd" d="M0 196.978C5.82691 198.864 12.4862 205.526 15.8159 211.56C23.8428 178.374 18.9077 137.897 13.6159 110.18C11.7133 110.18 9.81061 110.243 7.96741 110.305C11.8917 139.217 7.07553 171.9 0 196.978Z" fill="url(#paint4_radial_61_3412)"/>
<path fill-rule="evenodd" clip-rule="evenodd" d="M13.6162 110.18C23.7836 80.5764 49.1128 42.2366 57.4964 30.7347C60.945 25.9579 81.3392 13.3246 96.1443 6.47377C96.0848 4.3368 96.0254 2.13697 95.9659 0C70.6367 9.74208 45.4264 26.7121 24.0214 48.2704C15.6972 67.6289 11.0595 88.6215 7.9082 110.305C9.81087 110.305 11.7135 110.243 13.5567 110.18H13.6162Z" fill="url(#paint5_radial_61_3412)"/>
<path fill-rule="evenodd" clip-rule="evenodd" d="M226.001 50.6588C233.255 101.066 246.99 148.017 261.676 194.464C264.47 196.099 267.206 197.67 270 199.304C265.719 141.669 252.638 91.7012 233.909 45.0649C231.293 46.9505 228.677 48.8361 226.06 50.7216L226.001 50.6588Z" fill="url(#paint6_radial_61_3412)"/>
<path fill-rule="evenodd" clip-rule="evenodd" d="M261.676 194.464C245.682 247.637 245.444 280.823 246.277 324.317C252.876 280.383 258.703 242.986 270 199.304C267.206 197.67 264.471 196.099 261.676 194.464Z" fill="url(#paint7_radial_61_3412)"/>
<path fill-rule="evenodd" clip-rule="evenodd" d="M16.4696 266.367C17.5993 237.958 18.8479 212.754 1.90234 197.733C7.78871 200.624 10.94 201.567 12.9021 200.498C21.583 195.973 18.9074 113.574 8.97788 110.243C10.5238 109.426 12.0697 108.546 13.5562 107.729C23.0695 82.9019 36.7449 56.5669 48.2798 31.9917C56.7823 28.0321 57.6742 26.4607 64.4524 19.7356C69.2091 19.2956 90.4357 8.73645 94.5383 5.27959C95.2518 3.95969 95.668 2.57695 95.9653 1.13135C97.7491 5.7824 99.4139 5.6567 105.419 5.84526C130.213 12.319 152.094 19.7356 176.056 29.4148C151.916 22.124 120.759 9.99349 96.2626 8.29649C86.3925 14.5188 74.382 21.5583 64.5119 27.8435C46.5555 50.7217 23.4857 81.6449 15.0426 110.18C20.929 130.23 23.01 147.64 24.0208 166.244C25.4478 192.956 21.5236 190.002 17.8372 211.057C23.0695 227.65 19.5615 249.397 16.5291 266.242L16.4696 266.367Z" fill="url(#paint8_radial_61_3412)"/>
<g style="mix-blend-mode:screen" opacity="0.5">
<path fill-rule="evenodd" clip-rule="evenodd" d="M206.737 284.657C199.959 286.04 192.764 298.233 191.159 305.398C189.494 312.878 192.586 316.837 195.975 315.455C203.467 312.375 224.574 303.261 225.942 293.708C226.655 288.805 224.336 284.469 219.461 283.589C215.239 282.834 210.899 283.84 206.677 284.657H206.737Z" fill="#BDC8C9"/>
</g>
<path fill-rule="evenodd" clip-rule="evenodd" d="M205.607 283.337C198.829 284.72 191.634 296.913 190.029 304.079C188.364 311.558 191.456 315.518 194.845 314.135C202.337 311.055 223.444 301.942 224.812 292.388C225.526 287.486 223.207 283.149 218.331 282.269C214.11 281.515 209.769 282.52 205.548 283.337H205.607Z" fill="url(#paint9_radial_61_3412)"/>
<defs>
<radialGradient id="paint0_radial_61_3412" cx="0" cy="0" r="1" gradientUnits="userSpaceOnUse" gradientTransform="translate(134.97 178.5) scale(152.867 161.593)">
<stop stop-color="#9DA9AB"/>
<stop offset="1" stop-color="#555763"/>
</radialGradient>
<radialGradient id="paint1_radial_61_3412" cx="0" cy="0" r="1" gradientUnits="userSpaceOnUse" gradientTransform="translate(107.025 -3.51972) scale(538.216 568.937)">
<stop stop-color="#9DA9AB"/>
<stop offset="1" stop-color="#555763"/>
</radialGradient>
<radialGradient id="paint2_radial_61_3412" cx="0" cy="0" r="1" gradientUnits="userSpaceOnUse" gradientTransform="translate(68.7935 23.8208) scale(398.905 421.675)">
<stop stop-color="#AAB4B8"/>
<stop offset="1" stop-color="#828599"/>
</radialGradient>
<radialGradient id="paint3_radial_61_3412" cx="0" cy="0" r="1" gradientUnits="userSpaceOnUse" gradientTransform="translate(0.891878 274.852) scale(219.579 232.113)">
<stop stop-color="#9DA9AB"/>
<stop offset="1" stop-color="#555763"/>
</radialGradient>
<radialGradient id="paint4_radial_61_3412" cx="0" cy="0" r="1" gradientUnits="userSpaceOnUse" gradientTransform="translate(4.93504 200.121) scale(139.192 147.137)">
<stop stop-color="#C2CFD4"/>
<stop offset="1" stop-color="#828599"/>
</radialGradient>
<radialGradient id="paint5_radial_61_3412" cx="0" cy="0" r="1" gradientUnits="userSpaceOnUse" gradientTransform="translate(50.8371 6.28522) scale(147.219 155.622)">
<stop stop-color="#E4ECF0"/>
<stop offset="1" stop-color="#A6B4BD"/>
</radialGradient>
<radialGradient id="paint6_radial_61_3412" cx="0" cy="0" r="1" gradientUnits="userSpaceOnUse" gradientTransform="translate(312.394 199.493) scale(280.405 296.411)">
<stop stop-color="#9DA9AB"/>
<stop offset="1" stop-color="#555763"/>
</radialGradient>
<radialGradient id="paint7_radial_61_3412" cx="0" cy="0" r="1" gradientUnits="userSpaceOnUse" gradientTransform="translate(328.983 425.634) scale(254.541 269.07)">
<stop stop-color="#9DA9AB"/>
<stop offset="1" stop-color="#555763"/>
</radialGradient>
<radialGradient id="paint8_radial_61_3412" cx="0" cy="0" r="1" gradientUnits="userSpaceOnUse" gradientTransform="translate(16.8858 55.3099) scale(318.696 336.887)">
<stop stop-color="#F2FBFF"/>
<stop offset="1" stop-color="#A6B4BD"/>
</radialGradient>
<radialGradient id="paint9_radial_61_3412" cx="0" cy="0" r="1" gradientUnits="userSpaceOnUse" gradientTransform="translate(218.153 334.185) scale(56.4259 59.6466)">
<stop stop-color="#9DA9AB"/>
<stop offset="1" stop-color="#717485"/>
</radialGradient>
</defs>
</svg>
