<svg width="285" height="355" viewBox="0 0 285 355" fill="none" xmlns="http://www.w3.org/2000/svg">
<path fill-rule="evenodd" clip-rule="evenodd" d="M250.315 67.401C264.053 103.139 273.004 140.194 278.225 178.252C273.749 201.012 270.455 226.029 272.195 258.005C274.495 233.929 278.909 209.915 285 185.839C284.503 142.012 280.96 103.578 262.623 62.5732C258.831 63.0748 253.548 65.332 250.315 67.401Z" fill="url(#paint0_radial_61_3431)"/>
<path fill-rule="evenodd" clip-rule="evenodd" d="M141.847 0C111.016 10.3453 78.5071 25.0168 55.6325 39.6883C35.9902 58.059 8.45365 105.647 0 138.752C6.58888 172.923 9.26172 207.031 9.63468 241.139C15.1047 268.664 29.7743 305.907 52.8975 330.485C58.4297 330.046 79.626 334.059 85.8419 335.751C93.4875 337.821 111.389 346.41 128.98 355C157.201 352.931 196.05 344.153 223.773 333.369C247.394 318.76 263.431 302.208 270.393 287.348C271.201 253.491 276.422 219.696 285 185.839C284.503 142.013 280.96 103.578 262.623 62.5733C245.218 50.4724 233.843 40.2526 225.451 25.7065C198.288 14.6088 170.565 5.58018 141.847 0Z" fill="url(#paint1_radial_61_3431)"/>
<path fill-rule="evenodd" clip-rule="evenodd" d="M60.2326 43.6383C87.6448 25.3303 114.56 14.1072 141.226 6.01907L141.848 0C111.017 10.3453 78.5074 25.0168 55.6328 39.6883C57.1868 41.0049 58.6786 42.3216 60.2326 43.6383Z" fill="url(#paint2_radial_61_3431)"/>
<path fill-rule="evenodd" clip-rule="evenodd" d="M141.226 6.01907C165.281 17.9318 196.485 28.0263 221.349 31.2866C222.716 29.4057 224.084 27.5247 225.451 25.7065C198.288 14.6088 170.565 5.58018 141.847 0L141.226 6.01907Z" fill="url(#paint3_radial_61_3431)"/>
<path fill-rule="evenodd" clip-rule="evenodd" d="M221.349 31.2867C227.627 44.2027 234.216 54.2345 250.191 67.1504C250.191 67.2131 250.191 67.2758 250.253 67.4012C253.486 65.3321 258.769 63.075 262.561 62.5734C245.156 50.4725 233.781 40.2526 225.39 25.7065C224.022 27.5875 222.655 29.4685 221.287 31.2867H221.349Z" fill="url(#paint4_radial_61_3431)"/>
<path fill-rule="evenodd" clip-rule="evenodd" d="M57.8706 307.6C74.5292 311.424 82.7964 319.199 88.3907 326.409C98.647 325.97 113.068 326.785 130.97 339.513C152.85 340.955 248.451 326.848 270.331 287.411C270.579 277.63 271.201 267.849 272.133 258.068C270.331 226.029 273.687 201.012 278.163 178.315C272.941 140.131 263.99 103.014 250.191 67.2128C234.216 54.2968 227.627 44.265 221.349 31.3491C196.486 28.0888 165.282 17.9943 141.226 6.08154C114.56 14.1697 87.6448 25.3927 60.2326 43.7008C43.5739 68.404 30.6448 94.9883 21.7561 123.642C24.5532 163.894 21.6317 206.09 15.9131 242.393C16.7212 253.867 33.6285 285.279 57.8706 307.662V307.6Z" fill="url(#paint5_radial_61_3431)"/>
<path fill-rule="evenodd" clip-rule="evenodd" d="M88.4529 326.347C82.8586 319.136 74.5293 311.362 57.9328 307.537C57.249 311.738 56.5652 315.939 55.8193 320.202C61.3515 319.136 76.2697 318.321 88.4529 326.347Z" fill="url(#paint6_radial_61_3431)"/>
<path fill-rule="evenodd" clip-rule="evenodd" d="M57.87 307.6C33.6279 285.216 16.7206 253.867 15.9125 242.33C13.7991 241.954 11.6857 241.515 9.57227 241.139C15.6639 267.786 35.8656 304.151 55.7566 320.202C56.4403 316.001 57.1241 311.801 57.87 307.537V307.6Z" fill="url(#paint7_radial_61_3431)"/>
<path fill-rule="evenodd" clip-rule="evenodd" d="M15.9128 242.33C21.5692 206.028 24.5529 163.832 21.7557 123.579C14.2345 127.028 5.47001 132.67 0 138.689C6.58888 172.86 9.26172 206.968 9.63468 241.076C11.7481 241.453 13.8615 241.892 15.9749 242.268L15.9128 242.33Z" fill="url(#paint8_radial_61_3431)"/>
<path fill-rule="evenodd" clip-rule="evenodd" d="M21.7557 123.579C30.6445 94.926 43.5736 68.3418 60.2323 43.6385C58.6783 42.3218 57.1865 41.0051 55.6325 39.6885C35.9902 58.0592 8.45365 105.647 0 138.752C5.53217 132.671 14.2345 127.028 21.7557 123.642V123.579Z" fill="url(#paint9_radial_61_3431)"/>
<path fill-rule="evenodd" clip-rule="evenodd" d="M9.63491 241.139C13.0537 240.45 13.9861 237.942 14.9184 235.622C20.4506 222.455 21.0101 170.666 19.5804 145.398C18.7102 130.288 14.9184 127.968 3.60547 135.178C12.2456 127.028 15.4779 124.081 19.6425 116.557C25.7342 105.459 31.515 93.2331 37.1093 80.9441C41.9577 70.348 46.4332 55.3631 54.6382 46.7733C57.8083 43.3876 58.7407 43.0741 56.5651 40.5035C59.5488 41.8201 60.7298 42.4471 65.5161 39.0614C80.8694 28.2772 110.209 14.3581 127.489 10.5962C103.744 21.3804 85.4692 29.9074 63.2162 43.513C48.8574 62.2599 29.4015 100.255 25.9206 123.266C24.9261 129.786 24.491 136.809 24.7396 144.458C25.9206 181.011 24.7396 219.759 16.0373 242.393C13.9239 242.017 11.8105 241.578 9.69707 241.202L9.63491 241.139Z" fill="url(#paint10_radial_61_3431)"/>
<g style="mix-blend-mode:screen" opacity="0.5">
<path fill-rule="evenodd" clip-rule="evenodd" d="M221.908 259.823C214.76 265.529 198.164 284.025 204.131 294.621C208.979 303.274 228.373 293.743 234.154 289.981C240.183 286.031 240.618 275.059 239.375 268.727C237.759 260.325 228.684 254.494 221.971 259.886L221.908 259.823Z" fill="#BDC8C9"/>
</g>
<path fill-rule="evenodd" clip-rule="evenodd" d="M221.908 258.507C214.76 264.212 198.164 282.708 204.131 293.304C208.979 301.957 228.373 292.427 234.154 288.665C240.183 284.715 240.618 273.742 239.375 267.41C237.759 259.008 228.684 253.177 221.971 258.569L221.908 258.507Z" fill="url(#paint11_radial_61_3431)"/>
<defs>
<radialGradient id="paint0_radial_61_3431" cx="0" cy="0" r="1" gradientUnits="userSpaceOnUse" gradientTransform="translate(94.1094 178.691) scale(218.614 220.511)">
<stop stop-color="#9DA9AB"/>
<stop offset="1" stop-color="#555763"/>
</radialGradient>
<radialGradient id="paint1_radial_61_3431" cx="0" cy="0" r="1" gradientUnits="userSpaceOnUse" gradientTransform="translate(142.469 177.5) scale(160.122 161.512)">
<stop stop-color="#9DA9AB"/>
<stop offset="1" stop-color="#555763"/>
</radialGradient>
<radialGradient id="paint2_radial_61_3431" cx="0" cy="0" r="1" gradientUnits="userSpaceOnUse" gradientTransform="translate(53.0843 35.6129) scale(398.441 401.899)">
<stop stop-color="#B4C1C4"/>
<stop offset="1" stop-color="#555763"/>
</radialGradient>
<radialGradient id="paint3_radial_61_3431" cx="0" cy="0" r="1" gradientUnits="userSpaceOnUse" gradientTransform="translate(200.09 -51.9145) scale(133.642 134.802)">
<stop stop-color="#9DA9AB"/>
<stop offset="1" stop-color="#555763"/>
</radialGradient>
<radialGradient id="paint4_radial_61_3431" cx="0" cy="0" r="1" gradientUnits="userSpaceOnUse" gradientTransform="translate(289.165 31.9764) scale(121.708 122.764)">
<stop stop-color="#9DA9AB"/>
<stop offset="1" stop-color="#555763"/>
</radialGradient>
<radialGradient id="paint5_radial_61_3431" cx="0" cy="0" r="1" gradientUnits="userSpaceOnUse" gradientTransform="translate(54.8869 27.5245) scale(392.162 395.566)">
<stop stop-color="#AAB4B8"/>
<stop offset="1" stop-color="#828599"/>
</radialGradient>
<radialGradient id="paint6_radial_61_3431" cx="0" cy="0" r="1" gradientUnits="userSpaceOnUse" gradientTransform="translate(58.43 369.107) scale(79.8124 80.5051)">
<stop stop-color="#9DA9AB"/>
<stop offset="1" stop-color="#555763"/>
</radialGradient>
<radialGradient id="paint7_radial_61_3431" cx="0" cy="0" r="1" gradientUnits="userSpaceOnUse" gradientTransform="translate(-7.39721 262.582) scale(176.781 178.315)">
<stop stop-color="#9DA9AB"/>
<stop offset="1" stop-color="#555763"/>
</radialGradient>
<radialGradient id="paint8_radial_61_3431" cx="0" cy="0" r="1" gradientUnits="userSpaceOnUse" gradientTransform="translate(-19.0207 198.316) scale(139.299 140.508)">
<stop stop-color="#C2CFD4"/>
<stop offset="1" stop-color="#828599"/>
</radialGradient>
<radialGradient id="paint9_radial_61_3431" cx="0" cy="0" r="1" gradientUnits="userSpaceOnUse" gradientTransform="translate(37.5442 40.5036) scale(133.829 134.99)">
<stop stop-color="#E4ECF0"/>
<stop offset="1" stop-color="#A6B4BD"/>
</radialGradient>
<radialGradient id="paint10_radial_61_3431" cx="0" cy="0" r="1" gradientUnits="userSpaceOnUse" gradientTransform="translate(36.612 31.9765) scale(313.718 316.44)">
<stop stop-color="#F2FBFF"/>
<stop offset="1" stop-color="#A6B4BD"/>
</radialGradient>
<radialGradient id="paint11_radial_61_3431" cx="0" cy="0" r="1" gradientUnits="userSpaceOnUse" gradientTransform="translate(228.87 293.743) scale(37.4198 37.7446)">
<stop stop-color="#9DA9AB"/>
<stop offset="1" stop-color="#717485"/>
</radialGradient>
</defs>
</svg>
