<svg width="280" height="352" viewBox="0 0 280 352" fill="none" xmlns="http://www.w3.org/2000/svg">
<path fill-rule="evenodd" clip-rule="evenodd" d="M245.924 66.8314C259.42 102.268 268.214 139.009 273.344 176.746C268.947 199.313 265.71 224.119 267.42 255.825C269.68 231.952 274.015 208.141 280 184.268C279.512 140.812 276.031 102.703 258.015 62.0444C254.29 62.5418 249.099 64.7799 245.924 66.8314Z" fill="url(#paint0_radial_61_3451)"/>
<path fill-rule="evenodd" clip-rule="evenodd" d="M139.359 0C109.069 10.2579 77.1298 24.8054 54.6565 39.3529C35.3588 57.5684 8.30534 104.755 0 137.58C6.47328 171.462 9.09924 205.282 9.46565 239.101C14.8397 266.393 29.2519 303.322 51.9695 327.692C57.4046 327.257 78.229 331.236 84.3359 332.914C91.8473 334.966 109.435 343.483 126.718 352C154.443 349.948 192.611 341.245 219.847 330.552C243.053 316.066 258.809 299.654 265.649 284.92C266.443 251.349 271.573 217.84 280 184.268C279.511 140.812 276.031 102.703 258.015 62.0445C240.916 50.0459 229.74 39.9124 221.496 25.4892C194.809 14.4853 167.573 5.53303 139.359 0Z" fill="url(#paint1_radial_61_3451)"/>
<path fill-rule="evenodd" clip-rule="evenodd" d="M59.1753 43.2695C86.1066 25.1162 112.549 13.988 138.748 5.96821C138.931 3.97881 139.175 1.9894 139.359 0C109.068 10.2579 77.1295 24.8054 54.6562 39.3529C56.183 40.6584 57.6486 41.964 59.1753 43.2695Z" fill="url(#paint2_radial_61_3451)"/>
<path fill-rule="evenodd" clip-rule="evenodd" d="M138.748 5.96821C162.382 17.7803 193.038 27.7895 217.466 31.0223C218.809 29.1572 220.153 27.2921 221.496 25.4892C194.809 14.4853 167.572 5.53303 139.359 0C139.176 1.9894 138.931 3.97881 138.748 5.96821Z" fill="url(#paint3_radial_61_3451)"/>
<path fill-rule="evenodd" clip-rule="evenodd" d="M217.465 31.0223C223.633 43.8291 230.107 53.7761 245.801 66.5829C245.801 66.645 245.801 66.7072 245.862 66.8315C249.038 64.78 254.229 62.5419 257.954 62.0445C240.855 50.0459 229.679 39.9124 221.435 25.4893C220.091 27.3543 218.748 29.2194 217.404 31.0223H217.465Z" fill="url(#paint4_radial_61_3451)"/>
<path fill-rule="evenodd" clip-rule="evenodd" d="M56.8552 305C73.2216 308.793 81.3437 316.439 86.8399 323.651C96.9162 323.216 111.084 324.024 128.672 336.644C150.168 338.074 244.092 324.086 265.588 284.982C265.832 275.284 266.443 265.585 267.359 255.887C265.588 224.119 268.886 199.313 273.283 176.808C268.153 138.947 259.359 102.143 245.802 66.6449C230.107 53.8381 223.634 43.8911 217.466 31.0843C193.038 27.8515 162.382 17.8424 138.748 6.03027C112.55 14.0501 86.1071 25.1783 59.1758 43.3316C42.8094 67.8261 30.1071 94.1857 21.3742 122.597C24.1223 162.509 21.2521 204.349 15.6338 240.345C16.4277 251.722 33.0384 282.868 56.8552 305.062V305Z" fill="url(#paint5_radial_61_3451)"/>
<path fill-rule="evenodd" clip-rule="evenodd" d="M86.9009 323.589C81.4047 316.439 73.2215 308.731 56.9162 304.938C56.2444 309.104 55.5727 313.269 54.8398 317.496C60.275 316.439 74.9314 315.631 86.9009 323.589Z" fill="url(#paint6_radial_61_3451)"/>
<path fill-rule="evenodd" clip-rule="evenodd" d="M56.8547 305C33.099 282.806 16.4272 251.722 15.6333 240.283C13.557 239.91 11.4806 239.474 9.4043 239.101C15.389 265.523 35.2364 301.581 54.7783 317.496C55.4501 313.331 56.1219 309.166 56.8547 304.938V305Z" fill="url(#paint7_radial_61_3451)"/>
<path fill-rule="evenodd" clip-rule="evenodd" d="M15.6336 240.282C21.1908 204.287 24.1221 162.447 21.374 122.535C13.9847 125.954 5.37405 131.549 0 137.517C6.47328 171.399 9.09924 205.219 9.46565 239.039C11.542 239.412 13.6183 239.847 15.6947 240.22L15.6336 240.282Z" fill="url(#paint8_radial_61_3451)"/>
<path fill-rule="evenodd" clip-rule="evenodd" d="M21.374 122.535C30.1069 94.1238 42.8092 67.7642 59.1756 43.2697C57.6489 41.9641 56.1832 40.6586 54.6565 39.353C35.3588 57.5685 8.30534 104.755 0 137.58C5.43511 131.549 13.9847 125.954 21.374 122.597V122.535Z" fill="url(#paint9_radial_61_3451)"/>
<path fill-rule="evenodd" clip-rule="evenodd" d="M9.46566 239.101C12.8244 238.417 13.7405 235.931 14.6565 233.63C20.0916 220.575 20.6412 169.223 19.2367 144.169C18.3817 129.187 14.6565 126.886 3.54199 134.036C12.0305 125.954 15.2061 123.032 19.2977 115.572C25.2825 104.568 30.9618 92.4449 36.458 80.2598C41.2214 69.7533 45.6183 54.8949 53.6794 46.3778C56.7939 43.0207 57.7099 42.7098 55.5725 40.1609C58.5038 41.4664 59.6641 42.0881 64.3664 38.731C79.4504 28.038 108.275 14.1743 125.252 10.5063C101.924 21.1994 83.9695 29.6544 62.1069 43.145C48 61.7335 28.8855 99.4078 25.4657 122.224C24.4886 128.689 24.0611 135.652 24.3054 143.237C25.4657 179.481 24.3054 217.902 15.7557 240.345C13.6794 239.972 11.6031 239.536 9.52673 239.163L9.46566 239.101Z" fill="url(#paint10_radial_61_3451)"/>
<g style="mix-blend-mode:screen" opacity="0.5">
<path fill-rule="evenodd" clip-rule="evenodd" d="M218.016 257.628C210.993 263.285 194.687 281.625 200.55 292.131C205.313 300.711 224.367 291.261 230.046 287.531C235.97 283.614 236.397 272.735 235.176 266.456C233.588 258.125 224.672 252.343 218.077 257.69L218.016 257.628Z" fill="#BDC8C9"/>
</g>
<path fill-rule="evenodd" clip-rule="evenodd" d="M218.016 256.322C210.993 261.979 194.687 280.319 200.55 290.826C205.313 299.405 224.367 289.955 230.046 286.225C235.97 282.309 236.397 271.429 235.176 265.15C233.588 256.819 224.672 251.038 218.077 256.384L218.016 256.322Z" fill="url(#paint11_radial_61_3451)"/>
<defs>
<radialGradient id="paint0_radial_61_3451" cx="0" cy="0" r="1" gradientUnits="userSpaceOnUse" gradientTransform="translate(92.4582 177.181) scale(214.717 218.586)">
<stop stop-color="#9DA9AB"/>
<stop offset="1" stop-color="#555763"/>
</radialGradient>
<radialGradient id="paint1_radial_61_3451" cx="0" cy="0" r="1" gradientUnits="userSpaceOnUse" gradientTransform="translate(139.969 176) scale(157.313 160.147)">
<stop stop-color="#9DA9AB"/>
<stop offset="1" stop-color="#555763"/>
</radialGradient>
<radialGradient id="paint2_radial_61_3451" cx="0" cy="0" r="1" gradientUnits="userSpaceOnUse" gradientTransform="translate(52.1524 35.3119) scale(391.45 398.502)">
<stop stop-color="#B4C1C4"/>
<stop offset="1" stop-color="#555763"/>
</radialGradient>
<radialGradient id="paint3_radial_61_3451" cx="0" cy="0" r="1" gradientUnits="userSpaceOnUse" gradientTransform="translate(196.58 -51.4758) scale(131.298 133.663)">
<stop stop-color="#9DA9AB"/>
<stop offset="1" stop-color="#555763"/>
</radialGradient>
<radialGradient id="paint4_radial_61_3451" cx="0" cy="0" r="1" gradientUnits="userSpaceOnUse" gradientTransform="translate(284.091 31.7061) scale(119.573 121.727)">
<stop stop-color="#9DA9AB"/>
<stop offset="1" stop-color="#555763"/>
</radialGradient>
<radialGradient id="paint5_radial_61_3451" cx="0" cy="0" r="1" gradientUnits="userSpaceOnUse" gradientTransform="translate(53.9239 27.292) scale(385.282 392.223)">
<stop stop-color="#AAB4B8"/>
<stop offset="1" stop-color="#828599"/>
</radialGradient>
<radialGradient id="paint6_radial_61_3451" cx="0" cy="0" r="1" gradientUnits="userSpaceOnUse" gradientTransform="translate(57.4047 365.988) scale(78.4122 79.8248)">
<stop stop-color="#9DA9AB"/>
<stop offset="1" stop-color="#555763"/>
</radialGradient>
<radialGradient id="paint7_radial_61_3451" cx="0" cy="0" r="1" gradientUnits="userSpaceOnUse" gradientTransform="translate(-7.26747 260.363) scale(173.679 176.808)">
<stop stop-color="#9DA9AB"/>
<stop offset="1" stop-color="#555763"/>
</radialGradient>
<radialGradient id="paint8_radial_61_3451" cx="0" cy="0" r="1" gradientUnits="userSpaceOnUse" gradientTransform="translate(-18.687 196.64) scale(136.855 139.32)">
<stop stop-color="#C2CFD4"/>
<stop offset="1" stop-color="#828599"/>
</radialGradient>
<radialGradient id="paint9_radial_61_3451" cx="0" cy="0" r="1" gradientUnits="userSpaceOnUse" gradientTransform="translate(36.8855 40.1612) scale(131.481 133.85)">
<stop stop-color="#E4ECF0"/>
<stop offset="1" stop-color="#A6B4BD"/>
</radialGradient>
<radialGradient id="paint10_radial_61_3451" cx="0" cy="0" r="1" gradientUnits="userSpaceOnUse" gradientTransform="translate(47.9389 30.9599) scale(331.542 337.515)">
<stop stop-color="white"/>
<stop offset="1" stop-color="#A6B4BD"/>
</radialGradient>
<radialGradient id="paint11_radial_61_3451" cx="0" cy="0" r="1" gradientUnits="userSpaceOnUse" gradientTransform="translate(224.855 291.261) scale(36.7633 37.4256)">
<stop stop-color="#9DA9AB"/>
<stop offset="1" stop-color="#717485"/>
</radialGradient>
</defs>
</svg>
