<svg width="48" height="49" viewBox="0 0 48 49" fill="none" xmlns="http://www.w3.org/2000/svg">
<path d="M41.832 19.8766C42.0443 19.3914 42.0555 18.8419 41.8631 18.3485C41.6708 17.855 41.2906 17.4581 40.806 17.2446L14.656 5.73257C12.666 4.85657 10.216 5.83457 9.366 7.81657L4.946 18.1246C4.52963 19.0996 4.51735 20.2 4.91186 21.184C5.30638 22.1681 6.07542 22.9552 7.05 23.3726L19.126 28.5486L16.646 34.7486H8V28.7486H4V44.7486H8V38.7486H16.646C18.292 38.7486 19.75 37.7606 20.358 36.2326L22.802 30.1246L33.212 34.5846C33.6968 34.7926 34.2442 34.8007 34.7349 34.607C35.2256 34.4133 35.6199 34.0336 35.832 33.5506L36.456 32.1306L39.858 33.4906L43.858 23.4906L40.786 22.2646L41.832 19.8766ZM32.964 30.1286L8.626 19.6986L13.042 9.39457L37.366 20.1026L32.964 30.1286Z" fill="url(#paint0_linear_2025_950)"/>
<defs>
<linearGradient id="paint0_linear_2025_950" x1="23.929" y1="44.7486" x2="23.929" y2="5.40991" gradientUnits="userSpaceOnUse">
<stop stop-color="#5C49EA"/>
<stop offset="0.5" stop-color="#3DAFE9"/>
<stop offset="1" stop-color="#94FFED"/>
</linearGradient>
</defs>
</svg>
