<svg width="273" height="352" viewBox="0 0 273 352" fill="none" xmlns="http://www.w3.org/2000/svg">
<g clip-path="url(#clip0_61_3489)">
<path fill-rule="evenodd" clip-rule="evenodd" d="M95.062 0.186271C74.9638 12.7355 56.3095 27.894 39.099 45.8481C20.3292 84.4898 8.663 125.244 0 166.992C10.3956 206.565 16.1132 246.201 16.4019 285.775C28.2991 298.51 39.2723 312.551 48.2818 329.2C74.4441 339.016 108.865 346.657 140.976 352.062C174.242 335.599 208.085 322.677 242.737 315.533C255.154 295.218 264.915 271.983 272.942 247.009C268.611 210.044 261.796 148.665 267.282 119.093C258.446 92.0691 248.282 67.2191 236.558 44.8541C195.495 20.0041 153.335 -2.42298 95.062 0.186271Z" fill="url(#paint0_radial_61_3489)"/>
<path fill-rule="evenodd" clip-rule="evenodd" d="M43.9499 48.706C67.8598 38.3311 83.2799 26.7759 109.731 10.0022C103.551 7.02016 98.469 3.85178 95.0616 0.248535C74.9634 12.7978 56.3091 27.9563 39.0986 45.9104C40.7157 46.8423 42.3328 47.7741 43.9499 48.706Z" fill="url(#paint1_radial_61_3489)"/>
<path fill-rule="evenodd" clip-rule="evenodd" d="M109.731 9.9399C138.434 21.8679 195.379 34.5414 231.533 45.786C233.323 45.7239 234.94 45.3511 236.557 44.792C195.495 20.0041 153.335 -2.42297 95.0615 0.18628C98.469 3.78953 103.609 6.89578 109.731 9.9399Z" fill="url(#paint2_radial_61_3489)"/>
<path fill-rule="evenodd" clip-rule="evenodd" d="M273 246.885C255.039 178.485 242.218 114.807 231.534 45.724C195.38 34.4794 138.435 21.8059 109.732 9.87793C83.2807 26.6517 67.8606 38.2069 43.9507 48.5818C34.5369 111.142 24.1413 149.535 6.87305 167.427C8.49014 192.277 18.5392 240.237 26.9135 262.913C27.2022 268.69 20.7916 280.805 16.8644 285.837C26.7402 290.061 41.8716 298.386 50.7656 314.787C78.5449 320.192 111.58 329.573 141.034 342.557C168.063 324.044 207.855 302.983 242.564 295.839C254.981 275.524 262.547 261.919 273.058 246.823L273 246.885Z" fill="url(#paint3_radial_61_3489)"/>
<path fill-rule="evenodd" clip-rule="evenodd" d="M0 166.993C10.3956 206.566 16.1132 246.202 16.4019 285.776C16.5175 285.776 16.6907 285.9 16.864 285.962C20.7334 280.93 27.2018 268.815 26.9131 263.038C18.5388 240.3 8.48974 192.34 6.87265 167.552C4.62027 167.365 2.31013 167.179 0 166.993Z" fill="url(#paint4_radial_61_3489)"/>
<path fill-rule="evenodd" clip-rule="evenodd" d="M6.87265 167.489C24.1409 149.597 34.5365 111.204 43.9503 48.6438C42.3332 47.7119 40.7161 46.78 39.099 45.8481C20.3292 84.4899 8.663 125.244 0 166.992C2.31013 167.178 4.56251 167.365 6.87265 167.551V167.489Z" fill="url(#paint5_radial_61_3489)"/>
<path fill-rule="evenodd" clip-rule="evenodd" d="M231.533 45.786C242.218 114.869 255.039 178.547 273 246.947C268.669 209.982 261.854 148.603 267.34 119.031C258.504 92.007 248.339 67.157 236.616 44.792C234.998 45.3511 233.381 45.7239 231.591 45.786H231.533Z" fill="url(#paint6_radial_61_3489)"/>
<path fill-rule="evenodd" clip-rule="evenodd" d="M20.3868 280.556C20.9644 275.089 23.159 269.622 22.1772 264.031C17.0371 235.391 11.6661 205.882 6.58379 179.044C5.89075 175.316 5.48648 172.769 5.25546 168.979C4.2159 167.985 2.77207 167.551 0.866211 166.991C3.11859 166.991 4.79344 166.991 6.23727 165.811C29.2231 147.111 38.8679 80.3272 41.409 54.9802C41.6401 52.6816 41.6401 49.389 39.8497 46.2206C41.9866 47.3388 44.7587 47.3388 46.8956 46.6555C51.2849 45.2266 65.0879 37.958 72.3071 33.7956C79.122 29.8817 86.9187 24.2905 93.7336 17.581C100.086 11.3685 102.108 7.20611 96.5635 1.55273C107.883 9.38048 128.617 16.2763 147.213 22.2403C132.14 20.7493 120.473 13.4807 108.634 14.102C105.053 14.2884 101.53 16.2763 97.8341 18.7613C90.8459 23.4828 82.0674 29.509 73.2311 34.7896C59.2548 43.0522 45.2208 49.5753 43.3727 59.4532C36.7888 94.8023 36.2112 126.238 29.4541 142.576C27.7215 146.801 18.5387 160.096 10.1067 169.414C8.77842 172.893 9.00943 175.44 10.049 182.771C11.2618 191.282 12.0126 199.856 13.6874 208.242C17.6724 227.936 21.4841 244.213 28.4145 262.975C26.9707 270.057 24.3141 274.654 20.4446 280.432L20.3868 280.556Z" fill="url(#paint7_radial_61_3489)"/>
<g style="mix-blend-mode:screen" opacity="0.5">
<path fill-rule="evenodd" clip-rule="evenodd" d="M238.925 227.129C236.037 227.874 233.149 229.179 231.013 231.415C228.471 234.087 225.237 242.411 227.143 246.077C228.183 248.127 230.319 249.866 232.514 250.053C235.806 250.239 239.444 249.183 242.101 247.071C244.642 244.959 245.971 241.977 247.992 239.243C249.263 237.504 250.764 235.764 251.804 233.838C253.536 230.546 250.706 227.129 248.512 226.756C244.873 226.073 242.563 226.197 239.04 227.129H238.925Z" fill="#BDC8C9"/>
</g>
<path fill-rule="evenodd" clip-rule="evenodd" d="M238.348 226.383C235.46 227.129 232.572 228.433 230.435 230.67C227.894 233.341 224.66 241.666 226.566 245.331C227.605 247.381 229.742 249.121 231.937 249.307C235.229 249.494 238.867 248.437 241.524 246.325C244.065 244.213 245.393 241.231 247.415 238.497C248.685 236.758 250.187 235.018 251.227 233.093C252.959 229.8 250.129 226.383 247.935 226.01C244.296 225.327 241.986 225.451 238.405 226.383H238.348Z" fill="url(#paint8_radial_61_3489)"/>
</g>
<defs>
<radialGradient id="paint0_radial_61_3489" cx="0" cy="0" r="1" gradientUnits="userSpaceOnUse" gradientTransform="translate(136.471 176) scale(150.678 162.084)">
<stop stop-color="#9DA9AB"/>
<stop offset="1" stop-color="#555763"/>
</radialGradient>
<radialGradient id="paint1_radial_61_3489" cx="0" cy="0" r="1" gradientUnits="userSpaceOnUse" gradientTransform="translate(76.696 -1.55309) scale(133.121 143.198)">
<stop stop-color="#E4ECF0"/>
<stop offset="1" stop-color="#A6B4BD"/>
</radialGradient>
<radialGradient id="paint2_radial_61_3489" cx="0" cy="0" r="1" gradientUnits="userSpaceOnUse" gradientTransform="translate(153.739 -82.8127) scale(179.324 192.898)">
<stop stop-color="#C2CFD4"/>
<stop offset="1" stop-color="#828599"/>
</radialGradient>
<radialGradient id="paint3_radial_61_3489" cx="0" cy="0" r="1" gradientUnits="userSpaceOnUse" gradientTransform="translate(54.2885 35.287) scale(404.562 435.185)">
<stop stop-color="#AAB4B8"/>
<stop offset="1" stop-color="#828599"/>
</radialGradient>
<radialGradient id="paint4_radial_61_3489" cx="0" cy="0" r="1" gradientUnits="userSpaceOnUse" gradientTransform="translate(2.65665 284.471) scale(142.766 153.573)">
<stop stop-color="#9DA9AB"/>
<stop offset="1" stop-color="#555763"/>
</radialGradient>
<radialGradient id="paint5_radial_61_3489" cx="0" cy="0" r="1" gradientUnits="userSpaceOnUse" gradientTransform="translate(13.6298 68.648) scale(339.705 365.419)">
<stop stop-color="#C2CFD4"/>
<stop offset="1" stop-color="#828599"/>
</radialGradient>
<radialGradient id="paint6_radial_61_3489" cx="0" cy="0" r="1" gradientUnits="userSpaceOnUse" gradientTransform="translate(340.514 58.4595) scale(225.122 242.163)">
<stop stop-color="#9DA9AB"/>
<stop offset="1" stop-color="#555763"/>
</radialGradient>
<radialGradient id="paint7_radial_61_3489" cx="0" cy="0" r="1" gradientUnits="userSpaceOnUse" gradientTransform="translate(52.7865 31.5591) scale(402.367 432.825)">
<stop stop-color="#F2FBFF"/>
<stop offset="1" stop-color="#A6B4BD"/>
</radialGradient>
<radialGradient id="paint8_radial_61_3489" cx="0" cy="0" r="1" gradientUnits="userSpaceOnUse" gradientTransform="translate(249.436 250.86) scale(33.7279 36.281)">
<stop stop-color="#9DA9AB"/>
<stop offset="1" stop-color="#717485"/>
</radialGradient>
<clipPath id="clip0_61_3489">
<rect width="273" height="352" fill="white"/>
</clipPath>
</defs>
</svg>
