<svg width="48" height="48" viewBox="0 0 48 48" fill="none" xmlns="http://www.w3.org/2000/svg">
<path d="M40.4 36.2V36.161L40.3985 36.1221C40.3144 33.9659 39.7588 31.8543 38.7709 29.9359C38.6746 29.7489 38.5744 29.5642 38.4704 29.3819C42.213 30.3854 44.0273 32.0774 44.9331 33.4077C45.4838 34.2164 45.7511 34.9672 45.8809 35.4963C45.9459 35.7609 45.9758 35.9675 45.9894 36.0939C45.9962 36.157 45.9989 36.1993 45.9998 36.2182C45.9999 36.2196 45.9999 36.2209 46 36.2221V38.2V39H40.4V36.2ZM31.1907 7.00007V7.00009H31.2C32.8974 7.00009 34.5253 7.67437 35.7255 8.8746C36.9257 10.0748 37.6 11.7027 37.6 13.4001C37.6 15.0974 36.9257 16.7253 35.7255 17.9255C34.5253 19.1258 32.8974 19.8 31.2 19.8L31.1907 19.8001C30.5779 19.8029 29.9718 19.7143 29.3914 19.5402C30.3202 17.637 30.8097 15.5381 30.8097 13.4001C30.8097 11.262 30.3202 9.16317 29.3914 7.25995C29.9718 7.08579 30.5779 6.99722 31.1907 7.00007ZM2 36.222C2.00015 36.2187 2.00038 36.2143 2.00071 36.2087C2.00241 36.1795 2.00677 36.1204 2.01737 36.0356C2.03864 35.8654 2.08454 35.5959 2.1825 35.26C2.37768 34.5908 2.77772 33.6627 3.60515 32.717C5.21405 30.8783 8.78287 28.6 16.8 28.6C24.8171 28.6 28.386 30.8783 29.9949 32.717C30.8223 33.6627 31.2223 34.5908 31.4175 35.26C31.5155 35.5959 31.5614 35.8654 31.5826 36.0356C31.5932 36.1204 31.5976 36.1795 31.5993 36.2087C31.5996 36.2143 31.5998 36.2187 31.6 36.222V39H2V36.222ZM22.1214 9.84443C22.8246 10.8969 23.2 12.1343 23.2 13.4001C23.2 15.0974 22.5257 16.7253 21.3255 17.9255C20.1253 19.1258 18.4974 19.8 16.8 19.8C15.5342 19.8 14.2968 19.4247 13.2444 18.7215C12.1919 18.0182 11.3716 17.0187 10.8872 15.8492C10.4028 14.6798 10.276 13.393 10.523 12.1515C10.7699 10.91 11.3795 9.76966 12.2745 8.8746C13.1696 7.97955 14.3099 7.37001 15.5514 7.12306C16.7929 6.87612 18.0797 7.00286 19.2492 7.48726C20.4186 7.97166 21.4182 8.79196 22.1214 9.84443Z" stroke="url(#paint0_linear_2174_665)" stroke-width="4"/>
<defs>
<linearGradient id="paint0_linear_2174_665" x1="24" y1="41" x2="24" y2="5" gradientUnits="userSpaceOnUse">
<stop stop-color="#5C49EA"/>
<stop offset="0.5" stop-color="#3DAFE9"/>
<stop offset="1" stop-color="#94FFED"/>
</linearGradient>
</defs>
</svg>
