<svg width="454" height="511" viewBox="0 0 454 511" fill="none" xmlns="http://www.w3.org/2000/svg">
<g opacity="0.2">
<line y1="-0.5" x2="33.6069" y2="-0.5" transform="matrix(-0.707107 -0.707107 -0.707107 0.707107 92.3068 161.197)" stroke="#3DAFE9"/>
<path d="M257.446 357.488C256.405 356.447 256.405 354.758 257.446 353.717C258.487 352.676 260.176 352.676 261.217 353.717C262.259 354.758 262.259 356.447 261.217 357.488C260.176 358.53 258.487 358.53 257.446 357.488ZM326.779 288.155C325.738 287.113 325.738 285.425 326.779 284.383C327.821 283.342 329.509 283.342 330.551 284.383C331.592 285.425 331.592 287.113 330.551 288.155C329.509 289.196 327.821 289.196 326.779 288.155ZM258.978 355.249L328.312 285.916L329.019 286.623L259.685 355.956L258.978 355.249Z" fill="#3DAFE9"/>
<path d="M242.782 436.14C242.045 437.416 240.414 437.853 239.139 437.116C237.863 436.38 237.426 434.749 238.163 433.474C238.899 432.198 240.53 431.761 241.806 432.497C243.081 433.234 243.518 434.865 242.782 436.14ZM157.866 387.114C157.129 388.389 155.499 388.826 154.223 388.09C152.948 387.354 152.511 385.723 153.247 384.447C153.983 383.172 155.614 382.735 156.89 383.471C158.165 384.208 158.602 385.839 157.866 387.114ZM240.222 435.24L155.306 386.214L155.806 385.348L240.722 434.374L240.222 435.24Z" fill="#0080FF"/>
<path d="M163.228 440.188C162.459 438.932 162.854 437.29 164.11 436.521C165.366 435.753 167.008 436.148 167.777 437.404C168.546 438.66 168.151 440.301 166.895 441.07C165.639 441.839 163.997 441.444 163.228 440.188ZM216.467 407.6C215.698 406.344 216.093 404.702 217.349 403.933C218.605 403.165 220.247 403.559 221.016 404.816C221.785 406.072 221.39 407.713 220.133 408.482C218.877 409.251 217.236 408.856 216.467 407.6ZM165.241 438.369L218.48 405.781L219.002 406.634L165.763 439.222L165.241 438.369Z" fill="#0080FF"/>
<path d="M161.172 400.998C162.15 399.896 163.836 399.796 164.937 400.774C166.039 401.751 166.139 403.437 165.161 404.538C164.184 405.64 162.498 405.74 161.397 404.763C160.295 403.785 160.195 402.1 161.172 400.998ZM186.028 423.057C187.006 421.955 188.691 421.855 189.793 422.832C190.894 423.81 190.995 425.495 190.017 426.597C189.04 427.698 187.354 427.799 186.253 426.821C185.151 425.844 185.051 424.158 186.028 423.057ZM163.499 402.394L188.355 424.453L187.691 425.201L162.835 403.142L163.499 402.394Z" fill="#0080FF"/>
<path d="M26.6541 204.566C25.6128 203.525 25.6127 201.836 26.6541 200.795C27.6955 199.753 29.384 199.753 30.4254 200.795C31.4668 201.836 31.4668 203.525 30.4254 204.566C29.384 205.608 27.6955 205.608 26.6541 204.566ZM169.991 133.086C168.949 132.045 168.949 130.356 169.991 129.315C171.032 128.274 172.721 128.274 173.762 129.315C174.803 130.356 174.803 132.045 173.762 133.086C172.721 134.128 171.032 134.128 169.991 133.086ZM35.2346 106.906L34.7358 106.871L34.7575 106.562L35.0441 106.444L35.2346 106.906ZM96.4278 81.687L96.2373 81.2247L96.4814 81.1241L96.7021 81.269L96.4278 81.687ZM28.041 202.646L34.7358 106.871L35.7334 106.941L29.0385 202.715L28.041 202.646ZM35.0441 106.444L96.2373 81.2247L96.6183 82.1493L35.4251 107.368L35.0441 106.444ZM96.7021 81.269L172.151 130.783L171.602 131.619L96.1535 82.105L96.7021 81.269Z" fill="#C78FF7" fill-opacity="0.95"/>
<circle cx="3.22617" cy="3.22617" r="3.22617" transform="matrix(1 1.74846e-07 1.74846e-07 -1 31.9105 110.626)" fill="#C78FF7" fill-opacity="0.95"/>
<path d="M50.9278 211.486C50.1006 210.267 50.4179 208.609 51.6365 207.782C52.855 206.955 54.5134 207.272 55.3405 208.491C56.1677 209.709 55.8504 211.368 54.6318 212.195C53.4133 213.022 51.7549 212.704 50.9278 211.486ZM114.046 168.642C113.219 167.424 113.536 165.765 114.755 164.938C115.973 164.111 117.631 164.428 118.459 165.647C119.286 166.866 118.968 168.524 117.75 169.351C116.531 170.178 114.873 169.861 114.046 168.642ZM52.8533 209.575L115.971 166.731L116.533 167.558L53.415 210.402L52.8533 209.575Z" fill="#3DAFE9"/>
<circle cx="3.22617" cy="3.22617" r="3.22617" transform="matrix(1 1.74846e-07 1.74846e-07 -1 69.1152 200.342)" fill="#3DAFE9"/>
<circle cx="3.73128" cy="3.73128" r="3.73128" transform="matrix(1 1.74846e-07 1.74846e-07 -1 89.1047 164.927)" fill="#3DAFE9"/>
<circle cx="3.73128" cy="3.73128" r="3.73128" transform="matrix(1 1.74846e-07 1.74846e-07 -1 65.3826 141.162)" fill="#3DAFE9"/>
<circle cx="6.45233" cy="6.45233" r="6.45233" transform="matrix(-0.0948536 -0.995491 -0.995491 0.0948536 135.401 87.6689)" fill="#5C49EA"/>
<circle cx="6.45233" cy="6.45233" r="6.45233" transform="matrix(-0.0948536 -0.995491 -0.995491 0.0948536 98.3942 132.477)" fill="#5C49EA"/>
<line y1="-0.5" x2="58.1147" y2="-0.5" transform="matrix(-0.636847 0.77099 0.77099 0.636847 128.369 81.8579)" stroke="#5C49EA"/>
<path d="M118.416 288.936C116.943 288.936 115.749 287.742 115.749 286.269C115.749 284.796 116.943 283.602 118.416 283.602C119.889 283.602 121.083 284.796 121.083 286.269C121.083 287.742 119.889 288.936 118.416 288.936ZM118.416 235.631C116.943 235.631 115.749 234.437 115.749 232.964C115.749 231.492 116.943 230.298 118.416 230.298C119.889 230.298 121.083 231.492 121.083 232.964C121.083 234.437 119.889 235.631 118.416 235.631ZM92.3106 263.595L91.9827 263.972L91.6087 263.647L91.93 263.27L92.3106 263.595ZM118.088 286.647L91.9827 263.972L92.6385 263.217L118.744 285.892L118.088 286.647ZM91.93 263.27L118.035 232.64L118.797 233.289L92.6911 263.919L91.93 263.27Z" fill="#3DAFE9"/>
<path d="M349.98 337.406C351.022 336.365 351.022 334.677 349.98 333.635C348.939 332.594 347.251 332.594 346.209 333.635C345.168 334.677 345.168 336.365 346.209 337.406C347.251 338.448 348.939 338.448 349.98 337.406ZM207.406 194.832C208.447 193.791 208.447 192.102 207.406 191.061C206.365 190.019 204.676 190.019 203.635 191.061C202.593 192.102 202.593 193.791 203.635 194.832C204.676 195.873 206.365 195.873 207.406 194.832ZM348.448 335.167L205.874 192.593L205.167 193.3L347.741 335.874L348.448 335.167Z" fill="#3DAFE9"/>
<path d="M259.025 205.654C258.187 206.865 258.489 208.526 259.7 209.364C260.911 210.203 262.572 209.901 263.41 208.69C264.249 207.479 263.947 205.818 262.736 204.979C261.525 204.141 259.863 204.443 259.025 205.654ZM424.808 320.419C423.97 321.63 424.272 323.291 425.483 324.129C426.694 324.968 428.355 324.665 429.193 323.455C430.031 322.244 429.729 320.582 428.518 319.744C427.307 318.906 425.646 319.208 424.808 320.419ZM260.933 207.583L426.716 322.348L427.285 321.526L261.502 206.761L260.933 207.583Z" fill="#5C49EA"/>
<path d="M411.952 276.842C412.721 275.586 412.326 273.944 411.07 273.176C409.814 272.407 408.172 272.802 407.403 274.058C406.634 275.314 407.029 276.955 408.286 277.724C409.542 278.493 411.183 278.098 411.952 276.842ZM302.474 209.829C303.243 208.573 302.848 206.932 301.592 206.163C300.336 205.394 298.694 205.789 297.925 207.045C297.156 208.301 297.551 209.943 298.807 210.711C300.064 211.48 301.705 211.085 302.474 209.829ZM409.939 275.024L300.461 208.011L299.939 208.864L409.417 275.876L409.939 275.024Z" fill="#5C49EA"/>
<path d="M416.689 433.352C417.516 432.133 417.199 430.475 415.98 429.648C414.762 428.821 413.103 429.138 412.276 430.357C411.449 431.575 411.766 433.233 412.985 434.061C414.203 434.888 415.862 434.57 416.689 433.352ZM353.571 390.508C354.398 389.29 354.081 387.631 352.862 386.804C351.644 385.977 349.985 386.294 349.158 387.513C348.331 388.731 348.648 390.39 349.867 391.217C351.085 392.044 352.744 391.727 353.571 390.508ZM414.763 431.441L351.645 388.597L351.084 389.424L414.202 432.268L414.763 431.441Z" fill="#C883CC"/>
<path d="M416.476 199.595C415.498 198.493 413.813 198.393 412.711 199.37C411.61 200.348 411.509 202.033 412.487 203.135C413.464 204.237 415.15 204.337 416.251 203.359C417.353 202.382 417.453 200.696 416.476 199.595ZM365.363 244.955C364.386 243.854 362.7 243.753 361.599 244.731C360.497 245.708 360.397 247.394 361.374 248.495C362.352 249.597 364.037 249.697 365.139 248.72C366.24 247.742 366.341 246.057 365.363 244.955ZM414.149 200.991L363.037 246.351L363.701 247.099L414.813 201.739L414.149 200.991Z" fill="#5C49EA"/>
<circle cx="395.272" cy="418.981" r="3.22617" transform="rotate(-180 395.272 418.981)" fill="#C883CC"/>
<circle cx="374.777" cy="383.061" r="3.73128" transform="rotate(-180 374.777 383.061)" fill="#3DAFE9"/>
<circle cx="398.499" cy="359.296" r="3.73128" transform="rotate(-180 398.499 359.296)" fill="#3DAFE9"/>
<path d="M379.108 154.261C380.15 153.22 380.15 151.532 379.108 150.49C378.067 149.449 376.378 149.449 375.337 150.49C374.296 151.532 374.296 153.22 375.337 154.261C376.378 155.303 378.067 155.303 379.108 154.261ZM235.772 82.7815C236.813 81.7401 236.813 80.0517 235.772 79.0103C234.73 77.9689 233.042 77.9689 232 79.0103C230.959 80.0517 230.959 81.7401 232 82.7815C233.042 83.8229 234.73 83.8229 235.772 82.7815ZM370.528 56.6013L371.027 56.5665L371.005 56.2572L370.718 56.1391L370.528 56.6013ZM309.335 31.3823L309.525 30.92L309.281 30.8194L309.06 30.9643L309.335 31.3823ZM377.721 152.341L371.027 56.5665L370.029 56.6362L376.724 152.411L377.721 152.341ZM370.718 56.1391L309.525 30.92L309.144 31.8446L370.337 57.0636L370.718 56.1391ZM309.06 30.9643L233.612 80.4779L234.16 81.3139L309.609 31.8003L309.06 30.9643Z" fill="#3DAFE9"/>
<circle cx="370.626" cy="57.0956" r="3.22617" transform="rotate(-180 370.626 57.0956)" fill="#3DAFE9"/>
<circle cx="406.454" cy="385.783" r="6.45233" transform="rotate(-180 406.454 385.783)" fill="#C883CC"/>
<circle cx="447.547" cy="344.69" r="6.45233" transform="rotate(-180 447.547 344.69)" fill="#C883CC"/>
<line x1="406.1" y1="385.43" x2="447.193" y2="344.337" stroke="#C883CC"/>
<line x1="374.951" y1="382.706" x2="398.715" y2="358.943" stroke="#3DAFE9"/>
<path d="M349.2 510.799C350.673 510.799 351.867 509.606 351.867 508.133C351.867 506.66 350.673 505.466 349.2 505.466C347.727 505.466 346.534 506.66 346.534 508.133C346.534 509.606 347.727 510.799 349.2 510.799ZM349.2 457.495C350.673 457.495 351.867 456.301 351.867 454.828C351.867 453.355 350.673 452.161 349.2 452.161C347.727 452.161 346.534 453.355 346.534 454.828C346.534 456.301 347.727 457.495 349.2 457.495ZM375.306 485.458L375.634 485.836L376.007 485.511L375.686 485.134L375.306 485.458ZM349.528 508.51L375.634 485.836L374.978 485.081L348.872 507.755L349.528 508.51ZM375.686 485.134L349.581 454.504L348.82 455.152L374.925 485.783L375.686 485.134Z" fill="#3DAFE9"/>
<circle cx="8.24973" cy="8.24973" r="8.24973" transform="matrix(1 1.74846e-07 1.74846e-07 -1 338.287 428.338)" fill="#3DAFE9"/>
<circle cx="8.24973" cy="8.24973" r="8.24973" transform="matrix(1 1.74846e-07 1.74846e-07 -1 285.748 375.797)" fill="#3DAFE9"/>
<path d="M346.846 419.781L272.694 432.253L294.305 367.241" stroke="#3DAFE9" stroke-width="2"/>
<circle cx="9.76664" cy="9.76664" r="9.26664" transform="matrix(1 1.74846e-07 1.74846e-07 -1 230.708 444.576)" stroke="#0080FF"/>
<circle cx="9.76664" cy="9.76664" r="9.51664" transform="matrix(1 1.74846e-07 1.74846e-07 -1 339.435 464.596)" stroke="#3DAFE9" stroke-width="0.5"/>
</g>
</svg>
