<svg width="539" height="259" viewBox="0 0 539 259" fill="none" xmlns="http://www.w3.org/2000/svg">
<g clip-path="url(#clip0_71_5632)">
<path d="M414.738 6.87856C446.515 6.87856 478.293 18.9874 502.494 43.2051C550.884 91.6523 550.884 170.478 502.494 218.913C479.046 242.389 447.88 255.31 414.738 255.31C381.595 255.31 350.429 242.389 326.981 218.925L272.979 164.859L218.977 218.925C195.541 242.389 164.375 255.31 131.221 255.31C98.0672 255.31 66.9131 242.389 43.4652 218.925C20.0291 195.461 7.12275 164.258 7.12275 131.065C7.12276 97.8716 20.0291 66.6807 43.4652 43.2051C91.8552 -5.2421 170.588 -5.2421 218.966 43.2051L272.968 97.2709L326.97 43.2051C351.159 18.9874 382.936 6.87856 414.726 6.87856L414.738 6.87856ZM414.738 207.523C435.138 207.523 454.315 199.572 468.739 185.131C498.517 155.318 498.517 106.812 468.739 76.9992C453.857 62.0987 434.291 54.6426 414.738 54.6426C395.172 54.6426 375.63 62.0987 360.736 76.9992L306.734 131.065L360.736 185.131C375.16 199.572 394.337 207.523 414.738 207.523ZM239.237 131.065L185.235 76.9992C155.458 47.1864 107.009 47.1864 77.2312 76.9992C62.8071 91.4403 54.8656 110.64 54.8656 131.065C54.8656 151.49 62.8071 170.69 77.2312 185.131C91.6552 199.572 110.832 207.523 131.233 207.523C151.634 207.523 170.811 199.572 185.235 185.131L239.237 131.065Z" fill="#43B3EF"/>
<path d="M319.698 211.622L354.605 178.994L226.271 50.5081L191.353 83.136L319.698 211.622Z" fill="#43B3EF"/>
<path d="M224.717 213.209L226.253 214.645L227.738 213.158L356.084 84.6717L357.672 83.0825L356.031 81.5486L321.124 48.9206L319.588 47.4853L318.102 48.9724L189.757 177.458L188.169 179.047L189.81 180.581L224.717 213.209Z" fill="#43B3EF" stroke="#0F172A" stroke-width="4.34595"/>
<path d="M43.4646 218.913C43.8881 219.337 44.3117 219.737 44.7352 220.15L79.6895 187.486C78.8541 186.721 78.0188 185.932 77.2188 185.131C62.7947 170.689 54.8532 151.49 54.8532 131.065C54.8533 110.64 62.7947 91.4401 77.2188 76.999C78.0188 76.198 78.8424 75.4324 79.6659 74.6785L44.7117 42.0152C44.2999 42.4157 43.8882 42.8162 43.4764 43.2167C20.0402 66.6806 7.13388 97.8832 7.13387 131.077C7.13387 164.27 20.0402 195.461 43.4764 218.936L43.4646 218.913Z" fill="#43B3EF"/>
<path d="M502.435 218.925C502.011 219.349 501.588 219.749 501.164 220.161L466.21 187.498C467.045 186.732 467.881 185.943 468.681 185.142C483.105 170.701 491.046 151.501 491.046 131.076C491.046 110.652 483.105 91.4518 468.681 77.0107C467.881 76.2097 467.057 75.4441 466.234 74.6902L501.188 42.0269C501.6 42.4274 502.011 42.8279 502.423 43.2284C525.871 66.6805 538.777 97.8832 538.777 131.065C538.777 164.246 525.871 195.449 502.435 218.925Z" fill="#43B3EF"/>
<path d="M414.738 255.31C447.281 255.31 477.905 242.848 501.188 220.185L466.234 187.522C452.128 200.444 433.974 207.535 414.738 207.535C394.338 207.535 375.16 199.584 360.736 185.143L354.607 179.006L319.7 211.634L326.982 218.925C350.43 242.389 381.584 255.31 414.738 255.31Z" fill="#43B3EF"/>
<path d="M131.162 6.86701C98.6201 6.86701 67.9954 19.3292 44.7122 41.9921L79.6664 74.6554C93.7728 61.7338 111.926 54.6428 131.162 54.6428C151.563 54.6428 170.74 62.5936 185.164 77.0347L191.294 83.1716L226.201 50.5437L218.919 43.2525C195.482 19.7886 164.317 6.86701 131.162 6.86701Z" fill="#43B3EF"/>
<path d="M79.5957 187.522L72.3249 214.708L44.7356 220.15L44.5238 219.949L79.5957 187.522Z" fill="#43B3EF"/>
<path d="M79.6547 74.6667L53.3949 68.3178L44.7005 42.0153L46.43 40.3544L81.29 73.2061L79.6547 74.6667Z" fill="#43B3EF"/>
<path d="M466.364 187.522L473.635 214.708L501.224 220.15L501.436 219.949L466.364 187.522Z" fill="#43B3EF"/>
<path d="M466.305 74.6667L492.576 68.3178L501.259 42.0153L499.541 40.3544L464.669 73.2061L466.305 74.6667Z" fill="#43B3EF"/>
<path d="M191.294 83.1833L199.753 57.5051L226.201 50.5554L220.566 77.2585L191.294 83.1833Z" fill="#43B3EF"/>
<path d="M319.698 211.622L328.157 185.944L354.605 178.994L348.97 205.697L319.698 211.622Z" fill="#43B3EF"/>
<path d="M354.605 83.1833L346.146 57.5051L319.698 50.5554L325.334 77.2585L354.605 83.1833Z" fill="#43B3EF"/>
<path d="M223.696 214.748L215.083 189.096L188.204 182.154L193.934 208.829L223.696 214.748Z" fill="#43B3EF"/>
<path d="M319.653 46.7047L349.266 54.4906L358.761 83.2786L354.725 84.6096L345.96 58.0126L318.583 50.8156L319.653 46.7047Z" fill="#0F172A"/>
<path d="M227.717 47.964L228.788 52.0748L201.411 59.2718L192.634 85.8689L188.61 84.5379L198.105 55.7499L227.717 47.964Z" fill="#0F172A"/>
<path d="M356.124 176.402L357.194 180.513L329.817 187.71L321.052 214.307L317.016 212.976L326.511 184.188L356.124 176.402Z" fill="#0F172A"/>
<path d="M467.856 184.919L475.338 212.882L503.716 218.477L502.892 222.647L471.926 216.534L463.761 186.014L467.856 184.919Z" fill="#0F172A"/>
<path d="M499.904 39.342L503.939 40.673L494.21 70.1089L464.738 77.2234L463.738 73.1007L490.927 66.528L499.904 39.342Z" fill="#0F172A"/>
<path d="M188.549 177.807L218.162 185.593L227.656 214.381L223.621 215.712L214.856 189.115L187.478 181.918L188.549 177.807Z" fill="#0F172A"/>
<path d="M78.1001 184.919L82.1943 186.014L74.0293 216.546L42.8282 222.423L42.0517 218.254L70.6174 212.871L78.1001 184.919Z" fill="#0F172A"/>
<path d="M46.0537 39.3415L55.0305 66.5275L82.2197 73.1002L81.2197 77.2229L51.748 70.1084L42.03 40.6725L46.0537 39.3415Z" fill="#0F172A"/>
</g>
<path d="M253.189 152.146L246.377 145.335C246.766 144.781 247.412 144.013 248.139 143.286C249.133 142.292 249.973 141.78 250.823 141.708C251.519 141.647 252.216 141.913 252.8 142.497C253.691 143.388 253.691 144.597 253.281 145.478L253.312 145.509C253.988 145.201 254.767 145.386 255.607 145.877C256.682 146.523 257.666 147.137 258.075 147.26L256.774 148.561C256.467 148.459 255.74 148.059 254.685 147.393C253.589 146.687 252.974 146.728 252.236 147.424L251.601 148.059L254.439 150.897L253.189 152.146ZM248.498 144.956L250.679 147.137L251.427 146.39C252.277 145.539 252.359 144.556 251.673 143.87C250.915 143.112 250.034 143.296 249.215 144.116C248.815 144.515 248.59 144.802 248.498 144.956ZM259.103 138.058L260.127 139.083L257.526 141.684L259.554 143.713L262.463 140.804L263.498 141.838L259.328 146.007L252.424 139.103L256.44 135.088L257.474 136.122L254.719 138.878L256.501 140.66L259.103 138.058ZM264.908 140.428L258.003 133.524L259.263 132.264L265.112 138.113L267.95 135.276L269.005 136.331L264.908 140.428ZM270.041 127.12L271.066 128.145L268.464 130.746L270.492 132.775L273.401 129.865L274.436 130.9L270.267 135.069L263.363 128.165L267.378 124.15L268.413 125.184L265.657 127.94L267.439 129.722L270.041 127.12ZM277.464 123.959L275.272 126.151L276.635 128.701L275.334 130.002L270.642 120.885L272.25 119.277L281.398 123.938L280.046 125.29L277.464 123.959ZM274.524 124.993L276.297 123.221L274.053 122.064C273.5 121.777 272.916 121.418 272.414 121.121L272.394 121.142C272.691 121.644 273.07 122.227 273.357 122.76L274.524 124.993ZM282.03 122.65L281.262 121.329C281.907 121.155 282.727 120.745 283.372 120.099C284.181 119.29 284.253 118.461 283.69 117.897C283.167 117.375 282.512 117.416 281.313 117.979C279.766 118.706 278.435 118.829 277.441 117.836C276.314 116.709 276.396 114.906 277.892 113.41C278.64 112.663 279.357 112.273 279.9 112.099L280.606 113.421C280.227 113.533 279.551 113.82 278.906 114.466C278.107 115.264 278.189 116.043 278.588 116.442C279.121 116.975 279.766 116.822 281.047 116.258C282.696 115.51 283.884 115.531 284.878 116.524C285.984 117.631 286.107 119.434 284.325 121.216C283.598 121.943 282.635 122.496 282.03 122.65ZM288.059 109.103L289.084 110.127L286.482 112.729L288.51 114.757L291.419 111.848L292.454 112.882L288.284 117.051L281.38 110.147L285.396 106.132L286.43 107.166L283.675 109.922L285.457 111.704L288.059 109.103Z" fill="white"/>
<path d="M382.626 31.8758V22.2713C383.408 22.1409 384.408 22.0685 385.466 22.0685C387.291 22.0685 388.551 22.4451 389.449 23.1984C390.391 23.9662 390.97 25.1251 390.97 26.7911C390.97 28.5294 390.376 29.8332 389.449 30.6734C388.479 31.5571 386.929 32.0062 385.031 32.0062C383.988 32.0062 383.206 31.9482 382.626 31.8758ZM384.408 23.5606V30.5431C384.654 30.5865 385.031 30.5865 385.393 30.5865C387.711 30.601 389.087 29.3262 389.087 26.849C389.102 24.6905 387.856 23.4592 385.625 23.4592C385.06 23.4592 384.654 23.5026 384.408 23.5606ZM398.411 26.1247V27.5733H394.731V30.4416H398.846V31.9048H392.95V22.1409H398.628V23.604H394.731V26.1247H398.411ZM400.84 31.9048V22.2713C401.477 22.1554 402.361 22.0685 403.563 22.0685C404.867 22.0685 405.823 22.3437 406.446 22.8652C407.025 23.3433 407.402 24.111 407.402 25.0237C407.402 25.9508 407.112 26.7186 406.562 27.2401C405.852 27.95 404.736 28.2832 403.476 28.2832C403.143 28.2832 402.839 28.2687 402.607 28.2252V31.9048H400.84ZM402.607 23.5171V26.82C402.824 26.878 403.114 26.8925 403.476 26.8925C404.809 26.8925 405.62 26.2406 405.62 25.0961C405.62 24.0096 404.867 23.4302 403.635 23.4302C403.143 23.4302 402.795 23.4736 402.607 23.5171ZM409.366 31.9048V22.1409H411.148V30.4127H415.161V31.9048H409.366ZM420.508 21.9815C423.362 21.9815 425.042 24.14 425.042 26.9214C425.042 30.1954 423.057 32.0641 420.363 32.0641C417.611 32.0641 415.872 29.9636 415.872 27.0953C415.872 24.0966 417.755 21.9815 420.508 21.9815ZM420.464 23.4157C418.697 23.4157 417.755 25.0527 417.755 27.0663C417.755 29.0509 418.755 30.63 420.464 30.63C422.188 30.63 423.159 29.0365 423.159 26.9939C423.159 25.1541 422.246 23.4157 420.464 23.4157ZM430.531 31.9048H428.749V27.8341L425.664 22.1409L427.692 22.1409L428.865 24.647C429.198 25.3714 429.445 25.9219 429.705 26.5882H429.734C429.981 25.9653 430.256 25.3569 430.589 24.647L431.762 22.1409H433.776L430.531 27.7906V31.9048Z" fill="white"/>
<path d="M391.057 228.921L390.869 224.938C390.811 223.677 390.739 222.156 390.753 220.838H390.71C390.391 222.026 389.985 223.344 389.551 224.575L388.131 228.805H386.755L385.451 224.633C385.074 223.388 384.727 222.055 384.466 220.838H384.437C384.394 222.113 384.336 223.663 384.263 224.996L384.046 228.921H382.38L383.032 219.157H385.379L386.653 223.083C387.001 224.228 387.305 225.387 387.552 226.473H387.595C387.856 225.416 388.189 224.213 388.566 223.069L389.913 219.157H392.231L392.796 228.921H391.057ZM399.172 218.998C402.026 218.998 403.706 221.157 403.706 223.938C403.706 227.212 401.722 229.081 399.027 229.081C396.275 229.081 394.536 226.98 394.536 224.112C394.536 221.113 396.419 218.998 399.172 218.998ZM399.128 220.432C397.361 220.432 396.419 222.069 396.419 224.083C396.419 226.068 397.419 227.647 399.128 227.647C400.852 227.647 401.823 226.053 401.823 224.01C401.823 222.171 400.91 220.432 399.128 220.432ZM407.315 228.921H405.678V219.157H407.706L410.227 223.344C410.878 224.431 411.443 225.561 411.893 226.618H411.922C411.806 225.314 411.762 224.054 411.762 222.562V219.157H413.414V228.921H411.574L409.024 224.633C408.401 223.561 407.749 222.359 407.271 221.258L407.228 221.273C407.3 222.533 407.315 223.822 407.315 225.43V228.921ZM415.902 219.157H417.684V228.921H415.902V219.157ZM422.025 228.921V220.65H419.244V219.157H426.617V220.65H423.807V228.921H422.025ZM431.92 218.998C434.774 218.998 436.455 221.157 436.455 223.938C436.455 227.212 434.47 229.081 431.776 229.081C429.023 229.081 427.285 226.98 427.285 224.112C427.285 221.113 429.168 218.998 431.92 218.998ZM431.877 220.432C430.11 220.432 429.168 222.069 429.168 224.083C429.168 226.068 430.168 227.647 431.877 227.647C433.601 227.647 434.572 226.053 434.572 224.01C434.572 222.171 433.659 220.432 431.877 220.432ZM438.426 228.921V219.288C439.093 219.172 440.092 219.085 441.121 219.085C442.526 219.085 443.482 219.317 444.134 219.867C444.67 220.316 444.974 220.997 444.974 221.823C444.974 223.083 444.12 223.938 443.207 224.271V224.315C443.902 224.575 444.322 225.256 444.569 226.198C444.873 227.415 445.134 228.545 445.336 228.921H443.497C443.352 228.632 443.12 227.835 442.845 226.618C442.57 225.343 442.106 224.938 441.092 224.909H440.194V228.921H438.426ZM440.194 220.519V223.605H441.251C442.454 223.605 443.207 222.967 443.207 221.997C443.207 220.925 442.454 220.432 441.295 220.432C440.73 220.432 440.368 220.476 440.194 220.519Z" fill="white"/>
<path d="M105.631 228.921V220.65H102.849V219.157H110.223V220.65H107.413V228.921H105.631ZM117.269 223.141V224.59H113.589V227.458H117.704V228.921H111.808L111.808 219.157H117.486V220.621H113.589V223.141H117.269ZM119.263 228.458L119.654 226.98C120.234 227.313 121.103 227.603 122.015 227.603C123.16 227.603 123.797 227.067 123.797 226.27C123.797 225.532 123.305 225.097 122.059 224.648C120.451 224.068 119.422 223.214 119.422 221.809C119.422 220.215 120.755 218.998 122.87 218.998C123.928 218.998 124.71 219.23 125.217 219.491L124.782 220.925C124.435 220.737 123.754 220.461 122.841 220.461C121.711 220.461 121.219 221.07 121.219 221.635C121.219 222.388 121.784 222.736 123.087 223.243C124.782 223.88 125.608 224.735 125.608 226.14C125.608 227.705 124.42 229.066 121.9 229.066C120.871 229.066 119.799 228.777 119.263 228.458ZM129.513 228.921V220.65H126.732V219.157H134.105V220.65H131.295V228.921H129.513Z" fill="white"/>
<path d="M110.469 33.1073L110.759 34.5125C110.339 34.7298 109.412 34.9471 108.238 34.9471C105.138 34.9471 103.255 33.0059 103.255 30.0362C103.255 26.8202 105.486 24.879 108.47 24.879C109.643 24.879 110.484 25.1253 110.846 25.3136L110.455 26.7333C109.991 26.5305 109.354 26.3566 108.542 26.3566C106.558 26.3566 105.124 27.6025 105.124 29.9493C105.124 32.0933 106.384 33.4695 108.528 33.4695C109.252 33.4695 110.006 33.3246 110.469 33.1073ZM116.46 24.879C119.314 24.879 120.994 27.0375 120.994 29.8189C120.994 33.0928 119.009 34.9616 116.315 34.9616C113.562 34.9616 111.824 32.8611 111.824 29.9927C111.824 26.994 113.707 24.879 116.46 24.879ZM116.416 26.3132C114.649 26.3132 113.707 27.9501 113.707 29.9638C113.707 31.9484 114.707 33.5274 116.416 33.5274C118.14 33.5274 119.111 31.9339 119.111 29.8913C119.111 28.0515 118.198 26.3132 116.416 26.3132ZM122.966 34.7733V25.1687C123.748 25.0383 124.747 24.9659 125.805 24.9659C127.63 24.9659 128.891 25.3426 129.789 26.0959C130.73 26.8636 131.31 28.0226 131.31 29.6885C131.31 31.4269 130.716 32.7307 129.789 33.5709C128.818 34.4546 127.268 34.9037 125.37 34.9037C124.327 34.9037 123.545 34.8457 122.966 34.7733ZM124.747 26.458V33.4405C124.994 33.484 125.37 33.484 125.733 33.484C128.05 33.4985 129.427 32.2236 129.427 29.7465C129.441 27.588 128.195 26.3566 125.964 26.3566C125.399 26.3566 124.994 26.4001 124.747 26.458ZM138.75 29.0221V30.4708H135.071V33.3391H139.185V34.8022H133.289V25.0383H138.968V26.5015H135.071V29.0221H138.75Z" fill="white"/>
<path d="M222.529 82.0873L229.341 75.2754C229.874 75.6442 230.56 76.2076 231.41 77.0578C232.332 77.9797 232.814 78.8504 232.885 79.6596C232.957 80.4074 232.68 81.2166 232.035 81.862C231.38 82.5176 230.632 82.8556 229.874 82.8351C228.87 82.8351 227.845 82.282 226.954 81.3908C226.719 81.1552 226.514 80.9298 226.381 80.7352L223.779 83.337L222.529 82.0873ZM229.71 77.406L227.374 79.7416C227.487 79.9362 227.682 80.1513 227.938 80.4074C228.88 81.3498 229.915 81.4625 230.724 80.6532C231.492 79.885 231.369 78.9426 230.499 78.0719C230.15 77.7236 229.874 77.5085 229.71 77.406ZM228.558 88.1166L235.462 81.2125L236.722 82.4724L230.873 88.3215L233.711 91.1589L232.656 92.214L228.558 88.1166ZM239.489 95.1341L237.297 92.942L234.746 94.3044L233.445 93.0035L242.562 88.3119L244.17 89.9202L239.509 99.0676L238.157 97.7155L239.489 95.1341ZM238.454 92.1942L240.226 93.9663L241.384 91.723C241.671 91.1699 242.029 90.586 242.326 90.0841L242.306 90.0636C241.804 90.3606 241.22 90.7396 240.687 91.0265L238.454 92.1942ZM241.934 101.493L240.777 100.335L247.681 93.431L249.115 94.8651L247.937 99.6079C247.63 100.837 247.23 102.036 246.8 103.101L246.821 103.121C247.661 102.118 248.521 101.196 249.576 100.141L251.983 97.7333L253.151 98.9011L246.247 105.805L244.946 104.504L246.175 99.6693C246.493 98.4708 246.882 97.1597 247.323 96.0431L247.282 96.0227C246.442 96.9651 245.54 97.887 244.403 99.024L241.934 101.493Z" fill="white"/>
<path d="M517.868 99.3056C517.868 102.159 515.709 103.84 512.928 103.84C509.654 103.84 507.785 101.855 507.785 99.1608C507.785 96.4083 509.886 94.67 512.754 94.67C515.753 94.67 517.868 96.5532 517.868 99.3056ZM516.433 99.2622C516.433 97.4948 514.796 96.5532 512.783 96.5532C510.798 96.5532 509.219 97.5528 509.219 99.2622C509.219 100.986 510.813 101.957 512.855 101.957C514.695 101.957 516.433 101.044 516.433 99.2622ZM507.944 105.812L517.578 105.812C517.694 106.449 517.781 107.333 517.781 108.535C517.781 109.839 517.505 110.795 516.984 111.418C516.506 111.997 515.738 112.374 514.825 112.374C513.898 112.374 513.131 112.084 512.609 111.534C511.899 110.824 511.566 109.708 511.566 108.448C511.566 108.115 511.58 107.811 511.624 107.579L507.944 107.579L507.944 105.812ZM516.332 107.579L513.029 107.579C512.971 107.796 512.957 108.086 512.957 108.448C512.957 109.781 513.609 110.592 514.753 110.592C515.839 110.592 516.419 109.839 516.419 108.607C516.419 108.115 516.375 107.767 516.332 107.579ZM513.724 119.8L512.276 119.8L512.276 116.12L509.407 116.12L509.407 120.234L507.944 120.234L507.944 114.338L517.708 114.338L517.708 120.017L516.245 120.017L516.245 116.12L513.724 116.12L513.724 119.8ZM507.944 122.228L517.578 122.228C517.694 122.895 517.781 123.894 517.781 124.923C517.781 126.328 517.549 127.284 516.998 127.936C516.549 128.472 515.868 128.776 515.043 128.776C513.782 128.776 512.928 127.921 512.595 127.009L512.551 127.009C512.29 127.704 511.609 128.124 510.668 128.371C509.451 128.675 508.321 128.936 507.944 129.138L507.944 127.299C508.234 127.154 509.031 126.922 510.248 126.647C511.523 126.371 511.928 125.908 511.957 124.894L511.957 123.996L507.944 123.996L507.944 122.228ZM516.347 123.996L513.261 123.996L513.261 125.053C513.261 126.256 513.898 127.009 514.869 127.009C515.941 127.009 516.433 126.256 516.433 125.097C516.433 124.532 516.39 124.169 516.347 123.996ZM510.711 136.065L510.711 132.965L507.944 132.125L507.944 130.285L517.708 133.414L517.708 135.689L507.944 138.861L507.944 136.949L510.711 136.065ZM512.059 133.255L512.059 135.761L514.463 134.993C515.057 134.805 515.724 134.646 516.289 134.501L516.289 134.472C515.724 134.327 515.043 134.182 514.463 134.008L512.059 133.255ZM507.944 141.348L516.216 141.348L516.216 138.567L517.708 138.567L517.708 145.941L516.216 145.941L516.216 143.13L507.944 143.13L507.944 141.348ZM513.724 152.987L512.276 152.987L512.276 149.307L509.407 149.307L509.407 153.421L507.944 153.421L507.944 147.525L517.708 147.525L517.708 153.204L516.245 153.204L516.245 149.307L513.724 149.307L513.724 152.987Z" fill="white"/>
<path d="M36.4769 149.255L26.8723 149.255C26.7564 148.69 26.6695 147.661 26.6695 146.662C26.6695 145.344 26.8289 144.532 27.2924 143.866C27.6546 143.257 28.292 142.852 29.1177 142.852C30.0159 142.852 30.8416 143.417 31.2328 144.474L31.2617 144.474C31.5225 143.446 32.3337 142.504 33.681 142.504C34.5502 142.504 35.231 142.881 35.6946 143.446C36.303 144.141 36.6073 145.286 36.6073 147.067C36.6073 148.053 36.5348 148.806 36.4769 149.255ZM28.0602 147.488L30.7257 147.488L30.7257 146.575C30.7257 145.344 30.1463 144.648 29.3206 144.648C28.4079 144.648 27.9878 145.344 27.9878 146.473C27.9878 146.995 28.0168 147.299 28.0602 147.488ZM32.0295 147.488L35.2166 147.488C35.2455 147.256 35.26 146.952 35.26 146.546C35.26 145.401 34.8254 144.387 33.623 144.387C32.4931 144.387 32.0295 145.373 32.0295 146.604L32.0295 147.488ZM26.742 140.488L26.742 138.706L32.4352 138.706C34.3474 138.706 35.231 137.909 35.231 136.707C35.231 135.418 34.3474 134.65 32.4352 134.65L26.742 134.65L26.742 132.868L32.3193 132.868C35.3325 132.868 36.6652 134.418 36.6652 136.765C36.6652 139.025 35.4049 140.488 32.3337 140.488L26.742 140.488ZM26.742 130.391L26.742 128.609L36.5059 128.609L36.5059 130.391L26.742 130.391ZM36.5059 126.136L26.742 126.136L26.742 124.355L35.0137 124.355L35.0137 120.342L36.5059 120.342L36.5059 126.136ZM36.4769 118.558L26.8723 118.558C26.742 117.775 26.6695 116.776 26.6695 115.718C26.6695 113.893 27.0462 112.633 27.7995 111.735C28.5673 110.793 29.7262 110.213 31.3921 110.213C33.1305 110.213 34.4343 110.807 35.2745 111.735C36.1582 112.705 36.6073 114.255 36.6073 116.153C36.6073 117.196 36.5493 117.978 36.4769 118.558ZM28.1616 116.776L35.1441 116.776C35.1876 116.53 35.1876 116.153 35.1876 115.791C35.2021 113.473 33.9273 112.097 31.4501 112.097C29.2916 112.082 28.0602 113.328 28.0602 115.559C28.0602 116.124 28.1037 116.53 28.1616 116.776Z" fill="white"/>
<path d="M336.69 105.59L360.709 81.5944C371.149 71.1649 383.676 63.7456 397.309 59.753" stroke="url(#paint0_linear_71_5632)" stroke-width="6.79992" stroke-miterlimit="10" stroke-linecap="round"/>
<path d="M417.814 3.96956C450.112 3.96956 480.457 16.8435 503.297 40.2262C513.329 50.4968 521.392 62.2596 527.269 75.0225" stroke="url(#paint1_linear_71_5632)" stroke-width="6.79992" stroke-miterlimit="10" stroke-linecap="round"/>
<path d="M387.605 255.136C364.332 250.651 342.852 239.243 325.561 221.872L296.539 192.743" stroke="url(#paint2_linear_71_5632)" stroke-width="6.79992" stroke-miterlimit="10" stroke-linecap="round"/>
<path d="M180.96 13.3232C195.492 19.3487 208.853 28.3046 220.376 39.8949L262.994 82.8232" stroke="url(#paint3_linear_71_5632)" stroke-width="6.79992" stroke-miterlimit="10" stroke-linecap="round"/>
<path d="M65.792 240.824C56.2395 235.231 47.3648 228.219 39.4147 219.901C16.7197 196.158 4.22437 164.597 4.22436 131.037C4.22436 114.257 7.35204 97.9764 13.3147 82.9211" stroke="url(#paint4_linear_71_5632)" stroke-width="6.79992" stroke-miterlimit="10" stroke-linecap="round"/>
<path d="M204.862 159.7L188.512 177.881C173.011 195.117 152.408 204.608 130.485 204.608C125.748 204.608 121.07 204.167 116.495 203.287" stroke="url(#paint5_linear_71_5632)" stroke-width="6.79992" stroke-miterlimit="10" stroke-linecap="round"/>
<mask id="path-38-outside-1_71_5632" maskUnits="userSpaceOnUse" x="90.6943" y="103.819" width="88" height="53" fill="black">
<rect fill="white" x="90.6943" y="103.819" width="88" height="53"/>
<path d="M107.843 154.819H93.936C93.3102 154.819 93.8664 154.471 93.8664 153.845V113.932C93.8664 111.776 93.4492 110.455 91.989 109.273C91.5718 108.925 91.6413 108.508 92.3367 108.3C94.5618 107.604 96.5783 106.7 98.9425 105.379C99.4293 105.101 99.6379 105.31 100.125 105.866C101.098 106.978 101.585 108.16 102.002 108.16C102.558 108.16 105.827 105.31 109.512 105.31C111.459 105.31 120.081 110.733 120.081 116.366V144.319C120.081 147.517 110.416 154.819 107.843 154.819ZM103.393 147.935H110.485C110.972 147.935 111.32 147.517 111.32 146.753V118.938C111.32 114.627 104.853 111.707 103.462 111.707C102.836 111.707 102.628 112.124 102.628 113.167V144.249C102.628 147.309 101.376 147.935 103.393 147.935ZM146.602 154.888C143.542 154.888 133.251 154.68 129.635 154.819C129.218 154.819 128.801 154.471 128.801 153.984C128.94 143.067 128.801 136.044 128.801 125.266C128.801 124.779 128.87 124.293 129.218 124.015L134.85 119.564C135.268 119.286 135.546 118.938 136.102 119.008C137.423 119.147 140.969 119.495 145.489 119.495C146.324 119.495 148.132 119.356 148.549 119.078C148.966 118.799 148.966 119.217 148.688 120.051L147.436 123.736C147.158 124.571 145.559 125.544 143.89 125.544C142.43 125.544 140.552 125.614 137.632 124.571C137.284 124.432 136.936 124.571 136.936 124.779V133.889C136.936 134.445 137.145 134.653 138.049 134.653C139.44 134.653 142.291 134.375 145.698 133.958C146.115 133.889 146.463 134.167 146.254 134.653L144.516 138.965C144.446 139.312 144.168 139.521 143.82 139.521C142.221 139.521 139.023 138.756 137.423 138.756C137.145 138.756 136.936 138.895 136.936 139.243C136.936 141.468 136.867 144.18 136.728 146.196C136.658 147.378 136.38 149.186 137.632 149.186C140.9 149.186 145.837 148.839 149.105 148.63C149.592 148.63 149.94 148.839 149.592 149.464C148.688 151.064 147.993 152.454 147.367 154.332C147.228 154.749 146.95 154.888 146.602 154.888ZM167.699 155.792C164.778 155.792 155.6 148.491 155.6 145.362V127.144C155.6 125.127 155.182 123.806 153.722 122.624C153.305 122.276 153.374 121.859 154.07 121.65C156.295 120.885 157.686 120.19 159.98 118.73C160.467 118.452 160.676 118.66 161.162 119.217C163.388 121.789 163.666 123.18 163.666 125.892V143.484C163.666 145.223 169.507 149.951 170.758 149.951C171.245 149.951 171.593 149.534 171.593 148.769V125.405C171.593 123.667 170.897 122.137 169.854 121.094C169.437 120.677 169.368 120.329 170.063 120.121C171.94 119.634 172.01 119.356 173.887 118.591C174.374 118.313 174.583 118.521 175.069 119.078C176.669 120.885 177.573 123.111 177.573 125.405V145.292C177.573 149.882 170.063 155.792 167.699 155.792Z"/>
</mask>
<path d="M91.989 109.273L91.5252 109.83L91.5333 109.836L91.989 109.273ZM92.3367 108.3L92.5448 108.993L92.5527 108.991L92.3367 108.3ZM98.9425 105.379L99.2959 106.011L99.3019 106.008L98.9425 105.379ZM100.125 105.866L100.67 105.389L100.67 105.389L100.125 105.866ZM107.843 154.094H93.936V155.543H107.843V154.094ZM93.936 154.094C93.8831 154.094 93.8877 154.09 93.9224 154.098C93.9528 154.105 94.0922 154.143 94.214 154.287C94.3519 154.45 94.3679 154.628 94.3618 154.723C94.3568 154.798 94.3371 154.842 94.3462 154.817C94.3536 154.797 94.3637 154.774 94.3903 154.711C94.4131 154.657 94.4436 154.584 94.4727 154.501C94.5316 154.334 94.5908 154.11 94.5908 153.845H93.1421C93.1421 153.986 93.0974 154.016 92.9869 154.316C92.9655 154.374 92.9252 154.49 92.9162 154.629C92.906 154.786 92.9345 155.017 93.1082 155.222C93.2659 155.409 93.4645 155.478 93.5842 155.507C93.7083 155.537 93.8324 155.543 93.936 155.543V154.094ZM94.5908 153.845V113.932H93.1421V153.845H94.5908ZM94.5908 113.932C94.5908 112.815 94.4841 111.845 94.1516 110.978C93.8128 110.095 93.259 109.369 92.4447 108.71L91.5333 109.836C92.1793 110.359 92.5642 110.885 92.7991 111.497C93.0402 112.125 93.1421 112.893 93.1421 113.932H94.5908ZM92.4527 108.717C92.4061 108.678 92.4134 108.67 92.4295 108.705C92.45 108.75 92.4703 108.839 92.4394 108.942C92.4108 109.038 92.3594 109.074 92.367 109.069C92.3767 109.061 92.4265 109.029 92.5448 108.993L92.1285 107.606C91.7112 107.731 91.2118 107.993 91.0518 108.526C90.8768 109.11 91.2231 109.578 91.5253 109.829L92.4527 108.717ZM92.5527 108.991C94.8354 108.278 96.8981 107.351 99.2959 106.011L98.5892 104.747C96.2585 106.049 94.2882 106.931 92.1206 107.608L92.5527 108.991ZM99.3019 106.008C99.3761 105.966 99.3837 105.975 99.3459 105.979C99.2908 105.986 99.2375 105.971 99.2096 105.957C99.1988 105.952 99.2232 105.962 99.2968 106.034C99.3691 106.105 99.4555 106.201 99.5795 106.343L100.67 105.389C100.55 105.252 100.428 105.114 100.309 104.998C100.192 104.883 100.042 104.754 99.8575 104.662C99.6558 104.561 99.4286 104.512 99.1823 104.54C98.9533 104.566 98.7523 104.654 98.5832 104.75L99.3019 106.008ZM99.5795 106.343C100.029 106.857 100.363 107.382 100.673 107.838C100.818 108.052 100.977 108.278 101.14 108.452C101.272 108.594 101.567 108.885 102.002 108.885V107.436C102.228 107.436 102.307 107.58 102.199 107.464C102.123 107.382 102.021 107.244 101.871 107.023C101.59 106.61 101.193 105.987 100.67 105.389L99.5795 106.343ZM102.002 108.885C102.169 108.885 102.313 108.836 102.393 108.806C102.487 108.771 102.581 108.726 102.668 108.681C102.841 108.59 103.048 108.467 103.267 108.335C103.716 108.063 104.271 107.72 104.922 107.375C106.232 106.682 107.845 106.034 109.512 106.034V104.585C107.493 104.585 105.63 105.362 104.245 106.095C103.549 106.463 102.952 106.832 102.517 107.095C102.294 107.23 102.125 107.33 101.999 107.395C101.936 107.428 101.899 107.444 101.882 107.451C101.851 107.462 101.904 107.436 102.002 107.436V108.885ZM109.512 106.034C109.621 106.034 109.869 106.08 110.269 106.231C110.651 106.375 111.116 106.593 111.635 106.879C112.673 107.452 113.893 108.277 115.055 109.275C116.218 110.274 117.304 111.429 118.095 112.655C118.887 113.883 119.357 115.142 119.357 116.366H120.806C120.806 114.773 120.198 113.242 119.312 111.869C118.425 110.494 117.234 109.237 115.999 108.176C114.762 107.114 113.46 106.231 112.334 105.611C111.772 105.3 111.243 105.05 110.781 104.876C110.337 104.708 109.89 104.585 109.512 104.585V106.034ZM119.357 116.366V144.319H120.806V116.366H119.357ZM119.357 144.319C119.357 144.549 119.265 144.891 119.022 145.348C118.783 145.795 118.428 146.301 117.975 146.845C117.068 147.932 115.816 149.112 114.47 150.206C113.125 151.299 111.707 152.289 110.478 153.001C109.862 153.357 109.305 153.638 108.837 153.827C108.351 154.023 108.023 154.094 107.843 154.094V155.543C108.306 155.543 108.844 155.386 109.378 155.17C109.931 154.948 110.551 154.633 111.204 154.255C112.51 153.498 113.99 152.463 115.384 151.33C116.775 150.199 118.101 148.954 119.087 147.773C119.58 147.182 120 146.593 120.3 146.029C120.595 145.474 120.806 144.888 120.806 144.319H119.357ZM103.393 148.659H110.485V147.21H103.393V148.659ZM110.485 148.659C110.959 148.659 111.384 148.445 111.668 148.061C111.936 147.698 112.044 147.234 112.044 146.753H110.595C110.595 147.036 110.53 147.163 110.503 147.2C110.491 147.216 110.487 147.215 110.494 147.211C110.502 147.207 110.502 147.21 110.485 147.21V148.659ZM112.044 146.753V118.938H110.595V146.753H112.044ZM112.044 118.938C112.044 116.415 110.17 114.418 108.331 113.115C107.39 112.448 106.406 111.924 105.56 111.564C105.137 111.384 104.742 111.242 104.398 111.144C104.067 111.05 103.737 110.982 103.462 110.982V112.431C103.535 112.431 103.712 112.455 104.001 112.537C104.276 112.616 104.614 112.736 104.993 112.897C105.752 113.22 106.644 113.695 107.494 114.297C109.236 115.532 110.595 117.151 110.595 118.938H112.044ZM103.462 110.982C103.229 110.982 102.976 111.021 102.736 111.144C102.488 111.272 102.304 111.466 102.177 111.694C101.949 112.105 101.904 112.637 101.904 113.167H103.352C103.352 112.927 103.364 112.746 103.386 112.612C103.407 112.475 103.434 112.415 103.444 112.398C103.447 112.391 103.433 112.415 103.4 112.432C103.375 112.445 103.383 112.431 103.462 112.431V110.982ZM101.904 113.167V144.249H103.352V113.167H101.904ZM101.904 144.249C101.904 144.963 101.831 145.532 101.75 145.991C101.71 146.223 101.667 146.425 101.628 146.615C101.592 146.797 101.554 146.986 101.534 147.158C101.516 147.324 101.504 147.545 101.567 147.769C101.638 148.027 101.795 148.247 102.032 148.399C102.24 148.532 102.474 148.589 102.677 148.619C102.886 148.649 103.128 148.659 103.393 148.659V147.21C103.154 147.21 102.993 147.201 102.885 147.185C102.77 147.168 102.771 147.152 102.813 147.179C102.884 147.224 102.941 147.305 102.962 147.381C102.975 147.425 102.962 147.424 102.974 147.321C102.985 147.223 103.009 147.095 103.048 146.904C103.085 146.723 103.132 146.498 103.177 146.241C103.268 145.721 103.352 145.066 103.352 144.249H101.904ZM129.635 154.819V155.543H129.649L129.663 155.542L129.635 154.819ZM128.801 153.984L128.076 153.975V153.984H128.801ZM129.218 124.015L128.769 123.446L128.766 123.449L129.218 124.015ZM134.85 119.564L134.449 118.962L134.424 118.978L134.401 118.996L134.85 119.564ZM136.102 119.008L136.012 119.727L136.026 119.728L136.102 119.008ZM148.549 119.078L148.951 119.68L148.951 119.68L148.549 119.078ZM148.688 120.051L149.374 120.284L149.375 120.28L148.688 120.051ZM147.436 123.736L146.75 123.503L146.749 123.507L147.436 123.736ZM137.632 124.571L137.363 125.243L137.375 125.248L137.388 125.253L137.632 124.571ZM145.698 133.958L145.786 134.677L145.801 134.675L145.817 134.673L145.698 133.958ZM146.254 134.653L145.588 134.368L145.585 134.375L145.582 134.383L146.254 134.653ZM144.516 138.965L143.844 138.694L143.819 138.756L143.806 138.823L144.516 138.965ZM136.728 146.196L136.005 146.146L136.005 146.154L136.728 146.196ZM149.105 148.63V147.906H149.082L149.059 147.907L149.105 148.63ZM149.592 149.464L150.222 149.821L150.225 149.816L149.592 149.464ZM147.367 154.332L148.054 154.561L147.367 154.332ZM146.602 154.164C143.583 154.164 133.239 153.955 129.607 154.095L129.663 155.542C133.263 155.404 143.501 155.612 146.602 155.612V154.164ZM129.635 154.094C129.623 154.094 129.59 154.087 129.559 154.057C129.534 154.034 129.525 154.011 129.525 153.984H128.076C128.076 154.909 128.858 155.543 129.635 155.543V154.094ZM129.525 153.993C129.664 143.071 129.525 136.029 129.525 125.266H128.076C128.076 136.059 128.216 143.063 128.077 153.975L129.525 153.993ZM129.525 125.266C129.525 125.049 129.542 124.882 129.577 124.757C129.609 124.64 129.648 124.598 129.671 124.58L128.766 123.449C128.127 123.96 128.076 124.78 128.076 125.266H129.525ZM129.667 124.583L135.299 120.133L134.401 118.996L128.769 123.446L129.667 124.583ZM135.252 120.167C135.379 120.082 135.496 119.992 135.58 119.928C135.674 119.858 135.736 119.813 135.793 119.779C135.879 119.728 135.927 119.716 136.012 119.727L136.192 118.289C135.72 118.23 135.352 118.357 135.056 118.532C134.921 118.612 134.801 118.702 134.707 118.772C134.605 118.85 134.53 118.907 134.449 118.962L135.252 120.167ZM136.026 119.728C137.36 119.869 140.934 120.219 145.489 120.219V118.77C141.005 118.77 137.487 118.425 136.178 118.288L136.026 119.728ZM145.489 120.219C145.936 120.219 146.624 120.182 147.258 120.11C147.575 120.074 147.892 120.027 148.165 119.968C148.405 119.916 148.72 119.834 148.951 119.68L148.147 118.475C148.169 118.46 148.101 118.5 147.859 118.552C147.65 118.597 147.385 118.637 147.093 118.671C146.51 118.737 145.877 118.77 145.489 118.77V120.219ZM148.951 119.68C148.973 119.665 148.961 119.676 148.922 119.69C148.887 119.702 148.771 119.736 148.617 119.699C148.436 119.656 148.304 119.541 148.23 119.419C148.169 119.317 148.16 119.234 148.158 119.219C148.156 119.192 148.162 119.225 148.134 119.356C148.109 119.473 148.065 119.628 148.001 119.822L149.375 120.28C149.449 120.057 149.51 119.847 149.55 119.66C149.588 119.486 149.62 119.276 149.6 119.075C149.583 118.908 149.482 118.417 148.955 118.291C148.746 118.24 148.564 118.281 148.45 118.32C148.332 118.361 148.229 118.42 148.147 118.475L148.951 119.68ZM148.002 119.818L146.75 123.503L148.122 123.969L149.374 120.284L148.002 119.818ZM146.749 123.507C146.697 123.662 146.427 123.999 145.84 124.316C145.29 124.613 144.59 124.82 143.89 124.82V126.269C144.858 126.269 145.793 125.988 146.529 125.59C147.229 125.212 147.897 124.645 148.123 123.965L146.749 123.507ZM143.89 124.82C142.443 124.82 140.671 124.887 137.875 123.889L137.388 125.253C140.433 126.34 142.417 126.269 143.89 126.269V124.82ZM137.901 123.898C137.578 123.769 137.228 123.757 136.925 123.858C136.662 123.945 136.212 124.22 136.212 124.779H137.661C137.661 124.943 137.589 125.066 137.522 125.137C137.461 125.202 137.404 125.225 137.383 125.232C137.34 125.246 137.338 125.233 137.363 125.243L137.901 123.898ZM136.212 124.779V133.889H137.661V124.779H136.212ZM136.212 133.889C136.212 134.23 136.271 134.729 136.724 135.063C137.097 135.338 137.596 135.378 138.049 135.378V133.929C137.846 133.929 137.714 133.917 137.631 133.901C137.547 133.885 137.55 133.872 137.583 133.896C137.63 133.931 137.658 133.979 137.668 134.007C137.672 134.017 137.661 133.991 137.661 133.889H136.212ZM138.049 135.378C139.492 135.378 142.388 135.093 145.786 134.677L145.61 133.239C142.194 133.657 139.388 133.929 138.049 133.929V135.378ZM145.817 134.673C145.858 134.666 145.777 134.695 145.68 134.59C145.628 134.534 145.6 134.465 145.594 134.405C145.588 134.351 145.603 134.335 145.588 134.368L146.92 134.939C147.105 134.507 147.099 133.99 146.741 133.604C146.418 133.256 145.955 133.181 145.579 133.244L145.817 134.673ZM145.582 134.383L143.844 138.694L145.188 139.235L146.926 134.924L145.582 134.383ZM143.806 138.823C143.804 138.831 143.803 138.831 143.806 138.824C143.81 138.817 143.817 138.81 143.825 138.804C143.833 138.797 143.839 138.795 143.84 138.795C143.841 138.794 143.835 138.797 143.82 138.797V140.245C144.487 140.245 145.084 139.818 145.226 139.107L143.806 138.823ZM143.82 138.797C143.092 138.797 141.962 138.619 140.736 138.423C139.563 138.236 138.294 138.032 137.423 138.032V139.48C138.151 139.48 139.282 139.658 140.508 139.854C141.681 140.041 142.949 140.245 143.82 140.245V138.797ZM137.423 138.032C137.174 138.032 136.854 138.094 136.591 138.331C136.314 138.58 136.212 138.92 136.212 139.243H137.661C137.661 139.227 137.663 139.244 137.649 139.281C137.634 139.32 137.605 139.367 137.56 139.407C137.471 139.488 137.394 139.48 137.423 139.48V138.032ZM136.212 139.243C136.212 141.457 136.143 144.151 136.005 146.146L137.45 146.246C137.591 144.208 137.661 141.479 137.661 139.243H136.212ZM136.005 146.154C135.974 146.673 135.876 147.539 135.966 148.228C136.012 148.582 136.117 148.997 136.385 149.335C136.683 149.711 137.117 149.911 137.632 149.911V148.462C137.564 148.462 137.537 148.45 137.534 148.449C137.533 148.448 137.53 148.448 137.521 148.436C137.49 148.398 137.435 148.287 137.403 148.041C137.336 147.531 137.412 146.902 137.451 146.239L136.005 146.154ZM137.632 149.911C140.93 149.911 145.898 149.56 149.151 149.353L149.059 147.907C145.776 148.117 140.87 148.462 137.632 148.462V149.911ZM149.105 149.354C149.181 149.354 149.217 149.363 149.223 149.365C149.23 149.367 149.163 149.349 149.096 149.265C149.061 149.222 149.036 149.172 149.021 149.12C149.007 149.07 149.007 149.031 149.009 149.012C149.012 148.98 149.017 149.008 148.959 149.113L150.225 149.816C150.438 149.433 150.619 148.85 150.227 148.36C149.901 147.952 149.383 147.906 149.105 147.906V149.354ZM148.961 149.108C148.044 150.731 147.325 152.166 146.68 154.103L148.054 154.561C148.66 152.743 149.332 151.397 150.222 149.821L148.961 149.108ZM146.68 154.103C146.664 154.15 146.65 154.17 146.647 154.175C146.645 154.177 146.65 154.171 146.661 154.164C146.685 154.148 146.682 154.164 146.602 154.164V155.612C146.869 155.612 147.179 155.559 147.464 155.369C147.756 155.175 147.945 154.888 148.054 154.561L146.68 154.103ZM153.722 122.624L153.258 123.18L153.266 123.187L153.722 122.624ZM154.07 121.65L154.278 122.344L154.292 122.34L154.305 122.335L154.07 121.65ZM159.98 118.73L159.621 118.101L159.606 118.109L159.591 118.119L159.98 118.73ZM161.162 119.217L161.71 118.743L161.708 118.74L161.162 119.217ZM170.063 120.121L169.881 119.419L169.868 119.423L169.855 119.427L170.063 120.121ZM173.887 118.591L174.161 119.262L174.205 119.243L174.247 119.22L173.887 118.591ZM175.069 119.078L174.524 119.554L174.527 119.557L175.069 119.078ZM167.699 155.068C167.465 155.068 167.1 154.99 166.602 154.797C166.117 154.609 165.553 154.33 164.938 153.975C163.709 153.266 162.322 152.281 161.018 151.194C159.712 150.106 158.511 148.934 157.643 147.857C157.209 147.319 156.871 146.819 156.644 146.377C156.412 145.926 156.324 145.589 156.324 145.362H154.875C154.875 145.917 155.074 146.492 155.356 147.04C155.642 147.596 156.043 148.18 156.515 148.766C157.46 149.939 158.736 151.178 160.09 152.307C161.446 153.436 162.901 154.472 164.214 155.23C164.871 155.609 165.503 155.924 166.078 156.148C166.642 156.366 167.202 156.516 167.699 156.516V155.068ZM156.324 145.362V127.144H154.875V145.362H156.324ZM156.324 127.144C156.324 126.091 156.216 125.155 155.883 124.306C155.544 123.443 154.991 122.719 154.178 122.061L153.266 123.187C153.913 123.71 154.299 124.238 154.534 124.836C154.774 125.447 154.875 126.179 154.875 127.144H156.324ZM154.186 122.067C154.139 122.029 154.147 122.02 154.163 122.056C154.183 122.101 154.203 122.19 154.173 122.293C154.144 122.388 154.093 122.425 154.1 122.419C154.11 122.412 154.16 122.38 154.278 122.344L153.862 120.957C153.444 121.082 152.945 121.343 152.785 121.877C152.61 122.46 152.956 122.928 153.258 123.18L154.186 122.067ZM154.305 122.335C156.594 121.549 158.036 120.826 160.369 119.341L159.591 118.119C157.335 119.554 155.996 120.222 153.834 120.965L154.305 122.335ZM160.34 119.359C160.414 119.316 160.421 119.326 160.384 119.33C160.329 119.336 160.275 119.322 160.247 119.308C160.237 119.303 160.261 119.313 160.335 119.385C160.407 119.455 160.493 119.552 160.617 119.694L161.708 118.74C161.588 118.603 161.466 118.465 161.347 118.349C161.229 118.234 161.08 118.105 160.895 118.012C160.694 117.912 160.466 117.863 160.22 117.891C159.991 117.917 159.79 118.004 159.621 118.101L160.34 119.359ZM160.615 119.69C161.697 120.942 162.258 121.852 162.564 122.738C162.87 123.627 162.941 124.552 162.941 125.892H164.39C164.39 124.52 164.322 123.394 163.933 122.266C163.543 121.135 162.853 120.064 161.71 118.743L160.615 119.69ZM162.941 125.892V143.484H164.39V125.892H162.941ZM162.941 143.484C162.941 143.883 163.101 144.276 163.284 144.61C163.476 144.959 163.739 145.325 164.039 145.689C164.64 146.418 165.442 147.202 166.269 147.917C167.097 148.634 167.971 149.301 168.727 149.792C169.104 150.038 169.465 150.248 169.784 150.399C170.072 150.536 170.427 150.675 170.758 150.675V149.227C170.776 149.227 170.675 149.218 170.405 149.09C170.165 148.976 169.863 148.803 169.517 148.578C168.826 148.129 168.005 147.504 167.217 146.822C166.427 146.138 165.69 145.414 165.157 144.767C164.89 144.444 164.687 144.155 164.554 143.913C164.413 143.656 164.39 143.52 164.39 143.484H162.941ZM170.758 150.675C171.232 150.675 171.657 150.461 171.94 150.077C172.209 149.715 172.317 149.251 172.317 148.769H170.868C170.868 149.052 170.803 149.179 170.776 149.216C170.764 149.232 170.76 149.231 170.767 149.228C170.774 149.224 170.774 149.227 170.758 149.227V150.675ZM172.317 148.769V125.405H170.868V148.769H172.317ZM172.317 125.405C172.317 123.473 171.544 121.759 170.366 120.582L169.342 121.606C170.251 122.515 170.868 123.861 170.868 125.405H172.317ZM170.366 120.582C170.286 120.501 170.251 120.452 170.241 120.434C170.23 120.414 170.275 120.481 170.262 120.605C170.255 120.669 170.234 120.73 170.204 120.781C170.175 120.829 170.146 120.856 170.133 120.865C170.122 120.875 170.123 120.871 170.148 120.86C170.172 120.848 170.211 120.832 170.271 120.814L169.855 119.427C169.48 119.539 168.889 119.804 168.821 120.453C168.791 120.743 168.888 120.987 168.985 121.156C169.084 121.327 169.214 121.479 169.342 121.606L170.366 120.582ZM170.245 120.822C171.223 120.568 171.751 120.363 172.28 120.117C172.798 119.876 173.243 119.636 174.161 119.262L173.614 117.92C172.655 118.311 172.126 118.591 171.67 118.803C171.226 119.009 170.78 119.186 169.881 119.419L170.245 120.822ZM174.247 119.22C174.321 119.177 174.329 119.187 174.291 119.191C174.236 119.197 174.182 119.183 174.154 119.169C174.144 119.164 174.168 119.174 174.242 119.246C174.314 119.316 174.4 119.413 174.524 119.554L175.615 118.601C175.495 118.464 175.373 118.326 175.254 118.21C175.136 118.095 174.987 117.966 174.802 117.873C174.601 117.773 174.373 117.724 174.127 117.752C173.898 117.778 173.697 117.865 173.528 117.962L174.247 119.22ZM174.527 119.557C176.021 121.246 176.848 123.304 176.848 125.405H178.297C178.297 122.917 177.317 120.524 175.612 118.598L174.527 119.557ZM176.848 125.405V145.292H178.297V125.405H176.848ZM176.848 145.292C176.848 146.252 176.451 147.347 175.746 148.488C175.047 149.621 174.079 150.742 173.025 151.736C171.972 152.73 170.852 153.58 169.865 154.177C169.37 154.475 168.92 154.704 168.536 154.856C168.14 155.012 167.862 155.068 167.699 155.068V156.516C168.126 156.516 168.601 156.388 169.068 156.203C169.547 156.014 170.071 155.744 170.613 155.417C171.698 154.762 172.899 153.847 174.02 152.79C175.139 151.733 176.196 150.516 176.979 149.25C177.756 147.992 178.297 146.628 178.297 145.292H176.848Z" fill="white" mask="url(#path-38-outside-1_71_5632)"/>
<mask id="path-40-outside-2_71_5632" maskUnits="userSpaceOnUse" x="366.938" y="103.819" width="88" height="53" fill="black">
<rect fill="white" x="366.938" y="103.819" width="88" height="53"/>
<path d="M381.975 155.792C379.054 155.792 368.137 148.491 368.137 145.362V116.366C368.137 113.167 378.637 105.17 381.21 105.17C384.13 105.17 395.047 112.472 395.047 115.601V144.597C395.047 147.796 384.547 155.792 381.975 155.792ZM385.451 149.325C385.938 149.325 386.286 148.908 386.286 148.143V118.591C386.286 116.852 378.985 111.846 377.802 111.846C377.246 111.846 376.899 112.263 376.899 113.028V142.58C376.899 144.319 384.2 149.325 385.451 149.325ZM416.639 118.521C419.281 118.521 427.208 123.945 427.208 129.577C427.208 135.21 422.967 139.66 417.404 141.607L412.467 143.345C411.98 143.484 411.841 143.763 411.841 144.458V153.567C411.841 154.332 411.841 155.027 410.868 154.958C409.129 154.819 406.487 154.749 404.748 154.888C403.775 154.958 403.775 154.332 403.775 153.567V127.144C403.775 124.988 403.358 123.667 401.898 122.485C401.48 122.137 401.55 121.72 402.245 121.511C404.47 120.746 405.861 120.051 408.156 118.591C408.642 118.313 408.851 118.521 409.338 119.078C410.311 120.19 410.798 121.372 411.215 121.372C411.772 121.372 413.649 118.521 416.639 118.521ZM412.536 138.13L414.762 137.365C417.543 136.392 419.003 134.167 419.003 130.759C419.003 127.144 414.066 124.223 412.675 124.223C412.05 124.223 411.841 124.64 411.841 125.683V137.435C411.841 137.991 412.119 138.269 412.536 138.13ZM442.757 155.792C439.836 155.792 430.657 148.978 430.657 145.849C430.657 145.362 430.727 145.153 431.283 144.945C433.995 143.971 434.273 143.693 436.707 142.511C437.263 142.233 437.472 142.719 437.75 143.137C438.723 144.527 441.922 149.464 445.886 149.464C446.442 149.464 447.068 149.047 447.068 148.282C447.068 141.12 443.66 142.094 438.723 140.216C434.76 138.686 431.492 136.739 431.492 128.882C431.492 125.683 440.81 118.382 443.382 118.382C446.303 118.382 450.266 124.779 453.813 128.326C454.16 128.673 453.674 129.021 453.187 129.23C450.962 130.203 449.849 130.481 448.25 130.829C446.79 131.177 445.747 130.134 444.704 128.952C441.853 125.753 441.088 124.64 439.906 124.64C439.349 124.64 438.723 125.127 438.723 125.892C438.723 132.15 440.949 133.332 446.164 134.932C450.127 136.183 454.091 138.617 454.091 145.292C454.091 148.491 445.329 155.792 442.757 155.792Z"/>
</mask>
<path d="M381.975 155.068C381.735 155.068 381.338 154.987 380.784 154.79C380.245 154.598 379.609 154.315 378.91 153.957C377.513 153.243 375.905 152.252 374.382 151.162C372.858 150.069 371.441 148.893 370.413 147.813C369.899 147.272 369.498 146.771 369.23 146.331C368.954 145.878 368.861 145.559 368.861 145.362H367.413C367.413 145.947 367.661 146.54 367.993 147.085C368.334 147.644 368.809 148.227 369.364 148.811C370.475 149.979 371.97 151.215 373.539 152.339C375.111 153.465 376.78 154.495 378.251 155.247C378.986 155.623 379.682 155.935 380.299 156.155C380.901 156.369 381.484 156.516 381.975 156.516V155.068ZM368.861 145.362V116.366H367.413V145.362H368.861ZM368.861 116.366C368.861 116.146 368.958 115.8 369.226 115.319C369.487 114.85 369.875 114.316 370.369 113.737C371.356 112.582 372.713 111.313 374.166 110.13C375.617 108.949 377.141 107.871 378.452 107.093C379.107 106.703 379.698 106.396 380.191 106.188C380.705 105.971 381.039 105.895 381.21 105.895V104.446C380.737 104.446 380.181 104.62 379.628 104.853C379.054 105.095 378.402 105.437 377.712 105.847C376.33 106.668 374.747 107.789 373.251 109.007C371.757 110.223 370.329 111.553 369.267 112.797C368.737 113.418 368.284 114.033 367.96 114.614C367.644 115.182 367.413 115.785 367.413 116.366H368.861ZM381.21 105.895C381.449 105.895 381.846 105.975 382.4 106.173C382.939 106.365 383.575 106.648 384.274 107.005C385.671 107.72 387.279 108.71 388.802 109.801C390.327 110.893 391.744 112.07 392.771 113.15C393.285 113.691 393.686 114.191 393.954 114.631C394.23 115.084 394.323 115.404 394.323 115.601H395.772C395.772 115.015 395.523 114.422 395.191 113.877C394.851 113.319 394.376 112.736 393.821 112.152C392.71 110.983 391.215 109.747 389.645 108.623C388.074 107.498 386.405 106.467 384.934 105.715C384.199 105.339 383.502 105.027 382.886 104.808C382.284 104.594 381.7 104.446 381.21 104.446V105.895ZM394.323 115.601V144.597H395.772V115.601H394.323ZM394.323 144.597C394.323 144.816 394.226 145.163 393.958 145.644C393.697 146.112 393.31 146.647 392.816 147.225C391.829 148.381 390.471 149.65 389.018 150.832C387.568 152.014 386.043 153.092 384.733 153.87C384.077 154.259 383.486 154.567 382.994 154.775C382.48 154.992 382.145 155.068 381.975 155.068V156.516C382.447 156.516 383.004 156.343 383.556 156.11C384.13 155.868 384.782 155.525 385.473 155.115C386.855 154.294 388.437 153.173 389.933 151.956C391.427 150.739 392.855 149.409 393.917 148.166C394.448 147.545 394.9 146.93 395.224 146.349C395.54 145.781 395.772 145.177 395.772 144.597H394.323ZM385.451 150.05C385.925 150.05 386.35 149.836 386.634 149.452C386.902 149.089 387.01 148.625 387.01 148.143H385.561C385.561 148.426 385.496 148.554 385.469 148.591C385.457 148.606 385.453 148.605 385.46 148.602C385.468 148.598 385.468 148.601 385.451 148.601V150.05ZM387.01 148.143V118.591H385.561V148.143H387.01ZM387.01 118.591C387.01 118.152 386.794 117.733 386.573 117.4C386.335 117.044 386.011 116.669 385.643 116.295C384.904 115.545 383.922 114.732 382.92 113.985C381.915 113.237 380.869 112.542 379.992 112.03C379.554 111.774 379.148 111.558 378.803 111.403C378.631 111.326 378.464 111.26 378.309 111.211C378.165 111.166 377.985 111.122 377.802 111.122V112.57C377.767 112.57 377.783 112.565 377.876 112.594C377.958 112.619 378.069 112.662 378.21 112.725C378.491 112.851 378.849 113.04 379.262 113.281C380.086 113.762 381.087 114.427 382.055 115.147C383.025 115.87 383.943 116.634 384.61 117.312C384.945 117.652 385.2 117.953 385.367 118.203C385.549 118.477 385.561 118.595 385.561 118.591H387.01ZM377.802 111.122C377.325 111.122 376.879 111.31 376.571 111.704C376.282 112.073 376.174 112.547 376.174 113.028H377.623C377.623 112.744 377.689 112.626 377.712 112.596C377.722 112.584 377.727 112.582 377.73 112.581C377.734 112.579 377.755 112.57 377.802 112.57V111.122ZM376.174 113.028V142.58H377.623V113.028H376.174ZM376.174 142.58C376.174 143.02 376.39 143.438 376.612 143.771C376.849 144.127 377.174 144.502 377.543 144.876C378.283 145.627 379.267 146.44 380.274 147.187C381.284 147.935 382.337 148.631 383.225 149.143C383.668 149.399 384.081 149.615 384.433 149.77C384.749 149.909 385.126 150.05 385.451 150.05V148.601C385.464 148.601 385.339 148.586 385.016 148.444C384.729 148.318 384.366 148.129 383.949 147.889C383.116 147.408 382.109 146.744 381.137 146.023C380.162 145.3 379.243 144.536 378.575 143.859C378.239 143.519 377.984 143.218 377.817 142.968C377.635 142.694 377.623 142.576 377.623 142.58H376.174ZM417.404 141.607L417.165 140.923L417.163 140.924L417.404 141.607ZM412.467 143.345L412.666 144.042L412.687 144.036L412.707 144.029L412.467 143.345ZM410.868 154.958L410.81 155.68L410.816 155.68L410.868 154.958ZM404.748 154.888L404.8 155.611L404.806 155.61L404.748 154.888ZM401.898 122.485L401.434 123.041L401.442 123.048L401.898 122.485ZM402.245 121.511L402.453 122.205L402.467 122.201L402.481 122.196L402.245 121.511ZM408.156 118.591L407.796 117.962L407.781 117.97L407.767 117.98L408.156 118.591ZM409.338 119.078L408.793 119.554H408.793L409.338 119.078ZM412.536 138.13L412.765 138.817L412.772 138.815L412.536 138.13ZM414.762 137.365L414.997 138.05L415.001 138.049L414.762 137.365ZM416.639 119.246C417.113 119.246 417.971 119.511 419.063 120.095C420.126 120.664 421.317 121.484 422.433 122.478C424.699 124.497 426.484 127.078 426.484 129.577H427.933C427.933 126.444 425.754 123.497 423.396 121.396C422.2 120.33 420.914 119.443 419.747 118.818C418.61 118.21 417.487 117.797 416.639 117.797V119.246ZM426.484 129.577C426.484 134.803 422.542 139.041 417.165 140.923L417.643 142.291C423.391 140.279 427.933 135.616 427.933 129.577H426.484ZM417.163 140.924L412.226 142.662L412.707 144.029L417.644 142.29L417.163 140.924ZM412.268 142.649C411.911 142.751 411.556 142.944 411.337 143.344C411.147 143.689 411.117 144.092 411.117 144.458H412.565C412.565 144.305 412.573 144.2 412.585 144.127C412.597 144.056 412.609 144.036 412.606 144.042C412.599 144.054 412.586 144.069 412.576 144.075C412.573 144.077 412.594 144.062 412.666 144.042L412.268 142.649ZM411.117 144.458V153.567H412.565V144.458H411.117ZM411.117 153.567C411.117 153.766 411.116 153.919 411.104 154.053C411.092 154.188 411.072 154.249 411.063 154.269C411.062 154.272 411.079 154.243 411.111 154.227C411.126 154.22 411.084 154.247 410.919 154.235L410.816 155.68C411.138 155.703 411.461 155.67 411.75 155.527C412.055 155.377 412.255 155.14 412.376 154.882C412.488 154.641 412.529 154.389 412.547 154.181C412.566 153.971 412.565 153.751 412.565 153.567H411.117ZM410.925 154.236C409.165 154.095 406.481 154.023 404.691 154.166L404.806 155.61C406.492 155.475 409.093 155.542 410.81 155.68L410.925 154.236ZM404.697 154.166C404.522 154.178 404.47 154.152 404.48 154.157C404.509 154.17 404.537 154.201 404.545 154.217C404.545 154.217 404.539 154.205 404.531 154.174C404.524 154.142 404.517 154.099 404.511 154.039C404.5 153.914 404.499 153.767 404.499 153.567H403.051C403.051 153.75 403.05 153.968 403.069 154.172C403.088 154.376 403.13 154.626 403.249 154.864C403.378 155.123 403.588 155.346 403.891 155.48C404.175 155.606 404.488 155.633 404.8 155.611L404.697 154.166ZM404.499 153.567V127.144H403.051V153.567H404.499ZM404.499 127.144C404.499 126.027 404.393 125.056 404.06 124.19C403.721 123.307 403.167 122.581 402.353 121.922L401.442 123.048C402.088 123.571 402.473 124.096 402.708 124.709C402.949 125.337 403.051 126.105 403.051 127.144H404.499ZM402.361 121.928C402.315 121.889 402.322 121.881 402.338 121.917C402.358 121.962 402.379 122.051 402.348 122.154C402.319 122.249 402.268 122.286 402.276 122.28C402.285 122.273 402.335 122.241 402.453 122.205L402.037 120.817C401.62 120.943 401.12 121.204 400.96 121.738C400.785 122.321 401.132 122.789 401.434 123.041L402.361 121.928ZM402.481 122.196C404.769 121.41 406.211 120.687 408.545 119.202L407.767 117.98C405.511 119.415 404.171 120.083 402.01 120.826L402.481 122.196ZM408.515 119.22C408.589 119.177 408.597 119.187 408.559 119.191C408.504 119.197 408.451 119.183 408.423 119.169C408.412 119.164 408.436 119.174 408.51 119.246C408.582 119.316 408.669 119.413 408.793 119.554L409.883 118.601C409.764 118.464 409.641 118.326 409.522 118.21C409.405 118.095 409.255 117.966 409.071 117.873C408.869 117.773 408.642 117.724 408.396 117.752C408.166 117.778 407.965 117.865 407.796 117.962L408.515 119.22ZM408.793 119.554C409.242 120.069 409.576 120.593 409.886 121.049C410.032 121.263 410.19 121.49 410.353 121.664C410.485 121.805 410.781 122.096 411.215 122.096V120.648C411.441 120.648 411.52 120.791 411.413 120.676C411.336 120.594 411.234 120.455 411.084 120.235C410.803 119.822 410.407 119.199 409.883 118.601L408.793 119.554ZM411.215 122.096C411.397 122.096 411.546 122.041 411.64 121.997C411.739 121.951 411.829 121.894 411.903 121.841C412.05 121.738 412.208 121.602 412.358 121.468C412.676 121.186 413.028 120.855 413.46 120.518C414.322 119.845 415.381 119.246 416.639 119.246V117.797C414.907 117.797 413.532 118.623 412.569 119.376C412.088 119.751 411.68 120.133 411.396 120.385C411.245 120.519 411.141 120.606 411.068 120.658C411.032 120.683 411.021 120.687 411.03 120.683C411.034 120.681 411.103 120.648 411.215 120.648V122.096ZM412.772 138.815L414.997 138.05L414.526 136.68L412.301 137.445L412.772 138.815ZM415.001 138.049C416.523 137.516 417.723 136.624 418.534 135.368C419.34 134.119 419.728 132.565 419.728 130.759H418.279C418.279 132.362 417.936 133.624 417.317 134.582C416.702 135.534 415.781 136.241 414.522 136.682L415.001 138.049ZM419.728 130.759C419.728 128.628 418.29 126.809 416.827 125.581C416.079 124.953 415.284 124.444 414.576 124.089C413.901 123.75 413.203 123.499 412.675 123.499V124.947C412.844 124.947 413.284 125.061 413.926 125.383C414.534 125.689 415.235 126.136 415.895 126.69C417.248 127.826 418.279 129.275 418.279 130.759H419.728ZM412.675 123.499C412.442 123.499 412.189 123.537 411.949 123.661C411.701 123.789 411.517 123.982 411.39 124.21C411.162 124.621 411.117 125.153 411.117 125.683H412.565C412.565 125.443 412.578 125.263 412.599 125.128C412.621 124.991 412.647 124.931 412.657 124.914C412.66 124.907 412.646 124.931 412.613 124.949C412.589 124.961 412.596 124.947 412.675 124.947V123.499ZM411.117 125.683V137.435H412.565V125.683H411.117ZM411.117 137.435C411.117 137.809 411.207 138.242 411.52 138.555C411.877 138.913 412.358 138.953 412.765 138.817L412.307 137.443C412.293 137.448 412.322 137.435 412.38 137.445C412.443 137.457 412.503 137.489 412.544 137.531C412.582 137.568 412.586 137.594 412.581 137.577C412.576 137.561 412.565 137.516 412.565 137.435H411.117ZM431.283 144.945L431.038 144.263L431.029 144.266L431.283 144.945ZM436.707 142.511L437.023 143.162L437.031 143.159L436.707 142.511ZM437.75 143.137L437.147 143.538L437.152 143.545L437.157 143.552L437.75 143.137ZM438.723 140.216L438.463 140.892L438.466 140.893L438.723 140.216ZM453.187 129.23L452.901 128.564L452.896 128.566L453.187 129.23ZM448.25 130.829L448.096 130.121L448.089 130.123L448.082 130.124L448.25 130.829ZM444.704 128.952L445.247 128.472L445.244 128.47L444.704 128.952ZM446.164 134.932L446.382 134.241L446.376 134.239L446.164 134.932ZM442.757 155.068C442.514 155.068 442.143 154.993 441.645 154.812C441.158 154.635 440.593 154.374 439.979 154.041C438.75 153.376 437.363 152.451 436.06 151.425C434.755 150.397 433.556 149.286 432.692 148.256C432.259 147.742 431.923 147.262 431.698 146.836C431.468 146.401 431.382 146.074 431.382 145.849H429.933C429.933 146.406 430.133 146.975 430.417 147.513C430.705 148.058 431.109 148.624 431.583 149.188C432.53 150.316 433.809 151.496 435.164 152.563C436.52 153.631 437.976 154.605 439.289 155.316C439.946 155.671 440.577 155.966 441.151 156.174C441.714 156.378 442.269 156.516 442.757 156.516V155.068ZM431.382 145.849C431.382 145.738 431.386 145.681 431.391 145.65C431.395 145.626 431.396 145.645 431.376 145.676C431.355 145.709 431.337 145.718 431.353 145.708C431.374 145.694 431.427 145.664 431.538 145.623L431.029 144.266C430.708 144.387 430.364 144.562 430.147 144.908C429.94 145.24 429.933 145.607 429.933 145.849H431.382ZM431.528 145.626C434.288 144.635 434.623 144.328 437.023 143.162L436.39 141.859C433.924 143.057 433.702 143.307 431.038 144.263L431.528 145.626ZM437.031 143.159C437.079 143.135 437.05 143.161 436.974 143.151C436.894 143.141 436.851 143.104 436.852 143.104C436.861 143.112 436.89 143.143 436.947 143.229C436.974 143.269 437.002 143.313 437.036 143.366C437.069 143.417 437.107 143.478 437.147 143.538L438.353 142.735C438.323 142.691 438.294 142.645 438.26 142.591C438.227 142.539 438.189 142.479 438.149 142.419C438.071 142.305 437.961 142.153 437.814 142.022C437.658 141.883 437.441 141.75 437.157 141.714C436.876 141.678 436.613 141.748 436.383 141.863L437.031 143.159ZM437.157 143.552C437.631 144.23 438.714 145.872 440.186 147.336C441.641 148.782 443.609 150.189 445.886 150.189V148.74C444.199 148.74 442.586 147.679 441.207 146.308C439.846 144.955 438.842 143.434 438.343 142.721L437.157 143.552ZM445.886 150.189C446.756 150.189 447.792 149.528 447.792 148.282H446.343C446.343 148.45 446.282 148.55 446.205 148.618C446.116 148.697 445.992 148.74 445.886 148.74V150.189ZM447.792 148.282C447.792 146.444 447.575 145.054 447.126 143.984C446.667 142.889 445.979 142.165 445.121 141.647C444.293 141.147 443.315 140.847 442.306 140.564C441.274 140.274 440.177 139.994 438.981 139.539L438.466 140.893C439.739 141.377 440.919 141.679 441.914 141.959C442.933 142.245 443.732 142.501 444.373 142.888C444.984 143.256 445.457 143.749 445.79 144.545C446.134 145.365 446.343 146.539 446.343 148.282H447.792ZM438.984 139.54C437.022 138.783 435.374 137.971 434.19 136.473C433.013 134.985 432.216 132.715 432.216 128.882H430.767C430.767 132.906 431.604 135.539 433.053 137.371C434.494 139.193 436.461 140.119 438.463 140.892L438.984 139.54ZM432.216 128.882C432.216 128.645 432.307 128.301 432.541 127.843C432.772 127.395 433.114 126.89 433.552 126.346C434.427 125.26 435.635 124.081 436.938 122.987C438.239 121.895 439.613 120.907 440.809 120.196C441.408 119.84 441.95 119.56 442.408 119.372C442.883 119.177 443.204 119.106 443.382 119.106V117.658C442.917 117.658 442.385 117.815 441.857 118.032C441.313 118.256 440.706 118.572 440.069 118.95C438.794 119.708 437.357 120.745 436.007 121.878C434.658 123.01 433.376 124.255 432.424 125.438C431.948 126.028 431.542 126.618 431.253 127.181C430.968 127.736 430.767 128.319 430.767 128.882H432.216ZM443.382 119.106C443.864 119.106 444.497 119.38 445.299 120.008C446.083 120.621 446.928 121.49 447.819 122.503C448.71 123.514 449.617 124.631 450.541 125.74C451.458 126.839 452.389 127.926 453.3 128.838L454.325 127.814C453.463 126.952 452.569 125.909 451.654 124.812C450.747 123.724 449.815 122.576 448.906 121.545C447.999 120.515 447.083 119.564 446.192 118.867C445.318 118.184 444.361 117.658 443.382 117.658V119.106ZM453.3 128.838C453.293 128.831 453.266 128.802 453.243 128.748C453.217 128.69 453.203 128.621 453.207 128.547C453.214 128.406 453.281 128.338 453.271 128.349C453.265 128.356 453.232 128.387 453.157 128.434C453.086 128.478 452.998 128.522 452.901 128.564L453.472 129.895C453.74 129.78 454.106 129.59 454.354 129.311C454.483 129.166 454.637 128.932 454.653 128.621C454.671 128.284 454.519 128.008 454.325 127.814L453.3 128.838ZM452.896 128.566C450.726 129.516 449.661 129.781 448.096 130.121L448.404 131.537C450.037 131.182 451.198 130.89 453.477 129.893L452.896 128.566ZM448.082 130.124C447.583 130.243 447.156 130.137 446.709 129.853C446.232 129.549 445.772 129.067 445.247 128.472L444.16 129.431C444.678 130.018 445.261 130.648 445.931 131.075C446.632 131.521 447.457 131.762 448.418 131.534L448.082 130.124ZM445.244 128.47C443.845 126.9 442.904 125.779 442.184 125.078C441.45 124.362 440.787 123.916 439.906 123.916V125.365C440.206 125.365 440.517 125.475 441.173 126.115C441.844 126.769 442.711 127.805 444.163 129.433L445.244 128.47ZM439.906 123.916C438.976 123.916 437.999 124.701 437.999 125.892H439.448C439.448 125.719 439.515 125.591 439.608 125.501C439.711 125.403 439.83 125.365 439.906 125.365V123.916ZM437.999 125.892C437.999 129.089 438.564 131.178 439.962 132.656C441.321 134.094 443.37 134.832 445.951 135.624L446.376 134.239C443.742 133.431 442.071 132.779 441.014 131.661C439.996 130.584 439.448 128.953 439.448 125.892H437.999ZM445.946 135.622C447.875 136.232 449.72 137.104 451.083 138.571C452.428 140.019 453.366 142.112 453.366 145.292H454.815C454.815 141.797 453.771 139.336 452.144 137.585C450.535 135.853 448.416 134.883 446.382 134.241L445.946 135.622ZM453.366 145.292C453.366 145.539 453.278 145.889 453.057 146.346C452.84 146.795 452.517 147.301 452.105 147.844C451.28 148.93 450.141 150.108 448.908 151.199C447.677 152.29 446.373 153.277 445.231 153.986C444.659 154.341 444.14 154.618 443.7 154.805C443.243 154.999 442.932 155.068 442.757 155.068V156.516C443.224 156.516 443.749 156.357 444.265 156.139C444.796 155.914 445.383 155.596 445.995 155.217C447.219 154.457 448.588 153.418 449.869 152.284C451.148 151.151 452.36 149.903 453.258 148.72C453.708 148.129 454.089 147.54 454.361 146.977C454.629 146.423 454.815 145.846 454.815 145.292H453.366Z" fill="white" mask="url(#path-40-outside-2_71_5632)"/>
<defs>
<linearGradient id="paint0_linear_71_5632" x1="400.141" y1="83.0769" x2="333.874" y2="82.2662" gradientUnits="userSpaceOnUse">
<stop stop-color="#5C49EA" stop-opacity="0"/>
<stop offset="1" stop-color="#C78FF7" stop-opacity="0.95"/>
</linearGradient>
<linearGradient id="paint1_linear_71_5632" x1="530.37" y1="39.496" x2="414.713" y2="39.496" gradientUnits="userSpaceOnUse">
<stop stop-color="#5C49EA" stop-opacity="0"/>
<stop offset="1" stop-color="#C78FF7" stop-opacity="0.95"/>
</linearGradient>
<linearGradient id="paint2_linear_71_5632" x1="390.393" y1="223.469" x2="293.767" y2="224.425" gradientUnits="userSpaceOnUse">
<stop stop-color="#5C49EA" stop-opacity="0"/>
<stop offset="1" stop-color="#C78FF7" stop-opacity="0.95"/>
</linearGradient>
<linearGradient id="paint3_linear_71_5632" x1="265.81" y1="47.7172" x2="178.144" y2="48.4292" gradientUnits="userSpaceOnUse">
<stop stop-color="#CD93F8"/>
<stop offset="1" stop-color="#5C49EA" stop-opacity="0"/>
</linearGradient>
<linearGradient id="paint4_linear_71_5632" x1="68.8734" y1="161.873" x2="1.1429" y2="161.873" gradientUnits="userSpaceOnUse">
<stop stop-color="#5C49EA" stop-opacity="0"/>
<stop offset="1" stop-color="#CD93F8"/>
</linearGradient>
<linearGradient id="paint5_linear_71_5632" x1="207.795" y1="182.154" x2="113.547" y2="182.154" gradientUnits="userSpaceOnUse">
<stop stop-color="#5C49EA" stop-opacity="0"/>
<stop offset="1" stop-color="#C78FF7" stop-opacity="0.95"/>
</linearGradient>
<clipPath id="clip0_71_5632">
<rect width="531.655" height="248.443" fill="white" transform="translate(538.776 255.311) rotate(-180)"/>
</clipPath>
</defs>
</svg>
