<svg id="Слой_1" data-name="Слой 1" xmlns="http://www.w3.org/2000/svg" viewBox="0 0 1313.99 736.06"><defs><style>.cls-1,.cls-2{fill:#2d2b56;}.cls-1{fill-rule:evenodd;}</style></defs><path class="cls-1" d="M571.52,3573.68a55.21,55.21,0,0,1,6,7.66h2.29c-.12-1.89-.49-6.76-1.49-12.93a76.68,76.68,0,0,0-3.09-11.27c-1.49-4.52-3-9-3.27-13.08-.55-7.48,7-27.56,7-27.56s6.07,26.71,6.83,32.81c.7,5.48-4.55,27.48-5.66,32,19.16,0,37.88.67,55.55,2.41,9-3.33,35.53-4.93,69-5.68,27.81-.62,60.44-.66,91.93-.63l13.79,0h0c25.35,0,49.35.06,68.75-.19s34.19-.77,41.12-1.86a50.58,50.58,0,0,1,7.76-.63c20.72,0,28.8,15,35.08,26.62,3.2,5.93,5.94,11,9.65,12.8,8.93,4.34,27.16,7,47.52,7.95,7.87.36,16.06.45,24.16.26,4.14-.1,8.26-.26,12.3-.5,26-1.56,40.17-11.42,48.71-17.34,2.93-2,5.19-3.6,7-4.21a45.87,45.87,0,0,0-13.09-7.76c-9.29-3.24-31.39-11.43-31.39-11.43s17.89-6.83,25.16-5.63c4.83.79,10.26,6.91,14.74,13.33-6.62-11.43-12.9-23.06-13-26-.07-3.39,2.25-12.14,4.44-20.39h0c1.85-7,3.61-13.65,3.73-16.34.35-7.8,3-4.45,5.76-.83a28.79,28.79,0,0,0,3,3.48,33.93,33.93,0,0,0,4.11,3c3.31,2.15,6.49,4.23,5.68,7.11-.3,1.08-.83,3.81-1.5,7.26v0h0c-1.94,9.92-5,25.77-7.08,25.34-7.16-1.53-8.26-31.57-7.18-32.09s7.32,9.48,6.3,10.19a8.61,8.61,0,0,0-1.11,1.07c-1.11,1.18-2.47,2.62-2.73,1a2.06,2.06,0,0,1,1.11-2.5,2,2,0,0,0,.48-.37c.45-.53-2.82-7.48-2.88-5.68s-.29,23.67,5.33,24.33c3.27.39,7.83-25.86,6-28.37s-3.76-4.57-8.38-8.94c-3.62-3.42-4.68.3-5.43,2.95a9.79,9.79,0,0,1-.62,1.81c-1,1.8-6.74,22.65-4.64,28.34s16.68,32,16.68,32l4.92,13.2c4.61,4.09,16.45,12.64,27.89,20.9h0c9.49,6.85,18.7,13.5,23.27,17.24,34.74,13,23.27,95.28,6,193.27-1.36,7.68-4.26,16.13-6.86,23.69-1,3-2,5.87-2.84,8.5,1.39.28,2.86.54,4.37.79a73.68,73.68,0,0,0,10.47.8c16.84.52,36.46,1.13,45.65,47.59a60,60,0,0,1,.81,10.9c0,1.11,0,2.25,0,3.41-.19,8.57-1.07,18.38-1.78,26.19h0c-.37,4.21-.7,7.84-.84,10.37h0v0c-2.22,40.87-19.14,66.66-20.3,68.31,3.17,11.05,5.67,20.48,7,27.43a38.35,38.35,0,0,1,.65,8.94,25,25,0,0,1-1.14,6.45c-2.44,8.62-8.8,15.16-17.67,20.44-1.59,14.34-12.63,79-35.9,88.21-12.55,5-71-15.08-109.12-30.34-7.55,7.43-13.73,13.21-16.89,16.13-4.53,4.67-12.72,7.17-24.69,7.67,8.29,2.16,21.2,5.7,27.41,8.42,9.57,4.18,17.82,18.35,17.82,18.35s-14.67,2-21.74-1.05c-5.84-2.49-23.21-19.68-29.11-25.62-40.49-.26-117.26-19.33-233.76-52-19.05-5.34-36.62-10.26-50.05-13.79l-2,.88c-36.69,16.38-67.72,31.61-92.91,44h0c-35.46,17.41-59.35,29.14-71.17,30.37l-.08.06v0h0a33.77,33.77,0,0,0-5.21,6.61,13.77,13.77,0,0,1-9,7.07c-11.38,2.93-41.56-4.86-77.14-18-33.47,5.69-126.69,19.41-153.35-11.16-23.36-26.82-55.71-54.1-75.5-69.24-49,4.71-106.38,18.44-134.42,38.79-7.8,5.67-15.76,8.16-23.38,7.47-.59,4.75-3.52,29.22-2.6,39.53,1,11.45,3.6,26.4,3.6,26.4s-18.91-.83-14.27-22.19c4.13-19,11.49-39.48,13.07-43.76-.5-.05-1-.12-1.5-.19h0s-10.89,14.27-19.38,17.5S32.43,4177,32.43,4177s4-7.44,7.5-13.83c2.55-4.71,16.36-8.63,24.83-9.78a35,35,0,0,1-6-3.88c-21.76-17.41-33.08-65.2-33.48-100.88a268.59,268.59,0,0,1-16.59-35.32c-2-5.1-3.58-13.39-4.76-24l0,0,0-.56c-.57-5.18-1-10.91-1.42-17.09l-.05-.58,0,.07c-2.24-37-1.27-89.89,2.44-138.71l-.17-2.15,1.84-19,0,.9c1.32-14,2.87-27.32,4.64-39.56,1.14-8.19,2.44-16,3.9-23.47.32-1.64.65-3.25,1-4.82-3.69-2.85-7.36-5.64-10.94-8.35-25.33-19.17-41.27-31.59-48.35-42.37-2.29,3.75-14.11,22.71-21.53,25.14-8.23,2.7-19.74-13.59-19.74-13.59a99.82,99.82,0,0,0,13.14,1.27c3.19,0,6.73-3.83,10.17-7.6,3.21-3.51,6.33-6.93,9-7a27.56,27.56,0,0,1,8.33.86,28.39,28.39,0,0,1-1.59-2.94c-1.53-1.24-3.58-2.81-6-4.44a38,38,0,0,0-8.34-3.77h0c-3.48-1.26-6.92-2.5-9.5-4.73-4.75-4.09-12.72-24.84-12.72-24.84s19.09,10.3,23.12,13.34c2.35,1.77,7.55,10.69,11.48,17.81a18.44,18.44,0,0,1,.19-5.49c1.27-7,6-11.77,14.13-14a25.47,25.47,0,0,1,2.92-.72c52-10,88-26.13,105.16-46.82a54.32,54.32,0,0,0,5.94-8.67c8-14.69,15.46-26.53,22.47-35.76,13.44-17.75,25.42-25.93,37.68-26.36,7.77-.27,25.43,6,61.44,19.08l12.53,4.55c-7.49-6.69-36-31.62-62.22-49.07-21.49-14.33-78.68,65.29-88.3,78.68h0l-1.2,1.66c-22.7,30.83-38.35,16.21-49.78,5.54h0v0c-3.35-3.13-6.51-6.09-9.65-8-9.47-5.62-15.5-15.9-16.54-28.25-.92-10.86,1.58-27.95,18.66-47.61,18.23-21,38.2-30.91,49.69-24.74,3.8,2,6.53,5.74,7.9,10.64a27.37,27.37,0,0,1,.81,4.16c1.12,9.68-1.72,15.72-5,22.64h0c-1.06,2.28-2.18,4.65-3.21,7.28a27.56,27.56,0,0,1-1.28,2.69c-4.37,8.78-16.26,28.06-21.45,30a11.72,11.72,0,0,0-2.36,1.53h0c-5,3.78-12.85,9.63-8.45-35.24,1.33,1.11,2.47,3.27,3.55,5.81.71,1.69,1.39,3.55,2.06,5.4h0c.66,1.8,1.31,3.6,2,5.2,1.4,3.32,2.9,5.83,4.75,6,12.34-11.16,16.1-46.23,14.75-46.93l-.93-.52h0c-5.74-3.2-19.43-10.85-36.8,9.14-9.93,11.43-14,32.86-13.18,42,.71,8.58,16,32,19.66,35.44C30,3613,43.77,3609.72,59.79,3588c.28-.37.94-1.33,1.93-2.79h0c12.52-18.36,78.44-115,106.3-96.44,26.74,17.84,70.39,73,83.4,89.47,2.15,2.71,3.46,4.37,3.73,4.64v0c30.67,10.3,60.74,19,78.44,19.37,10.85.25,34.19-2.6,63.77-6.22l.06,0h.1c43.08-5.27,98.66-12.06,153.2-14.09a13.48,13.48,0,0,1-3.1-1.6c-8.09-5.81-9.27-27.61-9.27-27.61s5.1,7.29,10.09,13.07c2.59,3,7.44,3.66,12.17,4.29C565,3570.68,569.26,3571.26,571.52,3573.68ZM22.11,3721.58q-3.12-2.19-6.07-4.43A120.44,120.44,0,0,0,1.52,3708h0c-7.81-4.36-14.21-7.93-17.39-15a3.36,3.36,0,0,1,.34-3.06c3-4.82,16-11,31.74-18.49,24.43-11.61,55.28-26.28,64.76-43.56,18.56-33.85,49.07-50.28,59.8-50.67,3.79,0,21.69,6.78,40.08,13.73,7.54,2.85,15.15,5.73,21.91,8.19a451.39,451.39,0,0,0,71.82,19.07l0,0h-.08c2.42,1.21,68.86,33.42,104,37.5,19.94,2.31,38.85-1.8,51.3-17,22.91-28,51.15-13.88,66.14-6.38l.64.32-1.6-.48s28,18.91,32.29,22.53,6.09,24.92,5.72,27.05a9.78,9.78,0,0,0,0,1.94h0c.19,2.72.46,6.5-4.53,5.76-6.44-1-9.16-1.6-12-2.63s-7.89-26.22-4.36-27.85c6.09-2.82,14,16,14.6,17.62s-5.36-2.4-5.09-3.13a2.83,2.83,0,0,1,.37-.61,2.11,2.11,0,0,0,.22-2.82c-.87-1.18-1.74.87-2.46,2.55a11.44,11.44,0,0,1-.75,1.58c-.8,1.22,9.4,6,10.32,4.94S518,3652.93,510,3655.92c-2.31.87.39,16.3,2.08,25.95h0c.59,3.36,1.06,6,1.15,7.12.22,3,4.3,2.84,8.54,2.7a34.91,34.91,0,0,1,5.35.07,25,25,0,0,1,4.41,1.19c4.26,1.41,8.2,2.71,5.65-4.18-.87-2.38-1.52-9.12-2.2-16.24h0c-.8-8.37-1.65-17.24-3-20.12v0c1.81,2.94,8.61,13.75,13.56,18.35,5.76,5.35,16.49,3.35,16.49,3.35s-7.27-13.07-9.83-15.75c-2.14-2.26-3.5-2.09-6.59-1.72-.59.07-1.25.15-2,.22-4.39.42-11.51-4.75-12.08-5.18l0,0h0a11.78,11.78,0,0,0-1.66-1.7c1,.43,7.27,3.1,11.69,1.26,4.81-2,16.23-9.67,16.23-9.67s-15.9-1.73-19.44-.22-8.32,8.17-8.59,8.54c-5.11-4.38-17-10.54-23-13.54,20.92,2.57,58-17.1,73.87-25.55,3.82-2,6.43-3.42,7.3-3.69l.14,0v0h0l0,0H588l-32.06-3.27c55.56,3.51,101.51,17,136.82,34.91l0,.06,4.8,2.51,0,0,0,0a231.28,231.28,0,0,1,30.39,19.24c-1.15,0-2.46,0-4,.08a48.9,48.9,0,0,0-18.46,4.76s9.18,3.67,13,6.27c2.67,1.81,9.92-4.05,14.08-7.79q1.92,1.23,4,2.39c-5.16,3.42-18.74,13-22.66,21.3-4.86,10.3-11.11,30.11-11.11,30.11s13.34-15.41,18.59-17.6c4.83-2,6.48-6.16,7.76-9.39l.34-.84c1.09-2.69,6.41-17.45,8.35-22.88,21,11.32,50.75,16,85.17,16.86h.71c9.07.23,18.46.2,28.09,0,11.49-.14,23.52-.48,30-1.26h-.07c27.87-1.61,57-4.35,85.78-7.06,35.73-3.36,70.89-6.66,102.35-7.69,35.07-1.16,53.58,8.64,64.87,14.62a51.52,51.52,0,0,0,8.61,4c2.72.8,5.12,3.09,7.2,6.57-.2.35-2.58,10.16-6,24.49v0c-4.39,18.12-10.52,43.45-16.22,66-5.77,22.81-6.45,39.93-4,53.17,2.37,17.65,8.69,30.73,16,38.65a42.63,42.63,0,0,0,11.15,8q-.23,2.86-.37,5.79c0-2.2-.09-3.43-.29-2.39a14.81,14.81,0,0,0,.26,2.95c-1.71,35.46,4.57,78.71,17.62,122.68,3.73,12.62,3.62,24.92,3.52,34.73-.05,5.55-.1,10.31.57,13.88,2.35,12.93-12.53,33.54-39.22,40.12l-.11,0c-12.6,3.1-25.49,6.28-37.46,10.13l-.08,0c7.06-9.48,12.5-18.4,14.7-25.62a12.94,12.94,0,0,0,.38-1.24,20.33,20.33,0,0,0,.58-4c2-37-62.12-171-83.52-200.88-.91-4.61-5.61-28.29-8.36-33.24-3-5.5-12.22-11.16-12.22-11.16s-.1,13.76,4,21.24c2.53,4.62,8.31,12.66,12.36,18.14a12.94,12.94,0,0,0-14.87-1.82,23.31,23.31,0,0,0-6.81,5.41c-20,22.19-44.5,111-23.94,144.22,19.24,31.14,65.33,69.1,79.73,69.44a10.89,10.89,0,0,0,9.51-5h0c2.13-3.22,4-6.14-.38-29.71-1.62-9.17-4.63-23-9.76-44-2.47-10.16-15.14-61.37-20.91-70.84-3.18-5.23-8.49-7.3-13.31-5.37a10,10,0,0,0-1.4.68,12.85,12.85,0,0,0-3.21,2.7,24.23,24.23,0,0,0-2.52,3.37c-10.09,15.8-15.87,53.15-10.85,59.69,2.47,3.21,15.37,15.63,15.37,15.63l0-.14.07.12a22.23,22.23,0,0,0-.64-2.21c-.27-.9-.61-2-1-3.23h0c-2.69-8.57-7.61-24.23-6.36-32.88,10.77-77.65,59.88,79.13,44.39,92a8,8,0,0,1-5.26,1.81c-16.65,0-48.4-39.45-60.63-59.25-5.48-8.89-12.61-44.33-7.58-69.51q.63-3.15,1.43-6.23c7.15-25.43,24.31-39,32-38.95,29.76.22,78.57,117.95,75.32,177.42-2.39,9.21-17.78,28.12-35.58,47.15l-.25.08-.2.06c-3.77.75-7.91,1.85-12.31,3.16-4.62,1-9.4,1.9-14.28,2.64-33.55-13.9-66.82-30.59-90.9-44.83-15.44-9.6-27.9-18.87-35.64-27l0-.05c-1.52-5.17-5.36-8.39-14.36-8.38s-22.89,3.15-44.71,10.68c-13.52-8.65-27.36-17.75-41.37-27.19a99,99,0,0,0-18.83-10c-45.36-18-88.32,7.42-119.15,25.66-2.9,1.72-5.7,3.38-8.38,4.92-1.31.76-3.5,1.95-6.25,3.44h0c-11.28,6.1-32,17.28-40.55,25.11-21.69,19.74-60.54,43.67-78.77,36.46a103,103,0,0,1-10.46-5.48c-21.47-12.43-64.67-42-62.12-60.53,1.29-9.24,102.7-14.66,138,7.19-1.56,4.9-7.85,10.65-15.39,15.86-9.54,6.37-20.47,11.93-26.87,14.19a13.83,13.83,0,0,1-4.69,1,25.5,25.5,0,0,1-3.52-.64,163.93,163.93,0,0,1-23.14-8.12c-2-1-3.35-1.93-3.77-2.66.44.76,10.16-10,12.14-12.22l.41-.35-.12,0,.06-.06a24.87,24.87,0,0,1-5.07-.06l-2.79-.3a61.17,61.17,0,0,0-7.71-.58c-5.32-.24-9.8.26-9.69,3.42.39,12.54,21.72,29.26,34.82,30.28,10.17.79,48.25-11.35,61.1-27.42a18.71,18.71,0,0,0,3.74-6.51,17,17,0,0,0-5.38-18.47,11.25,11.25,0,0,0-1.36-1c-9.76-6-38.25-6.48-59.73-6.83-7-.12-13.19-.22-17.8-.5-66.73-4-72.44-1.55-75.26,1.48a14.64,14.64,0,0,0-1.94,16.92,44.72,44.72,0,0,0,2.95,4.11l-5.38-6.08h0s-31.44-29.14-37.4-29.7c-3.21-.3-10.4,3.13-17.2,6.38h0c-5.82,2.77-11.35,5.41-13.85,5.46-7.18.14-2.95,4.74,1.66,9.75a63.43,63.43,0,0,1,4.57,5.34c1.51,2.06,3.05,4.66,4.58,7.22,3.43,5.75,6.74,11.3,9.12,10.08a62.8,62.8,0,0,1,6.24-2.16c8.52-2.72,22.06-7.05,20.78-10.6-4.5-12.32-33.24-15.89-33.26-14.09s12,13,12.29,11.35a11,11,0,0,1,.53-1.83c.64-1.83,1.42-4-.19-4.61s-1.79.75-1.87,1.76a3,3,0,0,1-.13.81c-.31.73-8.26-5.25-6.58-5.22s22.14.87,25.18,10.52c1.76,5.62-21,11.89-24.12,8.53s-5.9-6.66-12-14.82c-4.75-6.37-1.73-8,.44-9.11a5,5,0,0,0,1.44-1c1.26-1.58,18.43-10.21,24.67-6.3,5.38,3.37,37.69,28.86,46.51,35.84,17.53,21.47,55.63,64.76,71.25,70.93,28.37,11.2,63.2-20.49,91.18-46l0-.05c8.53-7.76,16.6-15.1,21.61-18.29l.39-.19c.2-.1.38-.21.55-.31,1.1-.63,2.28-1.3,3.55-2,30.81-16,109.88-38.36,158.86-5.36q4.38,3,8.71,5.51c-18.12,7.22-39.68,16.3-65.31,27.52-7.37-2.66-14-5.23-19.74-7.48-7.41-2.9-13.48-5.26-18.13-6.64a36.59,36.59,0,0,0-4.92-1.17c-30.88-4.59-93.79,35-135.23,61.06-14.26,9-26,16.35-33,19.78-4.91,2.4-13.25,4.5-24.91,4.18-33.74-4.09-86.2-23.83-150.33-84.46-3.86-3.81-7.13-6.94-9.19-8.9q-6.89-6.82-13.93-14.26c-4.94-5.22-12.52-7.38-21.88-7.38-21.59,0-52.73,11.46-83,23.33-14.08-2.27-31.67-1.58-48.89-.9-18.31.72-36.2,1.43-49-1.47l-5.52-1.21c-7.27-1.59-15.77-3.44-24.67-6.08a156.06,156.06,0,0,1-20.87-7.73c-9.53-4.39-17.87-12-25-20.73l-1.55-2c-2.76-3.57-5.32-7.3-7.67-11.06,2.63-12.7,11.43-34.82,20.75-58.22l.12-.28c5.69-14.29,13.29-30.27,21.13-46.77,18-37.95,37.39-78.64,37.8-107.64a49.48,49.48,0,0,0-.44-8.7c-3.37-23.54-35.53-43.06-68.36-63h0c-7.23-4.39-14.48-8.79-21.47-13.26,1-5,1.73-7.57,2.66-8.34,3.31-2.75,6.77-9.82,10.53-17.54,4.14-8.46,8.64-17.69,13.75-22.83,31.48-31.64,68-56.19,96.15-42.17,3.35,1.68,7.47,3.54,11.93,5.55,9.78,4.4,21.2,9.55,29.72,15.14,3.69,2.42,7.29,4.87,10.83,7.28,28.43,19.36,52.7,35.89,87.09,13.06,38.49-25.55,86.09-10.54,99.4,23.74.31.86.6,1.74.89,2.63,2.41,7.35-50.47,19.69-74.26,10.29-5.7-2.25-9.73-5.76-10.93-10.87-2.71-11.67,31.73-16.12,31.93-16.14l26.19,9.39.08,0H372a.07.07,0,0,1-.06,0m-.05,0-.05,0a11.07,11.07,0,0,1-1.23-1.15c-2.54-2.54-8.56-8.56-17.37-12.05,8.84,3.49,14.88,9.53,17.43,12.08A11,11,0,0,0,371.93,3700.09Zm-65.87-.41c-4.7,4.68-5.57,8.37-5,12.14.84,5.23,2.11,13.13,42.82,16.65,22.22,1.92,44.91,1.29,57.78-1.63,8.42-1.92,11.51-7.65,12.61-12.15s1.25-11.93-4.66-21c-4.51-6.94-12.82-14.89-23.82-21.43,11,6.53,19.28,14.48,23.78,21.4,5.91,9.09,5.81,16.46,4.66,21-1.08,4.42-4.09,5.1-12.2,6.95l-.41.1c-12.88,2.91-35.21,5-57.45,3.08-36.24-3.14-36.58-11.18-36.81-16.6a15.08,15.08,0,0,0-.15-1.87,6.3,6.3,0,0,0-1.41-3C305,3702.23,304.47,3701.51,306.06,3699.68Zm-72.77-49.15c-8.55-5.08-17-10.64-25.23-16l-.07-.05c-8.14-5.35-16-10.51-23.56-15,7.54,4.48,15.39,9.63,23.52,15l.07,0C216.23,3639.87,224.73,3645.45,233.29,3650.53Zm190.32,524.82c-33.26-4.7-70.14-14.6-88.94-19.78l-1.75-.5c-28.19-8.39-52-29.48-68.08-46.6,23.21-.26,41.51,2.24,49.05,7.87C339.42,4135.43,382,4157.5,423.61,4175.35ZM588,3607.06h0l-.06,0h0Zm-56.41,44.61,0,.08-.07-.09ZM28.9,3991.24c-.62-3.38-1.66-7.87-1.66-7.87h0c-7.48-41.06-11.81-145.88,2.12-216.62q1.11-5.61,2-10.41c25.34,20.59,48.45,42.88,51,60.84,4.86,33.83-14.86,98.31-32.91,143.59-6.26,15.7-12,30.15-16.24,42.43-1.08-2.59-2.7-6.54-3.63-9.36C29.37,3993,29.13,3992.17,28.9,3991.24Zm32.73,122c-6.94-8.26-11.66-21-14.35-34.8,7.67,7.74,16.4,14.05,26.25,17.74,11.33,4.23,23.43,3.35,33.65,2.61h0c5.75-.41,10.9-.79,15-.18,12,1.77,30.9,2.6,48.93,2.95-2.9.85-5.67,1.59-8.32,2.2-14.88,3.44-43.65,8.57-66,11.7-16.22,2.27-29,3.49-30.57,2.25A35.08,35.08,0,0,1,61.63,4113.21Zm1097.8-389.16c5.16,35.26,3.75,85.94-.71,111.24l-.11.63c-2.29,12.89-4.29,24.21-5.6,33.06-4.27-1.07-8.13-2.41-9.72-4.14a48.34,48.34,0,0,1-8.46-13.83c-4.29-11.51-5.2-28,1-52.61a679.88,679.88,0,0,1,23.17-73.26h0l0-.12c.1-.28.19-.5.25-.66a1.25,1.25,0,0,0,.09-.27v0ZM730,3613.05c-15.34-11.6-36.22-19.38-60.49-24.33l1.34.2h0c2.2,0,16.33,1,36.76,2.42h0c59.94,4.14,174.11,12,200.46,10.8,34.65-1.63,43.13,9.92,50,19.24,2.87,3.91,5.45,7.42,9.55,9.41,13.06,6.34,38.83,4.43,66.71,2.36,6.58-.49,13.27-1,20-1.38,10-.6,20.31-3.43,29.23-5.89,13.38-3.68,23.66-6.51,25.11.39,2.56,12.06,13.34,14.49,20.35,16.07a33.59,33.59,0,0,1,4.38,1.17c-16.05.09-37.13.74-64.09,1.62C962.88,3648.63,784.73,3654.47,730,3613.05Zm425.35,30.89c-4.69-.28-10.25-.41-16.73-.43,4.2-.11,8-.06,11.48.09C1152,3643.69,1153.76,3643.8,1155.39,3643.94Zm45.36,376.48c1.57-1.9,19.5-27.81,9.62-77.75-9.16-46.21-22.28-50-39.41-53l-.49-.09c-1.66-.3-3.25-.59-4.77-.9,0,24.69,11.65,59.88,22.9,93.75h0c4.13,12.43,8.2,24.68,11.61,36.17ZM554.58,3603.71c-45.47-2.74-97.35,1.18-155.08,14.76a244.93,244.93,0,0,1-65.47,6.36l-.73,0c-7.8-.17-17-.8-27.07-1.92,5.66,1.41,48.4,10.89,80,14.59,16.74,1.94,24-.49,37.81-10.41,13.37-9.6,26-18.66,39.47-15.4C486.28,3617.17,550.67,3604.5,554.58,3603.71Zm199.93,501.83c4.56,1.53,9.35,3.06,14.38,4.54l1.82.54,3.29.94,2,.57c17.3,4.9,36.1,11,55.4,17.24,28.3,9.17,57.7,18.7,85.14,25.38,3.27.79,6.52,1.55,9.74,2.25,77.71,17.14,91.87,5.66,94,3.94l.08-.07.55-.58,2.27-2.11,2.69-2.67c-27.38,5.25-58.15,7.18-78.64-3.49,0,0-14.22-21.51-20.44-26.81-17-14.51-36.46-20.33-57.79-26.73-13.69-4.1-28.17-8.44-43.32-15.47C804,4088.73,779,4096.48,754.51,4105.54Zm201.85,19.63c1.48.77,3.06,1.48,4.71,2.14,8,3.14,17.76,4.9,28.35,5.55-4.23-2-8.55-4.12-12.9-6.21-39.83-19.14-82.44-39.61-90.21-53.88-3.35-.92-11.06-.33-21.76,1.5,25.36,15.7,49.24,29.49,70.51,40.52Zm181.32-2.19c15.22-3.75,30.13-7.43,42.68-12.21-2.74,29.23-15.86,40.18-27.16,45.65-11.82,5.73-33.35,3.59-59-3.14-2.91-.77-5.87-1.59-8.85-2.46-6-1.73-12.11-3.68-18.36-5.81,10.82-3.41,18-6.19,19.13-6.62,14.76-6.33,33.14-10.86,51-15.27l.59-.14Zm-440.49-8.46c2.71.41,6.85,1.31,12.11,2.6-44.75,20-95.15,42.3-127.19,53.7C619.05,4143.66,675,4111.23,697.19,4114.52Z" transform="translate(84.42 -3486.4)"/><rect class="cls-2" x="116" y="63" width="1131.5" height="606" rx="16"/></svg>