<svg width="149" height="72" viewBox="0 0 149 72" fill="none" xmlns="http://www.w3.org/2000/svg">
<g clip-path="url(#clip0_64_4525)">
<path d="M59.3018 13.7616C60.6445 13.5422 62.2371 13.3979 63.9618 13.3979C67.0982 13.3979 69.347 14.1414 70.8319 15.5268C72.3473 16.9001 73.233 18.8624 73.233 21.5946C73.233 24.3268 72.3636 26.6243 70.7933 28.1905C69.1905 29.7689 66.5701 30.6342 63.2853 30.6342C61.715 30.6342 60.415 30.5733 59.3018 30.4453V13.7616ZM61.5018 28.7613C62.0583 28.8507 62.8689 28.8649 63.7038 28.8649C68.3963 28.8771 70.9253 26.2627 70.9253 21.6779C70.9517 17.674 68.6868 15.147 64.0674 15.147C62.9339 15.147 62.0848 15.2526 61.5018 15.3704V28.7633V28.7613Z" fill="white"/>
<path d="M77.5798 24.8C77.6225 27.7902 79.5218 29.0232 81.7442 29.0232C83.3266 29.0232 84.2956 28.7389 85.1142 28.3996L85.5022 29.9719C84.7283 30.3254 83.3754 30.7479 81.4435 30.7479C77.7058 30.7479 75.457 28.2574 75.457 24.607C75.457 20.9566 77.6286 18.0396 81.1815 18.0396C85.1508 18.0396 86.1888 21.5213 86.1888 23.762C86.1888 24.2271 86.1624 24.5583 86.1137 24.8H77.5819H77.5798ZM84.0559 23.2094C84.0782 21.8159 83.4851 19.6281 81.0047 19.6281C78.7458 19.6281 77.785 21.6696 77.6083 23.2094H84.0579H84.0559Z" fill="white"/>
<path d="M90.0484 18.3179L92.4352 25.1393C92.8456 26.2667 93.1604 27.2702 93.4326 28.2818H93.4976C93.7759 27.2722 94.1253 26.2586 94.5154 25.1393L96.8962 18.3179H99.2099L94.4219 30.4838H92.3113L87.6777 18.3179H90.0463H90.0484Z" fill="white"/>
<path d="M116.113 21.8361C116.113 27.654 112.569 30.76 108.246 30.76C103.923 30.76 100.624 27.2782 100.624 22.155C100.624 17.0319 103.949 13.2515 108.475 13.2515C113.001 13.2515 116.111 16.7983 116.111 21.8361H116.113ZM102.94 22.1042C102.94 25.7323 104.91 28.9784 108.364 28.9784C111.817 28.9784 113.796 25.7851 113.796 21.9316C113.796 18.5554 112.034 15.031 108.39 15.031C104.746 15.031 102.938 18.3929 102.938 22.1022L102.94 22.1042Z" fill="white"/>
<path d="M119.177 22.281C119.177 20.729 119.136 19.4655 119.075 18.3178H121.052L121.174 20.3918H121.224C122.11 18.9089 123.567 18.0415 125.543 18.0415C128.489 18.0415 130.707 20.5218 130.707 24.2149C130.707 28.6006 128.025 30.76 125.175 30.76C123.548 30.76 122.151 30.051 121.426 28.8424H121.375V35.4627H119.175V22.279L119.177 22.281ZM121.377 25.5332C121.377 25.8461 121.409 26.1488 121.472 26.4332C121.87 27.979 123.211 29.0272 124.781 29.0272C127.128 29.0272 128.481 27.1035 128.481 24.3144C128.481 21.8869 127.209 19.7987 124.867 19.7987C123.359 19.7987 121.939 20.8651 121.519 22.5288C121.446 22.8153 121.377 23.1362 121.377 23.4287V25.5332Z" fill="white"/>
<path d="M133.433 28.2309C134.099 28.6474 135.263 29.0983 136.366 29.0983C137.981 29.0983 138.731 28.3041 138.731 27.2863C138.731 26.2686 138.087 25.6653 136.47 25.0579C134.272 24.2616 133.232 23.0651 133.236 21.6086C133.236 19.6483 134.828 18.0415 137.445 18.0415C138.682 18.0415 139.748 18.3767 140.425 18.7891L139.874 20.3979C139.407 20.1034 138.515 19.6808 137.378 19.6808C136.072 19.6808 135.363 20.4345 135.363 21.3506C135.363 22.3582 136.078 22.8071 137.672 23.4247C139.769 24.2068 140.86 25.2631 140.864 27.0812C140.864 29.2365 139.188 30.7478 136.313 30.7478C134.981 30.7478 133.75 30.4025 132.895 29.9007L133.431 28.2309H133.433Z" fill="white"/>
<path d="M78.7181 33.8801C78.0905 33.9309 76.7619 33.9045 76.0652 33.8497C75.4497 33.805 74.8809 33.9959 74.4624 34.3859C73.9952 34.8207 73.857 35.3529 73.8164 35.751C73.7738 35.361 73.6356 34.841 73.1786 34.4144C72.884 34.1401 72.364 33.8232 71.5535 33.8821C70.9258 33.9329 69.5972 33.9065 68.9005 33.8517C68.285 33.807 67.7162 33.9979 67.2977 34.388C66.8305 34.8227 66.6923 35.3549 66.6517 35.7531C66.6091 35.363 66.4709 34.843 66.0139 34.4164C65.7193 34.1422 65.1993 33.8253 64.3888 33.8842C63.7611 33.935 62.4325 33.9086 61.7358 33.8537C61.1203 33.809 60.5515 34 60.133 34.39C59.4687 35.0075 59.4688 35.8242 59.4688 36.1715V52.7639C59.4688 54.0375 60.3808 55.3376 62.2599 56.7393C62.983 57.2796 64.7971 58.535 66.0139 58.535C66.8833 58.535 67.8563 58.0455 69.7049 56.9465C70.6576 57.6168 72.1547 58.535 73.1806 58.535C73.8327 58.535 74.5721 58.3319 79.3479 55.5245C79.553 55.4047 79.6952 55.3194 79.746 55.2909L79.7765 55.2747C80.5322 54.842 81.0035 53.9929 81.0035 53.0604V36.1715C81.0035 35.8302 81.0035 35.0299 80.3473 34.4184C80.0528 34.1442 79.5327 33.8273 78.7222 33.8862L78.7181 33.8801ZM79.2727 53.0564C79.2727 53.1194 79.2666 53.1803 79.2544 53.2372C79.2422 53.5439 79.098 53.7938 78.901 53.9075C78.5739 54.0863 73.8469 56.9404 73.1623 56.9404C72.7459 56.9404 71.527 56.2863 70.426 55.4839C70.1295 55.2462 69.9202 55.0675 69.7719 55.0675C69.5343 55.0675 66.8285 56.9404 65.9956 56.9404C65.1627 56.9404 61.1792 54.4134 61.1792 52.8959V36.3036C61.1792 36.1898 61.1792 36.0781 61.1975 35.9846C61.2096 35.7388 61.2726 35.5479 61.6098 35.5723C62.3533 35.6312 63.7814 35.6616 64.5249 35.6027C64.9413 35.5723 64.9413 35.8404 64.9413 36.1675V51.6588C64.9413 52.7293 67.2896 54.068 67.9742 54.068C68.1895 54.068 68.3073 53.9705 68.3459 53.7938C68.3459 53.7938 68.3459 53.7917 68.3459 53.7897V36.3056C68.3459 36.1898 68.3459 36.0801 68.3642 35.9846C68.3764 35.7388 68.4414 35.5479 68.7766 35.5723C69.52 35.6312 70.9481 35.6616 71.6916 35.6027C72.108 35.5723 72.108 35.8404 72.108 36.1675V51.6588C72.108 52.7293 74.4563 54.068 75.1409 54.068C75.3562 54.068 75.474 53.9705 75.5126 53.7938C75.5126 53.7938 75.5126 53.7917 75.5126 53.7897V36.3056C75.5126 36.1898 75.5126 36.0801 75.5309 35.9846C75.5431 35.7388 75.6081 35.5479 75.9433 35.5723C76.6868 35.6312 78.1148 35.6616 78.8563 35.6027C79.2727 35.5723 79.2727 35.8404 79.2727 36.1675V53.0564Z" fill="white"/>
<path d="M78.8566 35.6009C78.1131 35.6598 76.6851 35.6314 75.9436 35.5705C75.6064 35.5461 75.5434 35.737 75.5312 35.9828C75.5638 35.8081 75.6592 35.6883 75.9294 35.7086C76.6729 35.7675 78.101 35.798 78.8444 35.7391C79.2609 35.7086 79.2609 35.9767 79.2609 36.3038V53.1927C79.2609 53.2069 79.2609 53.2212 79.2588 53.2374C79.269 53.1785 79.2771 53.1196 79.2771 53.0566V36.1677C79.2771 35.8406 79.2771 35.5725 78.8607 35.603L78.8566 35.6009Z" fill="white"/>
<path d="M68.7625 35.7086C69.506 35.7675 70.934 35.798 71.6755 35.7391C72.0919 35.7086 72.0919 35.9767 72.0919 36.3038V51.7951C72.0919 52.8657 74.4402 54.2043 75.1248 54.2043C75.3909 54.2043 75.5087 54.0581 75.5107 53.792C75.4722 53.9687 75.3543 54.0662 75.139 54.0662C74.4544 54.0662 72.1061 52.7275 72.1061 51.657V36.1657C72.1061 35.8386 72.1061 35.5705 71.6897 35.6009C70.9462 35.6598 69.5182 35.6314 68.7747 35.5705C68.4395 35.5461 68.3745 35.737 68.3623 35.9828C68.3948 35.8081 68.4903 35.6883 68.7605 35.7086H68.7625Z" fill="white"/>
<path d="M61.5955 35.7086C62.339 35.7675 63.767 35.798 64.5085 35.7391C64.9249 35.7086 64.9249 35.9767 64.9249 36.3038V51.7951C64.9249 52.8657 67.2732 54.2043 67.9578 54.2043C68.2239 54.2043 68.3417 54.0581 68.3438 53.792C68.3052 53.9687 68.1873 54.0662 67.972 54.0662C67.2874 54.0662 64.9392 52.7275 64.9392 51.657V36.1657C64.9392 35.8386 64.9392 35.5705 64.5227 35.6009C63.7792 35.6598 62.3512 35.6314 61.6077 35.5705C61.2705 35.5461 61.2075 35.737 61.1953 35.9828C61.2278 35.8081 61.3213 35.6883 61.5935 35.7066L61.5955 35.7086Z" fill="white"/>
<path d="M86.8432 55.6689L86.8635 55.5958C87.154 54.6207 87.5319 53.6274 87.9585 52.632V45.4978C87.5989 45.3333 87.2922 45.0692 87.087 44.7198C86.7295 44.1124 86.7335 43.3567 87.0992 42.7006C87.3694 42.2232 87.5095 41.7986 87.7208 41.1567L87.8021 40.913C87.8081 40.8947 87.8163 40.8764 87.8224 40.8561C87.7289 40.5798 87.5684 40.2893 87.2922 40.0334C86.8737 39.6433 86.3049 39.4544 85.6752 39.4991C85.017 39.5519 83.9729 39.5804 83.3188 39.5276C82.5225 39.4686 82.0045 39.7855 81.7079 40.0618C81.0518 40.6733 81.0518 41.4736 81.0518 41.8169V55.9107C81.0518 56.2519 81.0518 57.0543 81.7079 57.6658C82.0024 57.94 82.5225 58.259 83.333 58.198C83.9729 58.1472 85.017 58.1757 85.6894 58.2285C85.7483 58.2325 85.8052 58.2346 85.8621 58.2346C86.4105 58.2346 86.9123 58.0457 87.2922 57.6922C87.3206 57.6658 87.347 57.6373 87.3734 57.6109C87.3308 57.5683 87.2881 57.5277 87.2495 57.4809C86.827 56.9832 86.6787 56.323 86.8412 55.6689H86.8432ZM86.2298 55.9107C86.2298 56.0244 86.2298 56.1362 86.2115 56.2296C86.1993 56.4754 86.1363 56.6663 85.7991 56.642C85.0556 56.5831 83.9262 56.5526 83.1827 56.6115C82.7662 56.642 82.7662 56.3738 82.7662 56.0468V41.953C82.7662 41.8393 82.7662 41.7336 82.7845 41.6443C82.7967 41.4005 82.8577 41.2258 83.1969 41.2502C83.9404 41.3091 85.0698 41.2806 85.8133 41.2197C86.2298 41.1892 86.2298 41.4878 86.2298 41.8149V55.9086V55.9107Z" fill="white"/>
<path d="M85.814 41.2216C85.0705 41.2805 83.941 41.311 83.1975 41.2521C82.8583 41.2277 82.7953 41.4024 82.7852 41.6462C82.8177 41.4796 82.9111 41.3699 83.1833 41.3902C83.9268 41.4491 85.0562 41.4207 85.7997 41.3598C86.2162 41.3293 86.2162 41.6279 86.2162 41.9549V56.0487C86.2162 56.1117 86.2162 56.1726 86.2121 56.2295C86.2304 56.134 86.2304 56.0243 86.2304 55.9106V41.8168C86.2304 41.4898 86.2304 41.1932 85.814 41.2216Z" fill="white"/>
<path d="M98.3883 52.1994C98.1262 52.0795 97.8357 52.0125 97.529 52.0125H97.4477C96.9704 52.0368 96.43 52.0734 95.8572 52.112C95.7231 52.1201 95.589 52.1303 95.455 52.1384C95.7962 51.3848 96.1578 50.6108 96.5316 49.8145C97.1654 48.4616 97.8073 47.0864 98.3862 45.7172V45.3516C98.3862 44.5979 98.7539 43.761 99.4771 42.853C99.5583 42.6051 99.6396 42.3573 99.7127 42.1135C99.9077 41.4879 99.7818 40.8094 99.3715 40.2893C98.9327 39.7307 98.2217 39.4341 97.4721 39.4971H97.4457C97.1044 39.5215 94.943 39.5499 94.4921 39.5499C93.7648 39.5499 92.9482 39.5357 92.16 39.5195C91.3556 39.5052 90.5228 39.489 89.765 39.489C88.8773 39.489 88.1217 40.0232 87.821 40.852C87.9551 41.2421 87.9551 41.6077 87.9551 41.8109V45.4917C88.2171 45.6116 88.5076 45.6786 88.8144 45.6786H88.8956C89.2877 45.6583 89.7874 45.6278 90.3318 45.5953C90.6548 45.575 91.0022 45.5547 91.3516 45.5344C90.9473 46.3957 90.5065 47.2814 90.0535 48.1935C89.3283 49.654 88.5889 51.1451 87.9551 52.6239V55.9026C87.9551 56.2357 87.9551 56.9955 87.3721 57.6028C87.7641 57.9868 88.3004 58.198 88.8855 58.198C88.9525 58.198 89.0216 58.196 89.0906 58.1899C89.5836 58.1533 90.671 58.1351 92.353 58.1351C93.0884 58.1351 94.1102 58.1533 95.0101 58.1716C95.6784 58.1838 96.2553 58.196 96.5742 58.196C97.4579 58.196 98.2115 57.6658 98.5162 56.8411C98.3862 56.4592 98.3842 56.1016 98.3842 55.9026V52.1912L98.3883 52.1994ZM97.7606 42.9423C97.7606 42.9423 97.7423 42.9423 97.7321 42.9423C97.7423 42.9423 97.7524 42.9423 97.7606 42.9403V42.9423ZM88.8347 54.7528C88.8347 54.7528 88.8245 54.7528 88.8204 54.7528C88.8245 54.7528 88.8306 54.7528 88.8347 54.7528ZM97.722 54.2937C97.336 54.9783 97.1572 55.5715 96.8891 56.3759C96.8302 56.5546 96.7103 56.6136 96.5621 56.6136C95.849 56.6136 93.6491 56.5546 92.3388 56.5546C89.7813 56.5546 89.7508 56.5546 88.9484 56.6136C88.5909 56.644 88.4426 56.4653 88.5015 56.2276C88.5015 56.2215 88.5056 56.2154 88.5076 56.2093C88.5056 56.1707 88.5076 56.1321 88.5178 56.0895C89.6777 52.1953 92.3815 47.8563 93.9274 43.9641C93.9111 43.8991 93.8502 43.8585 93.7364 43.8585C92.4282 43.8585 90.0494 44.0373 88.8001 44.0962C88.6173 44.0962 88.4812 43.9804 88.5503 43.7711C88.5422 43.7082 88.5564 43.633 88.6051 43.5416C88.9911 42.857 89.1698 42.2639 89.438 41.4594C89.4969 41.2807 89.6168 41.2218 89.765 41.2218C91.252 41.2218 93.0071 41.2807 94.4921 41.2807C94.8496 41.2807 97.3462 41.2502 97.6143 41.2218C97.9718 41.1913 98.1201 41.429 98.0612 41.6077C98.0592 41.6158 98.0572 41.6219 98.0531 41.6301C98.0592 41.6687 98.0572 41.7093 98.045 41.7459C96.885 45.64 94.4189 50.0075 92.8731 53.8712C92.8893 53.9362 92.9503 53.9768 93.064 53.9768C94.3722 53.9768 96.2452 53.7981 97.5249 53.7391C97.7078 53.7391 97.8439 53.8549 97.7748 54.0642C97.7829 54.1271 97.7687 54.2023 97.7199 54.2937H97.722Z" fill="white"/>
<path d="M87.957 52.6318C87.5304 53.6292 87.1525 54.6206 86.8621 55.5956L86.8417 55.6688C86.6792 56.3229 86.8275 56.9831 87.2501 57.4807C87.2886 57.5275 87.3313 57.5681 87.374 57.6108C87.9549 57.0034 87.957 56.2436 87.957 55.9105V52.6318Z" fill="white"/>
<path d="M87.7212 41.1565C87.5079 41.7984 87.3677 42.223 87.0996 42.7004C86.7339 43.3565 86.7299 44.1122 87.0874 44.7196C87.2926 45.069 87.5993 45.333 87.9589 45.4976V41.8167C87.9589 41.6136 87.9589 41.2479 87.8248 40.8579C87.8187 40.8762 87.8106 40.8945 87.8045 40.9148L87.7232 41.1586L87.7212 41.1565Z" fill="white"/>
<path d="M93.9273 43.962C92.3814 47.8562 89.6776 52.1952 88.5177 56.0873C88.5075 56.13 88.5055 56.1706 88.5075 56.2072C89.6695 52.3171 92.3692 47.9821 93.9131 44.092C93.9334 44.0392 93.9354 43.9965 93.9252 43.96L93.9273 43.962Z" fill="white"/>
<path d="M97.5285 53.7388C96.2508 53.7977 94.3758 53.9764 93.0676 53.9764C92.9538 53.9764 92.8929 53.9358 92.8766 53.8708C92.8766 53.8708 92.8766 53.8749 92.8746 53.8769C92.8157 54.0252 92.8746 54.1146 93.0534 54.1146C94.3616 54.1146 96.2345 53.9358 97.5143 53.8769C97.6524 53.8769 97.7621 53.9439 97.7784 54.0638C97.8495 53.8546 97.7134 53.7388 97.5285 53.7388Z" fill="white"/>
<path d="M89.4254 41.5971C89.4843 41.4184 89.6042 41.3595 89.7524 41.3595C91.2394 41.3595 92.9945 41.4184 94.4795 41.4184C94.837 41.4184 97.3336 41.3879 97.6017 41.3595C97.8841 41.3351 98.0344 41.4814 98.0547 41.6317C98.0567 41.6235 98.0588 41.6175 98.0628 41.6093C98.1217 41.4306 97.9735 41.1929 97.6159 41.2234C97.3478 41.2538 94.8512 41.2823 94.4937 41.2823C93.0067 41.2823 91.2516 41.2234 89.7667 41.2234C89.6184 41.2234 89.4985 41.2823 89.4396 41.461C89.1715 42.2634 88.9927 42.8586 88.6067 43.5432C88.556 43.6346 88.5417 43.7098 88.5519 43.7728C88.5621 43.7443 88.5742 43.7138 88.5925 43.6813C88.9785 42.9968 89.1572 42.4036 89.4254 41.5992V41.5971Z" fill="white"/>
<path d="M103.936 43.9761C103.743 43.9761 103.609 44.0959 103.566 44.3153C103.566 44.3255 103.566 44.3336 103.566 44.3438V50.1129C103.566 50.2023 103.625 50.2916 103.745 50.2916H106.272C106.358 50.2916 106.412 50.2591 106.435 50.1982V46.2675C106.435 45.524 104.442 43.9781 103.936 43.9781V43.9761Z" fill="white"/>
<path d="M111.261 44.6118C111.261 44.0938 111.21 44.0532 111.098 43.9617L111.08 43.9475C110.59 43.5392 110.332 42.9704 110.351 42.3793C109.977 41.9629 109.522 41.5383 108.983 41.1016C108.077 40.3682 106.351 39.1372 104.959 39.1372C103.69 39.1372 102.093 40.3154 100.978 41.3027C100.37 41.841 99.8707 42.359 99.4766 42.8546C99.1638 43.7972 98.792 44.756 98.3857 45.7189V52.199C98.7453 52.3636 99.052 52.6276 99.2572 52.977C99.6147 53.5844 99.6107 54.3401 99.245 54.9962C98.9748 55.4736 98.8347 55.8982 98.6234 56.5401L98.5422 56.7838C98.534 56.8062 98.5259 56.8265 98.5178 56.8488C98.6112 57.1231 98.7697 57.4095 99.0439 57.6655C99.3385 57.9397 99.8585 58.2586 100.669 58.1977C101.309 58.1469 102.353 58.1753 103.025 58.2282C103.084 58.2322 103.141 58.2342 103.198 58.2342C103.747 58.2342 104.248 58.0453 104.628 57.6919C104.793 57.5375 104.919 57.3709 105.012 57.2023C105.104 57.3608 105.221 57.5172 105.38 57.6634C105.674 57.9377 106.194 58.2546 107.005 58.1957C107.645 58.1449 108.689 58.1733 109.361 58.2261C109.977 58.2708 110.546 58.0799 110.964 57.6898C111.2 57.4704 111.352 57.2247 111.45 56.9849C111.267 56.5502 111.265 56.1297 111.265 55.9063V44.6077L111.261 44.6118ZM109.898 55.9103C109.898 56.0261 109.898 56.1358 109.879 56.2313C109.867 56.4771 109.802 56.6681 109.467 56.6437C108.723 56.5848 107.594 56.5543 106.851 56.6132C106.434 56.6437 106.434 56.3755 106.434 56.0485V52.6886C106.434 52.5708 106.375 52.5098 106.255 52.5098H103.728C103.643 52.5098 103.588 52.5423 103.566 52.6033V55.9103C103.566 56.0241 103.566 56.1358 103.547 56.2293C103.535 56.4751 103.472 56.666 103.135 56.6416C102.392 56.5827 101.262 56.5523 100.519 56.6112C100.102 56.6416 100.102 56.3735 100.102 56.0465V45.4914C100.102 45.4406 100.108 45.3857 100.119 45.3289C100.161 43.9496 103.868 40.8639 104.963 40.8639C106.213 40.8639 109.9 43.6895 109.9 45.0262V55.9083L109.898 55.9103Z" fill="white"/>
<path d="M98.3877 45.7192C98.794 44.7564 99.1657 43.7975 99.4785 42.855C98.7554 43.765 98.3877 44.5999 98.3877 45.3536V45.7192Z" fill="white"/>
<path d="M98.6234 56.5403C98.8367 55.8984 98.9769 55.4738 99.245 54.9964C99.6107 54.3403 99.6147 53.5846 99.2572 52.9772C99.052 52.6278 98.7473 52.3638 98.3857 52.1992V55.9106C98.3857 56.1096 98.3857 56.4651 98.5178 56.8491C98.5259 56.8267 98.534 56.8064 98.5422 56.7841L98.6234 56.5403Z" fill="white"/>
<path d="M106.27 50.2898H103.743C103.623 50.2898 103.564 50.2004 103.564 50.111V44.3419C103.564 44.3419 103.564 44.3236 103.564 44.3135C103.554 44.3643 103.548 44.4171 103.548 44.478V50.2472C103.548 50.3365 103.607 50.4259 103.727 50.4259H106.254C106.374 50.4259 106.432 50.367 106.432 50.2472V50.1943C106.408 50.2553 106.355 50.2878 106.27 50.2878V50.2898Z" fill="white"/>
<path d="M104.962 40.8638C103.867 40.8638 100.16 43.9495 100.117 45.3288C100.379 43.8926 103.887 41 104.948 41C106.197 41 109.884 43.8256 109.884 45.1623V56.0444C109.884 56.1074 109.884 56.1683 109.88 56.2272C109.898 56.1317 109.898 56.022 109.898 55.9062V45.0241C109.898 43.6854 106.211 40.8618 104.962 40.8618V40.8638Z" fill="white"/>
<path d="M103.55 56.0487C103.55 56.1117 103.55 56.1727 103.546 56.2295C103.564 56.1341 103.564 56.0244 103.564 55.9106V52.6035C103.554 52.6279 103.55 52.6543 103.55 52.6888V56.0487Z" fill="white"/>
<path d="M116.78 43.4985C116.581 43.4985 116.481 43.5981 116.443 43.8317C116.44 43.8784 116.438 43.9312 116.438 43.9861V48.8634C116.438 49.1011 116.558 49.2209 116.735 49.16L117.836 48.7131C118.665 48.3921 119.349 47.5166 119.477 46.4339C119.484 46.3587 119.486 46.2815 119.486 46.2043C119.486 44.6585 117.375 43.4985 116.78 43.4985Z" fill="white"/>
<path d="M123.691 51.9494C123.374 51.4517 123.136 51.0333 122.968 50.7123C122.831 50.4523 122.699 50.2166 122.575 50.0094C122.957 49.6072 123.347 49.1319 123.691 48.5956V44.612C123.691 44.094 123.64 44.0534 123.528 43.962L123.51 43.9478C122.931 43.4663 122.673 42.7594 122.815 42.0566C122.848 41.8981 122.903 41.7478 122.972 41.6076C121.535 40.1593 119.549 39.1984 118.312 39.1984C117.56 39.1984 116.924 39.4584 116.418 39.7692C115.401 38.8328 114.405 39.2268 114.005 39.4544L113.934 39.497C113.056 40.0557 112.593 40.2872 111.795 40.5615C111.053 40.7991 110.529 41.3537 110.385 42.0566C110.363 42.1642 110.355 42.2719 110.351 42.3796C111.196 43.3201 111.624 44.2058 111.624 45.0285V55.9106C111.624 56.1341 111.624 56.5546 111.446 56.9893C111.543 57.2188 111.689 57.4545 111.917 57.6657C112.211 57.94 112.731 58.2589 113.542 58.1979C114.182 58.1472 115.226 58.1756 115.898 58.2284C116.514 58.2731 117.083 58.0822 117.501 57.6921C118.159 57.0787 118.165 56.2702 118.165 55.9167C118.446 56.4408 118.754 56.9832 119.106 57.5377C119.549 58.2447 120.241 58.6327 120.963 58.6327C121.279 58.6327 121.6 58.5575 121.909 58.4031L121.927 58.393C122.72 57.9847 123.319 57.6393 123.981 57.1335C123.794 56.8125 123.689 56.4367 123.689 56.0244V51.9453L123.691 51.9494ZM123.262 55.6323C122.577 56.197 122.043 56.5241 121.121 56.9994C120.883 57.1173 120.705 56.9994 120.556 56.7618C119.427 54.9782 118.742 53.3125 118.058 51.8844C117.761 51.2608 117.373 50.9926 117.046 51.1409L116.63 51.3197C116.51 51.3705 116.459 51.4152 116.439 51.4984C116.439 51.537 116.439 51.5777 116.439 51.6284V55.9106C116.439 56.0264 116.439 56.1361 116.42 56.2316C116.408 56.4774 116.343 56.6683 116.008 56.6439C115.265 56.585 114.135 56.5546 113.392 56.6135C112.975 56.6439 112.975 56.3758 112.975 56.0487V44.7502C112.975 43.8279 112.796 43.2632 112.173 42.7574C112.067 42.67 112.037 42.5705 112.089 42.4872C112.051 42.3755 112.124 42.2678 112.337 42.2028C113.288 41.8758 113.883 41.5792 114.864 40.9535C115.072 40.8357 115.161 40.9231 115.37 41.1607C115.787 41.6361 115.994 42.1419 116.173 42.1419C116.41 42.1419 117.213 40.9231 118.314 40.9231C119.622 40.9231 123.012 43.1535 123.012 45.2641C123.012 45.4063 123 45.5485 122.984 45.6887C122.856 47.2975 121.678 48.7317 120.499 49.7129C120.459 49.7474 120.43 49.7799 120.412 49.8124C120.428 49.8815 120.477 49.9566 120.544 50.0501C120.692 50.2573 121.05 50.7631 121.436 51.5066C121.732 52.0713 122.387 53.2312 123.518 54.6877C123.652 54.8624 123.676 54.9945 123.636 55.1102C123.66 55.3174 123.477 55.4596 123.264 55.6303L123.262 55.6323ZM121.621 50.9012C121.621 50.9012 121.621 50.9012 121.619 50.9012C121.619 50.9012 121.619 50.9012 121.621 50.9012Z" fill="white"/>
<path d="M111.624 45.0264C111.624 44.2037 111.196 43.318 110.351 42.3774C110.332 42.9686 110.59 43.5374 111.08 43.9457L111.098 43.9599C111.21 44.0493 111.261 44.0919 111.261 44.6099V55.9085C111.261 56.1319 111.261 56.5524 111.445 56.9872C111.622 56.5524 111.624 56.134 111.624 55.9085V45.0264Z" fill="white"/>
<path d="M117.837 48.7134L116.736 49.1604C116.557 49.2193 116.439 49.1014 116.439 48.8638V43.9864C116.439 43.9316 116.439 43.8788 116.443 43.832C116.429 43.9133 116.423 44.0088 116.423 44.1246V49.0019C116.423 49.2396 116.543 49.3594 116.719 49.2985L117.82 48.8516C118.686 48.5164 119.393 47.5799 119.478 46.4342C119.35 47.517 118.666 48.3925 117.837 48.7134Z" fill="white"/>
<path d="M112.319 42.3408C113.27 42.0138 113.865 41.7172 114.846 41.0915C115.054 40.9717 115.143 41.0611 115.352 41.2987C115.769 41.7741 115.976 42.2799 116.155 42.2799C116.392 42.2799 117.195 41.0611 118.296 41.0611C119.604 41.0611 122.994 43.2915 122.994 45.4021C122.994 45.4976 122.988 45.5931 122.982 45.6886C122.998 45.5484 123.011 45.4062 123.011 45.264C123.011 43.1534 119.62 40.9229 118.312 40.9229C117.211 40.9229 116.409 42.1418 116.171 42.1418C115.992 42.1418 115.785 41.636 115.369 41.1606C115.161 40.9229 115.072 40.8336 114.863 40.9534C113.882 41.577 113.286 41.8757 112.336 42.2027C112.124 42.2657 112.049 42.3754 112.088 42.4871C112.124 42.4282 112.2 42.3774 112.319 42.3408Z" fill="white"/>
<path d="M123.517 54.6917C122.387 53.2352 121.733 52.0753 121.434 51.5106C121.048 50.7671 120.691 50.2613 120.543 50.0541C120.476 49.9606 120.429 49.8855 120.411 49.8164C120.352 49.9241 120.413 50.0317 120.526 50.1922C120.675 50.3994 121.032 50.9052 121.418 51.6487C121.715 52.2134 122.369 53.3734 123.5 54.8299C123.584 54.9396 123.624 55.031 123.634 55.1143C123.675 55.0005 123.651 54.8685 123.517 54.6917Z" fill="white"/>
<path d="M116.423 56.0488C116.423 56.1118 116.423 56.1728 116.419 56.2317C116.437 56.1362 116.437 56.0265 116.437 55.9107V51.6285C116.437 51.5778 116.437 51.5371 116.437 51.4985C116.421 51.5595 116.421 51.6407 116.421 51.7667V56.0488H116.423Z" fill="white"/>
<path d="M131.973 46.2937C131.973 44.7478 129.801 43.4985 129.208 43.4985C129.009 43.4985 128.909 43.5981 128.871 43.8317C128.869 43.8784 128.867 43.9312 128.867 43.9861V52.2233C128.867 52.4346 128.853 52.6174 128.832 52.7779C128.8 53.1334 128.735 53.3853 128.704 53.562C128.7 53.7448 128.804 53.8017 129.194 53.8017H131.631C131.8 53.8017 131.928 53.6819 131.971 53.4625C131.971 53.4523 131.971 53.4442 131.971 53.432V46.2957L131.973 46.2937Z" fill="white"/>
<path d="M136.913 50.6043L136.935 50.5962C137.019 50.5657 137.094 50.5393 137.167 50.5129V49.8629C136.389 48.8838 135.881 47.4821 135.881 45.3532C135.881 45.0668 135.881 44.4005 136.639 43.3361C135.442 40.9979 132.523 39.1961 131.217 39.1961C130.258 39.1961 129.484 39.4825 128.897 39.8136C127.863 38.8183 126.843 39.2205 126.449 39.4459C126.24 39.5617 126.051 39.6714 125.873 39.775C125.222 40.1488 124.83 40.3743 124.268 40.549C123.675 40.7278 123.215 41.1097 122.972 41.6073C123.993 42.6373 124.737 43.913 124.737 45.2659C124.737 46.5355 124.286 47.6588 123.689 48.5953V51.9512C124.004 52.4427 124.396 53.0115 124.879 53.6352C125.105 53.9277 126.12 55.435 124.371 56.8326L124.365 56.8387C124.233 56.9463 124.107 57.0459 123.981 57.1413C124.347 57.769 125.021 58.1753 125.832 58.1753H130.589C131.859 58.1753 133.456 56.9971 134.571 56.0078C135.211 55.4411 135.731 54.8987 136.135 54.3787C135.729 53.7591 135.522 53.17 135.522 52.6114C135.522 51.3194 136.393 50.8014 136.911 50.6064L136.913 50.6043ZM125.277 43.852C125.277 43.852 125.292 43.848 125.298 43.8459C125.292 43.848 125.283 43.85 125.277 43.852ZM135.438 51.9552C135.438 52.006 135.432 52.0608 135.422 52.1177C135.379 53.497 131.672 56.5827 130.577 56.5827H125.82C125.552 56.5827 125.403 56.4344 125.403 56.1663V44.7479C125.403 43.8256 125.224 43.2609 124.601 42.7551C124.495 42.6677 124.465 42.5682 124.518 42.4849C124.479 42.3732 124.552 42.2655 124.765 42.2005C125.716 41.9039 126.281 41.5159 127.292 40.9512C127.5 40.8334 127.589 40.9207 127.798 41.1584C128.215 41.6338 128.422 42.1396 128.601 42.1396C128.838 42.1396 129.641 40.9207 131.217 40.9207C132.05 40.9207 135.44 43.2406 135.44 45.3512V51.9532L135.438 51.9552Z" fill="white"/>
<path d="M124.374 56.8287C126.121 55.4311 125.107 53.9238 124.882 53.6313C124.398 53.0097 124.006 52.4409 123.691 51.9473V56.0263C123.691 56.4387 123.799 56.8145 123.984 57.1354C124.11 57.0399 124.236 56.9404 124.368 56.8327L124.374 56.8267V56.8287Z" fill="white"/>
<path d="M123.51 43.9456L123.528 43.9598C123.64 44.0492 123.691 44.0919 123.691 44.6099V48.5934C124.288 47.659 124.739 46.5336 124.739 45.264C124.739 43.9091 123.994 42.6354 122.974 41.6055C122.905 41.7477 122.85 41.896 122.817 42.0544C122.673 42.7573 122.933 43.4642 123.512 43.9456H123.51Z" fill="white"/>
<path d="M131.631 53.7997H129.194C128.802 53.7997 128.7 53.7428 128.704 53.56C128.653 53.8545 128.704 53.9358 129.18 53.9358H131.617C131.818 53.9358 131.963 53.7672 131.973 53.4604C131.93 53.6798 131.802 53.7997 131.633 53.7997H131.631Z" fill="white"/>
<path d="M128.867 43.9864C128.867 43.9316 128.867 43.8788 128.871 43.832C128.856 43.9133 128.85 44.0088 128.85 44.1246V52.3618C128.85 52.5142 128.842 52.6523 128.832 52.7782C128.852 52.6178 128.867 52.437 128.867 52.2237V43.9864Z" fill="white"/>
<path d="M131.215 40.9229C129.639 40.9229 128.836 42.1418 128.599 42.1418C128.42 42.1418 128.213 41.636 127.796 41.1606C127.589 40.9229 127.5 40.8336 127.29 40.9534C126.279 41.5181 125.714 41.9041 124.763 42.2027C124.552 42.2657 124.477 42.3754 124.516 42.4871C124.552 42.4282 124.627 42.3774 124.747 42.3408C125.698 42.0443 126.263 41.6563 127.274 41.0915C127.481 40.9717 127.571 41.0611 127.78 41.2987C128.196 41.7741 128.404 42.2799 128.582 42.2799C128.82 42.2799 129.622 41.0611 131.199 41.0611C132.032 41.0611 135.422 43.3809 135.422 45.4915V52.0935C135.422 52.0935 135.422 52.1098 135.422 52.1179C135.432 52.061 135.438 52.0082 135.438 51.9554V45.3534C135.438 43.2428 132.048 40.9229 131.215 40.9229Z" fill="white"/>
<path d="M146.715 47.4335C146.967 47.342 147.245 47.2303 147.566 47.0902C148.551 46.6676 148.824 45.9566 148.897 45.5686C149.013 44.9633 148.818 44.3376 148.375 43.8928C147.956 43.4743 147.483 42.9014 147.024 42.3489C145.655 40.6974 144.363 39.1353 142.693 39.1353C141.37 39.1353 139.579 40.4739 138.628 41.2723C137.669 42.0767 137.046 42.7633 136.639 43.3362C136.968 43.9781 137.168 44.6586 137.168 45.3533V49.863C137.306 50.0357 137.45 50.1961 137.602 50.3444C137.478 50.3952 137.338 50.4501 137.168 50.513V51.9553C137.168 52.6866 136.822 53.4971 136.14 54.3767C136.603 55.0816 137.322 55.821 138.303 56.595C139.25 57.3405 141.043 58.5898 142.427 58.5898C143.696 58.5898 145.293 57.4116 146.408 56.4244C148.129 54.9008 149 53.5378 149 52.3738C149 50.2144 148.235 48.5629 146.715 47.4375V47.4335ZM146.193 43.9192C146.193 43.9192 146.189 43.9192 146.187 43.9212C146.187 43.9212 146.191 43.9212 146.193 43.9192ZM142.411 56.9992C141.161 56.9992 137.237 54.0862 137.237 52.7476C137.237 52.6805 137.241 52.6277 137.253 52.583C137.257 52.3961 137.293 52.3088 137.519 52.2235C138.679 51.807 138.797 51.6892 139.839 51.1834C140.076 51.0635 140.166 51.2728 140.286 51.4515C140.702 52.0467 142.069 54.1573 143.765 54.1573C143.971 54.1573 144.196 54.0233 144.255 53.7775C144.251 50.7284 142.794 51.1428 140.688 50.3404C138.994 49.6863 137.596 48.8534 137.596 45.4935C137.596 45.4447 137.602 45.3919 137.612 45.3391C137.643 43.9639 141.6 40.866 142.695 40.866C143.944 40.866 145.638 43.6023 147.156 45.1177C147.219 45.1807 147.215 45.2457 147.176 45.3046C147.243 45.4366 147.058 45.5626 146.873 45.6418C145.923 46.0582 145.445 46.176 144.763 46.3264C144.139 46.4746 143.692 46.0298 143.245 45.524C142.027 44.1568 141.7 43.6795 141.194 43.6795C140.989 43.6795 140.763 43.8359 140.704 44.0878C140.706 46.755 141.659 47.2608 143.885 47.9433C145.579 48.4776 147.276 49.5197 147.276 52.3738C147.276 52.4246 147.27 52.4794 147.259 52.5363C147.217 53.9156 143.51 57.0013 142.415 57.0013L142.411 56.9992Z" fill="white"/>
<path d="M137.165 50.5132C137.094 50.5396 137.019 50.568 136.933 50.5965L136.911 50.6046C136.393 50.7996 135.521 51.3176 135.521 52.6096C135.521 53.1682 135.729 53.7573 136.135 54.3769C136.817 53.4973 137.163 52.6868 137.163 51.9555V50.5132H137.165Z" fill="white"/>
<path d="M137.165 49.8633V45.3536C137.165 44.6589 136.966 43.9763 136.637 43.3364C135.879 44.4029 135.879 45.0692 135.879 45.3536C135.879 47.4804 136.385 48.8841 137.165 49.8633Z" fill="white"/>
<path d="M142.679 41.0024C143.928 41.0024 145.622 43.7387 147.14 45.2541C147.156 45.2703 147.166 45.2866 147.174 45.3028C147.215 45.2439 147.219 45.1809 147.154 45.1159C145.636 43.6005 143.942 40.8643 142.693 40.8643C141.598 40.8643 137.641 43.9621 137.61 45.3374C137.878 43.9032 141.618 41.0024 142.679 41.0024Z" fill="white"/>
<path d="M137.505 52.3617C138.665 51.9452 138.782 51.8274 139.825 51.3216C140.062 51.2017 140.152 51.411 140.271 51.5897C140.688 52.1849 142.055 54.2955 143.751 54.2955C143.989 54.2955 144.257 54.1168 144.257 53.7897C144.257 53.7857 144.257 53.7816 144.257 53.7775C144.198 54.0233 143.973 54.1574 143.767 54.1574C142.073 54.1574 140.704 52.0468 140.288 51.4516C140.17 51.2728 140.081 51.0656 139.841 51.1835C138.801 51.6893 138.681 51.8071 137.521 52.2235C137.293 52.3088 137.257 52.3942 137.255 52.5831C137.279 52.4835 137.344 52.4226 137.507 52.3617H137.505Z" fill="white"/>
<path d="M143.867 48.0796C145.561 48.6139 147.257 49.656 147.257 52.5101C147.257 52.5182 147.257 52.5263 147.257 52.5345C147.267 52.4776 147.273 52.4248 147.273 52.372C147.273 49.5179 145.579 48.4778 143.883 47.9415C141.657 47.259 140.704 46.7531 140.702 44.0859C140.692 44.1266 140.686 44.1692 140.686 44.2139C140.686 46.8892 141.636 47.3951 143.867 48.0796Z" fill="white"/>
<path d="M30.7996 35.3248C29.3512 35.2435 27.8967 35.3309 26.4382 35.3959C23.0844 35.5747 19.698 35.8408 16.3138 36.1231C15.8506 37.3704 15.5967 38.7192 15.5967 40.127C15.5967 41.9593 16.0273 43.69 16.7891 45.2278C18.8063 44.204 21.5974 42.8998 23.0803 42.7048C24.5266 42.5159 25.5098 42.9567 26.0807 43.3589C26.5499 43.688 26.9257 44.1248 27.1532 44.5839C27.6854 43.5194 29.0952 42.4265 31.2241 42.7048C32.6908 42.8958 35.4331 44.1715 37.4442 45.1912C38.1938 43.6636 38.6184 41.9451 38.6184 40.127C38.6184 38.8168 38.3969 37.5573 37.9927 36.3852C35.5936 36.0155 33.2027 35.53 30.8016 35.3268L30.7996 35.3248ZM22.1154 39.806C21.0692 39.806 20.1673 40.2814 19.1861 40.6633C19.4197 39.5135 20.728 38.6197 22.0301 38.5791C23.3038 38.5405 24.8354 39.5785 25.0386 40.6592C24.0493 40.3708 23.1676 39.8101 22.1154 39.8081V39.806ZM32.9183 39.7207C32.7863 41.1285 31.9148 42.199 30.9682 42.1117C30.0215 42.0243 29.3613 40.8095 29.4934 39.4018C29.6254 37.994 30.4969 36.9235 31.4435 37.0109C32.3901 37.0982 33.0503 38.313 32.9183 39.7207Z" fill="white"/>
<path d="M30.5483 43.3365C28.6916 43.3365 27.7775 44.5777 27.6191 45.248C27.5805 45.4085 27.2717 46.8467 28.1249 47.9234C28.7627 48.7298 29.8983 49.1402 31.499 49.1402H37.7435L36.0412 48.1956L38.9847 46.7614C37.4124 45.9143 33.0226 43.6209 31.1334 43.3731C30.9282 43.3467 30.7332 43.3345 30.5463 43.3345L30.5483 43.3365Z" fill="white"/>
<path d="M26.6801 45.2483C26.5054 44.5109 25.4166 43.0808 23.1638 43.3753C21.2746 43.6211 16.8868 45.9146 15.3125 46.7637L18.2539 48.1978L16.5516 49.1424H22.7961C24.3969 49.1424 25.5324 48.7341 26.1702 47.9256C27.0234 46.847 26.7147 45.4087 26.6761 45.2483H26.6801Z" fill="white"/>
<path d="M42.773 50.0096C42.773 49.9771 42.771 49.9608 42.771 49.9608C42.771 49.9608 42.9477 50.1152 43.1894 50.3529C43.2971 50.4585 43.419 50.5804 43.5449 50.7124C43.8192 51.0009 44.1097 51.3361 44.3229 51.653C44.3636 51.7119 44.4103 51.787 44.4611 51.8744C44.8267 52.4797 45.4402 53.6295 45.4402 53.6295C45.4402 53.6295 45.4951 52.9124 45.4626 51.8846C45.4524 51.5819 45.4361 51.2528 45.4057 50.9075C45.3488 50.2148 45.2452 49.457 45.0685 48.7156C44.9344 48.1549 44.5789 47.4074 44.2153 46.737C44.1381 46.5928 44.0589 46.4526 43.9837 46.3186C43.9329 46.2292 43.8821 46.1418 43.8354 46.0606C43.7867 45.9773 43.7399 45.8981 43.6953 45.8229C43.4474 45.4085 43.2646 45.1261 43.2483 45.1018L45.9399 46.4283C45.9399 46.4283 45.7734 45.7823 45.5012 44.9332C45.4524 44.7828 45.4016 44.6264 45.3468 44.468C45.3285 44.4152 45.3102 44.3603 45.2919 44.3075C45.2736 44.2547 45.2533 44.1998 45.235 44.145C45.2168 44.0901 45.1964 44.0353 45.1761 43.9804C45.1558 43.9256 45.1355 43.8707 45.1152 43.8139C45.0949 43.759 45.0746 43.7021 45.0522 43.6473C45.0299 43.5924 45.0096 43.5356 44.9872 43.4807C44.8999 43.2593 44.8105 43.0399 44.717 42.8286C44.6703 42.723 44.6216 42.6194 44.5728 42.5178C44.4895 42.3452 44.3636 42.1136 44.2112 41.8515C44.1604 41.7642 44.1076 41.6728 44.0528 41.5793C43.9979 41.4859 43.939 41.3904 43.8821 41.2929C43.8232 41.1954 43.7643 41.0979 43.7034 40.9984C43.612 40.8501 43.5205 40.7018 43.4291 40.5576C42.9132 39.7328 42.4338 39.0015 42.4338 39.0015L44.9486 40.2447C44.9486 40.2447 44.5078 39.4484 44.0101 38.3332C43.809 37.8822 43.5977 37.3764 43.4007 36.8503C42.0153 36.8645 40.636 36.7446 39.2587 36.5639C39.5898 37.6953 39.7726 38.8878 39.7726 40.1249C39.7726 42.1319 39.3014 44.0292 38.4685 45.7152C39.2709 46.1357 39.8214 46.4425 39.8945 46.4831L40.4613 46.798L37.5158 48.2342L39.9433 49.5789C39.9433 49.5789 39.9473 49.5891 39.9514 49.5932C39.9859 49.6643 40.0225 49.7394 40.057 49.8166H31.509C30.4466 49.8166 29.5568 49.646 28.8458 49.3088C28.3339 49.6155 27.6859 49.7983 26.981 49.7983C26.3452 49.7983 25.7581 49.65 25.2726 49.3961C24.5962 49.6744 23.7735 49.8146 22.8086 49.8146H13.9456L16.7997 48.2321L13.8542 46.7959L14.421 46.4811C14.4921 46.4425 15.0121 46.152 15.7779 45.7498C14.9329 44.0536 14.4535 42.142 14.4535 40.1228C14.4535 38.7618 14.6708 37.4536 15.071 36.2246C13.5556 36.3526 12.0402 36.4806 10.5309 36.6065C10.3968 36.9153 10.277 37.2159 10.1733 37.5064C10.1185 37.6628 10.0657 37.8172 10.019 37.9675C9.97224 38.1179 9.92755 38.2641 9.88896 38.4083C9.80973 38.6948 9.74473 38.9629 9.68988 39.2128C9.66347 39.3367 9.6391 39.4565 9.61878 39.5703C9.59847 39.6841 9.58019 39.7917 9.56393 39.8933C9.53143 40.0964 9.50909 40.2772 9.49284 40.4275C9.48877 40.4661 9.48471 40.5007 9.48268 40.5352C9.45627 40.8074 9.45424 40.9598 9.45424 40.9598L12.4566 38.9629C12.4566 38.9629 12.091 39.6841 11.5973 40.7546C11.5527 40.8521 11.5059 40.9516 11.4592 41.0552C11.2723 41.4656 11.0692 41.9186 10.8661 42.396C10.7645 42.6336 10.6609 42.8774 10.5593 43.1252C10.4577 43.3731 10.3562 43.6249 10.2566 43.8768C10.2079 44.0028 10.1571 44.1308 10.1083 44.2567C9.57409 45.6523 9.12719 47.056 8.99921 48.096C8.7981 49.7496 8.8042 51.1248 8.88342 52.1771C8.91389 52.5813 8.95452 52.9388 8.99921 53.2435C9.12312 54.0988 9.26938 54.5579 9.26938 54.5579L10.1185 52.5894L10.9412 50.6799C10.7604 51.4376 10.0007 59.2382 14.0472 64.8732C14.2971 65.2287 14.5672 65.57 14.8577 65.895C14.9004 65.9438 14.9451 65.9945 14.9877 66.0433C14.9999 66.0555 15.0101 66.0697 15.0223 66.0819C15.0446 66.1063 15.0649 66.1327 15.0893 66.1571C15.1218 66.1936 15.1563 66.2302 15.1888 66.2627C15.0426 65.0235 14.9816 63.8108 14.9715 62.6692C14.9674 62.1796 14.9735 61.7043 14.9877 61.2452C14.9959 60.9466 15.008 60.6561 15.0243 60.3717C15.0324 60.2193 15.0405 60.071 15.0507 59.9227C15.0934 59.2361 15.1523 58.6044 15.2132 58.0478C15.2274 57.9239 15.2417 57.802 15.2538 57.6842C15.3148 57.1662 15.3778 56.7233 15.4346 56.3719C15.4956 55.9839 15.5464 55.7056 15.5748 55.5614C15.5829 55.5167 15.589 55.4862 15.5931 55.4679C15.5951 55.4537 15.5971 55.4435 15.5971 55.4435C15.5971 55.4435 15.652 55.602 15.7414 55.8803C15.7637 55.9514 15.7901 56.0286 15.8165 56.1159C15.91 56.4084 16.0298 56.7883 16.1619 57.2291C16.7591 59.2138 17.6407 62.4762 17.8601 65.0662C17.8601 65.0662 17.8601 65.0682 17.8601 65.0703C17.8621 65.0967 17.8662 65.1251 17.8703 65.1576C17.8703 65.1657 17.8723 65.1739 17.8743 65.184C17.8784 65.2165 17.8825 65.2511 17.8885 65.2876C17.9007 65.377 17.917 65.4826 17.9332 65.6045C17.9332 65.6086 17.9332 65.6147 17.9332 65.6208C17.9414 65.6756 17.9475 65.7345 17.9556 65.7955C17.9556 65.7995 17.9556 65.8036 17.9556 65.8097C17.9637 65.8727 17.9698 65.9397 17.9759 66.0088C17.9759 66.0189 17.9759 66.0291 17.9779 66.0392C17.9921 66.1814 18.0023 66.3379 18.0104 66.5065C18.0104 66.5186 18.0104 66.5308 18.0104 66.5451C18.0145 66.6304 18.0165 66.7198 18.0186 66.8112C18.0186 66.8112 18.0186 66.8132 18.0186 66.8152C18.0186 66.9066 18.0186 67.0001 18.0186 67.0976C18.0186 67.1098 18.0186 67.124 18.0186 67.1362C18.0186 67.2337 18.0145 67.3353 18.0104 67.4409C18.0104 67.4511 18.0104 67.4612 18.0104 67.4714C18.0064 67.5709 18.0003 67.6745 17.9921 67.7801C17.9921 67.7903 17.9921 67.8005 17.9901 67.8106C17.982 67.9223 17.9718 68.0361 17.9576 68.1539C17.9576 68.1702 17.9536 68.1884 17.9515 68.2047C17.9373 68.3245 17.9231 68.4444 17.9048 68.5703C17.8865 68.6943 17.8662 68.8243 17.8439 68.9543C17.8398 68.9766 17.8357 68.999 17.8317 69.0193C17.8073 69.1513 17.7809 69.2874 17.7524 69.4256C17.7524 69.4296 17.7524 69.4317 17.7504 69.4357C17.7179 69.5881 17.6813 69.7465 17.6407 69.907C17.6367 69.9232 17.6326 69.9395 17.6285 69.9537C17.5899 70.1081 17.5452 70.2665 17.4985 70.427C17.4985 70.4291 17.4985 70.4311 17.4985 70.4331C17.4904 70.4616 17.4823 70.492 17.4721 70.5205C17.4254 70.681 17.3746 70.8414 17.3177 71.008C17.3076 71.0364 17.2994 71.0629 17.2893 71.0913C17.2304 71.268 17.1674 71.4447 17.0983 71.6276C17.2385 71.5666 17.3746 71.4996 17.5087 71.4305C20.5903 69.8379 22.2641 66.2952 22.9203 64.5726C22.9487 64.4974 22.9751 64.4263 22.9995 64.3593C23.0483 64.2232 23.0909 64.1033 23.1255 63.9997C23.2128 63.7417 23.2534 63.5935 23.2534 63.5935C23.2534 63.5935 23.4017 64.4527 23.5358 65.637C23.6028 66.2282 23.6658 66.9005 23.7064 67.5872C23.7125 67.7009 23.7186 67.8167 23.7247 67.9305C23.7552 68.6191 23.7592 69.3118 23.7166 69.9395C23.7085 70.0431 23.7003 70.1467 23.6902 70.2483C23.68 70.3498 23.6699 70.4473 23.6556 70.5428C23.617 70.8313 23.5642 71.0974 23.4972 71.3351C23.4525 71.4935 23.3997 71.6377 23.3387 71.7657C23.8811 71.6093 24.3849 71.4163 24.8562 71.1929C25.2097 71.0243 25.5428 70.8394 25.8597 70.6403C25.9653 70.5733 26.0689 70.5063 26.1705 70.4352C26.4752 70.2259 26.7616 70.0004 27.0338 69.7648C27.1253 69.6856 27.2126 69.6063 27.2999 69.5251C27.3873 69.4438 27.4726 69.3606 27.5559 69.2773C27.6392 69.194 27.7225 69.1087 27.8017 69.0233C28.1247 68.68 28.4213 68.3184 28.6955 67.9447C28.7646 67.8512 28.8316 67.7578 28.8966 67.6623C29.0937 67.3779 29.2805 67.0874 29.4552 66.7949C29.5142 66.6974 29.571 66.5979 29.6279 66.5004C30.1337 65.6126 30.5502 64.6985 30.9158 63.8189C31.0133 64.1927 31.056 64.5909 31.056 64.9931C31.056 65.4461 31.0052 65.9052 30.9199 66.3379C30.7777 67.059 30.542 67.7111 30.2942 68.1478C31.4318 67.6542 32.3601 67.1646 33.1422 66.6527C33.4774 66.4333 33.7841 66.2119 34.0706 65.9844C34.5459 65.6045 34.9603 65.2125 35.332 64.796C35.4824 64.6295 35.6246 64.4609 35.7627 64.2862C35.8318 64.1988 35.8988 64.1115 35.9658 64.0221C36.1649 63.756 36.3559 63.4777 36.5407 63.1912C36.626 63.0592 36.7093 62.9231 36.7926 62.787C37.3756 61.8282 37.9302 60.7475 38.6148 59.486C38.6473 59.6404 38.6737 59.7968 38.692 59.9532C38.698 60.006 38.7021 60.0588 38.7062 60.1117C38.7163 60.2173 38.7265 60.3209 38.7326 60.4265C38.7366 60.4915 38.7346 60.5565 38.7366 60.6195C38.7387 60.715 38.7407 60.8084 38.7407 60.9039C38.7407 60.973 38.7346 61.042 38.7326 61.1111C38.7285 61.2005 38.7245 61.2919 38.7184 61.3813C38.7123 61.4524 38.7062 61.5235 38.698 61.5946C38.6899 61.6819 38.6798 61.7693 38.6696 61.8546C38.6594 61.9277 38.6493 61.9988 38.6391 62.0699C38.6269 62.1532 38.6148 62.2385 38.5985 62.3218C38.5863 62.3949 38.5721 62.466 38.5579 62.5371C38.5416 62.6184 38.5254 62.6996 38.5091 62.7809C38.4929 62.852 38.4787 62.9231 38.4624 62.9942C38.4482 63.0572 38.434 63.1181 38.4177 63.179C38.4035 63.2339 38.3913 63.2887 38.3791 63.3436C38.3669 63.3923 38.3527 63.4391 38.3405 63.4858C38.3222 63.5508 38.306 63.6158 38.2877 63.6788C38.1577 64.1318 37.9952 64.6132 37.8489 65.0235C37.6884 65.4644 37.5442 65.828 37.4548 66.0778C37.4548 66.0778 37.4548 66.0778 37.4569 66.0758C39.214 64.7046 40.4044 62.8215 41.2048 60.8226C43.1326 56.0225 42.8177 50.5682 42.7791 50.0055L42.773 50.0096Z" fill="white"/>
<path d="M29.1545 7.76906C31.32 6.91994 34.2797 6.64368 36.3314 7.23887C36.8413 7.65734 37.4466 8.04736 37.8955 7.37497C39.027 5.85956 34.8221 4.63667 33.8917 3.80583C31.9822 2.73123 30.0646 1.66272 28.0637 0.772976C26.5401 -0.165524 24.7423 0.0477715 24.2426 1.96946C21.5348 9.21135 19.2088 16.7498 15.9038 23.7581C15.2233 25.2877 14.5306 26.8661 13.4255 28.1398L13.0233 28.6131C13.3767 27.6949 13.7261 26.7686 14.1446 25.8646C9.33226 27.768 4.25786 29.2428 -0.00195312 32.2777C1.56221 34.7885 4.45897 36.2288 7.35775 36.4441C13.6774 35.9159 20.0661 35.1481 26.3959 34.7377C34.6738 33.2772 45.8708 40.1757 51.8146 31.8003C43.88 31.9852 35.5859 29.643 27.8971 28.2048C24.1451 27.378 20.2956 28.5461 16.5579 29.0783L16.5234 28.9462C24.1492 26.4456 26.1724 26.5248 33.6987 28.6517C39.3277 29.2652 36.3944 24.9444 34.8972 21.875C32.8008 17.7797 29.8696 11.4723 29.1525 7.76703L29.1545 7.76906Z" fill="white"/>
</g>
<defs>
<clipPath id="clip0_64_4525">
<rect width="149" height="71.5352" fill="white" transform="translate(0 0.232422)"/>
</clipPath>
</defs>
</svg>
