<svg width="1193" height="882" viewBox="0 0 1193 882" fill="none" xmlns="http://www.w3.org/2000/svg">
<path d="M1143.47 70.0962C1087.69 82.7412 1027.69 92.2014 965.364 99.2081C954.836 117.35 947.673 126.102 947.673 126.102C947.673 126.102 946.781 117.468 948.845 101.001C944.767 101.426 940.637 101.78 936.559 102.204C926.362 127.518 915.554 144.905 915.554 144.905C915.554 144.905 915.376 128.839 920.219 103.808C884.175 107.135 847.57 109.753 810.659 111.712C804.286 127.306 787.386 164.25 787.386 164.25C787.386 164.25 790.445 131.528 792.357 112.561C715.221 116.17 638.391 117.35 561.791 116.737C556.82 132 548.536 158.517 548.536 158.517C548.536 158.517 542.214 130.844 539.843 116.501C472.955 115.722 405.353 113.481 339.026 109.022C318.174 124.923 281.722 146.603 270.353 103.525C193.013 96.2827 118.478 85.5958 50.2641 70.1198C136.118 877.113 -129.371 942.273 327.3 844.203C329.263 836.394 335.202 796.289 335.202 796.289C335.202 796.289 339.153 827.807 344.124 842.245C360.744 840.405 377.695 838.848 394.774 837.432C397.451 803.413 404.792 799.426 407.494 836.371C469.998 831.629 534.618 829.576 597.096 829.6C620.879 802.021 656.668 805.749 680.655 830.85C721.288 832.077 762.048 834.271 801.763 837.597C807.345 808.839 814.61 791.429 814.61 791.429C814.61 791.429 817.975 805.206 815.757 838.848C824.705 839.673 833.575 840.546 842.395 841.49C844.587 827.618 849.941 819.904 849.941 819.904C849.941 819.904 854.58 826.958 854.503 842.811C871.608 844.769 888.279 847.034 904.67 849.487C917.848 841.23 922.182 820.588 933.271 808.863C938.573 800.983 958.889 783.455 959.654 803.484C965.516 819.762 964.854 841.749 961.412 859.325C1020.35 872.772 1143.09 920.026 1143.49 814.667C1143.49 814.667 1106.33 327.951 1143.42 70.1198L1143.47 70.0962ZM960.877 743.868C948.667 769.371 924.884 753.588 937.629 725.538C948.03 694.609 977.523 716.007 960.877 743.868Z" fill="url(#paint0_radial_71_5683)"/>
<path style="mix-blend-mode:multiply" opacity="0.35" d="M1143.47 70.0962C1099.68 80.0282 1053.28 87.9785 1005.21 94.3246C1043.19 139.951 1034.57 298.202 1027.87 431.635C1020.65 575.166 998.044 728.086 963.657 842.363C963.224 848.214 962.485 853.97 961.439 859.302C1020.37 872.749 1143.11 920.002 1143.52 814.643C1143.52 814.643 1106.36 327.927 1143.44 70.0962H1143.47Z" fill="url(#paint1_linear_71_5683)"/>
<path d="M1002.53 768.286C1005.61 807.141 1036.74 838.022 1064.01 841.702C1091.29 838.565 1096.87 821.626 1103.52 803.036C1103.52 803.036 1107.91 733.559 1109.74 713.341C1111.58 693.123 1016.29 665.851 1011.91 700.106L1002.53 768.286Z" fill="url(#paint2_linear_71_5683)"/>
<g style="mix-blend-mode:multiply" opacity="0.75">
<path d="M1002.53 768.286C1005.61 807.141 1036.74 838.022 1064.01 841.702C1091.29 838.564 1096.87 821.626 1103.52 803.036C1103.52 803.036 1107.91 733.559 1109.74 713.341C1111.58 693.123 1018.08 663.823 1013.69 698.054L1002.53 768.262V768.286Z" fill="#BC6182"/>
</g>
<path d="M1040.31 780.223C1040.28 788.338 1048.75 802.021 1048.75 802.021C1048.75 802.021 1062.54 808.934 1070.46 799.827L1073.96 749.46L1042.73 745.237L1040.31 780.247V780.223Z" fill="url(#paint3_linear_71_5683)"/>
<g style="mix-blend-mode:multiply" opacity="0.15">
<path d="M1143.47 70.096C1087.7 82.741 1027.69 92.2012 965.365 99.2079C954.837 117.35 947.674 126.102 947.674 126.102C947.674 126.102 946.782 117.468 948.847 101.001C944.768 101.425 940.639 101.779 936.56 102.204C926.364 127.518 915.556 144.905 915.556 144.905C915.556 144.905 915.377 128.839 920.221 103.808C884.176 107.135 847.571 109.753 810.661 111.711C804.288 127.305 787.387 164.25 787.387 164.25C787.387 164.25 790.421 131.528 792.358 112.561C715.223 116.17 638.393 117.35 561.792 116.736C556.822 132 548.537 158.517 548.537 158.517C548.537 158.517 542.215 130.844 539.819 116.5C472.931 115.722 405.329 113.481 339.002 109.022C318.15 124.923 281.698 146.603 270.329 103.525C192.99 96.2825 118.454 85.5956 50.2402 70.1196C82.2569 371.052 65.4073 568.82 55.3894 693.43C65.2799 570.683 105.861 386.646 80.3195 112.655C120.468 120.629 165.179 117.869 212.337 118.93C212.439 120.44 212.694 121.95 213.127 123.342C214.198 126.928 216.237 130.066 218.71 131.929C224.42 136.246 230.997 132.92 234.795 126.079C235.814 124.238 236.605 122.139 237.165 119.898C243.691 120.275 250.268 120.747 256.87 121.407C262.452 131.339 266.276 143.513 271.833 152.029C272.037 153.35 272.266 154.648 272.419 155.969C273.745 166.774 275.172 177.579 276.37 188.407C277.619 199.472 278.563 210.607 279.863 221.671C280.347 225.705 280.831 229.763 281.316 233.821C281.137 216.339 281.01 198.858 280.984 181.377C280.576 174.3 280.22 167.246 279.659 160.192C282.106 161.678 284.884 162.504 288.096 162.504C288.377 162.504 288.683 162.409 288.963 162.409C289.957 178.051 291.079 193.645 292.481 209.262C294.163 228.23 294.571 247.575 295.565 266.637C296.559 285.769 297.757 304.878 298.7 324.011C298.751 324.837 298.777 325.662 298.802 326.488C299.95 335.736 301.25 344.96 302.677 354.114C302.932 355.741 303.212 357.369 303.467 359.021C303.901 351.566 304.258 344.087 304.538 336.585C304.283 331.914 304.054 327.219 303.824 322.525C302.906 303.416 302.244 284.259 301.403 265.15C300.561 246.584 299.134 227.852 299.006 209.238C298.879 192.512 298.446 175.88 297.885 159.201C312.262 151.086 331.533 129.806 346.318 119.402C366.328 120.7 388.148 122.87 410.835 125.135C413.155 126.81 414.098 130.301 415.602 133.18C416.978 135.845 418.788 138.016 421.006 139.172C425.289 141.389 429.928 139.88 434.057 137.497C434.746 137.544 435.434 137.167 436.071 136.27C436.25 136.152 436.428 136.034 436.607 135.916C438.289 134.784 439.946 133.557 441.654 132.448C444.101 132.354 446.65 133.769 448.434 136.412C452.666 142.758 452.105 153.586 452.054 161.584C451.927 177.225 451.799 192.89 451.799 208.531C452.258 216.245 452.462 224.007 452.513 231.768C452.589 241.299 452.513 250.83 452.691 260.338C452.921 266.778 453.15 273.195 453.405 279.635C453.889 289.921 454.45 300.207 455.011 310.493C455.138 313.041 455.266 315.589 455.393 318.137C455.648 288.506 456.082 258.851 458.427 229.456C457.891 209.569 457.713 189.492 459.574 169.841C460.033 165.028 460.542 159.814 461.562 154.931C461.486 153.681 461.486 152.407 461.384 151.156C461.741 149.127 462.199 147.122 462.862 145.235C464.443 140.705 466.89 136.742 469.821 133.793C471.708 133.416 473.594 133.298 475.48 132.944C476.372 132.779 476.984 132.071 477.341 131.221C495.847 132.613 514.354 133.651 532.452 133.935C534.339 142.663 546.651 208.955 546.651 208.955C546.651 208.955 562.736 148.75 566.049 130.585C568.701 130.585 592.739 130.231 624.449 129.641C629.879 127.046 636.277 127.211 641.681 127.989C643.72 128.273 645.785 128.674 647.85 129.193C696.895 128.249 755.014 126.975 783.232 125.866C782.773 130.797 777.42 209.238 775.483 237.643C773.979 246.749 772.45 255.855 771.073 265.032C770.665 267.792 773.699 268.948 774.081 266.188C775.509 256.233 776.987 246.301 778.899 236.534C789.172 208.389 815.58 136.246 821.443 122.917C827.434 122.563 836.967 121.95 847.648 121.219C847.52 122.328 847.393 123.413 847.24 124.427C846.679 128.249 845.787 132 845.048 135.775C844.283 139.549 843.467 143.3 842.652 147.051C841.836 150.802 840.918 154.412 840.663 158.328C840.587 159.46 841.708 159.696 842.091 158.871C843.595 155.544 844.462 151.817 845.456 148.137C846.475 144.456 847.47 140.776 848.515 137.119C849.56 133.463 850.554 129.735 851.803 126.197C852.415 124.451 853.154 122.658 853.766 120.818C880.735 118.978 911.834 116.76 911.834 117.043L893.939 232.877L943.443 123.436L932.966 202.468C932.966 202.468 969.495 124.757 977.193 112.584C985.885 111.57 994.501 111.192 1003.04 111.216C1002.58 114.896 1002.17 118.553 1001.61 122.21C1000.75 127.966 999.88 133.699 998.962 139.431C997.076 151.133 995.47 162.881 993.66 174.606C993.482 175.715 994.629 176.163 994.884 175.078C997.509 163.66 1000.34 152.383 1002.89 140.941C1004.14 135.326 1005.44 129.759 1006.76 124.191C1007.78 119.874 1008.95 115.628 1010.05 111.334C1046.07 112.278 1080.56 119.095 1112.4 112.797C1086.04 372.232 1140.84 777.769 1143.6 814.595C1143.6 814.595 1106.43 327.88 1143.52 70.0488L1143.47 70.096ZM421.567 128.343C421.567 128.343 421.465 128.155 421.439 128.037C421.261 127.305 420.879 126.716 420.292 126.48C419.375 126.126 418.329 126.928 418.075 128.225C417.973 128.839 417.922 129.405 417.922 129.995C416.851 128.461 415.831 126.857 414.659 125.536C416.902 125.772 419.222 125.984 421.516 126.197C421.414 126.716 421.388 127.258 421.516 127.754C421.567 127.942 421.643 128.084 421.694 128.249C421.669 128.273 421.618 128.296 421.592 128.32L421.567 128.343Z" fill="#BC6182"/>
</g>
<g style="mix-blend-mode:multiply" opacity="0.15">
<path d="M1074.87 863.83C1074.87 863.83 995.316 861.023 975.051 841.701C974.771 841.442 973.47 802.94 965.874 786.426C962.577 779.255 958.89 772.578 954.811 766.397C965.874 759.32 976.733 739.88 974.643 718.082C972.68 697.652 968.704 693.429 953.562 693.429C938.42 693.429 919.404 721.031 931.64 762.764C917.722 847.717 870.513 826.249 863.324 825.329C860.902 818.062 857.002 751.086 857.002 751.086L855.983 753.351C856.518 748.586 857.079 743.844 857.691 739.078C858.481 732.921 858.838 726.763 859.449 720.559C859.475 720.252 859.22 720.158 859.118 720.441C857.41 726.245 855.6 731.788 854.249 737.757C852.924 743.631 851.649 749.529 850.426 755.451C849.228 761.254 848.004 767.081 847.086 772.979L823.711 824.527C823.507 823.489 822.36 773.899 821.544 739.173C821.646 737.875 821.774 736.578 821.876 735.28C822.284 729.878 822.641 724.475 822.972 719.096C823.941 705.696 824.858 692.273 825.572 678.849C825.674 676.891 825.776 674.957 825.878 672.999C825.572 652.12 825.648 631.218 825.827 610.34C825.47 611.755 825.139 613.171 824.782 614.562C824.756 614.728 824.731 614.893 824.68 615.034C824.476 617.771 824.297 620.531 824.068 623.173C822.386 641.811 820.499 660.401 818.587 678.991C816.854 695.977 815.452 713.033 813.999 730.09C813.464 736.46 812.929 742.829 812.419 749.199C806.683 778.476 799.724 813.321 797.277 822.167C787.667 821.46 776.629 820.044 765.005 818.44C764.547 817.001 763.782 815.727 762.762 814.736C762.66 814.642 762.533 814.524 762.431 814.406C762.253 814.028 761.615 813.509 761.411 813.25C760.749 812.448 760.137 811.598 759.55 810.702C759.27 810.277 759.015 809.876 758.735 809.428C758.582 809.192 758.429 808.933 758.301 808.673C757.945 808.06 758.021 808.178 758.505 809.027C758.327 809.027 757.817 807.659 757.715 807.423C757.46 806.88 757.231 806.338 756.976 805.771C755.778 802.94 753.076 801.69 750.858 802.516C749.813 801.289 748.691 800.18 747.34 799.661C745.403 798.906 743.185 799.614 741.707 801.572C742.854 800.039 741.07 802.185 740.789 802.634C740.33 803.294 739.897 804.191 739.566 804.993C739.03 806.267 738.571 807.611 738.087 808.909C737.985 809.169 737.934 809.452 737.832 809.688C736.991 810.348 736.277 811.268 735.895 812.448C735.487 813.769 735.232 815.066 735.13 816.387C729.293 815.798 723.302 816.104 717.694 813.745C716.394 813.203 715.171 812.424 714.024 811.528C705.331 810.56 696.97 809.853 689.323 809.593C673.773 796.193 655.089 774.631 636.761 774.631C619.758 774.631 599.06 796.17 585.141 808.98C584.657 808.461 584.122 808.013 583.484 807.659C584.224 808.083 583.892 808.036 583.561 807.376C583.255 806.809 582.771 806.267 582.439 805.748C581.777 804.71 581.165 803.624 580.553 802.539C579.431 800.581 578.335 798.647 576.959 797.019C573.543 792.985 568.827 791.593 564.774 794.731C562.505 796.476 561.027 799.119 559.803 802.091C558.937 802.728 558.197 803.601 557.611 804.663C552.793 805.064 548.001 805.653 543.183 806.55C539.997 807.14 536.836 807.824 533.701 808.602C530.31 809.452 526.589 809.853 524.779 814.5C524.524 815.114 524.396 815.892 524.32 816.671C520.547 815.916 516.826 814.429 513.308 812.283C504.488 812.684 495.694 813.132 486.976 813.604C486.67 814.807 485.905 815.703 484.682 815.515C479.838 814.807 475.021 815.137 470.203 816.057C467.73 816.529 465.257 817.095 462.759 817.591C460.414 818.039 457.84 818.959 455.469 818.511C453.761 818.18 452.283 817.119 450.906 815.751C437.88 816.576 425.237 817.426 413.256 818.204C407.903 801.808 406.501 748.185 400.893 748.185C391.538 748.185 386.261 821.365 386.261 821.365L349.707 826.084C349.707 826.084 342.289 761.183 337.471 719.026C337.114 699.61 336.197 680.17 335.279 660.967C334.846 652.167 334.54 643.344 334.285 634.521C333.546 626.83 332.908 619.116 332.399 611.378C331.761 615.199 331.15 619.021 330.436 622.82C330.563 636.031 330.64 649.242 330.512 662.453C330.359 678.141 330.308 693.971 330.614 709.801C326.459 748.397 319.067 816.836 318.226 822.167C303.059 826.39 288.503 830.071 274.534 833.35C272.801 836.016 270.889 838.304 268.416 839.625C265.255 841.3 261.763 841.371 258.424 841.064C258.322 840.923 258.245 840.757 258.118 840.639C255.085 837.03 251.72 835.19 247.973 833.987C244.353 831.698 240.708 829.481 236.859 828.089C231.556 826.178 225.643 824.833 220.544 828.396C216.058 831.533 212.897 837.408 209.966 842.881C208.462 845.688 206.575 848.944 204.409 851.539C202.216 852.718 199.973 853.686 197.653 854.087C193.065 854.889 188.936 853.237 185.214 850.312C158.092 854.157 135.965 855.998 119.881 856.729C68.032 859.088 60.1808 838.115 52.2276 818.511C50.0099 801.006 49.6021 785.152 50.5707 763.283C43.7901 902.614 77.2597 897.872 327.402 844.155C329.365 836.346 335.305 796.24 335.305 796.24C335.305 796.24 339.256 827.759 344.226 842.197C360.847 840.356 377.798 838.799 394.877 837.384C397.554 803.365 404.895 799.378 407.597 836.322C470.101 831.58 534.72 829.528 597.199 829.552C620.982 801.973 656.771 805.701 680.758 830.802C721.391 832.029 762.151 834.223 801.865 837.549C806.479 813.769 812.24 797.774 814.101 792.938C814.407 792.985 814.687 792.867 814.968 792.631C815.707 796.665 817.721 810.891 815.86 838.776C824.807 839.602 833.678 840.474 842.498 841.418C844.69 827.546 850.043 819.832 850.043 819.832C850.043 819.832 854.683 826.886 854.606 842.739C871.711 844.697 888.382 846.962 904.772 849.416C917.951 841.159 922.285 820.516 933.373 808.791C938.675 800.911 958.992 783.383 959.756 803.412C965.619 819.69 964.957 841.678 961.515 859.253C1020.45 872.7 1143.19 919.954 1143.6 814.595C1140.44 844.839 1121.7 863.783 1074.92 863.783L1074.87 863.83ZM937.63 725.513C948.031 694.585 977.524 715.982 960.878 743.844C948.668 769.346 924.885 753.563 937.63 725.513Z" fill="#BC6182"/>
</g>
<g style="mix-blend-mode:multiply" opacity="0.15">
<path d="M50.4697 763.307C51.3874 744.198 53.0953 722.376 55.0836 697.604C52.8404 725.584 51.2345 746.321 50.4697 763.307Z" fill="#BC6182"/>
</g>
<g style="mix-blend-mode:multiply" opacity="0.15">
<path d="M55.4133 693.429C55.4133 693.429 55.4133 693.429 55.4133 693.405C55.4133 693.664 55.3623 693.923 55.3623 694.205C55.3623 693.946 55.4133 693.711 55.4133 693.452V693.429Z" fill="#BC6182"/>
</g>
<g style="mix-blend-mode:multiply" opacity="0.15">
<path d="M767.453 805.182C767.631 805.252 767.784 805.276 767.963 805.3C770.537 807.21 773.545 807.022 776.094 805.087C778.006 803.625 779.408 801.124 780.02 798.269C780.198 797.656 780.377 797.066 780.555 796.453C780.912 794.943 780.708 793.693 780.555 792.183C780.504 791.852 780.453 791.522 780.377 791.215C780.147 790.343 779.892 789.422 779.561 788.62C779.23 787.795 778.72 786.993 778.312 786.285C778.159 786.025 778.006 785.813 777.828 785.601C777.394 785.082 776.936 784.563 776.477 784.114C776.375 784.02 776.247 783.926 776.145 783.855C775.533 783.43 774.871 783.006 774.208 782.746C774.106 782.699 774.004 782.675 773.928 782.652C773.316 782.487 772.678 782.369 772.067 782.298C771.837 782.274 771.608 782.298 771.378 782.298C770.69 782.416 769.925 782.439 769.263 782.793C768.651 783.1 768.014 783.454 767.427 783.902C766.816 784.374 766.28 785.034 765.77 785.648C765.108 786.426 764.572 787.488 764.114 788.479C763.629 789.54 763.272 790.767 763.094 792.018C762.966 792.985 762.839 793.999 762.813 794.99C762.813 795.981 762.941 796.995 763.043 797.963C763.196 799.236 763.578 800.534 764.088 801.619C764.853 803.341 766.051 804.686 767.453 805.229V805.182Z" fill="#BC6182"/>
</g>
<g style="mix-blend-mode:multiply" opacity="0.15">
<path d="M520.853 794.754C520.981 795.344 521.235 795.863 521.567 796.288C521.873 796.759 522.23 797.066 522.663 797.278C523.071 797.585 523.504 797.703 523.963 797.679C524.269 797.632 524.575 797.561 524.855 797.514C525.441 797.278 525.926 796.877 526.359 796.288C526.538 795.957 526.716 795.651 526.894 795.32C527.2 794.589 527.353 793.787 527.353 792.914C527.353 792.537 527.353 792.136 527.353 791.758C527.353 791.569 527.353 791.357 527.353 791.168C527.353 790.602 527.277 790.012 527.175 789.446C527.073 788.715 526.945 788.007 526.792 787.276C526.691 786.945 526.589 786.615 526.487 786.285C526.308 785.789 526.053 785.412 525.722 785.105C525.543 784.846 525.314 784.657 525.059 784.563C524.702 784.303 524.32 784.185 523.912 784.209L523.122 784.35C522.892 784.492 522.637 784.633 522.408 784.775C522.051 785.034 521.771 785.388 521.567 785.86C521.312 786.261 521.133 786.733 521.032 787.276C520.879 787.983 520.777 788.715 520.649 789.446C520.573 790.012 520.471 790.578 520.471 791.168C520.471 791.357 520.471 791.546 520.471 791.711C520.471 792.112 520.471 792.513 520.471 792.914C520.471 793.575 520.547 794.188 520.777 794.754H520.853Z" fill="#BC6182"/>
</g>
<g style="mix-blend-mode:multiply" opacity="0.15">
<path d="M231.124 801.997C231.302 802.327 231.455 802.681 231.659 802.987C232.041 803.648 232.551 804.214 233.061 804.615C233.571 805.016 234.132 805.441 234.743 805.583C235.126 805.677 235.508 805.771 235.891 805.771C236.808 805.771 237.802 805.276 238.414 804.309C239 803.365 239.255 802.775 239.561 801.572C239.867 800.369 239.816 798.741 239.561 797.561C239.179 795.698 238.261 794.164 237.089 793.197C236.63 792.82 236.12 792.489 235.61 792.371C234.743 792.159 233.8 791.994 232.934 792.442C232.679 792.536 232.475 792.772 232.271 792.938C232.245 792.938 232.194 792.937 232.169 792.985C232.169 792.985 232.169 793.008 232.143 793.032C231.939 793.197 231.71 793.244 231.557 793.456C231.124 793.858 230.767 794.4 230.512 795.061C230.385 795.509 230.232 795.981 230.104 796.429C229.9 797.443 229.9 798.458 230.104 799.472C230.257 800.487 230.716 801.218 231.149 801.997H231.124Z" fill="#BC6182"/>
</g>
<g style="mix-blend-mode:multiply" opacity="0.2">
<path d="M1040.31 780.223C1040.28 788.338 1048.75 802.021 1048.75 802.021C1048.75 802.021 1062.54 808.934 1070.46 799.827L1073.96 749.46L1042.73 745.237L1040.31 780.247V780.223Z" fill="#BC6182"/>
</g>
<path d="M1040.31 780.223C1040.36 766.587 1048.95 751.63 1071.81 754.72C1093.89 762.671 1100.29 780.246 1103.53 803.036C1103.53 803.036 1107.78 741.604 1109.41 718.272C1111.04 694.94 1047.24 680.714 1045.23 709.59C1043.75 731.082 1040.33 780.223 1040.33 780.223H1040.31Z" fill="url(#paint4_linear_71_5683)"/>
<g style="mix-blend-mode:multiply" opacity="0.15">
<path d="M1044.41 722.518L1043.19 738.773C1056.16 721.315 1087.03 727.307 1094.35 744.812C1094.02 754.178 1093.2 763.614 1092.03 767.366C1098.45 775.056 1100.82 789.659 1103.45 801.833C1103.45 801.833 1108.34 742.241 1109.44 716.951C1109.46 716.314 1046.12 704.565 1044.41 722.542V722.518Z" fill="#8E1613"/>
</g>
<path d="M1193.3 97.1085C1192.41 70.8512 1184.46 49.4302 1172.73 33.4588C1167.53 44.358 1161.06 54.1013 1155.42 64.5287C1153.84 67.4541 1150.63 65.7791 1151.17 62.028C1153.26 47.3541 1155.65 32.8454 1159.3 18.832C1155.88 15.8831 1152.24 13.3824 1148.54 11.1176C1147.34 15.3877 1146.22 19.7049 1145.25 24.0929C1144.49 27.6081 1140.66 26.9475 1140.66 23.2201C1140.66 17.8412 1140.77 12.4859 1141.15 7.13068C1107.27 -8.72279 1066.84 3.42682 1052.29 50.7513C1058.51 161.82 1051.04 321.723 1043.88 408.705C1036.25 501.183 1007.14 747.431 1002.5 768.309C1006.33 755.476 1011.45 745.732 1017.54 738.49C1017.52 738.089 1017.52 737.688 1017.59 737.287C1018.23 733.842 1019.53 730.752 1021.09 727.897C1021.44 723.604 1022.26 719.333 1023.23 715.276C1023.64 713.601 1024.83 712.516 1026.11 713.011C1026.31 713.082 1026.49 713.271 1026.69 713.436C1026.75 713.271 1026.8 713.105 1026.85 712.94C1027.61 710.817 1030.11 710.817 1030.88 712.94C1032.02 716.149 1033.3 719.31 1034.11 722.731C1034.32 723.651 1034.44 724.618 1034.55 725.562C1045.94 720.513 1059.14 720.301 1073.32 723.344C1108.09 730.846 1142.45 758.755 1143.52 814.69C1140.21 731.058 1144.41 514.63 1151.14 415.169C1156.6 334.675 1171.99 208.767 1193.28 97.1321L1193.3 97.1085Z" fill="url(#paint5_linear_71_5683)"/>
<path d="M1159.3 18.7847C1155.88 15.8358 1152.24 13.3351 1148.54 11.0703C1147.6 14.4675 1146.71 17.8882 1145.89 21.3562C1150.35 19.5632 1154.84 18.7611 1159.3 18.7847Z" fill="#FFB64A"/>
<path style="mix-blend-mode:multiply" opacity="0.35" d="M203.313 96.212C203.313 96.212 203.313 96.1884 203.313 96.1648C149.986 89.5356 98.5193 81.019 50.2905 70.0962C130.23 821.532 -94.4216 929.746 242.926 861.92C197.858 780.105 183.175 600.291 170.888 464.711C157.709 319.458 150.623 163.023 203.364 96.212H203.313Z" fill="url(#paint6_linear_71_5683)"/>
<path d="M165.561 782.323C165.306 778.501 169.41 778.123 170.149 781.45C172.163 790.509 174.763 799.261 177.312 808.014C184.807 796.619 190.032 783.03 191.205 768.286L181.824 700.106C177.44 665.875 82.1547 693.147 83.99 713.341C85.8254 733.559 90.2098 803.036 90.2098 803.036C96.863 821.626 102.445 838.588 129.721 841.702C142.747 839.933 156.614 831.935 167.906 819.857C167.116 807.33 166.351 794.826 165.536 782.299L165.561 782.323Z" fill="url(#paint7_linear_71_5683)"/>
<g style="mix-blend-mode:multiply" opacity="0.75">
<path d="M165.561 782.323C165.306 778.501 169.41 778.123 170.149 781.45C172.163 790.509 174.763 799.261 177.312 808.014C184.807 796.619 190.032 783.03 191.205 768.286L181.824 700.106C177.44 665.875 82.1547 693.147 83.99 713.341C85.8254 733.559 90.2098 803.036 90.2098 803.036C96.863 821.626 102.445 838.588 129.721 841.702C142.747 839.933 156.614 831.935 167.906 819.857C167.116 807.33 166.351 794.826 165.536 782.299L165.561 782.323Z" fill="#BC6182"/>
</g>
<path d="M153.425 780.223C153.451 788.338 144.988 802.021 144.988 802.021C144.988 802.021 131.197 808.934 123.27 799.827L119.777 749.46L151.004 745.237L153.425 780.247V780.223Z" fill="url(#paint8_linear_71_5683)"/>
<g style="mix-blend-mode:multiply" opacity="0.2">
<path d="M153.425 780.223C153.451 788.338 144.988 802.021 144.988 802.021C144.988 802.021 131.197 808.934 123.27 799.827L119.777 749.46L151.004 745.237L153.425 780.247V780.223Z" fill="#BC6182"/>
</g>
<path d="M153.426 780.223C153.375 766.587 144.784 751.63 121.919 754.721C99.8438 762.671 93.4456 780.247 90.2082 803.036C90.2082 803.036 85.9512 741.604 84.3198 718.272C82.6884 694.94 146.492 680.714 148.506 709.59C149.984 731.082 153.4 780.223 153.4 780.223H153.426Z" fill="url(#paint9_linear_71_5683)"/>
<g style="mix-blend-mode:multiply" opacity="0.15">
<path d="M148.531 709.566C149.016 716.597 150.571 739.008 150.571 739.008C139.202 724.57 106.369 727.283 99.0789 744.812C99.4103 754.178 100.226 763.614 101.399 767.365C94.9749 775.056 92.6042 789.659 89.9787 801.833L83.9883 716.95C83.9883 716.95 146.849 691.613 148.531 709.59V709.566Z" fill="#8E1613"/>
</g>
<path d="M149.832 408.681C142.669 321.699 135.2 161.796 141.42 50.7275C134.13 26.9945 120.314 12.1319 104.076 5.14882C103.082 5.4791 102.088 5.88016 101.068 6.09248C97.7541 6.80023 94.5932 5.45551 91.3559 4.58263C89.9029 4.20516 87.6597 4.13439 86.742 4.3939C86.5636 4.51185 86.3852 4.62981 86.2322 4.79495C84.04 6.84741 82.1027 9.48965 79.783 11.5657C77.5143 13.571 74.3534 14.9157 72.5436 11.2118C71.2435 8.56959 71.2435 4.84213 71.6514 1.16187C54.5979 3.73334 37.672 13.2171 24.5951 28.8111C25.1814 40.536 25.8442 52.2846 25.8696 64.0567C25.8696 68.374 21.5872 68.0909 21.2048 64.0567C20.4146 55.4694 19.1655 46.9765 17.5086 38.6251C7.7201 53.936 1.2454 73.5641 0.429688 97.1084C21.7146 208.743 37.1112 334.651 42.5662 415.145C49.2958 514.607 47.5115 735.564 50.2645 810.538C49.6017 792.538 55.8725 783.88 62.2707 765.903C62.1178 765.006 61.9903 764.11 61.8374 763.214C61.353 760.052 60.9197 756.797 60.8687 753.565C60.8687 750.852 61.1491 747.997 62.2452 745.709C63.1884 743.727 64.259 741.698 65.712 740.377C66.8846 739.292 68.465 739.009 69.7141 740.047C70.8102 740.99 71.422 742.665 71.7533 744.34C72.1867 746.558 72.3142 748.917 72.3142 751.276C85.442 736.107 102.852 727.095 120.416 723.32C126.61 721.976 132.575 721.315 138.336 721.339C140.987 718.461 143.638 715.512 146.62 713.341C148.328 712.091 150.291 711.006 152.254 711.194C152.534 711.218 152.789 711.312 153.044 711.383C153.452 711.383 153.834 711.548 154.217 711.808C155.313 712.35 156.332 713.223 157.25 714.332C158.881 716.314 160.156 718.885 161.43 721.291C162.782 723.863 164.133 726.434 165.484 728.982C176.419 736.107 185.315 748.563 191.204 768.286C188.451 748.233 157.454 501.159 149.832 408.681Z" fill="url(#paint10_linear_71_5683)"/>
<path d="M1103.53 803.036C1099.73 785.861 1094.5 766.823 1078.72 759.533C1063.23 752.385 1050.53 759.628 1045.33 768.97C1040.59 777.486 1040.64 789.329 1049.31 801.361C1053.79 803.13 1060.06 805.961 1070.46 799.804C1064.12 808.556 1052.82 806.244 1048.75 804.499C1040.33 794.59 1037.68 778.312 1043.6 766.705C1049.51 755.122 1061.49 748.776 1078.98 756.396C1095.68 763.662 1102.69 786.852 1103.53 803.036Z" fill="#FFCFA4"/>
<path d="M90.3105 803.673C94.1087 786.498 99.3343 767.46 115.113 760.17C130.612 753.022 143.612 759.415 148.812 768.758C153.554 777.274 153.197 789.943 144.53 801.998C140.043 803.767 133.773 806.598 123.372 800.441C129.72 809.193 141.012 806.881 145.091 805.136C153.503 795.227 156.077 777.864 150.189 766.257C144.275 754.674 132.371 749.389 114.884 757.033C98.1873 764.299 91.1772 787.489 90.336 803.673H90.3105Z" fill="#FFCFA4"/>
<path d="M1143.27 804.522C1141.18 762.765 1108.9 728.251 1074.9 722.825C1061.39 720.654 1047.75 720.466 1034.42 724.075C1032.28 711.619 1022.18 689.891 1017.6 738.466C1009.64 746.982 1002.56 766.823 1002.56 766.823C1009.36 754.838 1012.4 745.709 1021.04 738.938C1020.6 721.456 1026.59 699.564 1032.71 727.543C1046.2 723.721 1075.2 726.977 1091.67 733.535C1107.71 739.929 1132.25 761.019 1143.27 804.546V804.522Z" fill="#FFCFA4"/>
<path d="M50.5206 801.833C51.3618 790.768 57.4287 772.037 62.2464 765.879C58.2189 750.498 61.1758 740.07 66.6309 737.994C69.3329 736.98 73.8193 740.495 72.2899 751.252C84.5 735.776 109.685 720.442 136.578 723.108C148.049 704.258 158.373 703.126 165.459 728.982C178.409 734.998 188.503 752.479 191.18 768.285C185.572 753.47 177.822 741.438 162.375 731.742C159.851 719.876 152.255 706.334 137.572 727.543C123.603 727.543 93.2179 731.459 70.1741 759.368C72.3409 735.8 62.221 733.748 65.1014 765.266C61.4562 771.942 55.5678 780.317 50.4951 801.856L50.5206 801.833Z" fill="#FFCFA4"/>
<path d="M501.454 161.042C501.071 161.042 501.071 161.888 501.454 161.888C501.836 161.888 501.836 161.042 501.454 161.042Z" fill="#BC6182"/>
<g style="mix-blend-mode:multiply" opacity="0.15">
<path d="M140.273 76.6075C140.604 67.7607 140.961 59.1026 141.446 50.7512C134.155 27.0182 120.339 12.1556 104.101 5.17251C103.107 5.50279 102.113 5.90384 101.093 6.11616C97.7796 6.82391 94.6187 5.47919 91.3814 4.60631C89.9284 4.22885 87.6852 4.15807 86.7675 4.41758C86.5891 4.53554 86.4106 4.65349 86.2577 4.81863C84.0655 6.87109 82.1282 9.51334 79.8085 11.5894C77.5398 13.5947 74.3789 14.9394 72.5691 11.2355C71.269 8.59327 71.269 4.86582 71.6769 1.18555C54.6234 3.75702 37.6974 13.2408 24.6206 28.8347C25.2069 40.5597 25.8696 52.3083 25.8951 64.0804C25.8951 68.3976 21.6127 68.1145 21.2303 64.0804C20.4401 55.4931 19.191 47.0002 17.5341 38.6488C7.7201 53.9361 1.2454 73.5642 0.429688 97.1085C1.98464 105.318 3.51409 113.622 5.01806 121.974C5.01806 106.073 8.02599 91.9419 15.2144 74.6494C17.9929 88.2381 30.2541 130.042 30.2541 130.042C30.2541 130.042 34.2817 75.6638 36.2954 50.4917C56.3058 34.827 81.4654 27.8439 102.878 35.228C103.005 55.2808 104.127 75.4279 104.254 95.4571C104.407 120.087 103.77 144.763 105.299 169.298C105.376 170.667 106.752 170.667 106.829 169.298C108.435 144.763 107.874 120.087 108.078 95.4571C108.256 76.3952 109.378 57.2389 109.633 38.1298C122.353 44.6882 133.288 56.9794 140.222 76.5839L140.273 76.6075Z" fill="#BC6182"/>
</g>
<g style="mix-blend-mode:multiply" opacity="0.15">
<path d="M181.517 691.401C172.901 676.09 158.294 668.564 141.827 666.937C141.216 663.823 140.629 660.732 140.145 657.665C138.412 646.388 137.06 634.994 135.811 623.599C134.486 611.52 133.313 599.418 132.319 587.268C131.402 575.756 129.821 564.243 129.005 552.754C128.954 552.117 128.266 552.093 128.266 552.754C128.394 558.982 127.858 565.139 128.113 571.344C128.317 576.652 128.725 581.96 129.107 587.268C129.872 598.521 130.815 609.775 131.937 620.98C133.084 632.422 134.511 643.793 135.888 655.188C136.347 658.868 136.704 662.737 137.06 666.654C129.668 666.441 121.995 667.314 114.374 669.178C113.405 657.972 112.207 646.907 110.805 635.796C110.728 635.183 110.015 635.324 110.015 635.937C110.219 647.332 110.652 658.609 111.34 669.98C85.3139 677.199 60.4602 695.435 50.6462 718.555L48.7344 723.014C48.7344 765.431 48.9128 791.948 50.2638 811.458C50.7227 790.131 55.6169 783.88 62.2191 765.879C62.0661 764.983 61.9387 764.086 61.7857 763.19C61.3014 760.029 60.8681 756.773 60.8171 753.541C60.8171 750.828 61.0975 747.973 62.1936 745.685C63.1368 743.703 64.2074 741.674 65.6604 740.353C66.8329 739.268 68.4134 738.985 69.6624 740.023C70.7585 740.967 71.3703 742.642 71.7017 744.317C72.1351 746.534 72.2625 748.893 72.2625 751.253C85.3904 736.083 102.801 727.071 120.364 723.297C126.558 721.952 132.523 721.291 138.284 721.315C140.935 718.437 143.586 715.488 146.569 713.318C148.277 712.067 150.239 710.982 152.202 711.171C152.483 711.194 152.737 711.289 152.992 711.359C153.4 711.359 153.783 711.524 154.165 711.784C155.261 712.327 156.281 713.199 157.198 714.308C158.83 716.29 160.104 718.861 161.379 721.268C162.73 723.839 164.081 726.411 165.432 728.959C176.368 736.083 185.264 748.54 191.152 768.262C189.776 762.081 181.491 691.401 181.466 691.401H181.517Z" fill="#BC6182"/>
</g>
<g style="mix-blend-mode:multiply" opacity="0.15">
<path d="M1142.4 738.112C1137 718.295 1125.98 703.456 1112.5 693.217C1109.11 690.646 1107.15 685.55 1107.5 680.195C1107.94 673.542 1108.47 665.073 1108.73 660.779C1109.21 652.451 1109.06 644.336 1110.03 636.055C1110.05 635.819 1109.8 635.725 1109.77 635.961C1108.65 643.604 1106.71 650.894 1105.62 658.514C1105.16 661.605 1104.6 666.724 1104.09 671.796C1103.3 679.416 1097.87 684.064 1092.57 681.917C1059.76 668.635 1022.18 676.113 1011.96 700.13C1008.09 730.893 1003.83 762.694 1002.58 768.309C1006.41 755.475 1011.53 745.732 1017.62 738.489C1017.6 738.088 1017.6 737.687 1017.67 737.286C1018.31 733.842 1019.61 730.751 1021.16 727.897C1021.52 723.603 1022.34 719.333 1023.31 715.275C1023.71 713.6 1024.91 712.515 1026.19 713.011C1026.39 713.081 1026.57 713.27 1026.77 713.435C1026.82 713.27 1026.87 713.105 1026.93 712.94C1027.69 710.817 1030.19 710.817 1030.95 712.94C1032.1 716.148 1033.38 719.31 1034.19 722.73C1034.39 723.65 1034.52 724.618 1034.62 725.561C1046.02 720.513 1059.22 720.3 1073.4 723.344C1108.17 730.846 1142.53 758.754 1143.6 814.69C1142.88 796.807 1142.45 738.135 1142.45 738.135L1142.4 738.112Z" fill="#BC6182"/>
</g>
<g style="mix-blend-mode:multiply" opacity="0.15">
<path d="M1193.3 97.1085C1192.41 70.8512 1184.46 49.4302 1172.73 33.4588C1171.48 36.0774 1170.16 38.6017 1168.81 41.1024C1168.53 41.6214 1168.25 42.1168 1167.97 42.6358C1163.86 50.02 1159.45 57.0974 1155.45 64.5287C1153.87 67.4541 1150.66 65.7791 1151.19 62.028C1153.28 47.3541 1155.68 32.8454 1159.33 18.832C1157.97 17.6761 1156.6 16.638 1155.2 15.6C1153.03 13.9958 1150.84 12.4859 1148.57 11.1176C1147.37 15.3877 1146.25 19.7049 1145.28 24.0929C1144.52 27.6081 1140.69 26.9475 1140.69 23.2201C1140.69 17.8412 1140.79 12.4859 1141.18 7.13068C1107.3 -8.72279 1066.87 3.42682 1052.31 50.7513C1052.8 59.433 1053.21 68.4449 1053.51 77.6692C1058.1 58.3006 1075.31 41.5506 1096.36 35.582C1102.02 33.9778 1107.15 40.6541 1106.51 48.6752C1106.51 48.7224 1106.51 48.7696 1106.51 48.8168C1106.02 54.9034 1105.57 61.0136 1105.08 67.1002C1104.57 73.4935 1105.08 79.6744 1105.06 86.0677C1105.06 86.5395 1105.57 86.6339 1105.64 86.1857C1106.61 80.5001 1108.04 75.1685 1108.67 69.3886C1109.26 63.2312 1109.85 57.0974 1110.43 50.94C1110.54 49.8548 1110.64 48.7696 1110.74 47.6844C1111.53 39.1915 1117.06 33.0813 1123.15 34.1429C1130.75 35.464 1138.4 38.3658 1145.76 43.1784L1137.58 118.765L1169.16 56.1773C1184.08 67.9731 1190.25 93.098 1189.28 118.765C1190.6 111.499 1191.93 104.257 1193.3 97.0849V97.1085Z" fill="#BC6182"/>
</g>
<g style="mix-blend-mode:multiply" opacity="0.15">
<path d="M1136.46 169.841C1132.71 193.786 1131.34 218.463 1128.28 242.597C1125.22 266.707 1122.57 291.006 1120.04 315.235C1115.05 363.149 1110.59 411.111 1107.2 459.308C1105.26 486.65 1104.11 514.064 1102.2 541.406C1102.12 542.633 1103.47 542.609 1103.58 541.406C1107.2 492.926 1112.63 444.728 1116.75 396.319C1120.86 348.098 1124.55 299.782 1128.96 251.609C1130.24 237.548 1131.44 223.488 1132.99 209.474C1134.45 196.334 1136.26 183.17 1137.12 169.935C1137.15 169.416 1136.54 169.298 1136.46 169.817V169.841Z" fill="#BC6182"/>
</g>
<g style="mix-blend-mode:multiply" opacity="0.15">
<path d="M96.8872 476.27C95.4343 455.51 94.4146 434.678 93.1401 413.894C90.591 372.727 88.2968 331.536 86.0281 290.346C84.7281 266.801 84.1418 243.163 82.6888 219.642C82.6378 218.887 81.8221 218.84 81.8221 219.642C81.5927 240.709 82.4339 261.918 82.8927 282.985C83.3515 303.604 83.9633 324.2 84.8045 344.795C86.5124 386.575 89.5459 428.096 92.8087 469.665C94.6185 492.784 96.2755 515.998 99.2069 538.882C99.3854 540.345 101.144 540.014 101.068 538.528C100.15 517.72 98.3147 497.007 96.8618 476.247L96.8872 476.27Z" fill="#BC6182"/>
</g>
<g style="mix-blend-mode:multiply" opacity="0.15">
<path d="M240.019 143.536C237.47 144.622 235.456 147.547 234.844 151.227C234.232 154.931 234.819 158.777 236.577 161.678C236.73 161.938 236.985 162.127 237.164 162.362C237.699 163.141 238.26 163.872 238.948 164.368C244.097 168.284 250.75 162.221 250.75 154.2C250.75 146.816 244.964 141.437 240.019 143.536Z" fill="#BC6182"/>
</g>
<path d="M234.946 758.259C234.665 758.259 234.665 758.847 234.946 758.847C235.226 758.847 235.226 758.259 234.946 758.259Z" fill="#BC6182"/>
<defs>
<radialGradient id="paint0_radial_71_5683" cx="0" cy="0" r="1" gradientUnits="userSpaceOnUse" gradientTransform="translate(595.641 476.703) scale(437.15 612.92)">
<stop stop-color="#FFC488"/>
<stop offset="0.34" stop-color="#FFBF85"/>
<stop offset="0.69" stop-color="#FFB37E"/>
<stop offset="1" stop-color="#FFA274"/>
</radialGradient>
<linearGradient id="paint1_linear_71_5683" x1="1128.97" y1="476.035" x2="1032.36" y2="474.823" gradientUnits="userSpaceOnUse">
<stop stop-color="#8E1613"/>
<stop offset="1" stop-color="#FFA8A6"/>
</linearGradient>
<linearGradient id="paint2_linear_71_5683" x1="1003.59" y1="758.255" x2="1107.1" y2="769.103" gradientUnits="userSpaceOnUse">
<stop stop-color="#FFA274"/>
<stop offset="1" stop-color="#FFC488"/>
</linearGradient>
<linearGradient id="paint3_linear_71_5683" x1="1039.75" y1="773.944" x2="1072.83" y2="777.412" gradientUnits="userSpaceOnUse">
<stop stop-color="#FFA274"/>
<stop offset="1" stop-color="#FFC488"/>
</linearGradient>
<linearGradient id="paint4_linear_71_5683" x1="1041.58" y1="744.197" x2="1108.97" y2="751.259" gradientUnits="userSpaceOnUse">
<stop stop-color="#FFC488"/>
<stop offset="1" stop-color="#FFA274"/>
</linearGradient>
<linearGradient id="paint5_linear_71_5683" x1="1016" y1="397.46" x2="1185.42" y2="415.216" gradientUnits="userSpaceOnUse">
<stop stop-color="#FFA274"/>
<stop offset="0.37" stop-color="#FFC488"/>
<stop offset="0.68" stop-color="#FFA274"/>
<stop offset="1" stop-color="#BF7258"/>
</linearGradient>
<linearGradient id="paint6_linear_71_5683" x1="63.2144" y1="474.761" x2="161.481" y2="473.852" gradientUnits="userSpaceOnUse">
<stop stop-color="#8E1613"/>
<stop offset="1" stop-color="#FFA8A6"/>
</linearGradient>
<linearGradient id="paint7_linear_71_5683" x1="190.139" y1="758.272" x2="86.6314" y2="769.12" gradientUnits="userSpaceOnUse">
<stop stop-color="#FFA274"/>
<stop offset="1" stop-color="#FFC488"/>
</linearGradient>
<linearGradient id="paint8_linear_71_5683" x1="153.98" y1="773.961" x2="120.896" y2="777.429" gradientUnits="userSpaceOnUse">
<stop stop-color="#FFA274"/>
<stop offset="1" stop-color="#FFC488"/>
</linearGradient>
<linearGradient id="paint9_linear_71_5683" x1="152.141" y1="744.191" x2="84.7572" y2="751.253" gradientUnits="userSpaceOnUse">
<stop stop-color="#FFC488"/>
<stop offset="1" stop-color="#FFA274"/>
</linearGradient>
<linearGradient id="paint10_linear_71_5683" x1="177.517" y1="395.434" x2="8.5761" y2="413.14" gradientUnits="userSpaceOnUse">
<stop stop-color="#FFA274"/>
<stop offset="0.37" stop-color="#FFC488"/>
<stop offset="0.68" stop-color="#FFA274"/>
<stop offset="1" stop-color="#BF7258"/>
</linearGradient>
</defs>
</svg>
