<svg width="136" height="38" viewBox="0 0 136 38" fill="none" xmlns="http://www.w3.org/2000/svg">
<path d="M29.1774 0.555016C28.226 0.630817 26.2124 0.5914 25.1563 0.509535C24.2234 0.44283 23.3612 0.727842 22.727 1.30999C22.0188 1.95885 21.8094 2.75324 21.7478 3.34752C21.6832 2.76537 21.4738 1.98917 20.7811 1.35244C20.3346 0.943117 19.5464 0.470119 18.3179 0.558048C17.3665 0.633849 15.3528 0.594432 14.2967 0.512567C13.3638 0.448894 12.5017 0.730874 11.8674 1.31303C11.1592 1.96188 10.9499 2.75628 10.8883 3.35055C10.8236 2.7684 10.6142 1.9922 9.92147 1.35547C9.47501 0.946149 8.68679 0.473151 7.45828 0.56108C6.50687 0.636881 4.49322 0.597464 3.43712 0.515599C2.50419 0.448894 1.64208 0.733906 1.00781 1.31606C0.000982582 2.2378 0.000976562 3.45668 0.000976562 3.97516V28.7408C0.000976562 30.6419 1.38345 32.5824 4.23151 34.6745C5.32763 35.4811 8.07715 37.3549 9.92147 37.3549C11.2393 37.3549 12.7141 36.6241 15.516 34.9838C16.96 35.9844 19.2292 37.3549 20.7841 37.3549C21.7725 37.3549 22.8932 37.0517 30.135 32.8584C30.4429 32.6795 30.6584 32.5551 30.7354 32.5127L30.7785 32.4884C31.927 31.8426 32.6382 30.5783 32.6382 29.1835V3.96909C32.6382 3.45971 32.6382 2.26205 31.6437 1.35244C31.1973 0.943117 30.4121 0.470119 29.1805 0.558048L29.1774 0.555016ZM29.4546 30.4479C28.9588 30.7147 21.794 34.9747 20.7564 34.9747C20.1252 34.9747 18.2778 33.9984 16.609 32.8007C16.1595 32.446 15.8424 32.1792 15.6176 32.1792C15.2573 32.1792 11.1561 34.9747 9.89376 34.9747C8.63137 34.9747 2.59349 31.2029 2.59349 28.9379V4.17527C2.59349 3.68711 2.59348 3.24443 3.22467 3.28688C4.35158 3.37481 6.51611 3.42029 7.63994 3.33236C8.27113 3.28688 8.27114 3.68711 8.27114 4.17527V27.2976C8.27114 28.8955 11.8304 30.8936 12.8681 30.8936C13.2745 30.8936 13.4531 30.6723 13.4531 30.272V4.17527C13.4531 3.68711 13.4531 3.24443 14.0843 3.28688C15.2112 3.37481 17.3757 3.42029 18.4995 3.33236C19.1307 3.28688 19.1307 3.68711 19.1307 4.17527V27.2976C19.1307 28.8955 22.69 30.8936 23.7276 30.8936C24.1341 30.8936 24.3126 30.6723 24.3126 30.272V4.17527C24.3126 3.68711 24.3126 3.24443 24.9438 3.28688C26.0707 3.37481 28.2353 3.42029 29.3622 3.33236C29.9934 3.28688 29.9934 3.68711 29.9934 4.17527V29.3836C29.9934 29.8718 29.7686 30.272 29.4515 30.4479H29.4546Z" fill="white"/>
<path d="M67.0825 25.2567H70.9127C71.0913 25.2567 71.1837 25.1688 71.1837 24.9899V19.0441C71.1837 17.9343 68.1632 15.627 67.3965 15.627C67.0363 15.627 66.8115 15.8938 66.8115 16.3819V24.9929C66.8115 25.1263 66.9008 25.2597 67.0825 25.2597V25.2567Z" fill="white"/>
<path d="M86.7796 23.5705L88.4484 22.9035C89.8463 22.3698 90.9732 20.8174 90.9732 18.9527C90.9732 16.6454 87.7741 14.9141 86.872 14.9141C86.4656 14.9141 86.3301 15.1809 86.3301 15.8449V23.1248C86.3301 23.4796 86.5117 23.6585 86.7796 23.5675V23.5705Z" fill="white"/>
<path d="M105.66 30.4927H109.355C109.669 30.4927 109.897 30.2259 109.897 29.7377V19.0861C109.897 16.7788 106.605 14.9141 105.706 14.9141C105.3 14.9141 105.164 15.1809 105.164 15.8449V28.1398C105.164 30.0924 104.354 30.4927 105.66 30.4927Z" fill="white"/>
<path d="M132.24 20.7871C132.621 20.6507 133.043 20.4839 133.53 20.2747C135.023 19.6441 135.436 18.5829 135.55 18.0068C135.725 17.1032 135.429 16.1693 134.758 15.5053C134.124 14.8807 133.407 14.0257 132.711 13.201C130.636 10.7359 128.677 8.4043 126.146 8.4043C124.142 8.4043 121.426 10.4024 119.985 11.594C118.532 12.7947 117.587 13.8195 116.971 14.6746C115.157 11.1847 110.736 8.49526 108.753 8.49526C107.3 8.49526 106.127 8.92278 105.237 9.417C103.667 7.9313 102.124 8.53164 101.527 8.8682C101.213 9.04103 100.923 9.20475 100.652 9.35636C99.6671 9.91425 99.0728 10.2508 98.2199 10.5116C97.3209 10.7784 96.625 11.3484 96.2556 12.0913C94.0787 9.92941 91.0675 8.49526 89.1924 8.49526C88.0531 8.49526 87.0894 8.88336 86.3227 9.34726C84.7802 7.94949 83.2715 8.53771 82.6649 8.87729L82.5571 8.94097C81.2301 9.77175 80.525 10.1174 79.315 10.5298C78.1942 10.8845 77.3968 11.7123 77.1782 12.7613C77.1443 12.922 77.132 13.0827 77.1258 13.2434C76.5593 12.6219 75.8696 11.9882 75.0537 11.3363C73.6804 10.2417 71.0633 8.4043 68.9542 8.4043C67.0298 8.4043 64.6098 10.1629 62.9194 11.6364C61.9988 12.4399 61.2413 13.2131 60.644 13.9529C60.7672 13.583 60.8903 13.2131 61.0043 12.8493C61.2998 11.9154 61.1059 10.9027 60.487 10.1265C59.8219 9.29268 58.7474 8.85304 57.6081 8.94703H57.5681C57.0539 8.98342 53.7748 9.02587 53.0943 9.02587C51.9921 9.02587 50.7543 9.00464 49.5597 8.98038C48.3404 8.95916 47.078 8.9349 45.9295 8.9349C44.5871 8.9349 43.4387 9.7293 42.983 10.9694C42.8413 10.557 42.5981 10.1235 42.1793 9.74143C41.5451 9.15927 40.686 8.8773 39.7285 8.944C38.7309 9.02283 37.1483 9.06528 36.1568 8.98645C34.9468 8.90155 34.1647 9.37152 33.7152 9.78387C32.7207 10.6965 32.7207 11.8911 32.7207 12.4036V33.4398C32.7207 33.9492 32.7207 35.1469 33.7152 36.0595C34.1617 36.4688 34.9499 36.9418 36.1784 36.8539C37.1483 36.7781 38.7309 36.8206 39.75 36.8994C39.8393 36.9055 39.9255 36.9085 40.0117 36.9085C40.8431 36.9085 41.6066 36.6265 42.1793 36.0989C42.2224 36.0595 42.2625 36.0171 42.3025 35.9777C42.8967 36.5507 43.7096 36.866 44.5964 36.866C44.698 36.866 44.8026 36.863 44.9073 36.8539C45.6545 36.7993 47.3028 36.772 49.8522 36.772C50.9668 36.772 52.5155 36.7993 53.8826 36.8266C54.8955 36.8448 55.77 36.863 56.2534 36.863C57.5927 36.863 58.735 36.0716 59.1969 34.8406C59.3385 35.25 59.5787 35.6775 59.9944 36.0595C60.4408 36.4688 61.229 36.9418 62.4575 36.8539C63.4274 36.7781 65.01 36.8206 66.0292 36.8994C66.9621 36.9631 67.8242 36.6811 68.4585 36.0989C68.7079 35.8685 68.8988 35.6199 69.0404 35.3682C69.179 35.6047 69.3576 35.8382 69.5977 36.0565C70.0442 36.4658 70.8293 36.9388 72.0609 36.8509C73.0308 36.7751 74.6134 36.8175 75.6325 36.8964C75.7218 36.9024 75.808 36.9055 75.8942 36.9055C76.7255 36.9055 77.4861 36.6235 78.0618 36.0959C78.419 35.7684 78.6499 35.4016 78.7977 35.0438C78.9455 35.3864 79.1672 35.7381 79.512 36.0535C79.9585 36.4628 80.7467 36.9358 81.9752 36.8478C82.9451 36.772 84.5277 36.8145 85.5468 36.8933C86.4798 36.957 87.3419 36.675 87.9762 36.0929C88.9738 35.1772 88.983 33.9704 88.983 33.4459C89.4079 34.2312 89.8759 35.0377 90.4086 35.8655C91.0798 36.9206 92.1297 37.4997 93.2228 37.4997C93.7 37.4997 94.1895 37.3876 94.6576 37.1602L94.6884 37.145C95.8892 36.5356 96.7975 36.0201 97.8012 35.2651C98.3554 36.2051 99.3807 36.8115 100.606 36.8115H107.817C109.742 36.8115 112.162 35.0529 113.852 33.5763C114.822 32.7303 115.61 31.9208 116.223 31.1446C116.925 32.1967 118.015 33.3004 119.502 34.4556C120.937 35.5683 123.655 37.433 125.752 37.433C127.677 37.433 130.097 35.6745 131.787 34.1978C134.395 31.9238 135.716 29.8893 135.716 28.152C135.716 24.9289 134.558 22.4639 132.255 20.7841L132.24 20.7871ZM46.3606 21.9272C45.2614 24.1072 44.1376 26.3327 43.18 28.5431V17.8976C43.5772 18.0765 44.0175 18.1766 44.4824 18.1766H44.6087C45.1998 18.1462 45.9603 18.1008 46.7824 18.0522C47.272 18.0219 47.7985 17.9916 48.3281 17.9613C47.7154 19.2469 47.0472 20.5688 46.3637 21.9272H46.3606ZM39.907 34.5314C38.7801 34.4434 37.0682 34.398 35.9413 34.4859C35.3101 34.5314 35.3101 34.1311 35.3101 33.643V12.6067C35.3101 12.1185 35.3101 11.7183 35.9413 11.7638C37.0682 11.8517 38.7801 11.8093 39.907 11.7183C40.5382 11.6728 40.5383 12.1185 40.5383 12.6067V33.643C40.5383 34.1311 40.5382 34.5738 39.907 34.5314ZM57.9807 31.0263C57.3957 32.0481 57.1247 32.9335 56.7183 34.1342C56.629 34.401 56.4474 34.4889 56.2226 34.4889C55.1419 34.4889 51.8073 34.401 49.8214 34.401C45.9449 34.401 45.9018 34.401 44.6826 34.4889C44.1407 34.5344 43.9159 34.2676 44.0052 33.9128C45.7633 28.0974 49.8645 21.6179 52.2076 15.8055C52.2969 15.5842 52.2076 15.4508 51.9366 15.4508C49.9538 15.4508 46.3483 15.7176 44.4547 15.8055C44.1376 15.8055 43.9128 15.5842 44.1376 15.1839C44.7226 14.1621 44.9935 13.2768 45.4 12.0761C45.4893 11.8093 45.6709 11.7213 45.8957 11.7213C48.1495 11.7213 50.8097 11.8093 53.0605 11.8093C53.6024 11.8093 57.3864 11.7638 57.7929 11.7213C58.3348 11.6759 58.5595 12.0306 58.4703 12.2974C56.7122 18.1129 52.9712 24.6348 50.6281 30.4048C50.5388 30.6261 50.6281 30.7595 50.899 30.7595C52.8819 30.7595 55.7207 30.4927 57.6605 30.4048C57.9745 30.4048 58.2024 30.6261 57.9745 31.0263H57.9807ZM58.0392 14.0833C58.0392 14.0833 58.0115 14.0833 57.9961 14.0863C58.0115 14.0863 58.0269 14.0863 58.0392 14.0833ZM57.6882 27.6214H57.5681C56.8446 27.6577 56.0225 27.7123 55.1542 27.7699C54.954 27.7821 54.7508 27.7972 54.5476 27.8093C55.0649 26.6845 55.613 25.5292 56.1795 24.3407C57.1401 22.3214 58.1131 20.2687 58.9906 18.2281V27.8973C58.5934 27.7184 58.1531 27.6183 57.6882 27.6183V27.6214ZM75.7803 34.5314C74.6534 34.4434 72.9415 34.398 71.8146 34.4859C71.1834 34.5314 71.1834 34.1311 71.1834 33.643V28.628C71.1834 28.4491 71.0941 28.3612 70.9124 28.3612H67.0822C66.9005 28.3612 66.8112 28.4491 66.8112 28.628V33.643C66.8112 34.1311 66.8112 34.5738 66.18 34.5314C65.0531 34.4434 63.3412 34.398 62.2143 34.4859C61.5831 34.5314 61.5831 34.1311 61.5831 33.643V17.8885C61.5831 15.848 67.2607 11.1877 68.9296 11.1877C70.8231 11.1877 76.4115 15.4053 76.4115 17.4004V33.643C76.4115 34.1311 76.4115 34.5738 75.7803 34.5314ZM117.765 25.3837V24.4135C117.975 24.6712 118.193 24.9107 118.424 25.1321C118.236 25.2079 118.024 25.2897 117.765 25.3837ZM96.2432 25.6809C96.0369 25.2928 95.8368 24.941 95.649 24.6318C96.2278 24.0314 96.819 23.3219 97.3394 22.5215V27.5304C96.859 26.7875 96.4988 26.1629 96.2432 25.6839V25.6809ZM96.6928 33.0214C95.6552 33.8643 94.8454 34.3525 93.4475 35.062C93.0873 35.2409 92.8163 35.062 92.5916 34.7072C90.8797 32.0451 89.842 29.5588 88.8044 27.4273C88.3549 26.4965 87.7668 26.0962 87.2711 26.3176L86.6399 26.5844C86.3258 26.7178 86.3258 26.8057 86.3258 27.2514V33.643C86.3258 34.1311 86.3258 34.5738 85.6946 34.5314C84.5677 34.4434 82.8558 34.398 81.7289 34.4859C81.0977 34.5314 81.0977 34.1311 81.0977 33.643V16.7788C81.0977 15.4022 80.8268 14.5593 79.8815 13.8044C79.6106 13.583 79.6567 13.3162 80.1063 13.1828C81.5472 12.6946 82.4494 12.252 83.9365 11.3181C84.2506 11.1392 84.3861 11.2726 84.7032 11.6274C85.3344 12.3369 85.6484 13.0918 85.9194 13.0918C86.2796 13.0918 87.4958 11.2726 89.1647 11.2726C91.1475 11.2726 96.2864 14.6018 96.2864 17.7521C96.2864 20.3263 94.3928 22.6337 92.4992 24.1891C92.2282 24.4104 92.3206 24.5893 92.5454 24.8986C92.7701 25.2079 93.312 25.9628 93.8971 27.0726C94.3466 27.9155 95.338 29.6468 97.053 31.8207C97.5025 32.3968 97.1423 32.6636 96.6928 33.0184V33.0214ZM107.777 34.4434H100.566C100.16 34.4434 99.9349 34.2221 99.9349 33.8219V16.7788C99.9349 15.4022 99.664 14.5593 98.7187 13.8044C98.4478 13.583 98.494 13.3162 98.9435 13.1828C100.384 12.7401 101.244 12.161 102.774 11.3181C103.088 11.1392 103.223 11.2726 103.54 11.6274C104.172 12.3369 104.486 13.0918 104.757 13.0918C105.117 13.0918 106.333 11.2726 108.722 11.2726C109.985 11.2726 115.124 14.7352 115.124 17.8855V27.7396C115.124 29.7802 109.446 34.4404 107.777 34.4404V34.4434ZM125.715 35.065C123.822 35.065 117.873 30.714 117.873 28.719C117.873 28.4097 117.919 28.2763 118.28 28.1429C120.038 27.5213 120.216 27.3454 121.796 26.5905C122.156 26.4116 122.291 26.7239 122.473 26.9907C123.104 27.8791 125.176 31.0294 127.747 31.0294C128.108 31.0294 128.514 30.7625 128.514 30.2744C128.514 25.7021 126.306 26.3236 123.104 25.126C120.536 24.1497 118.418 22.9065 118.418 17.8915C118.418 15.851 124.459 11.1907 126.125 11.1907C128.018 11.1907 130.586 15.2749 132.886 17.5368C133.111 17.7581 132.797 17.9795 132.48 18.1129C131.039 18.7345 130.315 18.9103 129.281 19.1347C128.335 19.356 127.658 18.692 126.984 17.937C125.136 15.8965 124.641 15.1839 123.874 15.1839C123.514 15.1839 123.107 15.4932 123.107 15.9814C123.107 19.9746 124.548 20.7295 127.929 21.7513C130.497 22.5488 133.068 24.1042 133.068 28.3642C133.068 30.4048 127.39 35.065 125.721 35.065H125.715Z" fill="white"/>
<path d="M29.1774 0.555016C28.226 0.630817 26.2124 0.5914 25.1563 0.509535C24.2234 0.44283 23.3612 0.727842 22.727 1.30999C22.0188 1.95885 21.8094 2.75324 21.7478 3.34752C21.6832 2.76537 21.4738 1.98917 20.7811 1.35244C20.3346 0.943117 19.5464 0.470119 18.3179 0.558048C17.3665 0.633849 15.3528 0.594432 14.2967 0.512567C13.3638 0.448894 12.5017 0.730874 11.8674 1.31303C11.1592 1.96188 10.9499 2.75628 10.8883 3.35055C10.8236 2.7684 10.6142 1.9922 9.92147 1.35547C9.47501 0.946149 8.68679 0.473151 7.45828 0.56108C6.50687 0.636881 4.49322 0.597464 3.43712 0.515599C2.50419 0.448894 1.64208 0.733906 1.00781 1.31606C0.000982582 2.2378 0.000976562 3.45668 0.000976562 3.97516V28.7408C0.000976562 30.6419 1.38345 32.5824 4.23151 34.6745C5.32763 35.4811 8.07715 37.3549 9.92147 37.3549C11.2393 37.3549 12.7141 36.6241 15.516 34.9838C16.96 35.9844 19.2292 37.3549 20.7841 37.3549C21.7725 37.3549 22.8932 37.0517 30.135 32.8584C30.4429 32.6795 30.6584 32.5551 30.7354 32.5127L30.7785 32.4884C31.927 31.8426 32.6382 30.5783 32.6382 29.1835V3.96909C32.6382 3.45971 32.6382 2.26205 31.6437 1.35244C31.1973 0.943117 30.4121 0.470119 29.1805 0.558048L29.1774 0.555016ZM29.4546 30.4479C28.9588 30.7147 21.794 34.9747 20.7564 34.9747C20.1252 34.9747 18.2778 33.9984 16.609 32.8007C16.1595 32.446 15.8424 32.1792 15.6176 32.1792C15.2573 32.1792 11.1561 34.9747 9.89376 34.9747C8.63137 34.9747 2.59349 31.2029 2.59349 28.9379V4.17527C2.59349 3.68711 2.59348 3.24443 3.22467 3.28688C4.35158 3.37481 6.51611 3.42029 7.63994 3.33236C8.27113 3.28688 8.27114 3.68711 8.27114 4.17527V27.2976C8.27114 28.8955 11.8304 30.8936 12.8681 30.8936C13.2745 30.8936 13.4531 30.6723 13.4531 30.272V4.17527C13.4531 3.68711 13.4531 3.24443 14.0843 3.28688C15.2112 3.37481 17.3757 3.42029 18.4995 3.33236C19.1307 3.28688 19.1307 3.68711 19.1307 4.17527V27.2976C19.1307 28.8955 22.69 30.8936 23.7276 30.8936C24.1341 30.8936 24.3126 30.6723 24.3126 30.272V4.17527C24.3126 3.68711 24.3126 3.24443 24.9438 3.28688C26.0707 3.37481 28.2353 3.42029 29.3622 3.33236C29.9934 3.28688 29.9934 3.68711 29.9934 4.17527V29.3836C29.9934 29.8718 29.7686 30.272 29.4515 30.4479H29.4546Z" fill="white"/>
<path d="M132.24 20.7871C132.621 20.6507 133.043 20.4839 133.53 20.2747C135.023 19.6441 135.436 18.5829 135.55 18.0068C135.725 17.1032 135.429 16.1693 134.758 15.5053C134.124 14.8807 133.407 14.0257 132.711 13.201C130.636 10.7359 128.677 8.4043 126.146 8.4043C124.142 8.4043 121.426 10.4024 119.985 11.594C118.532 12.7947 117.587 13.8195 116.971 14.6746C115.157 11.1847 110.736 8.49526 108.753 8.49526C107.3 8.49526 106.127 8.92278 105.237 9.417C103.667 7.9313 102.124 8.53164 101.527 8.8682C101.213 9.04103 100.923 9.20475 100.652 9.35636C99.6671 9.91425 99.0728 10.2508 98.2199 10.5116C97.3209 10.7784 96.625 11.3484 96.2556 12.0913C94.0787 9.92941 91.0675 8.49526 89.1924 8.49526C88.0531 8.49526 87.0894 8.88336 86.3227 9.34726C84.7802 7.94949 83.2715 8.53771 82.6649 8.87729L82.5571 8.94097C81.2301 9.77175 80.525 10.1174 79.315 10.5298C78.1942 10.8845 77.3968 11.7123 77.1782 12.7613C77.1443 12.922 77.132 13.0827 77.1258 13.2434C76.5593 12.6219 75.8696 11.9882 75.0537 11.3363C73.6804 10.2417 71.0633 8.4043 68.9542 8.4043C67.0298 8.4043 64.6098 10.1629 62.9194 11.6364C61.9988 12.4399 61.2413 13.2131 60.644 13.9529C60.7672 13.583 60.8903 13.2131 61.0043 12.8493C61.2998 11.9154 61.1059 10.9027 60.487 10.1265C59.8219 9.29268 58.7474 8.85304 57.6081 8.94703H57.5681C57.0539 8.98342 53.7748 9.02587 53.0943 9.02587C51.9921 9.02587 50.7543 9.00464 49.5597 8.98038C48.3404 8.95916 47.078 8.9349 45.9295 8.9349C44.5871 8.9349 43.4387 9.7293 42.983 10.9694C42.8413 10.557 42.5981 10.1235 42.1793 9.74143C41.5451 9.15927 40.686 8.8773 39.7285 8.944C38.7309 9.02283 37.1483 9.06528 36.1568 8.98645C34.9468 8.90155 34.1647 9.37152 33.7152 9.78387C32.7207 10.6965 32.7207 11.8911 32.7207 12.4036V33.4398C32.7207 33.9492 32.7207 35.1469 33.7152 36.0595C34.1617 36.4688 34.9499 36.9418 36.1784 36.8539C37.1483 36.7781 38.7309 36.8206 39.75 36.8994C39.8393 36.9055 39.9255 36.9085 40.0117 36.9085C40.8431 36.9085 41.6066 36.6265 42.1793 36.0989C42.2224 36.0595 42.2625 36.0171 42.3025 35.9777C42.8967 36.5507 43.7096 36.866 44.5964 36.866C44.698 36.866 44.8026 36.863 44.9073 36.8539C45.6545 36.7993 47.3028 36.772 49.8522 36.772C50.9668 36.772 52.5155 36.7993 53.8826 36.8266C54.8955 36.8448 55.77 36.863 56.2534 36.863C57.5927 36.863 58.735 36.0716 59.1969 34.8406C59.3385 35.25 59.5787 35.6775 59.9944 36.0595C60.4408 36.4688 61.229 36.9418 62.4575 36.8539C63.4274 36.7781 65.01 36.8206 66.0292 36.8994C66.9621 36.9631 67.8242 36.6811 68.4585 36.0989C68.7079 35.8685 68.8988 35.6199 69.0404 35.3682C69.179 35.6047 69.3576 35.8382 69.5977 36.0565C70.0442 36.4658 70.8293 36.9388 72.0609 36.8509C73.0308 36.7751 74.6134 36.8175 75.6325 36.8964C75.7218 36.9024 75.808 36.9055 75.8942 36.9055C76.7255 36.9055 77.4861 36.6235 78.0618 36.0959C78.419 35.7684 78.6499 35.4016 78.7977 35.0438C78.9455 35.3864 79.1672 35.7381 79.512 36.0535C79.9585 36.4628 80.7467 36.9358 81.9752 36.8478C82.9451 36.772 84.5277 36.8145 85.5468 36.8933C86.4798 36.957 87.3419 36.675 87.9762 36.0929C88.9738 35.1772 88.983 33.9704 88.983 33.4459C89.4079 34.2312 89.8759 35.0377 90.4086 35.8655C91.0798 36.9206 92.1297 37.4997 93.2228 37.4997C93.7 37.4997 94.1895 37.3876 94.6576 37.1602L94.6884 37.145C95.8892 36.5356 96.7975 36.0201 97.8012 35.2651C98.3554 36.2051 99.3807 36.8115 100.606 36.8115H107.817C109.742 36.8115 112.162 35.0529 113.852 33.5763C114.822 32.7303 115.61 31.9208 116.223 31.1446C116.925 32.1967 118.015 33.3004 119.502 34.4556C120.937 35.5683 123.655 37.433 125.752 37.433C127.677 37.433 130.097 35.6745 131.787 34.1978C134.395 31.9238 135.716 29.8893 135.716 28.152C135.716 24.9289 134.558 22.4639 132.255 20.7841L132.24 20.7871ZM46.3606 21.9272C45.2614 24.1072 44.1376 26.3327 43.18 28.5431V17.8976C43.5772 18.0765 44.0175 18.1766 44.4824 18.1766H44.6087C45.1998 18.1462 45.9603 18.1008 46.7824 18.0522C47.272 18.0219 47.7985 17.9916 48.3281 17.9613C47.7154 19.2469 47.0472 20.5688 46.3637 21.9272H46.3606ZM39.907 34.5314C38.7801 34.4434 37.0682 34.398 35.9413 34.4859C35.3101 34.5314 35.3101 34.1311 35.3101 33.643V12.6067C35.3101 12.1185 35.3101 11.7183 35.9413 11.7638C37.0682 11.8517 38.7801 11.8093 39.907 11.7183C40.5382 11.6728 40.5383 12.1185 40.5383 12.6067V33.643C40.5383 34.1311 40.5382 34.5738 39.907 34.5314ZM57.9807 31.0263C57.3957 32.0481 57.1247 32.9335 56.7183 34.1342C56.629 34.401 56.4474 34.4889 56.2226 34.4889C55.1419 34.4889 51.8073 34.401 49.8214 34.401C45.9449 34.401 45.9018 34.401 44.6826 34.4889C44.1407 34.5344 43.9159 34.2676 44.0052 33.9128C45.7633 28.0974 49.8645 21.6179 52.2076 15.8055C52.2969 15.5842 52.2076 15.4508 51.9366 15.4508C49.9538 15.4508 46.3483 15.7176 44.4547 15.8055C44.1376 15.8055 43.9128 15.5842 44.1376 15.1839C44.7226 14.1621 44.9935 13.2768 45.4 12.0761C45.4893 11.8093 45.6709 11.7213 45.8957 11.7213C48.1495 11.7213 50.8097 11.8093 53.0605 11.8093C53.6024 11.8093 57.3864 11.7638 57.7929 11.7213C58.3348 11.6759 58.5595 12.0306 58.4703 12.2974C56.7122 18.1129 52.9712 24.6348 50.6281 30.4048C50.5388 30.6261 50.6281 30.7595 50.899 30.7595C52.8819 30.7595 55.7207 30.4927 57.6605 30.4048C57.9745 30.4048 58.2024 30.6261 57.9745 31.0263H57.9807ZM58.0392 14.0833C58.0392 14.0833 58.0115 14.0833 57.9961 14.0863C58.0115 14.0863 58.0269 14.0863 58.0392 14.0833ZM57.6882 27.6214H57.5681C56.8446 27.6577 56.0225 27.7123 55.1542 27.7699C54.954 27.7821 54.7508 27.7972 54.5476 27.8093C55.0649 26.6845 55.613 25.5292 56.1795 24.3407C57.1401 22.3214 58.1131 20.2687 58.9906 18.2281V27.8973C58.5934 27.7184 58.1531 27.6183 57.6882 27.6183V27.6214ZM75.7803 34.5314C74.6534 34.4434 72.9415 34.398 71.8146 34.4859C71.1834 34.5314 71.1834 34.1311 71.1834 33.643V28.628C71.1834 28.4491 71.0941 28.3612 70.9124 28.3612H67.0822C66.9005 28.3612 66.8112 28.4491 66.8112 28.628V33.643C66.8112 34.1311 66.8112 34.5738 66.18 34.5314C65.0531 34.4434 63.3412 34.398 62.2143 34.4859C61.5831 34.5314 61.5831 34.1311 61.5831 33.643V17.8885C61.5831 15.848 67.2607 11.1877 68.9296 11.1877C70.8231 11.1877 76.4115 15.4053 76.4115 17.4004V33.643C76.4115 34.1311 76.4115 34.5738 75.7803 34.5314ZM117.765 25.3837V24.4135C117.975 24.6712 118.193 24.9107 118.424 25.1321C118.236 25.2079 118.024 25.2897 117.765 25.3837ZM96.2432 25.6809C96.0369 25.2928 95.8368 24.941 95.649 24.6318C96.2278 24.0314 96.819 23.3219 97.3394 22.5215V27.5304C96.859 26.7875 96.4988 26.1629 96.2432 25.6839V25.6809ZM96.6928 33.0214C95.6552 33.8643 94.8454 34.3525 93.4475 35.062C93.0873 35.2409 92.8163 35.062 92.5916 34.7072C90.8797 32.0451 89.842 29.5588 88.8044 27.4273C88.3549 26.4965 87.7668 26.0962 87.2711 26.3176L86.6399 26.5844C86.3258 26.7178 86.3258 26.8057 86.3258 27.2514V33.643C86.3258 34.1311 86.3258 34.5738 85.6946 34.5314C84.5677 34.4434 82.8558 34.398 81.7289 34.4859C81.0977 34.5314 81.0977 34.1311 81.0977 33.643V16.7788C81.0977 15.4022 80.8268 14.5593 79.8815 13.8044C79.6106 13.583 79.6567 13.3162 80.1063 13.1828C81.5472 12.6946 82.4494 12.252 83.9365 11.3181C84.2506 11.1392 84.3861 11.2726 84.7032 11.6274C85.3344 12.3369 85.6484 13.0918 85.9194 13.0918C86.2796 13.0918 87.4958 11.2726 89.1647 11.2726C91.1475 11.2726 96.2864 14.6018 96.2864 17.7521C96.2864 20.3263 94.3928 22.6337 92.4992 24.1891C92.2282 24.4104 92.3206 24.5893 92.5454 24.8986C92.7701 25.2079 93.312 25.9628 93.8971 27.0726C94.3466 27.9155 95.338 29.6468 97.053 31.8207C97.5025 32.3968 97.1423 32.6636 96.6928 33.0184V33.0214ZM107.777 34.4434H100.566C100.16 34.4434 99.9349 34.2221 99.9349 33.8219V16.7788C99.9349 15.4022 99.664 14.5593 98.7187 13.8044C98.4478 13.583 98.494 13.3162 98.9435 13.1828C100.384 12.7401 101.244 12.161 102.774 11.3181C103.088 11.1392 103.223 11.2726 103.54 11.6274C104.172 12.3369 104.486 13.0918 104.757 13.0918C105.117 13.0918 106.333 11.2726 108.722 11.2726C109.985 11.2726 115.124 14.7352 115.124 17.8855V27.7396C115.124 29.7802 109.446 34.4404 107.777 34.4404V34.4434ZM125.715 35.065C123.822 35.065 117.873 30.714 117.873 28.719C117.873 28.4097 117.919 28.2763 118.28 28.1429C120.038 27.5213 120.216 27.3454 121.796 26.5905C122.156 26.4116 122.291 26.7239 122.473 26.9907C123.104 27.8791 125.176 31.0294 127.747 31.0294C128.108 31.0294 128.514 30.7625 128.514 30.2744C128.514 25.7021 126.306 26.3236 123.104 25.126C120.536 24.1497 118.418 22.9065 118.418 17.8915C118.418 15.851 124.459 11.1907 126.125 11.1907C128.018 11.1907 130.586 15.2749 132.886 17.5368C133.111 17.7581 132.797 17.9795 132.48 18.1129C131.039 18.7345 130.315 18.9103 129.281 19.1347C128.335 19.356 127.658 18.692 126.984 17.937C125.136 15.8965 124.641 15.1839 123.874 15.1839C123.514 15.1839 123.107 15.4932 123.107 15.9814C123.107 19.9746 124.548 20.7295 127.929 21.7513C130.497 22.5488 133.068 24.1042 133.068 28.3642C133.068 30.4048 127.39 35.065 125.721 35.065H125.715Z" fill="white"/>
</svg>
