<svg width="193" height="160" viewBox="0 0 193 160" fill="none" xmlns="http://www.w3.org/2000/svg">
<path d="M192.416 34.8894C192.416 33.4166 191.223 32.2227 189.75 32.2227C188.277 32.2227 187.083 33.4166 187.083 34.8894C187.083 36.3622 188.277 37.5561 189.75 37.5561C191.223 37.5561 192.416 36.3622 192.416 34.8894ZM124.548 34.8894C124.548 33.4166 123.354 32.2227 121.881 32.2227C120.408 32.2227 119.214 33.4166 119.214 34.8894C119.214 36.3622 120.408 37.5561 121.881 37.5561C123.354 37.5561 124.548 36.3622 124.548 34.8894ZM160.88 1.6514L161.258 1.32352L160.933 0.949551L160.556 1.27085L160.88 1.6514ZM190.127 34.5615L161.258 1.32352L160.503 1.97927L189.372 35.2173L190.127 34.5615ZM160.556 1.27085L121.557 34.5089L122.205 35.2699L161.204 2.03194L160.556 1.27085Z" fill="white"/>
<circle cx="10.5037" cy="10.5037" r="10.5037" transform="matrix(1.31134e-07 -1 -1 -1.31134e-07 88.153 48.7837)" fill="white"/>
<circle cx="10.5037" cy="10.5037" r="10.5037" transform="matrix(1.31134e-07 -1 -1 -1.31134e-07 21.2572 115.677)" fill="white"/>
<path d="M77.2596 37.8865L93.1391 132.298L10.3639 104.782" stroke="white"/>
<circle cx="12.4351" cy="12.4351" r="11.9351" transform="matrix(1.31134e-07 -1 -1 -1.31134e-07 134.319 47.323)" stroke="white"/>
</svg>
